<?xml version="1.0" standalone="no"?>
<!DOCTYPE svg PUBLIC "-//W3C//DTD SVG 1.1//EN" "http://www.w3.org/Graphics/SVG/1.1/DTD/svg11.dtd" >
<svg xmlns="http://www.w3.org/2000/svg">
<metadata>
This is a custom SVG webfont generated by Font Squirrel.
Copyright   : Copyright  2010 ParaType Ltd All rights reserved
Designer    : AKorolkova OUmpeleva VYefimov
Foundry     : ParaType Ltd
Foundry URL : httpwwwparatypecom
</metadata>
<defs>
<font id="webfontBOjtpERy" horiz-adv-x="1073" >
<font-face units-per-em="2048" ascent="1593" descent="-455" />
<missing-glyph horiz-adv-x="497" />
<glyph unicode="&#xfb01;" horiz-adv-x="1081" d="M582 1024q43 0 94 2t101 5t96.5 8t78.5 10l37 -25l-172 -909h152v-54q-43 -33 -100.5 -53t-112.5 -20q-59 0 -85 26.5t-26 61.5q0 41 6 80t17 86l131 680h-361l-131 -834q-23 -145 -76 -241.5t-113.5 -156t-117.5 -88t-88 -36.5l-18 45q25 12 59.5 44t68 85t63.5 130 t46 179l133 873h-149v53q41 23 87 40t87 27l14 72q27 127 74 210t108.5 131t137 66.5t159.5 18.5q86 0 162 -26.5t121 -59.5q-4 -45 -36 -101.5t-81 -78.5l-164 184q-49 0 -94 -12t-85 -48t-71.5 -100.5t-54.5 -171.5l-20 -102h123z" />
<glyph unicode="&#xfb02;" horiz-adv-x="1118" d="M686 242l70 347l53 269l39 201q16 84 26 143q23 137 29 182q-31 35 -69.5 55.5t-85.5 20.5q-41 0 -79 -12t-73 -48t-64.5 -101.5t-52.5 -172.5l-20 -102h223q10 -51 -20 -102h-224l-57 -367l-57 -369q-31 -178 -82.5 -291.5t-109.5 -182t-116.5 -100.5t-103.5 -46l-18 45 q25 12 59.5 44t68 85t63.5 130t46 179l133 873h-149v53q41 23 87 40t87 27l14 72q43 199 151.5 312.5t297.5 113.5q37 0 79.5 -7t77.5 -22q41 10 81 18.5t73 10.5l41 -22l-262 -1403h149v-54q-41 -33 -99 -53t-114 -20q-59 0 -86.5 26.5t-27.5 61.5q0 41 6 80t16 86z" />
<glyph unicode=" "  horiz-adv-x="497" />
<glyph unicode="&#x09;" horiz-adv-x="497" />
<glyph unicode="&#xa0;" horiz-adv-x="497" />
<glyph unicode="!" horiz-adv-x="669" d="M299 446l8 361l123 606q49 23 102 23t95 -23l-135 -606l-140 -361h-53zM139 117q0 61 39 98t101 37q63 0 102 -37t39 -98q0 -59 -39 -96t-102 -37q-61 0 -100.5 37t-39.5 96z" />
<glyph unicode="&#x22;" horiz-adv-x="698" d="M428 1372q16 27 41 44.5t60 17.5q63 0 73 -62l-131 -340h-41zM182 1372q16 27 41 44.5t60 17.5q63 0 73 -62l-131 -340h-41z" />
<glyph unicode="#" d="M629 477h-293l-160 -358h-108l161 358h-166l52 94h155l140 308h-158l49 94h150l155 342h107l-154 -342h291l156 342h106l-156 -342h164l-55 -94h-150l-139 -308h158l-57 -94h-142l-162 -358h-106zM379 571h291l139 308h-291z" />
<glyph unicode="$" d="M385 -25q-53 2 -107.5 14.5t-101.5 30t-85 36t-56 34.5q16 68 39.5 129.5t48.5 102.5h53l82 -199q39 -39 150 -41l124 575l-104 71q-51 36 -91 82t-65.5 104.5t-25.5 138.5q0 74 28.5 144.5t85 125.5t141.5 91t197 42l23 100h106l-22 -100q100 -4 172 -22.5t123 -42.5 q-18 -68 -51 -114t-64 -77h-53l-74 139l-34.5 4.5t-39.5 6.5l-110 -527l99 -68q50 -36 90 -85t64.5 -115t24.5 -154q0 -80 -31.5 -151.5t-91 -127.5t-145.5 -94t-192 -48l-25 -123h-107zM436 1112q0 -84 41 -136t103 -93l100 467q-111 -8 -177.5 -70t-66.5 -168zM760 342 q0 86 -40 145.5t-99 106.5l-109 -506q49 8 93 28.5t79 52.5t55.5 75t20.5 98z" />
<glyph unicode="%" horiz-adv-x="1601" d="M1446 1454l71 -63l-1362 -1405l-69 65zM129 1024q0 94 37 174t98 137.5t141 90t166 32.5q141 0 217 -73.5t76 -190.5q0 -106 -40 -187t-102.5 -135.5t-141 -82t-156.5 -27.5q-61 0 -115.5 19.5t-94.5 54t-62.5 83t-22.5 105.5zM299 1022q0 -37 7 -69.5t24.5 -58.5t44 -41 t63.5 -15q45 0 91 22.5t83 69.5t59.5 118.5t22.5 170.5q0 31 -7 59.5t-23.5 52t-43 36.5t-67.5 13q-45 0 -90 -27.5t-82 -74.5t-59.5 -113.5t-22.5 -142.5zM725 240q0 94 37 174t98 137.5t141 90t166 32.5q141 0 217 -73.5t76 -190.5q0 -106 -40 -187t-102.5 -135.5 t-141 -82t-156.5 -27.5q-61 0 -115.5 19.5t-94.5 54t-62.5 83t-22.5 105.5zM895 238q0 -37 7 -69.5t24.5 -58.5t44 -41t63.5 -15q45 0 91 22.5t83 69.5t59.5 118.5t22.5 170.5q0 31 -7 59.5t-23.5 52t-43 36.5t-67.5 13q-45 0 -90 -27.5t-82 -74.5t-59.5 -113.5 t-22.5 -142.5z" />
<glyph unicode="&#x26;" horiz-adv-x="1785" d="M983 252q-51 55 -107.5 130t-108.5 152.5t-94 149.5t-63 119q-109 -86 -180.5 -195.5t-73.5 -259.5q2 -117 76 -191.5t203 -74.5q92 0 180 42t168 128zM649 1155q0 -70 29 -141.5t70 -130.5q43 31 82.5 67.5t72.5 78.5t52.5 89t19.5 101q0 72 -28.5 112.5t-98.5 38.5 q-45 2 -82 -16.5t-62.5 -48t-40 -68.5t-14.5 -82zM1251 0l-95 71q-56 42 -118 117q-37 -39 -88 -76.5t-115.5 -68.5t-140.5 -49.5t-157 -18.5q-100 0 -175 27t-125.5 73t-75 106.5t-24.5 127.5q0 104 51.5 193.5t122 162t143 124t117.5 77.5q-45 66 -61 133.5t-16 139.5 q0 66 30.5 124t81.5 101t119 68.5t141 25.5q260 0 260 -207q0 -70 -33.5 -131t-86 -113.5t-113.5 -96.5l-115 -79q61 -104 148.5 -214.5t185.5 -221.5q20 23 57 76t74 125t68.5 157t44.5 169q-66 12 -111 49l10 53h416l-12 -53q-66 -35 -146 -49q-45 -121 -94 -219.5 t-95 -173t-85 -127t-61 -76.5l128 -117.5t144 -108.5l104 -49l-12 -51h-291z" />
<glyph unicode="'" horiz-adv-x="452" d="M182 1372q16 27 41 44.5t60 17.5q63 0 73 -62l-131 -340h-41z" />
<glyph unicode="(" horiz-adv-x="702" d="M451 -430q-176 152 -251 316.5t-75 353.5q0 229 68.5 415.5t174 334t234.5 259t252 189.5l35 -37q-100 -86 -204.5 -203t-190.5 -259t-140.5 -312t-52.5 -363q-2 -184 43 -345t166 -308z" />
<glyph unicode=")" horiz-adv-x="702" d="M-164 -389q90 74 193.5 188.5t190.5 263t145.5 328.5t58.5 385q0 88 -9 164t-33 149.5t-65 149.5t-104 162l53 37q176 -160 253 -325t77 -357q0 -213 -63.5 -396.5t-166 -333t-230.5 -265t-259 -191.5z" />
<glyph unicode="*" horiz-adv-x="952" d="M297 1262q-6 14 -2 35.5t16.5 43t29.5 38t36 20.5l205 -178q0 -39 -29 -54zM375 909q-16 2 -32.5 17.5t-29 37t-18.5 44t0 39.5l256 88q31 -18 31 -50zM725 797q-10 -14 -30.5 -19.5t-45.5 -5.5t-47 5t-33 18l47 266q33 16 66 0zM993 1047q8 -14 3 -37t-17 -44.5 t-28.5 -38t-35.5 -18.5l-200 172q0 33 26 52zM918 1399q16 -2 32.5 -17.5t28.5 -37t17 -44t-1 -40.5l-254 -97q-29 20 -28 54zM567 1509q8 14 29.5 20.5t46.5 6.5t47.5 -6t32.5 -21l-45 -266q-31 -20 -64 0z" />
<glyph unicode="+" d="M76 758h405v430h109v-430h407v-109h-407v-440h-109v440h-405v109z" />
<glyph unicode="," horiz-adv-x="579" d="M-74 -305q43 14 84 44t75 66.5t55.5 80.5t27.5 87q-20 23 -56 45.5t-65 32.5q-2 39 14.5 76t41 65.5t52 46t50.5 19.5q70 -10 104.5 -49t34.5 -117t-34 -151.5t-88 -135t-124.5 -106.5t-144.5 -66z" />
<glyph unicode="-" horiz-adv-x="870" d="M174 641h578l-27 -129h-580z" />
<glyph unicode="." horiz-adv-x="555" d="M59 117q0 61 39 98t101 37q63 0 102 -37t39 -98q0 -59 -39 -96t-102 -37q-61 0 -100.5 37t-39.5 96z" />
<glyph unicode="/" horiz-adv-x="704" d="M670 1458l86 -37l-748 -1687l-84 39z" />
<glyph unicode="0" d="M39 416q0 121 18.5 245.5t54 240.5t90 217.5t127 177t164 118.5t199.5 43q121 0 196 -44t117 -110.5t56 -142.5t14 -139q0 -182 -41 -367.5t-122 -337t-203.5 -247t-286.5 -95.5q-121 0 -196.5 44t-116.5 111t-55.5 143.5t-14.5 142.5zM236 408q0 -59 9 -121t31.5 -112 t61.5 -83t98 -33q111 0 194 88.5t138 228.5t83 311t28 337q0 61 -9.5 122.5t-32 112t-61.5 82t-98 33.5q-113 -2 -196 -93t-138 -232.5t-81.5 -311t-26.5 -329.5z" />
<glyph unicode="1" d="M774 0h-598l12 59q55 25 111.5 41.5t114.5 28.5l213 1006l39 120q-59 -23 -127 -32t-133 -6v49q100 31 210.5 75.5t210.5 116.5h52l-281 -1329q100 -23 188 -70z" />
<glyph unicode="2" d="M373 1034h-51q-10 59 -17.5 139t-5.5 152q86 59 180 96t211 37q102 0 171 -22.5t111 -62.5t60.5 -92t18.5 -112q0 -119 -71 -244.5t-178.5 -247.5t-234.5 -233.5l-237 -199.5l-103 -80v-8l115 12h352l150 229h51q-2 -49 -8 -103t-15.5 -107.5t-19.5 -101.5l-18 -85h-846 l14 66l148 122l181 163q95 89 189 191.5t169 208t122 212t47 204.5q0 82 -50 133.5t-149 51.5q-86 0 -155 -25z" />
<glyph unicode="3" d="M418 72q84 0 149.5 33.5t109.5 89t66.5 126t20.5 144.5q2 125 -66.5 177t-193.5 52h-123l2 51l434 465l92 72v8l-110 -12h-332l-125 -209h-51q2 88 9 189.5t24 175.5h790l-2 -64l-422 -457l-121 -90v-4l72 15q166 -14 243 -98.5t77 -233.5q0 -104 -34 -200.5 t-105.5 -168.5t-184.5 -115t-272 -43q-47 0 -99.5 7.5t-100.5 21.5t-88 32.5t-65 43.5l94 184h41l27 -37l35 -47l36 -49l29 -43q20 -4 55.5 -10t88.5 -6z" />
<glyph unicode="4" d="M850 0h-531l11 59q53 16 102 28.5t98 21.5l60 286h-625l10 47l973 1016h56l-203 -956h262l-25 -107h-260l-61 -286q35 -8 71.5 -20.5t71.5 -29.5zM725 1028l59 148h-6l-108 -148l-445 -473l-96 -68l150 15h335z" />
<glyph unicode="5" d="M1108 1546h51q-6 -31 -17.5 -68.5t-24.5 -75.5t-28.5 -73t-27.5 -57h-506l-131 -395h100q197 0 304.5 -88.5t107.5 -258.5q0 -123 -41 -225t-115.5 -176t-180 -114t-237.5 -40q-49 0 -97 7.5t-93 21.5t-81 33.5t-60 42.5l96 184h41q10 -14 23 -37l28 -47l29 -49 q14 -25 26 -43q20 -4 45 -10t62 -6q98 0 170 33.5t118 91t68.5 131t22.5 151.5q0 135 -89 192.5t-249 53.5l-146 -2l232 711h489z" />
<glyph unicode="6" d="M1024 541q0 -96 -34 -196.5t-103.5 -182.5t-176 -134.5t-251.5 -52.5q-72 0 -140.5 19.5t-122 67t-85 123t-31.5 190.5q0 166 67.5 337t194.5 321.5t308 266t409 170.5l8 -61q-270 -98 -453.5 -271t-275.5 -433q49 59 140 103t202 44q178 0 261 -86t83 -225zM827 522 q0 109 -50 166t-173 57q-92 0 -170 -47t-125 -108q-6 -16 -12 -44t-10 -56.5t-7.5 -56t-3.5 -42.5q0 -63 9.5 -121.5t34 -102.5t66.5 -70.5t106 -26.5q88 0 151.5 46t104 114.5t60 147t19.5 144.5z" />
<glyph unicode="7" d="M264 1067h-51q4 88 12 190.5t23 176.5h848v-60q-145 -176 -254 -341t-195 -330.5t-155.5 -339t-137.5 -363.5h-204q127 293 294.5 591t395.5 597l82 98l-109 -10h-424z" />
<glyph unicode="8" d="M25 279q0 152 107.5 266t311.5 174q-100 72 -150 149.5t-50 178.5q0 86 31.5 161.5t91 131t145.5 87t195 31.5q174 0 258 -75.5t84 -202.5q0 -61 -26 -121t-73 -113t-114.5 -96t-149.5 -72q57 -39 102.5 -76.5t77 -82t49 -97.5t17.5 -123q0 -78 -33 -154.5t-98.5 -136 t-164.5 -96.5t-230 -37q-180 0 -280.5 83.5t-100.5 220.5zM756 369q0 53 -20.5 96t-55.5 81t-84 72.5t-107 69.5q-90 -47 -146 -100t-88 -106.5t-43 -103.5t-11 -89q0 -98 61.5 -158.5t165.5 -60.5q88 0 150.5 27.5t101.5 70.5t57.5 96.5t18.5 104.5zM420 1081 q0 -41 19.5 -79.5t50 -74.5t70.5 -67t83 -55q123 92 177 184t52 178q2 82 -43 138.5t-153 56.5q-61 0 -109.5 -22.5t-81 -61.5t-49 -90.5t-16.5 -106.5z" />
<glyph unicode="9" d="M125 905q0 96 34 196.5t103.5 182.5t175 134t250.5 52q72 0 140.5 -19t122 -66.5t86 -124t32.5 -189.5q0 -166 -67.5 -337t-195.5 -321.5t-309.5 -266t-408.5 -171.5l-8 60q272 98 454.5 271t274.5 433q-49 -59 -139 -103t-201 -44q-180 0 -262 86t-82 227zM322 924 q0 -109 49 -167.5t172 -58.5q92 0 170 48.5t125 109.5q6 16 12 44t11 56.5t8 55t3 43.5q0 63 -10 121.5t-34.5 102.5t-66.5 69.5t-106 25.5q-88 0 -151.5 -46t-103.5 -113.5t-59 -146t-19 -144.5z" />
<glyph unicode=":" horiz-adv-x="661" d="M258 905q0 61 39 98t101 37q63 0 102 -37t39 -98q0 -59 -39 -96t-102 -37q-61 0 -100.5 37t-39.5 96zM155 117q0 61 39 98t101 37q63 0 102 -37t39 -98q0 -59 -39 -96t-102 -37q-61 0 -100.5 37t-39.5 96z" />
<glyph unicode=";" horiz-adv-x="638" d="M247 905q0 61 39 98t101 37q63 0 102 -37t39 -98q0 -59 -39 -96t-102 -37q-61 0 -100.5 37t-39.5 96zM-6 -305q43 14 84 44t75 66.5t55.5 80.5t27.5 87q-20 23 -56 45.5t-65 32.5q-2 39 14.5 76t41 65.5t52 46t50.5 19.5q70 -10 104.5 -49t34.5 -117t-34 -151.5t-88 -135 t-124.5 -106.5t-144.5 -66z" />
<glyph unicode="&#x3c;" d="M90 664v63l789 481l51 -90l-512 -309l-176 -82l174 -63l542 -320l-81 -133z" />
<glyph unicode="=" d="M27 922h921v-109h-921v109zM27 594h921v-109h-921v109z" />
<glyph unicode="&#x3e;" d="M983 756v-64l-788 -481l-50 90l512 309l174 82l-172 64l-544 319l82 133z" />
<glyph unicode="?" horiz-adv-x="1011" d="M397 1063h-51l-9 65q-5 37 -9 78t-4 83t4 83q88 47 177 66.5t193 19.5q164 0 252 -72.5t88 -201.5q0 -102 -43 -177t-108.5 -135.5t-143 -112.5t-147.5 -108.5t-121 -124t-61 -157.5h-41q-8 106 23.5 186t82.5 144.5t114.5 118.5t118 108.5t91.5 113t39 134.5 q-2 92 -54.5 135t-136.5 43q-66 0 -109.5 -10.5t-64.5 -26.5zM242 117q0 61 38.5 98t100.5 37q63 0 102 -37t39 -98q0 -59 -39 -96t-102 -37q-61 0 -100 37t-39 96z" />
<glyph unicode="@" horiz-adv-x="2062" d="M1341 971q76 35 154 33l-104 -586q-12 -68 -17.5 -123t-0.5 -95t22.5 -61.5t52.5 -21.5q68 0 139.5 38t132 109.5t98 174t37.5 229.5q0 156 -58 282.5t-161.5 215.5t-242 137.5t-295.5 48.5q-188 0 -339 -66.5t-257.5 -182.5t-163.5 -272.5t-57 -334.5q0 -182 59 -322.5 t166.5 -238t256 -147.5t327.5 -50q59 0 134.5 14.5t137.5 42.5l33 -90q-72 -41 -158 -57.5t-190 -16.5q-176 0 -336 53.5t-282 160t-193.5 266t-71.5 372.5q0 223 73.5 403.5t201.5 307.5t300 195.5t369 68.5q184 0 343 -54t275.5 -155.5t181 -248t64.5 -332.5 q0 -133 -45 -252t-124 -209t-181 -143.5t-215 -53.5q-61 0 -104 19.5t-66 63.5t-24 113.5t22 168.5h-8q-23 -66 -63 -130.5t-91 -116.5t-109.5 -85t-117.5 -33q-123 0 -189.5 85t-66.5 227q0 131 44 255.5t118.5 223t173 158t207.5 59.5q74 0 116.5 -12t91.5 -35zM1307 872 q-33 20 -67 30.5t-87 8.5q-78 2 -147.5 -52t-120.5 -138t-81 -183.5t-30 -191.5q0 -98 31 -153.5t117 -55.5q39 0 84 38t89 99.5t86 138t74 154.5z" />
<glyph unicode="A" horiz-adv-x="1380" d="M360 0h-460l12 59q80 33 160 50l809 1349h53l231 -1349q37 -8 75 -19.5t69 -30.5l-11 -59h-520l10 59q92 35 181 50l-62 374h-481l-219 -374q88 -12 164 -50zM485 590h406l-66 434l-4 176h-4l-82 -180z" />
<glyph unicode="B" horiz-adv-x="1239" d="M-41 0l10 59q92 39 181 50l256 1214q-41 8 -80 21.5t-78 29.5l14 60h217q76 0 152 6t190 6q82 0 156 -14.5t129 -45t88 -81t33 -123.5q0 -72 -21.5 -136.5t-66.5 -119t-114 -95t-161 -65.5v-8q47 -4 96.5 -20.5t89.5 -48.5t64.5 -80t24.5 -113q0 -109 -41 -201 t-122 -160.5t-204 -107.5t-287 -39q-72 0 -158.5 6t-170.5 6h-197zM524 94h13q77 0 147 23q76 25 133 72t91 115.5t34 156.5q0 68 -23.5 110.5t-67.5 65t-105.5 31t-137.5 8.5h-155l-119 -565q27 -8 65 -14q28 -4 80 -3q20 -1 45 0zM578 782q35 0 83 3t82 8 q162 57 224.5 154t62.5 212q0 80 -57.5 130t-192.5 50q-66 0 -111.5 -3t-76.5 -7l-117 -547h103z" />
<glyph unicode="C" horiz-adv-x="1300" d="M1141 373h51q0 -57 -11.5 -144.5t-33.5 -169.5q-41 -23 -88 -39t-98.5 -26t-100.5 -14.5t-92 -4.5q-174 0 -295 49.5t-195.5 129t-108.5 178t-34 196.5q0 209 59.5 380t169 293t266 189.5t353.5 67.5q135 0 229.5 -18.5t157.5 -50.5q-6 -33 -17.5 -77t-26.5 -93.5 t-32 -96.5l-30 -86h-54l-43 295q-27 10 -81 15.5t-105 5.5q-135 0 -250 -52.5t-198.5 -155t-131 -256t-47.5 -356.5q0 -127 44 -214t110.5 -140t144.5 -76q71 -21 136 -20h12h19q57 0 99 10q48 12 70 27z" />
<glyph unicode="D" horiz-adv-x="1437" d="M-41 0l10 59q84 35 181 50l256 1214q-45 10 -85 23.5t-73 27.5l14 60h207q35 0 83 2t98 5l98 6q47 3 77 3q164 0 279 -39t185.5 -105.5t102 -157.5t31.5 -196q0 -104 -17 -217.5t-58 -221t-110 -204t-172 -169t-244.5 -115.5t-325.5 -43q-31 0 -73 3t-89 6l-94 6 q-47 3 -86 3h-195zM784 1343q-53 0 -108 -2t-84 -6l-262 -1241q20 -2 50 -3l59 -2q30 -1 54 -2h14q13 0 21 1h10q186 0 313 76q130 78 209 204t111.5 282.5t32.5 314.5q0 80 -18.5 149.5t-65.5 119.5t-128 79.5t-208 29.5z" />
<glyph unicode="E" horiz-adv-x="1171" d="M1231 1434q-16 -82 -39 -166t-53 -166h-54l-34 225h-449l-113 -543h332l113 152h51q-16 -102 -37.5 -205.5t-50.5 -208.5h-51l-47 156h-334l-119 -572h469l154 246h51q-4 -80 -16.5 -171t-34.5 -181h-1010l10 59q84 35 181 50l256 1214q-41 10 -80 22.5t-78 28.5l14 60 h969z" />
<glyph unicode="F" horiz-adv-x="1095" d="M326 109q86 -12 163 -50l-10 -59h-520l10 59q37 16 78 28.5t82 21.5l256 1214q-41 12 -76 24.5t-61 26.5l14 60h961q-18 -80 -41 -164t-54 -168h-53l-35 225h-458l-123 -584h358l111 152h51q-10 -92 -33.5 -206t-52.5 -208h-51l-45 158h-361z" />
<glyph unicode="G" horiz-adv-x="1390" d="M1169 98q-45 -27 -102 -49t-117.5 -38.5t-121 -26t-111.5 -9.5q-272 0 -427 144.5t-155 410.5q0 207 58.5 378t169 293t269.5 189.5t359 67.5q135 0 231.5 -17.5t159.5 -51.5q-6 -31 -17 -76t-27 -94l-31 -98q-16 -48 -31 -85h-53l-43 295q-37 10 -92.5 15.5t-106.5 5.5 q-158 0 -275.5 -64.5t-195.5 -175.5t-117 -259t-39 -318q0 -145 41 -234.5t101.5 -138.5t129.5 -66q61 -15 113 -14h13h11q75 0 140 24q70 27 96 48l91 413q-53 4 -98.5 18.5t-88.5 30.5l15 60h501l-12 -60q-23 -14 -55.5 -26t-83.5 -23z" />
<glyph unicode="H" horiz-adv-x="1472" d="M477 0h-518l10 59q45 20 90 31.5t91 18.5l256 1214q-92 18 -158 51l14 60h518l-12 -60q-35 -18 -80 -30.5t-86 -20.5l-113 -535h644l114 535q-41 10 -76.5 21.5t-68.5 29.5l14 60h518l-12 -60q-41 -20 -87 -31.5t-91 -19.5l-258 -1214q92 -16 155 -50l-10 -59h-518l10 59 q39 16 81 28.5t85 21.5l121 573h-645l-119 -573q37 -8 74 -20.5t67 -29.5z" />
<glyph unicode="I" horiz-adv-x="702" d="M522 0h-524l10 59q90 37 176 50l256 1214q-41 8 -77.5 21.5t-75.5 29.5l14 60h524l-12 -60q-41 -16 -88 -29.5t-88 -21.5l-256 -1214q41 -8 81 -20.5t70 -29.5z" />
<glyph unicode="J" horiz-adv-x="677" d="M279 1434h522l-10 -60q-41 -18 -88.5 -30.5t-88.5 -20.5l-241 -1147q-31 -141 -83 -233.5t-112.5 -148.5t-121 -83.5t-107.5 -38.5l-15 31q41 33 75 66.5t62.5 84t53.5 122t47 178.5l246 1169q-88 20 -152 51z" />
<glyph unicode="K" horiz-adv-x="1304" d="M975 1434h465l-15 -60q-37 -18 -82 -30.5t-83 -20.5l-531 -553l85 -149l102 -170l113 -179l116 -172l88 -49l-10 -51h-248l-60 49q-92 141 -178 305t-162 332h-108l-121 -577q84 -16 141 -50l-10 -59h-518l10 59q92 37 181 50l256 1214q-45 8 -85 20.5t-73 30.5l14 60 h518l-12 -60q-70 -33 -166 -51l-119 -567l123 28l492 539q-41 10 -74 21.5t-63 29.5z" />
<glyph unicode="L" horiz-adv-x="1101" d="M262 1434h561l-14 -60q-51 -18 -103.5 -31.5t-103.5 -19.5l-256 -1217h469l191 330h53q-4 -43 -10.5 -99t-15.5 -116.5t-20.5 -118t-23.5 -102.5h-1030l10 59q55 23 98.5 33t82.5 17l256 1214q-96 18 -158 51z" />
<glyph unicode="M" horiz-adv-x="1755" d="M1612 0h-508l10 59q45 16 88 27.5t90 22.5l193 921l61 240h-16l-111 -219l-647 -1051h-53l-178 1051l-23 239h-18l-54 -260l-194 -921q37 -8 73.5 -20.5t71.5 -29.5l-12 -59h-426l10 59q82 35 178 52l256 1212q-41 8 -81.5 21.5t-75.5 29.5l12 60h426l145 -936l25 -211h2 l107 215l577 932h377l-14 -60q-80 -35 -166 -51l-258 -1217q41 -8 77.5 -19t65.5 -28z" />
<glyph unicode="N" horiz-adv-x="1480" d="M1204 1434h436l-12 -60q-41 -29 -90 -49t-94 -33l-281 -1317h-110l-514 1129l-43 160h-7l-20 -160l-205 -973q37 -10 74 -28.5t68 -43.5l-13 -59h-434l10 59q88 53 185 72l249 1174q-39 16 -74.5 34.5t-64.5 36.5l10 58h340l441 -973l61 -176h8l33 176l176 831 q-82 35 -141 82z" />
<glyph unicode="O" horiz-adv-x="1495" d="M135 569q0 186 56.5 348t163 282t256 189.5t337.5 69.5q150 0 252.5 -49t164.5 -129t90 -183.5t28 -213.5q0 -164 -46 -327t-142.5 -292t-243 -209t-346.5 -80q-147 0 -255 48.5t-177.5 129t-103.5 188t-34 228.5zM354 567q0 -113 30 -203t82 -153.5t123 -96.5 q67 -32 145 -32h9h8q144 0 241 73q99 75 159.5 192.5t86.5 260t26 277.5q0 104 -23.5 190t-71 147.5t-116 95.5t-158.5 34q-141 0 -243.5 -74t-169 -188.5t-97.5 -254t-31 -268.5z" />
<glyph unicode="P" horiz-adv-x="1198" d="M346 109q53 -6 99.5 -19.5t84.5 -30.5l-10 -59h-561l10 59q47 20 91 30.5t90 19.5l256 1214q-45 8 -84 21.5t-74 29.5l14 60h184q82 0 179.5 8t185.5 8q98 0 181 -19.5t141.5 -61.5t91 -104.5t32.5 -148.5q0 -121 -44 -223t-126.5 -178t-199.5 -119t-260 -43h-34 q-24 0 -51.5 1t-55 3t-46.5 4zM758 1343q-49 0 -87 -3t-67 -7l-139 -663q10 -2 29.5 -4t41 -3t41 -2.5t31.5 -1.5q213 0 321.5 122t108.5 333q0 51 -11 93t-43 73t-86 47t-140 16z" />
<glyph unicode="Q" horiz-adv-x="1536" d="M1520 -236q-98 -74 -195 -125q-93 -50 -189 -51h-8q-84 0 -169 31t-180 74l-204 90q-109 47 -237 82l72 41q48 6 94 6t91 -6q89 -12 174 -37l171 -52.5t176 -44.5q81 -16 168 -16h21q98 2 211 37zM135 569q0 186 56.5 348t163 282t256 189.5t337.5 69.5q150 0 252.5 -49 t164.5 -129t90 -183.5t28 -213.5q0 -164 -46 -327t-142.5 -292t-243 -209t-346.5 -80q-147 0 -255 48.5t-177.5 129t-103.5 188t-34 228.5zM354 567q0 -113 30 -203t82 -153.5t123 -96.5q67 -32 145 -32h9h8q144 0 241 73q99 75 159.5 192.5t86.5 260t26 277.5 q0 104 -23.5 190t-71 147.5t-116 95.5t-158.5 34q-141 0 -243.5 -74t-169 -188.5t-97.5 -254t-31 -268.5z" />
<glyph unicode="R" horiz-adv-x="1284" d="M346 109q90 -16 162 -50l-10 -59h-539l10 59q49 20 93 30.5t88 19.5l256 1214q-49 12 -89.5 24.5t-68.5 26.5l14 60h180q82 0 181.5 8t189.5 8q203 0 302 -87t99 -247q0 -80 -27.5 -153.5t-77.5 -133t-123 -103.5t-165 -67q59 -139 130 -276l147 -272l96 -60l-10 -51 h-234l-69 57q-43 72 -77 141.5t-61.5 139.5t-49 143.5t-40.5 153.5h-196zM745 1343q-47 0 -80.5 -3t-62.5 -7l-127 -610h146h11q101 0 172 33q75 35 121 93t67.5 132t21.5 158q0 105 -63 154q-65 50 -206 50z" />
<glyph unicode="S" horiz-adv-x="1079" d="M248 141q23 -18 76 -40q49 -20 102 -19h10h19q57 0 112 10q63 12 114.5 43t82.5 81t31 126q0 84 -40 141.5t-99.5 101.5t-128 84t-128 89t-99.5 115.5t-40 164.5q0 94 34 171t100.5 132.5t162.5 86t219 30.5q125 0 223.5 -19.5t153.5 -47.5q-8 -35 -24 -81l-31 -96 q-16 -49 -35 -95l-33 -81h-53l-25 281q-35 16 -89 24.5t-118 8.5q-61 0 -115.5 -14.5t-94 -44t-62 -74.5t-22.5 -107q0 -82 39.5 -136t99 -97t128 -83t128 -91.5t99.5 -124t40 -179.5q0 -96 -38 -173.5t-108.5 -134t-174 -87.5t-234.5 -31q-66 0 -126 8.5t-110.5 22.5 t-89 31.5t-59.5 34.5q8 37 23.5 87t33.5 101l37 99q18 48 35 83h53z" />
<glyph unicode="T" horiz-adv-x="1249" d="M821 0h-575l10 59q49 18 97 29.5t106 20.5l258 1218h-314l-170 -293h-53q2 41 9.5 93.5l15.5 106.5t17 106.5t20 93.5h1188q-8 -41 -20.5 -92.5t-27 -105.5l-30 -106.5t-29.5 -95.5h-53l-43 293h-314l-258 -1218q49 -10 93.5 -20.5t82.5 -29.5z" />
<glyph unicode="U" horiz-adv-x="1363" d="M229 1434h521l-13 -60q-80 -35 -166 -51l-174 -813q-15 -75 -15 -134q0 -27 3 -51q10 -77 49 -126t102.5 -72t147.5 -23q166 0 265.5 92.5t140.5 290.5l174 818q-90 31 -148 69l12 60h439l-15 -60q-35 -23 -82 -41t-92 -28l-174 -822q-57 -268 -201.5 -384.5 t-371.5 -116.5q-135 0 -228.5 38.5t-146.5 107.5t-68 164q-5 35 -5 72q0 64 16 134l176 825q-41 8 -84 21.5t-74 29.5z" />
<glyph unicode="V" horiz-adv-x="1380" d="M1298 1323q-47 10 -88 22.5t-77 28.5l14 60h455l-13 -60q-35 -16 -72.5 -28.5t-84.5 -22.5l-742 -1323l-112 -25l-238 1348q-47 10 -83 23.5t-62 27.5l12 60h538l-12 -60q-37 -16 -84 -28.5t-94 -22.5l150 -936l10 -164h4l76 168z" />
<glyph unicode="W" horiz-adv-x="1894" d="M1817 1323q-41 8 -85 20.5t-79 30.5l12 60h451l-13 -60q-39 -20 -79 -31l-78 -20l-623 -1323l-131 -25l-94 1115l-555 -1090l-127 -25l-76 1348q-80 18 -145 51l12 60h528l-12 -60q-41 -16 -85 -28.5t-93 -22.5l26 -829l-6 -267h4l125 271l477 936h72l86 -936l10 -267h4 l109 271z" />
<glyph unicode="X" horiz-adv-x="1353" d="M1022 1434h471l-14 -60q-37 -16 -79 -28.5t-85 -22.5l-488 -555l281 -659q94 -16 154 -50l-11 -59h-544l10 59q78 37 166 50l-207 514l-430 -517q41 -6 81 -15t74 -32l-12 -59h-471l12 59q41 20 82 30.5t82 19.5l537 612l-254 602q-41 10 -78 21.5t-74 29.5l13 60h544 l-12 -60q-63 -29 -168 -51l182 -463l383 463l-77 20q-39 10 -80 31z" />
<glyph unicode="Y" horiz-adv-x="1300" d="M1065 1434h457l-15 -60q-41 -20 -82 -31.5t-82 -19.5l-538 -713l-107 -501q76 -10 144 -50l-11 -59h-520l11 59q82 37 180 50l106 499l-264 715q-45 8 -83 21.5t-73 29.5l15 60h540l-12 -60l-74 -26q-41 -14 -94 -25l207 -602l434 602q-43 10 -81 22.5t-70 28.5z" />
<glyph unicode="Z" horiz-adv-x="1234" d="M1083 393h54q-4 -43 -10.5 -94t-14.5 -103.5t-17.5 -103.5t-19.5 -92h-1065v104l1077 1223h-595l-187 -287h-53q2 43 9 94.5t15.5 104.5t17.5 103.5t19 91.5h1018v-107l-1077 -1221h643z" />
<glyph unicode="[" horiz-adv-x="628" d="M389 1434h387l-18 -88h-213l-369 -1729h213l-16 -88h-387z" />
<glyph unicode="\" horiz-adv-x="782" d="M838 -219l-84 -47l-850 1679l86 45z" />
<glyph unicode="]" horiz-adv-x="628" d="M268 -471h-385l19 88h211l368 1729h-213l17 88h387z" />
<glyph unicode="^" horiz-adv-x="1062" d="M596 1456h68l348 -567h-183l-180 309l-47 137l-67 -139l-203 -307h-117z" />
<glyph unicode="_" horiz-adv-x="839" d="M-92 -293h840v-108h-840v108z" />
<glyph unicode="`" horiz-adv-x="661" d="M666 1214l-45 -34l-340 305v41q12 10 39.5 19t60.5 15.5t62.5 9.5t45.5 1z" />
<glyph unicode="a" horiz-adv-x="1095" d="M387 102q55 0 110.5 52.5t104.5 126t88 153.5t62 133l65 351q-29 20 -55.5 28t-73.5 8q-94 0 -171 -58t-131 -150.5t-84 -205t-30 -221.5q0 -104 26 -160.5t89 -56.5zM711 401q-27 -74 -67 -149.5t-92 -137t-115.5 -100.5t-135.5 -39q-213 0 -213 310q0 143 41 279 t119 242.5t189.5 171t252.5 64.5q51 0 82 -9t74 -27q82 43 172 43l-184 -936h149v-52q-41 -33 -98.5 -53t-112.5 -20q-59 0 -84.5 25.5t-25.5 54.5q0 37 14 120.5t43 212.5h-8z" />
<glyph unicode="b" horiz-adv-x="1077" d="M336 1397l-143 18v47q33 12 71.5 24.5t78.5 24t79 18.5t72 11l43 -22l-181 -854h11q37 74 81 143.5t94 122.5t105 86t117 33q109 0 172 -76t63 -236q0 -158 -44 -296t-123.5 -241.5t-192.5 -164t-250 -60.5q-100 0 -187 26t-128 60zM678 922q-53 0 -104.5 -47.5 t-95.5 -114t-80 -138.5l-60 -122l-78 -394q31 -20 77 -31.5t91 -11.5q80 0 150.5 55.5t124 145.5t83.5 204q29 107 29 216v14v12q0 91 -31 149q-32 63 -106 63z" />
<glyph unicode="c" horiz-adv-x="876" d="M782 182q-23 -39 -57.5 -75.5t-81.5 -66.5t-105.5 -47.5t-127.5 -17.5q-152 0 -240 96.5t-88 262.5q0 147 47 277t128 227.5t190.5 154t234.5 56.5q78 0 127 -12.5t74 -35.5q1 -6 0 -13q0 -17 -3 -37q-5 -28 -16.5 -54.5t-29 -49t-35.5 -30.5l-140 144q-70 -2 -138 -43 t-122.5 -117t-88.5 -184q-32 -101 -32 -227q0 -8 1 -15q-2 -141 56 -207t159 -66q43 0 80.5 12.5t70.5 31t60 38.5l47 37z" />
<glyph unicode="d" horiz-adv-x="1095" d="M391 102q55 0 110.5 52.5t104.5 126t88 153.5t62 133l65 351q-31 20 -56.5 27t-72.5 9q-98 -2 -176 -60t-131 -149.5t-81 -204t-28 -221.5q0 -104 26 -160.5t89 -56.5zM715 401q-27 -74 -68 -149.5t-93 -137t-114.5 -100.5t-134.5 -39q-213 0 -213 312q0 145 41 281.5 t119 241.5t188.5 168.5t251.5 63.5q53 0 80 -7t68 -25l78 387l-144 18v51q31 12 68 23.5t76.5 21t80.5 17.5t76 12l43 -16l-280 -1411h149v-52q-41 -33 -98.5 -53t-112.5 -20q-59 0 -84.5 25.5t-25.5 54.5q0 37 14 120.5t43 212.5h-8z" />
<glyph unicode="e" horiz-adv-x="929" d="M803 182q-18 -39 -53 -75.5t-82 -66.5t-106.5 -47.5t-127.5 -17.5q-170 0 -261 97.5t-91 269.5q0 145 41 274t114.5 225.5t179 152t234.5 55.5q98 0 169 -50.5t71 -148.5q0 -145 -144.5 -229t-465.5 -109q-8 -35 -11.5 -67.5t-3.5 -63.5q0 -123 62.5 -201t183.5 -78 q39 0 77 12.5t71.5 31t61.5 38.5l48 37zM588 961q-88 -2 -164 -83t-129 -278q199 6 309.5 68.5t110.5 173.5q0 43 -25.5 80t-101.5 39z" />
<glyph unicode="f" horiz-adv-x="608" d="M264 922h-149v53q41 23 87 40t87 27l14 72q27 127 73 210t107.5 131t135 66.5t157.5 18.5q35 0 83 -8t81 -25q-4 -45 -21.5 -93t-58.5 -83l-155 127q-37 -10 -68 -22.5t-58.5 -46t-52 -95t-47.5 -168.5l-20 -102h227q3 -13 3 -26q0 -38 -23 -76h-228l-131 -834 q-23 -145 -76 -241.5t-113.5 -156t-117.5 -88t-88 -36.5l-18 45q25 12 59.5 44t68 85t63.5 130t46 179z" />
<glyph unicode="g" horiz-adv-x="1001" d="M573 1049q98 0 161 -25t97 -53q18 16 49 32.5t66 31t72 26.5l69 22q6 -10 11 -30q3 -16 3 -36q0 -30 -8 -60q-7 -26 -22 -46l-211 15q6 -18 12.5 -42t6.5 -53q0 -82 -34 -151.5t-93.5 -119.5t-138 -78.5t-167.5 -28.5q-35 0 -56 1t-48 7q-18 -20 -50 -48t-32 -61 q0 -35 45 -53t114 -34l148 -33q80 -17 148.5 -46.5t113.5 -77t45 -124.5q0 -96 -54 -173t-143 -131.5t-203 -84t-230 -29.5q-94 0 -162 19.5t-111 53t-63.5 76.5t-20.5 90q0 57 26 106.5t69 93.5t98 81t115 70q-31 16 -50.5 43.5t-19.5 62.5q0 31 20.5 64.5t48 64.5t55 53.5 t42.5 32.5q-25 6 -50.5 22.5t-48 43t-37 61.5t-14.5 78q0 80 34 147.5t93.5 115.5t137 76t167.5 28zM338 -346q63 0 125.5 18.5t113 52t82 84t31.5 113.5q0 61 -50 95t-122 54.5t-148.5 34t-131.5 31.5q-96 -70 -132 -145.5t-34 -141.5q-2 -92 70.5 -144t195.5 -52zM557 967 q-59 0 -105 -22.5t-79 -60.5t-49.5 -89.5t-16.5 -108.5q0 -78 50.5 -114.5t107.5 -36.5q61 0 105 21.5t74 58t44 83.5t14 99q0 76 -35.5 123t-109.5 47z" />
<glyph unicode="h" horiz-adv-x="1112" d="M211 1415v47l68.5 25.5t78.5 25t80 18.5t74 9l43 -18l-184 -860h10q39 82 88 152.5t103.5 122.5t113.5 82t121 30q94 0 136 -54.5t42 -134.5q0 -55 -10 -118.5t-25 -123.5l-116 -503h151v-54q-41 -33 -98.5 -53t-114.5 -20q-59 0 -81.5 24.5t-22.5 53.5q0 37 10 82l20 94 l74 342l25.5 118.5t11.5 106.5q0 47 -20.5 80t-55.5 33q-63 0 -122.5 -45.5t-110.5 -108.5t-90 -132t-60 -114l-108 -522h-172l280 1397z" />
<glyph unicode="i" horiz-adv-x="567" d="M145 924v51q31 12 70 25.5t80 23.5t78 17.5t65 7.5l37 -25l-192 -909h151v-54q-43 -33 -100.5 -53t-112.5 -20q-59 0 -84.5 26.5t-25.5 61.5q0 41 6 80t16 86l143 661zM309 1378q0 53 33 84t86 31q57 0 90 -30.5t33 -84.5q0 -51 -33 -79.5t-90 -28.5q-53 0 -86 28.5 t-33 79.5z" />
<glyph unicode="j" horiz-adv-x="563" d="M272 905l-122 19v51q63 29 141 51.5t141 22.5l41 -25l-199 -936q-31 -145 -85 -241.5t-113.5 -156t-113.5 -88t-87 -36.5l-25 45q25 12 58 42t65.5 82t64.5 130t54 184zM299 1378q0 53 33 84t86 31q57 0 90 -30.5t33 -84.5q0 -51 -33 -79.5t-90 -28.5q-53 0 -86 28.5 t-33 79.5z" />
<glyph unicode="k" horiz-adv-x="985" d="M612 92q-66 111 -110 210l-86 185l-74 21l-96 -508h-176l278 1397l-143 18v51q59 27 144 48.5t157 25.5l43 -22l-193 -957h60q43 27 89 66t88 80t74.5 78.5t51.5 64.5q2 14 3 38.5t0 50.5l-2 49q-1 24 -3 36q76 27 147 27q74 0 123 -27q-27 -68 -82 -135.5t-118.5 -125.5 t-125 -106.5t-98.5 -74.5q14 -39 46 -101.5t70 -130t80 -131t77 -104.5h129v-54q-41 -33 -89.5 -53t-101.5 -20q-49 0 -88 22.5t-74 81.5z" />
<glyph unicode="l" horiz-adv-x="567" d="M356 1397l-145 18v51q29 12 66.5 24.5t79.5 24t83 18.5t74 7l41 -22l-283 -1403h150v-54q-41 -33 -99.5 -53t-113.5 -20q-59 0 -87 26.5t-28 61.5q0 41 6 80t17 86z" />
<glyph unicode="m" horiz-adv-x="1638" d="M1296 614q12 49 23.5 102.5t13.5 88.5q-2 53 -17.5 85t-62.5 32q-49 0 -100 -39t-97 -98.5t-84 -129t-63 -131.5l-125 -524h-163l129 575q14 63 24 122t10 122q0 47 -16 75t-57 28t-90.5 -39t-96.5 -98.5t-87 -129t-64 -133.5l-109 -522h-176l191 905l-125 19v51 q68 35 146.5 54.5t135.5 19.5l43 -25l-90 -362h8q25 57 69 124.5t101.5 126t123 97.5t130.5 39q25 0 49.5 -8.5t43 -30t30.5 -58.5t12 -94q0 -45 -9 -96t-21 -100q31 70 78 138t102 123.5t117.5 90.5t128.5 35q78 0 117.5 -49.5t39.5 -135.5q0 -66 -12 -124l-27 -126 l-133 -499h152v-54q-41 -33 -100.5 -53t-112.5 -20q-59 0 -82 26.5t-23 63.5q0 59 29 164z" />
<glyph unicode="n" horiz-adv-x="1130" d="M791 584l25 117q11 54 11 108q0 47 -21.5 80t-68.5 33q-55 0 -112.5 -45.5t-106.5 -108.5t-89 -132t-60 -114l-109 -522h-172l180 905l-125 19l4 51q29 14 65 27.5t74 23.5t73.5 16.5t66.5 6.5l41 -25l-78 -362h10q39 82 89.5 152.5t106.5 122.5t117.5 82t125.5 30 q86 0 126 -54.5t40 -136.5q0 -45 -10.5 -112.5t-24.5 -127.5l-117 -503h152v-54q-41 -33 -99.5 -53t-113.5 -20q-59 0 -82 24.5t-23 53.5q0 39 10 85l21 93z" />
<glyph unicode="o" horiz-adv-x="1042" d="M84 381q0 109 34 226.5t103.5 216t174 162t243.5 63.5q160 0 241 -98.5t81 -291.5q0 -135 -39 -259t-109 -218t-168 -150.5t-217 -56.5q-158 0 -251 101.5t-93 304.5zM598 961q-100 -2 -163.5 -66t-100.5 -158t-51.5 -202.5t-14.5 -198.5q0 -121 53.5 -197t143.5 -76 q72 0 128 54.5t96 143.5t61.5 201.5t21.5 227.5q0 121 -42 195t-132 76z" />
<glyph unicode="p" horiz-adv-x="1110" d="M199 -299q72 -12 143 -51v-60h-322l-18 19l88 407l191 889l-125 19v51q68 29 142.5 51.5t139.5 22.5l41 -25l-84 -360h8q37 82 81 151.5t95.5 121.5t111 82t126.5 30q45 0 86 -17.5t72 -53.5t48 -89t17 -123q0 -158 -47 -301t-128 -252t-189.5 -173.5t-233.5 -64.5 q-35 0 -59.5 2.5t-42.5 7.5t-36 13l-38 18zM721 922q-59 0 -112.5 -46.5t-99.5 -112t-83 -138t-59 -127.5l-80 -387q29 -25 60.5 -36.5t101.5 -11.5q82 0 154.5 60.5t126.5 155t86 210t32 228.5q0 98 -34 151.5t-93 53.5z" />
<glyph unicode="q" horiz-adv-x="1054" d="M725 -299q68 -12 143 -51v-60h-321l-19 17l183 792h-9q-27 -72 -66.5 -147.5t-91.5 -137t-114.5 -100.5t-134.5 -39q-213 0 -213 312q0 145 39 281.5t115.5 241.5t190.5 168.5t265 63.5q45 0 91 -6t87 -15t75 -20.5t54 -21.5zM381 102q55 0 109.5 52.5t103.5 126 t88 152.5t61 132l68 361q-23 16 -53.5 22t-77.5 6q-104 0 -182 -58t-130.5 -150.5t-77.5 -204.5q-24 -104 -24 -205v-17v-14q0 -94 25 -146q27 -57 90 -57z" />
<glyph unicode="r" horiz-adv-x="788" d="M625 899q-53 -20 -120 -103t-118 -225l-123 -571h-176l191 905l-125 19v51q70 33 145.5 50t136.5 24l41 -25l-57 -272h8q59 135 145 216t185 81q27 0 53.5 -5.5t50.5 -19.5q0 -18 -6 -48t-17.5 -60.5t-24.5 -58.5t-28 -42z" />
<glyph unicode="s" horiz-adv-x="856" d="M522 242q-2 49 -27.5 84.5t-65.5 68.5t-85 66t-85 72.5t-65.5 92t-25.5 126.5t28.5 129t79 92t121 56.5t154.5 19.5q53 0 119.5 -9.5t126.5 -44.5q0 -23 -8.5 -52.5t-21.5 -57t-29.5 -51t-35.5 -31.5l-151 158q-43 -2 -80 -10.5t-64.5 -27t-43 -48t-15.5 -74.5 q0 -53 26.5 -91t66.5 -72t86 -65.5t86 -71.5t67 -92.5t27 -123.5q0 -74 -34 -131.5t-92.5 -97.5t-135 -60.5t-162.5 -20.5t-157 17.5t-112 44.5q10 53 24.5 103t59.5 93l185 -170q43 0 85 10.5t75.5 33t55 55.5t23.5 80z" />
<glyph unicode="t" horiz-adv-x="690" d="M111 975q41 23 87 41t91 28l33 156q29 23 66.5 40l78.5 34l43 -25l-49 -225h254q2 -12 2 -25t-2 -26q-4 -27 -21 -51h-254l-129 -594q-8 -39 -12 -69t-4 -54q0 -53 30.5 -78t67.5 -25q51 0 109.5 19.5t107.5 44.5l23 -37q-18 -27 -55 -53.5t-83 -49t-96.5 -37 t-95.5 -14.5q-90 0 -141 41t-51 127q0 29 5 64t13 72l135 643h-155z" />
<glyph unicode="u" horiz-adv-x="1110" d="M999 113v-52q-41 -33 -99 -53t-114 -20q-59 0 -84.5 24.5t-25.5 53.5q0 37 10 123.5t45 211.5h-8q-27 -57 -67 -130.5t-95 -139t-125.5 -111t-156.5 -45.5q-72 0 -121 50.5t-49 142.5q0 45 14 133t35 193l44 214l42 197l-125 19v51l70.5 24.5t75.5 22.5t73 17.5t63 9.5 l45 -25q-33 -154 -66.5 -292t-62.5 -292q-10 -49 -21 -109.5t-11 -131.5q0 -43 23.5 -70t53.5 -27q45 0 90.5 27t85.5 70t75.5 95t64.5 103.5t48 95.5l30 70l90 461h170l-168 -911h151z" />
<glyph unicode="v" horiz-adv-x="915" d="M510 309q74 123 131 239t98 232q0 23 -5 59l-10 72q-5 37 -11 69t-11 44q59 25 122 26h5q60 0 105 -26q-31 -127 -84 -259t-122 -263t-149.5 -258t-168.5 -244l-97 -25l-151 930l-131 17v51q12 8 36.5 21.5t54.5 25.5t61.5 20.5t60.5 8.5q45 0 64.5 -22.5t25.5 -55.5 l94 -666l10 -129h4z" />
<glyph unicode="w" horiz-adv-x="1406" d="M1010 309q76 123 129 238t92 231q0 23 -5 60l-11 73q-5 37 -11 69t-10 44q29 12 61.5 18.5t63.5 6.5q61 0 108 -25q-31 -127 -82 -259t-116.5 -263t-143 -258t-165.5 -244l-97 -25l-86 582v168h-6l-82 -168l-137 -279l-139 -278l-113 -25l-98 930l-131 17v51 q12 8 36.5 21.5t54.5 25.5t61.5 20.5t60.5 8.5q45 0 68.5 -21.5t27.5 -56.5l55 -647l-8 -148h4l62 150l331 673l70 25l41 -288l23 -167l32 -245l2 -148h4z" />
<glyph unicode="x" horiz-adv-x="929" d="M412 436q-23 -25 -52.5 -53.5l-58.5 -59t-53.5 -61.5t-38.5 -57q-4 -14 -5 -41l-2 -56.5t-1 -55t2 -38.5q-35 -14 -71 -20t-69 -6q-68 0 -112 26q18 61 75.5 137t127 148t135.5 130l98 87l-139 377l-131 16v52q12 8 35.5 21t53.5 25.5t60.5 20.5t59.5 8q45 0 65.5 -23.5 t32.5 -54.5l100 -356l104 107q56 59 85 112q2 14 2 41t-2 56.5t-4 55t-4 38.5q35 12 68.5 19t68.5 7q66 0 114 -26q-12 -41 -40.5 -88t-67.5 -94.5t-83 -93.5l-85 -86q-41 -40 -77 -71l-56 -51l147 -399l133 -16v-52q-12 -8 -35.5 -20t-51 -24.5t-59.5 -20.5t-58 -8 q-43 0 -65.5 22.5t-33.5 55.5z" />
<glyph unicode="y" horiz-adv-x="931" d="M180 905l-131 17v51q10 8 33.5 20.5t54.5 24.5t63.5 21.5t61.5 9.5q43 0 62.5 -21.5t29.5 -56.5l170 -717l6 -123h5l47 121q27 57 54 126l54 138q27 70 49.5 137.5t38.5 124.5q0 23 -5 59.5t-11 73.5t-12.5 69t-10.5 44q29 12 62 18.5t63 6.5q61 0 109 -25 q-63 -254 -173 -508t-243 -516q-111 -215 -221.5 -321.5t-249.5 -106.5q-31 0 -58.5 8t-58.5 25q-1 6 0 11q0 18 4 40q6 29 19.5 57.5t35 53t48.5 38.5l166 -86q14 10 36.5 30t47 53.5t49 81.5t47.5 116z" />
<glyph unicode="z" horiz-adv-x="892" d="M238 369l450 497q-37 -2 -76 -2q-59 0 -124 5q-108 9 -222 28l-94 -147l-51 12l29 209q12 80 110 80q74 0 214 -21.5t335 -32.5l47 52q27 -4 50.5 -20.5t27.5 -45.5l-705 -776q121 -23 236 -60.5t213 -91.5l119 135l49 -28l-72 -209q-10 -31 -36.5 -51.5t-65.5 -20.5 t-97 26l-130 58q-73 33 -156.5 65.5t-175.5 47.5l-84 -90q-27 4 -51.5 20.5t-26.5 46.5z" />
<glyph unicode="{" horiz-adv-x="718" d="M227 229q10 47 11 80q0 68 -33 106t-94 38l12 61q39 0 72.5 16.5t61.5 46t47.5 68.5t29.5 84l104 488q20 98 82 157.5t160 59.5h184l-16 -88h-100q-55 0 -87 -28t-47 -93l-100 -475q-14 -68 -46 -115t-71 -77t-82 -45t-79 -19l-5 -13q31 -4 62 -17t56.5 -38t42 -60.5 t16.5 -84.5q0 -31 -7 -64l-102 -481q-6 -25 -6 -47q0 -76 88 -72h98l-18 -88h-185q-76 0 -117.5 37t-41.5 110q0 35 8 68z" />
<glyph unicode="|" horiz-adv-x="485" d="M250 1434h106v-1700h-106v1700z" />
<glyph unicode="}" horiz-adv-x="718" d="M530 737q-10 -47 -10 -80q0 -143 127 -143l-12 -61q-39 0 -73 -17.5t-61.5 -46.5t-47 -67.5t-29.5 -83.5l-105 -492q-20 -98 -81.5 -157.5t-159.5 -59.5h-184l18 88h98q55 0 87 26.5t46 92.5l103 481q14 68 42.5 115t64.5 76.5t76 45t77 19.5l2 12q-29 2 -57.5 15.5 t-51 36t-36 57.5t-13.5 82q0 39 8 74l101 475q6 25 6 45q2 78 -88 76h-96l16 88h186q76 0 117 -38t41 -110q0 -35 -8 -67z" />
<glyph unicode="~" d="M135 659q74 111 141.5 153t129.5 42q51 0 100 -21.5t96 -48t95 -48t100 -21.5q37 0 76.5 15t80.5 54l27 -43q-59 -86 -117.5 -121.5t-113.5 -35.5q-53 0 -103.5 21.5t-99.5 48t-98.5 48t-98.5 21.5q-45 0 -91 -24.5t-93 -88.5z" />
<glyph unicode="&#xa1;" horiz-adv-x="669" d="M403 586l-10 -361l-121 -606q-25 -12 -51 -17t-51 -5q-29 0 -52.5 5t-41.5 17l133 606l141 361h53zM291 913q0 61 39 98.5t100 37.5q63 0 102 -37t39 -99q0 -59 -38.5 -96t-102.5 -37q-61 0 -100 37t-39 96z" />
<glyph unicode="&#xa2;" d="M881 182q-23 -37 -55.5 -70.5t-75.5 -61t-96.5 -47t-114.5 -23.5l-68 -328h-106l69 328q-174 16 -256 114.5t-82 255.5q0 129 44 244t120 206t178.5 151.5t218.5 82.5l70 318h107l-66 -305q6 0 12 1t13 -1q37 0 79.5 -3.5t80.5 -9.5t68 -14t42 -19q2 -23 -3 -50 t-16.5 -54t-28 -49.5t-34.5 -30.5l-139 141q-51 0 -97 -6l-180 -846q104 4 174 41t111 74zM293 367q-2 -111 44 -173.5t124 -80.5l176 811q-80 -31 -144.5 -84.5t-109.5 -125t-68.5 -159.5t-21.5 -188z" />
<glyph unicode="&#xa3;" d="M106 780h175q-16 66 -23.5 130.5t-7.5 109.5q0 100 27.5 181t90 138.5t161 88t239.5 30.5q125 0 226.5 -20.5t156.5 -48.5q-8 -33 -24 -79l-32 -95l-36 -95l-33 -82h-51l-23 281q-39 16 -91 24.5t-118 8.5q-96 0 -163.5 -31t-102.5 -98q-20 -41 -28.5 -93.5t-6.5 -95.5 q2 -68 9.5 -123t19.5 -131h320l-23 -106h-283q2 -23 4.5 -40.5t3.5 -34.5t0 -36.5t-6 -50.5q-4 -68 -49 -148.5t-131 -142.5l-80 -57v-8l113 12h410l149 229h51q-4 -45 -11 -98t-15.5 -107.5t-17.5 -104.5t-17 -87h-942l12 63q53 20 94 43t74 48.5t60.5 56.5t56.5 70 q39 51 61.5 112.5t22.5 108.5q0 57 -7.5 99t-17.5 73h-219z" />
<glyph unicode="&#xa4;" d="M63 348l170 168l72 23q-29 35 -41 77.5t-12 92.5q0 47 12 91t41 79l-72 22l-167 170l110 111l168 -170l25 -70q35 27 77.5 41t90.5 14q102 -4 170 -55l24 70l168 168l111 -111l-170 -168l-68 -22q25 -35 37 -79t12 -91q0 -98 -49 -172l68 -21l168 -170l-111 -110 l-168 167l-22 70q-72 -49 -170 -49q-47 0 -90.5 13.5t-81.5 35.5l-21 -67l-170 -168zM537 541q74 0 124 47t50 121t-50.5 122t-123.5 48q-74 2 -124.5 -47.5t-50.5 -122.5q0 -74 50.5 -121t124.5 -47z" />
<glyph unicode="&#xa5;" d="M915 1434h453l-12 -60q-88 -39 -166 -51l-465 -637h295l-21 -106h-333l-29 -129h334l-21 -107h-334l-49 -235q78 -10 142 -50l-11 -59h-520l10 59q82 37 183 50l49 235h-334l20 107h334l29 129h-334l23 106h291l-216 637q-45 10 -82.5 22.5t-72.5 28.5l12 60h539l-13 -60 q-33 -12 -73.5 -24.5t-93.5 -26.5l186 -604l424 604q-43 10 -83 22.5t-73 28.5z" />
<glyph unicode="&#xa6;" horiz-adv-x="485" d="M246 389h106v-655h-106v655zM352 778h-106v656h106v-656z" />
<glyph unicode="&#xa7;" horiz-adv-x="1079" d="M776 90q2 61 -42 98t-109.5 65t-142 53.5t-142.5 63.5t-110 97t-44 156q0 102 77 175.5t192 121.5q-43 20 -80 44.5t-64.5 58.5t-44 78t-16.5 101q0 55 24.5 102.5t68.5 81t105.5 53t137.5 19.5q111 0 190.5 -11t145.5 -36q-4 -33 -9.5 -56.5t-11.5 -45.5l-13 -47 l-18 -58h-51l-114 148q-25 10 -46.5 13t-54.5 5q-88 -2 -130 -49t-40 -100q-2 -61 42 -101.5t109.5 -71t142.5 -58t142.5 -66.5t109.5 -94.5t44 -139.5q0 -59 -24.5 -107t-63.5 -87t-86 -69t-90 -50q41 -18 76.5 -40t63.5 -50.5t44.5 -64.5t16.5 -83q0 -143 -109 -225 t-291 -82q-172 0 -332 59q2 37 6.5 63t10.5 49.5t15 47t20 55.5h51l131 -161q23 -18 44 -21.5t48 -3.5q100 0 161.5 50t59.5 120zM840 641q2 49 -23.5 85t-66.5 61.5t-95 47.5l-108 44q-68 -33 -123 -89.5t-53 -121.5q-2 -53 23.5 -92t67.5 -68t95 -51.5t109 -42.5 q35 20 66.5 49t56 58.5t39 60t12.5 59.5z" />
<glyph unicode="&#xa8;" horiz-adv-x="999" d="M367 1356q0 49 30.5 78.5t81.5 29.5q49 0 80 -29.5t31 -78.5q0 -47 -31 -76t-80 -29q-51 0 -81.5 29t-30.5 76zM780 1356q0 49 31 78.5t80 29.5q51 0 82 -29.5t31 -78.5q0 -47 -31 -76t-82 -29q-49 0 -80 29t-31 76z" />
<glyph unicode="&#xa9;" horiz-adv-x="1652" d="M104 594q0 170 60.5 304t161 226.5t230.5 141.5t271 49t271.5 -49t229.5 -141.5t159.5 -226.5t60.5 -304t-60.5 -304t-159.5 -226.5t-229 -141.5t-272 -49q-147 0 -279 49t-230.5 141.5t-156 226.5t-57.5 304zM211 594q0 -141 48 -257t132 -197t196.5 -126t239.5 -45 t240 45t196 126t131 197t48 257t-51.5 257t-136.5 196.5t-196.5 126t-230.5 45.5q-135 0 -248.5 -45.5t-194.5 -127t-127 -196.5t-46 -256zM1044 422h52q8 -31 12 -93.5t-2 -111.5q-18 -14 -46 -23.5t-58.5 -15.5t-63.5 -8t-59 -2q-100 0 -183.5 27.5t-143.5 82t-94 134.5 t-34 184q0 106 38 186t98.5 133.5t137 81t154.5 27.5q80 0 143.5 -11.5t104.5 -31.5q2 -18 2 -48t-2 -62.5t-6 -63.5t-11 -51h-51l-61 170q-14 10 -45 11t-60 3q-117 -2 -181 -93t-64 -251q0 -68 14 -130.5t46 -110.5t83 -75.5t123 -27.5q41 0 66.5 8t33.5 16z" />
<glyph unicode="&#xaa;" horiz-adv-x="880" d="M580 999q-14 -29 -41 -67.5t-66 -73.5t-88 -59.5t-106 -24.5q-94 0 -146.5 62.5t-52.5 175.5q0 100 35 183t94 141.5t137 90t164 31.5q41 0 85 -9t79 -30l123 31l34 -16l-116 -551l104 -19v-37q-33 -23 -84 -38t-112 -15q-41 0 -54.5 22.5t-9.5 51.5l29 151h-8zM350 877 q37 0 75 23.5t72.5 57t63.5 73.5t45 75l47 235l-60.5 24.5t-66.5 12.5q-51 0 -100 -22.5t-88 -67.5t-62.5 -111.5t-23.5 -152.5q0 -63 24.5 -105t73.5 -42z" />
<glyph unicode="&#xab;" horiz-adv-x="944" d="M492 530l434 420l43 -39l-303 -383l155 -370l-59 -41zM94 530l527 424l43 -41l-371 -387l223 -370l-61 -43z" />
<glyph unicode="&#xac;" horiz-adv-x="1024" d="M76 793h870v-387h-127v258h-743v129z" />
<glyph unicode="&#xad;" horiz-adv-x="870" d="M174 641h578l-27 -129h-580z" />
<glyph unicode="&#xae;" horiz-adv-x="1427" d="M260 924q0 131 44 232t119 171t174 105.5t210 35.5q115 0 214 -35.5t173 -105.5t117 -171t43 -232q0 -133 -44 -234.5t-119 -171t-174 -105.5t-210 -36q-115 0 -214 36t-173 105.5t-117 171t-43 234.5zM356 924q0 -106 36 -191.5t97.5 -146t143.5 -92t174 -29.5 q96 -2 179 29.5t143.5 91t94 144.5t33.5 194q0 106 -35.5 191t-97 144.5t-143.5 92t-174 30.5q-98 2 -180 -30.5t-142.5 -92t-94.5 -144.5t-34 -191zM737 700q27 -2 44.5 -7t31.5 -11v-49h-254v49q35 12 72 18v478q-23 2 -39.5 7t-32.5 15v45h78q37 0 88 4t84 4q45 0 87 -9 t75 -30.5t51 -54.5t18 -78q0 -63 -44 -100t-101 -55l71 -116q34 -56 93 -110l47 -24v-43h-102l-58 22q-51 61 -81.5 127t-53.5 125h-74v-207zM799 1188q-23 0 -36 -1t-26 -5v-215h66q123 0 119 114q-2 53 -36 80t-87 27z" />
<glyph unicode="&#xaf;" horiz-adv-x="950" d="M422 1305l20 106h521l-23 -106h-518z" />
<glyph unicode="&#x2c9;" horiz-adv-x="950" d="M422 1305l20 106h521l-23 -106h-518z" />
<glyph unicode="&#xb0;" horiz-adv-x="847" d="M260 1169q0 63 22.5 116.5t62.5 91.5t93.5 59.5t112.5 21.5t112.5 -18.5t92.5 -54t61.5 -90t22.5 -126.5q0 -68 -22.5 -121t-61.5 -90.5t-92.5 -57t-112.5 -19.5t-112.5 19.5t-93.5 57t-62.5 90.5t-22.5 121zM375 1169q0 -84 52 -136t124 -52q78 0 126 49t48 139 q0 86 -48 137.5t-126 51.5q-80 0 -128 -51.5t-48 -137.5z" />
<glyph unicode="&#xb1;" d="M76 1004h405v430h109v-430h407v-109h-407v-315h-109v315h-405v109zM76 471h921v-109h-921v109z" />
<glyph unicode="&#xb2;" horiz-adv-x="862" d="M402 1308h-45q-6 20 -14.5 55t-14.5 74t-9 74t-3 55q41 23 78.5 41.5t77.5 30.5t85 19.5t105 7.5q82 0 137 -15.5t88 -43t47.5 -64.5t14.5 -78q0 -76 -44.5 -149.5t-121 -143.5t-180 -133t-224.5 -121v-12l64 12h280l121 139h45q-2 -29 -6 -64.5t-9 -73.5t-11.5 -71.5 t-12.5 -56.5h-694l16 68q125 70 235.5 144.5t192.5 150t129 151.5t47 146q0 53 -32.5 84.5t-114.5 31.5q-39 0 -71.5 -7t-67.5 -23z" />
<glyph unicode="&#xb3;" horiz-adv-x="862" d="M512 866q61 0 104.5 20.5t69 50t38 64.5t12.5 64q0 57 -37 87.5t-150 30.5h-69l12 54l217 223l115 86l2 4l-129 -10h-183l-114 -187h-45q-4 27 -5.5 67t1.5 83l4 82q2 39 6 61h626l-14 -73l-227 -218l-101 -81l-2 -3l66 9q86 -6 142.5 -53.5t56.5 -139.5q0 -66 -25 -123 t-77 -100t-134 -67.5t-199 -24.5q-39 0 -83 7t-85 20.5t-75.5 31t-57.5 35.5l111 188h37q8 -10 16 -30.5l17 -43.5l16 -48q8 -25 14 -46q16 -6 49 -13t80 -7z" />
<glyph unicode="&#xb4;" horiz-adv-x="1048" d="M721 1571q16 2 43 -1t55.5 -9.5t53 -15.5t36.5 -19v-39l-403 -309l-45 36z" />
<glyph unicode="&#xb5;" horiz-adv-x="1175" d="M322 31l8 -389l-11 -52q-104 -27 -186 0l277 1315l-123 17v53q72 27 143.5 45t136.5 29l47 -23l-30 -139l-30 -129l-32 -141l-37 -175q-16 -80 -24 -143t-5 -107.5t21.5 -67t57.5 -22.5q45 0 98 35t105.5 96.5t101.5 144.5t86 181l86 457l174 10l-170 -911l151 -2l-2 -54 q-47 -29 -87 -56.5t-81 -29.5q-27 0 -47 15l-108 75l59 336h-8q-104 -221 -212 -322.5t-230 -101.5q-35 0 -59.5 12.5t-57.5 43.5h-12z" />
<glyph unicode="&#x3bc;" horiz-adv-x="1175" d="M322 31l8 -389l-11 -52q-104 -27 -186 0l277 1315l-123 17v53q72 27 143.5 45t136.5 29l47 -23l-30 -139l-30 -129l-32 -141l-37 -175q-16 -80 -24 -143t-5 -107.5t21.5 -67t57.5 -22.5q45 0 98 35t105.5 96.5t101.5 144.5t86 181l86 457l174 10l-170 -911l151 -2l-2 -54 q-47 -29 -87 -56.5t-81 -29.5q-27 0 -47 15l-108 75l59 336h-8q-104 -221 -212 -322.5t-230 -101.5q-35 0 -59.5 12.5t-57.5 43.5h-12z" />
<glyph unicode="&#xb6;" horiz-adv-x="1046" d="M827 193q0 -137 -18 -224.5t-53 -139.5t-83 -76.5t-106 -37.5q-41 -66 -96 -99.5t-109 -49.5l-22 41q45 18 83 50t65.5 83t43 127t15.5 182v586q-66 0 -130.5 20.5t-116.5 66.5t-85 121t-33 181q0 86 25.5 161t76 130t128 87t182.5 32h389v-62q-35 -16 -72 -28.5 t-84 -20.5v-1130zM590 -238q86 35 114.5 141.5t28.5 289.5v1140h-90v-1284q0 -82 -12 -158t-41 -129z" />
<glyph unicode="&#xb7;" horiz-adv-x="471" d="M122 629q0 61 39 98t101 37q63 0 102 -37t39 -98q0 -59 -39 -96t-102 -37q-61 0 -100.5 37t-39.5 96z" />
<glyph unicode="&#xb8;" horiz-adv-x="911" d="M401 -139q86 -4 123 -40t41 -95q2 -63 -35.5 -109.5t-95 -76t-124 -43t-122.5 -11.5v61q39 6 78 17.5t70 28t49 40t16 52.5q0 18 -5 34.5t-18 29.5t-38 22.5t-66 13.5l115 217h94z" />
<glyph unicode="&#xb9;" horiz-adv-x="862" d="M805 791h-573l10 43q119 49 223 69l107 506l30 92q-51 -14 -115.5 -19t-121.5 -3l12 59q90 18 176 52t170 75h64l-162 -762q51 -12 100 -28.5t90 -40.5z" />
<glyph unicode="&#xba;" horiz-adv-x="892" d="M80 1024q0 94 37 174t98 137.5t141 90t166 32.5q141 0 217 -73.5t76 -190.5q0 -106 -40 -187t-102.5 -135.5t-141 -82t-156.5 -27.5q-61 0 -115.5 19.5t-94.5 54t-62.5 83t-22.5 105.5zM250 1022q0 -37 7 -69.5t24.5 -58.5t44 -41t63.5 -15q45 0 91 22.5t83 69.5 t59.5 118.5t22.5 170.5q0 31 -7 59.5t-23.5 52t-43 36.5t-67.5 13q-45 0 -90 -27.5t-82 -74.5t-59.5 -113.5t-22.5 -142.5z" />
<glyph unicode="&#xbb;" horiz-adv-x="944" d="M535 537l-437 -420l-41 39l301 383l-153 370l57 41zM930 537l-524 -424l-44 41l371 387l-223 370l61 43z" />
<glyph unicode="&#xbc;" horiz-adv-x="1902" d="M1676 1454l71 -63l-1362 -1405l-69 65zM715 578h-573l10 43q119 49 223 69l107 506l30 92q-51 -14 -115.5 -19t-121.5 -3l12 59q90 18 176 52t170 75h64l-162 -762q51 -12 100 -28.5t90 -40.5zM1712 0h-430l11 43q37 18 76.5 29.5t82.5 19.5l31 148h-491l8 49l706 586h72 l-115 -539h193l-19 -96h-192l-31 -148q29 -6 54.5 -16t54.5 -33zM1559 602l43 88h-6l-86 -88l-271 -233l-82 -47l132 14h215z" />
<glyph unicode="&#xbd;" horiz-adv-x="2035" d="M1676 1454l71 -63l-1362 -1405l-69 65zM715 578h-573l10 43q119 49 223 69l107 506l30 92q-51 -14 -115.5 -19t-121.5 -3l12 59q90 18 176 52t170 75h64l-162 -762q51 -12 100 -28.5t90 -40.5zM1426 518h-45q-6 20 -14.5 55t-14.5 74t-9 74t-3 55q41 23 78.5 41.5 t77.5 30.5t85 19.5t105 7.5q82 0 137 -15.5t88 -43t47.5 -64.5t14.5 -78q0 -76 -44.5 -149.5t-121 -143.5t-180 -133t-224.5 -121v-12l64 12h280l121 139h45q-2 -29 -6 -64.5t-9 -73.5t-11.5 -71.5t-12.5 -56.5h-694l16 68q125 70 235.5 144.5t192.5 150t129 151.5t47 146 q0 53 -32.5 84.5t-114.5 31.5q-39 0 -71.5 -7t-67.5 -23z" />
<glyph unicode="&#xbe;" horiz-adv-x="2009" d="M1778 1454l71 -63l-1362 -1405l-69 65zM491 653q61 0 104.5 20.5t69 50t38 64.5t12.5 64q0 57 -37 87.5t-150 30.5h-69l12 54l217 223l115 86l2 4l-129 -10h-183l-114 -187h-45q-4 27 -5.5 67t1.5 83l4 82q2 39 6 61h626l-14 -73l-227 -218l-101 -81l-2 -3l66 9 q86 -6 142.5 -53.5t56.5 -139.5q0 -66 -25 -123t-77 -100t-134 -67.5t-199 -24.5q-39 0 -83 7t-85 20.5t-75.5 31t-57.5 35.5l111 188h37q8 -10 16 -30.5l17 -43.5l16 -48q8 -25 14 -46q16 -6 49 -13t80 -7zM1830 0h-430l11 43q37 18 76.5 29.5t82.5 19.5l31 148h-491l8 49 l706 586h72l-115 -539h193l-19 -96h-192l-31 -148q29 -6 54.5 -16t54.5 -33zM1677 602l43 88h-6l-86 -88l-271 -233l-82 -47l132 14h215z" />
<glyph unicode="&#xbf;" horiz-adv-x="968" d="M612 -31h52l14 -103q8 -60 8 -124q0 -23 -1 -42t-3 -40q-88 -47 -176 -66.5t-195 -19.5q-164 0 -252 71.5t-88 200.5q0 102 43 178t108.5 136.5t143.5 113t147.5 108.5t121 122.5t63.5 157.5h39q8 -106 -22.5 -186.5t-83 -145t-115 -117.5t-117.5 -107.5t-92 -114 t-39 -132.5q2 -92 55 -136.5t137 -41.5q66 -2 109 9t63 27zM496 913q0 61 38.5 98.5t100.5 37.5q63 0 102 -37t39 -99q0 -59 -39 -96t-102 -37q-61 0 -100 37t-39 96z" />
<glyph unicode="&#xc0;" horiz-adv-x="1380" d="M360 0h-460l12 59q80 33 160 50l809 1349h53l231 -1349q37 -8 75 -19.5t69 -30.5l-11 -59h-520l10 59q92 35 181 50l-62 374h-481l-219 -374q88 -12 164 -50zM485 590h406l-66 434l-4 176h-4l-82 -180zM993 1575l-34 -39l-463 186v41q12 14 38.5 27.5t57.5 23t59.5 13.5 t45.5 2z" />
<glyph unicode="&#xc1;" horiz-adv-x="1380" d="M360 0h-460l12 59q80 33 160 50l809 1349h53l231 -1349q37 -8 75 -19.5t69 -30.5l-11 -59h-520l10 59q92 35 181 50l-62 374h-481l-219 -374q88 -12 164 -50zM485 590h406l-66 434l-4 176h-4l-82 -180zM1162 1829q18 2 46.5 -2t58.5 -13.5t55.5 -22.5t37.5 -28v-41 l-463 -186l-34 39z" />
<glyph unicode="&#xc2;" horiz-adv-x="1380" d="M360 0h-460l12 59q80 33 160 50l809 1349h53l231 -1349q37 -8 75 -19.5t69 -30.5l-11 -59h-520l10 59q92 35 181 50l-62 374h-481l-219 -374q88 -12 164 -50zM485 590h406l-66 434l-4 176h-4l-82 -180zM639 1540l-29 39l343 229q10 8 28 9q16 0 25 -9l174 -223l-31 -43 l-205 115z" />
<glyph unicode="&#xc3;" horiz-adv-x="1380" d="M360 0h-460l12 59q80 33 160 50l809 1349h53l231 -1349q37 -8 75 -19.5t69 -30.5l-11 -59h-520l10 59q92 35 181 50l-62 374h-481l-219 -374q88 -12 164 -50zM485 590h406l-66 434l-4 176h-4l-82 -180zM1286 1681q-66 -66 -121 -90t-107 -24q-39 0 -72.5 11t-66.5 24 l-63 23q-31 11 -64 11q-29 0 -57.5 -11t-61.5 -40l-39 60q78 70 138.5 95t109.5 25q37 0 71 -10t64.5 -22.5t61.5 -22.5t63 -10q27 0 55.5 9t61.5 32z" />
<glyph unicode="&#xc4;" horiz-adv-x="1380" d="M360 0h-460l12 59q80 33 160 50l809 1349h53l231 -1349q37 -8 75 -19.5t69 -30.5l-11 -59h-520l10 59q92 35 181 50l-62 374h-481l-219 -374q88 -12 164 -50zM485 590h406l-66 434l-4 176h-4l-82 -180zM580 1616q0 49 33.5 73.5t82.5 24.5q51 0 84 -24.5t33 -73.5 q0 -47 -33 -71.5t-84 -24.5q-49 0 -82.5 24.5t-33.5 71.5zM1036 1616q0 49 33 73.5t84 24.5q49 0 82 -24.5t35 -73.5q-2 -47 -35 -71.5t-82 -24.5q-51 0 -84 24.5t-33 71.5z" />
<glyph unicode="&#xc5;" horiz-adv-x="1380" d="M709 1593q0 41 22.5 77t59 62.5t86 42t104.5 15.5q35 0 68.5 -6t59.5 -23.5t42 -46t16 -72.5q0 -39 -19.5 -71.5t-52 -58t-74.5 -41t-87 -19.5l231 -1343q37 -8 75 -19.5t69 -30.5l-11 -59h-520l10 59q92 35 181 50l-62 374h-481l-219 -374q88 -12 164 -50l-11 -59h-460 l12 59q80 33 160 50l805 1343q-78 4 -123 39.5t-45 101.5zM485 590h406l-66 434l-4 176h-4l-82 -180zM823 1599q0 -35 27 -49t65 -14q59 0 98.5 27.5t39.5 68.5t-27 57.5t-65 16.5q-59 0 -98.5 -30t-39.5 -77z" />
<glyph unicode="&#xc6;" horiz-adv-x="1869" d="M1931 1434q-31 -158 -94 -332h-53l-35 225h-449l-112 -543h332l112 152h51q-14 -102 -34.5 -208.5t-53.5 -205.5h-49l-49 156h-332l-123 -574h471l154 248h51q-4 -84 -16 -173t-35 -179h-1010l11 59q84 35 180 50l88 415h-395l-322 -415q43 -6 82 -18.5t80 -31.5l-10 -59 h-471l12 59q80 33 160 50l981 1226q-59 12 -111 39l14 60h975zM623 629h335l134 622h-5l-120 -190z" />
<glyph unicode="&#xc7;" horiz-adv-x="1300" d="M1141 373h51q0 -57 -11.5 -144.5t-33.5 -169.5q-78 -45 -176.5 -63.5t-184.5 -20.5l-75 -129q113 -2 150.5 -44t37.5 -105q0 -66 -42 -114t-103.5 -78.5t-133 -46t-131.5 -15.5v68q39 6 81 17t75 29.5t53.5 45t20.5 63.5q0 20 -6 37.5t-21.5 29t-42 18.5t-71.5 11 l108 218q-152 12 -256 64t-169.5 129t-95.5 170t-30 185q0 209 59.5 380t169 293t266 189.5t353.5 67.5q135 0 229.5 -18.5t157.5 -50.5q-6 -33 -17.5 -77t-26.5 -93.5t-32 -96.5l-30 -86h-54l-43 295q-27 10 -81 15.5t-105 5.5q-135 0 -250 -52.5t-198.5 -155t-131 -256 t-47.5 -356.5q0 -127 44 -214t110.5 -140t144.5 -75.5t148 -20.5q70 -2 118 10t70 27z" />
<glyph unicode="&#xc8;" horiz-adv-x="1171" d="M1231 1434q-16 -82 -39 -166t-53 -166h-54l-34 225h-449l-113 -543h332l113 152h51q-16 -102 -37.5 -205.5t-50.5 -208.5h-51l-47 156h-334l-119 -572h469l154 246h51q-4 -80 -16.5 -171t-34.5 -181h-1010l10 59q84 35 181 50l256 1214q-41 10 -80 22.5t-78 28.5l14 60 h969zM937 1575l-34 -39l-463 186v41q12 14 38.5 27.5t57.5 23t59.5 13.5t45.5 2z" />
<glyph unicode="&#xc9;" horiz-adv-x="1171" d="M1231 1434q-16 -82 -39 -166t-53 -166h-54l-34 225h-449l-113 -543h332l113 152h51q-16 -102 -37.5 -205.5t-50.5 -208.5h-51l-47 156h-334l-119 -572h469l154 246h51q-4 -80 -16.5 -171t-34.5 -181h-1010l10 59q84 35 181 50l256 1214q-41 10 -80 22.5t-78 28.5l14 60 h969zM951 1829q18 2 46.5 -2t58.5 -13.5t55.5 -22.5t37.5 -28v-41l-463 -186l-34 39z" />
<glyph unicode="&#xca;" horiz-adv-x="1171" d="M1231 1434q-16 -82 -39 -166t-53 -166h-54l-34 225h-449l-113 -543h332l113 152h51q-16 -102 -37.5 -205.5t-50.5 -208.5h-51l-47 156h-334l-119 -572h469l154 246h51q-4 -80 -16.5 -171t-34.5 -181h-1010l10 59q84 35 181 50l256 1214q-41 10 -80 22.5t-78 28.5l14 60 h969zM567 1540l-29 39l343 229q10 8 28 9q16 0 25 -9l174 -223l-31 -43l-205 115z" />
<glyph unicode="&#xcb;" horiz-adv-x="1171" d="M1231 1434q-16 -82 -39 -166t-53 -166h-54l-34 225h-449l-113 -543h332l113 152h51q-16 -102 -37.5 -205.5t-50.5 -208.5h-51l-47 156h-334l-119 -572h469l154 246h51q-4 -80 -16.5 -171t-34.5 -181h-1010l10 59q84 35 181 50l256 1214q-41 10 -80 22.5t-78 28.5l14 60 h969zM469 1616q0 49 33.5 73.5t82.5 24.5q51 0 84 -24.5t33 -73.5q0 -47 -33 -71.5t-84 -24.5q-49 0 -82.5 24.5t-33.5 71.5zM925 1616q0 49 33 73.5t84 24.5q49 0 82 -24.5t35 -73.5q-2 -47 -35 -71.5t-82 -24.5q-51 0 -84 24.5t-33 71.5z" />
<glyph unicode="&#xcc;" horiz-adv-x="702" d="M522 0h-524l10 59q90 37 176 50l256 1214q-41 8 -77.5 21.5t-75.5 29.5l14 60h524l-12 -60q-41 -16 -88 -29.5t-88 -21.5l-256 -1214q41 -8 81 -20.5t70 -29.5zM735 1575l-34 -39l-463 186v41q12 14 38.5 27.5t57.5 23t59.5 13.5t45.5 2z" />
<glyph unicode="&#xcd;" horiz-adv-x="702" d="M522 0h-524l10 59q90 37 176 50l256 1214q-41 8 -77.5 21.5t-75.5 29.5l14 60h524l-12 -60q-41 -16 -88 -29.5t-88 -21.5l-256 -1214q41 -8 81 -20.5t70 -29.5zM697 1829q18 2 46.5 -2t58.5 -13.5t55.5 -22.5t37.5 -28v-41l-463 -186l-34 39z" />
<glyph unicode="&#xce;" horiz-adv-x="702" d="M522 0h-524l10 59q90 37 176 50l256 1214q-41 8 -77.5 21.5t-75.5 29.5l14 60h524l-12 -60q-41 -16 -88 -29.5t-88 -21.5l-256 -1214q41 -8 81 -20.5t70 -29.5zM311 1540l-29 39l343 229q10 8 28 9q16 0 25 -9l174 -223l-31 -43l-205 115z" />
<glyph unicode="&#xcf;" horiz-adv-x="702" d="M522 0h-524l10 59q90 37 176 50l256 1214q-41 8 -77.5 21.5t-75.5 29.5l14 60h524l-12 -60q-41 -16 -88 -29.5t-88 -21.5l-256 -1214q41 -8 81 -20.5t70 -29.5zM232 1616q0 49 33.5 73.5t82.5 24.5q51 0 84 -24.5t33 -73.5q0 -47 -33 -71.5t-84 -24.5q-49 0 -82.5 24.5 t-33.5 71.5zM688 1616q0 49 33 73.5t84 24.5q49 0 82 -24.5t35 -73.5q-2 -47 -35 -71.5t-82 -24.5q-51 0 -84 24.5t-33 71.5z" />
<glyph unicode="&#xd0;" horiz-adv-x="1437" d="M-41 0l10 59q84 35 181 50l120 569h-184l23 106h182l115 539q-45 10 -85 23.5t-73 27.5l14 60h207q35 0 83 2t98 5l98 6q47 3 77 3q164 0 279 -39t185.5 -105.5t102 -157.5t31.5 -196q0 -104 -17 -217.5t-58 -221t-110 -204t-172 -169t-244.5 -115.5t-325.5 -43 q-31 0 -73 3t-89 6l-94 6q-47 3 -86 3h-195zM784 1343q-53 0 -108 -2t-84 -6l-117 -551h342l-22 -106h-342l-123 -584q20 -2 50 -3l59 -2q30 -1 53.5 -2t35.5 1q193 -2 323 76t209 204t111.5 282.5t32.5 314.5q0 80 -18.5 149.5t-65.5 119.5t-128 79.5t-208 29.5z" />
<glyph unicode="&#xd1;" horiz-adv-x="1480" d="M1204 1434h436l-12 -60q-41 -29 -90 -49t-94 -33l-281 -1317h-110l-514 1129l-43 160h-7l-20 -160l-205 -973q37 -10 74 -28.5t68 -43.5l-13 -59h-434l10 59q88 53 185 72l249 1174q-39 16 -74.5 34.5t-64.5 36.5l10 58h340l441 -973l61 -176h8l33 176l176 831 q-82 35 -141 82zM1293 1681q-66 -66 -121 -90t-107 -24q-39 0 -72.5 11t-66.5 24l-63 23q-31 11 -64 11q-29 0 -57.5 -11t-61.5 -40l-39 60q78 70 138.5 95t109.5 25q37 0 71 -10t64.5 -22.5t61.5 -22.5t63 -10q27 0 55.5 9t61.5 32z" />
<glyph unicode="&#xd2;" horiz-adv-x="1495" d="M135 569q0 186 56.5 348t163 282t256 189.5t337.5 69.5q150 0 252.5 -49t164.5 -129t90 -183.5t28 -213.5q0 -164 -46 -327t-142.5 -292t-243 -209t-346.5 -80q-147 0 -255 48.5t-177.5 129t-103.5 188t-34 228.5zM354 567q0 -113 30 -203t82 -153.5t123 -96.5 q67 -32 145 -32h9h8q144 0 241 73q99 75 159.5 192.5t86.5 260t26 277.5q0 104 -23.5 190t-71 147.5t-116 95.5t-158.5 34q-141 0 -243.5 -74t-169 -188.5t-97.5 -254t-31 -268.5zM1097 1575l-34 -39l-463 186v41q12 14 38.5 27.5t57.5 23t59.5 13.5t45.5 2z" />
<glyph unicode="&#xd3;" horiz-adv-x="1495" d="M135 569q0 186 56.5 348t163 282t256 189.5t337.5 69.5q150 0 252.5 -49t164.5 -129t90 -183.5t28 -213.5q0 -164 -46 -327t-142.5 -292t-243 -209t-346.5 -80q-147 0 -255 48.5t-177.5 129t-103.5 188t-34 228.5zM354 567q0 -113 30 -203t82 -153.5t123 -96.5 q67 -32 145 -32h9h8q144 0 241 73q99 75 159.5 192.5t86.5 260t26 277.5q0 104 -23.5 190t-71 147.5t-116 95.5t-158.5 34q-141 0 -243.5 -74t-169 -188.5t-97.5 -254t-31 -268.5zM1102 1829q18 2 46.5 -2t58.5 -13.5t55.5 -22.5t37.5 -28v-41l-463 -186l-34 39z" />
<glyph unicode="&#xd4;" horiz-adv-x="1495" d="M135 569q0 186 56.5 348t163 282t256 189.5t337.5 69.5q150 0 252.5 -49t164.5 -129t90 -183.5t28 -213.5q0 -164 -46 -327t-142.5 -292t-243 -209t-346.5 -80q-147 0 -255 48.5t-177.5 129t-103.5 188t-34 228.5zM354 567q0 -113 30 -203t82 -153.5t123 -96.5 q67 -32 145 -32h9h8q144 0 241 73q99 75 159.5 192.5t86.5 260t26 277.5q0 104 -23.5 190t-71 147.5t-116 95.5t-158.5 34q-141 0 -243.5 -74t-169 -188.5t-97.5 -254t-31 -268.5zM696 1540l-29 39l343 229q10 8 28 9q16 0 25 -9l174 -223l-31 -43l-205 115z" />
<glyph unicode="&#xd5;" horiz-adv-x="1495" d="M135 569q0 186 56.5 348t163 282t256 189.5t337.5 69.5q150 0 252.5 -49t164.5 -129t90 -183.5t28 -213.5q0 -164 -46 -327t-142.5 -292t-243 -209t-346.5 -80q-147 0 -255 48.5t-177.5 129t-103.5 188t-34 228.5zM354 567q0 -113 30 -203t82 -153.5t123 -96.5 q67 -32 145 -32h9h8q144 0 241 73q99 75 159.5 192.5t86.5 260t26 277.5q0 104 -23.5 190t-71 147.5t-116 95.5t-158.5 34q-141 0 -243.5 -74t-169 -188.5t-97.5 -254t-31 -268.5zM1297 1681q-66 -66 -121 -90t-107 -24q-39 0 -72.5 11t-66.5 24l-63 23q-31 11 -64 11 q-29 0 -57.5 -11t-61.5 -40l-39 60q78 70 138.5 95t109.5 25q37 0 71 -10t64.5 -22.5t61.5 -22.5t63 -10q27 0 55.5 9t61.5 32z" />
<glyph unicode="&#xd6;" horiz-adv-x="1495" d="M135 569q0 186 56.5 348t163 282t256 189.5t337.5 69.5q150 0 252.5 -49t164.5 -129t90 -183.5t28 -213.5q0 -164 -46 -327t-142.5 -292t-243 -209t-346.5 -80q-147 0 -255 48.5t-177.5 129t-103.5 188t-34 228.5zM354 567q0 -113 30 -203t82 -153.5t123 -96.5 q67 -32 145 -32h9h8q144 0 241 73q99 75 159.5 192.5t86.5 260t26 277.5q0 104 -23.5 190t-71 147.5t-116 95.5t-158.5 34q-141 0 -243.5 -74t-169 -188.5t-97.5 -254t-31 -268.5zM613 1616q0 49 33.5 73.5t82.5 24.5q51 0 84 -24.5t33 -73.5q0 -47 -33 -71.5t-84 -24.5 q-49 0 -82.5 24.5t-33.5 71.5zM1069 1616q0 49 33 73.5t84 24.5q49 0 82 -24.5t35 -73.5q-2 -47 -35 -71.5t-82 -24.5q-51 0 -84 24.5t-33 71.5z" />
<glyph unicode="&#xd7;" d="M170 418l287 287l-283 284l76 76l285 -283l286 287l76 -76l-287 -286l293 -293l-78 -78l-293 293l-286 -287z" />
<glyph unicode="&#xd8;" horiz-adv-x="1495" d="M135 569q0 186 56.5 348t163 282t256 189.5t337.5 69.5q106 0 187.5 -24.5t140.5 -67.5l80 94l82 -65l-84 -101q70 -80 99.5 -188.5t29.5 -222.5q0 -164 -46 -327t-142.5 -292t-243 -209t-346.5 -80q-117 0 -207 30t-158 83l-96 -115l-80 68l100 119q-66 82 -97.5 187 t-31.5 222zM743 82q98 -2 175 31.5t134.5 92t97.5 136.5t64.5 166t36 181t13.5 183q-2 143 -50 256l-757 -903q106 -145 286 -143zM895 1352q-141 0 -242.5 -73t-167 -184.5t-97.5 -248.5t-34 -266q0 -72 12.5 -136.5t34.5 -117.5l760 903q-47 59 -113.5 91t-152.5 32z" />
<glyph unicode="&#xd9;" horiz-adv-x="1363" d="M229 1434h521l-13 -60q-80 -35 -166 -51l-174 -813q-15 -75 -15 -134q0 -27 3 -51q10 -77 49 -126t102.5 -72t147.5 -23q166 0 265.5 92.5t140.5 290.5l174 818q-90 31 -148 69l12 60h439l-15 -60q-35 -23 -82 -41t-92 -28l-174 -822q-57 -268 -201.5 -384.5 t-371.5 -116.5q-135 0 -228.5 38.5t-146.5 107.5t-68 164q-5 35 -5 72q0 64 16 134l176 825q-41 8 -84 21.5t-74 29.5zM1032 1575l-34 -39l-463 186v41q12 14 38.5 27.5t57.5 23t59.5 13.5t45.5 2z" />
<glyph unicode="&#xda;" horiz-adv-x="1363" d="M229 1434h521l-13 -60q-80 -35 -166 -51l-174 -813q-15 -75 -15 -134q0 -27 3 -51q10 -77 49 -126t102.5 -72t147.5 -23q166 0 265.5 92.5t140.5 290.5l174 818q-90 31 -148 69l12 60h439l-15 -60q-35 -23 -82 -41t-92 -28l-174 -822q-57 -268 -201.5 -384.5 t-371.5 -116.5q-135 0 -228.5 38.5t-146.5 107.5t-68 164q-5 35 -5 72q0 64 16 134l176 825q-41 8 -84 21.5t-74 29.5zM1166 1829q18 2 46.5 -2t58.5 -13.5t55.5 -22.5t37.5 -28v-41l-463 -186l-34 39z" />
<glyph unicode="&#xdb;" horiz-adv-x="1363" d="M229 1434h521l-13 -60q-80 -35 -166 -51l-174 -813q-15 -75 -15 -134q0 -27 3 -51q10 -77 49 -126t102.5 -72t147.5 -23q166 0 265.5 92.5t140.5 290.5l174 818q-90 31 -148 69l12 60h439l-15 -60q-35 -23 -82 -41t-92 -28l-174 -822q-57 -268 -201.5 -384.5 t-371.5 -116.5q-135 0 -228.5 38.5t-146.5 107.5t-68 164q-5 35 -5 72q0 64 16 134l176 825q-41 8 -84 21.5t-74 29.5zM667 1540l-29 39l343 229q10 8 28 9q16 0 25 -9l174 -223l-31 -43l-205 115z" />
<glyph unicode="&#xdc;" horiz-adv-x="1363" d="M229 1434h521l-13 -60q-80 -35 -166 -51l-174 -813q-15 -75 -15 -134q0 -27 3 -51q10 -77 49 -126t102.5 -72t147.5 -23q166 0 265.5 92.5t140.5 290.5l174 818q-90 31 -148 69l12 60h439l-15 -60q-35 -23 -82 -41t-92 -28l-174 -822q-57 -268 -201.5 -384.5 t-371.5 -116.5q-135 0 -228.5 38.5t-146.5 107.5t-68 164q-5 35 -5 72q0 64 16 134l176 825q-41 8 -84 21.5t-74 29.5zM619 1616q0 49 33.5 73.5t82.5 24.5q51 0 84 -24.5t33 -73.5q0 -47 -33 -71.5t-84 -24.5q-49 0 -82.5 24.5t-33.5 71.5zM1075 1616q0 49 33 73.5t84 24.5 q49 0 82 -24.5t35 -73.5q-2 -47 -35 -71.5t-82 -24.5q-51 0 -84 24.5t-33 71.5z" />
<glyph unicode="&#xdd;" horiz-adv-x="1300" d="M1065 1434h457l-15 -60q-41 -20 -82 -31.5t-82 -19.5l-538 -713l-107 -501q76 -10 144 -50l-11 -59h-520l11 59q82 37 180 50l106 499l-264 715q-45 8 -83 21.5t-73 29.5l15 60h540l-12 -60l-74 -26q-41 -14 -94 -25l207 -602l434 602q-43 10 -81 22.5t-70 28.5z M1078 1829q18 2 46.5 -2t58.5 -13.5t55.5 -22.5t37.5 -28v-41l-463 -186l-34 39z" />
<glyph unicode="&#xde;" horiz-adv-x="1196" d="M346 109q53 -8 99.5 -20.5t84.5 -31.5l-10 -57h-561l10 57q47 23 91 33t90 19l256 1216q-41 8 -80 20.5t-78 30.5l14 58h529l-13 -58q-41 -18 -88 -30.5t-88 -20.5l-20 -100q47 4 94 6t90 2q215 0 333 -84t118 -260q0 -92 -39 -186.5t-119 -171t-205 -125t-297 -48.5h-32 q-22 0 -46 1t-46.5 3.5t-33.5 4.5zM702 1126q-51 0 -82.5 -2t-60.5 -10l-137 -639q10 -4 29.5 -5t41 -3t41.5 -2h31q100 0 181 28.5t136.5 82t85 128t29.5 164.5q0 135 -66.5 196.5t-228.5 61.5z" />
<glyph unicode="&#xdf;" horiz-adv-x="1251" d="M578 793q0 68 26.5 130t78.5 117.5t128 98.5t174 69q8 45 1 88t-31.5 77t-64.5 55.5t-93 23.5q-47 -2 -96.5 -16.5t-93.5 -51t-77.5 -99t-50.5 -159.5l-172 -1038q-23 -145 -76 -241.5t-113.5 -156t-117.5 -88t-88 -36.5l-18 45q25 12 59.5 44t68 85t63.5 130t46 179 l133 873h-149v53q41 23 87 40t87 27l14 72q25 127 86.5 210t138 131t157.5 66.5t149 18.5q92 0 156.5 -22.5t104.5 -60.5t57 -89t17 -106q0 -20 -2 -42t-6 -44q-80 -10 -152.5 -36t-128 -66t-89 -97t-33.5 -133q0 -49 26.5 -89t66.5 -76t86 -71t86 -79t66.5 -98t26.5 -126 q0 -74 -33.5 -134t-92 -104t-135.5 -68t-163 -24t-155.5 16.5t-110.5 43.5q10 55 24.5 104t59.5 90l182 -166q41 0 84 13.5t77 40t55.5 63.5t23.5 84q-2 59 -27.5 103.5t-65.5 80t-85 68.5t-85 72t-65.5 87t-25.5 118z" />
<glyph unicode="&#xe0;" horiz-adv-x="1095" d="M387 102q55 0 110.5 52.5t104.5 126t88 153.5t62 133l65 351q-29 20 -55.5 28t-73.5 8q-94 0 -171 -58t-131 -150.5t-84 -205t-30 -221.5q0 -104 26 -160.5t89 -56.5zM711 401q-27 -74 -67 -149.5t-92 -137t-115.5 -100.5t-135.5 -39q-213 0 -213 310q0 143 41 279 t119 242.5t189.5 171t252.5 64.5q51 0 82 -9t74 -27q82 43 172 43l-184 -936h149v-52q-41 -33 -98.5 -53t-112.5 -20q-59 0 -84.5 25.5t-25.5 54.5q0 37 14 120.5t43 212.5h-8zM766 1214l-45 -34l-340 305v41q12 10 39.5 19t60.5 15.5t62.5 9.5t45.5 1z" />
<glyph unicode="&#xe1;" horiz-adv-x="1095" d="M387 102q55 0 110.5 52.5t104.5 126t88 153.5t62 133l65 351q-29 20 -55.5 28t-73.5 8q-94 0 -171 -58t-131 -150.5t-84 -205t-30 -221.5q0 -104 26 -160.5t89 -56.5zM711 401q-27 -74 -67 -149.5t-92 -137t-115.5 -100.5t-135.5 -39q-213 0 -213 310q0 143 41 279 t119 242.5t189.5 171t252.5 64.5q51 0 82 -9t74 -27q82 43 172 43l-184 -936h149v-52q-41 -33 -98.5 -53t-112.5 -20q-59 0 -84.5 25.5t-25.5 54.5q0 37 14 120.5t43 212.5h-8zM846 1571q16 2 43 -1t55.5 -9.5t53 -15.5t36.5 -19v-39l-403 -309l-45 36z" />
<glyph unicode="&#xe2;" horiz-adv-x="1095" d="M387 102q55 0 110.5 52.5t104.5 126t88 153.5t62 133l65 351q-29 20 -55.5 28t-73.5 8q-94 0 -171 -58t-131 -150.5t-84 -205t-30 -221.5q0 -104 26 -160.5t89 -56.5zM711 401q-27 -74 -67 -149.5t-92 -137t-115.5 -100.5t-135.5 -39q-213 0 -213 310q0 143 41 279 t119 242.5t189.5 171t252.5 64.5q51 0 82 -9t74 -27q82 43 172 43l-184 -936h149v-52q-41 -33 -98.5 -53t-112.5 -20q-59 0 -84.5 25.5t-25.5 54.5q0 37 14 120.5t43 212.5h-8zM502 1208l-60 33l309 381q10 8 27 8q16 0 25 -8l149 -379l-55 -35l-160 219z" />
<glyph unicode="&#xe3;" horiz-adv-x="1095" d="M387 102q55 0 110.5 52.5t104.5 126t88 153.5t62 133l65 351q-29 20 -55.5 28t-73.5 8q-94 0 -171 -58t-131 -150.5t-84 -205t-30 -221.5q0 -104 26 -160.5t89 -56.5zM711 401q-27 -74 -67 -149.5t-92 -137t-115.5 -100.5t-135.5 -39q-213 0 -213 310q0 143 41 279 t119 242.5t189.5 171t252.5 64.5q51 0 82 -9t74 -27q82 43 172 43l-184 -936h149v-52q-41 -33 -98.5 -53t-112.5 -20q-59 0 -84.5 25.5t-25.5 54.5q0 37 14 120.5t43 212.5h-8zM1012 1376q-66 -66 -120 -91t-101 -25q-37 0 -70 11t-64 23l-60 24q-30 11 -60 11 q-27 0 -54.5 -10t-60.5 -39l-39 57q76 72 135.5 96.5t106.5 24.5q37 0 68.5 -10t60 -22.5t58.5 -22.5t60 -10q27 0 53.5 9t59.5 32z" />
<glyph unicode="&#xe4;" horiz-adv-x="1095" d="M387 102q55 0 110.5 52.5t104.5 126t88 153.5t62 133l65 351q-29 20 -55.5 28t-73.5 8q-94 0 -171 -58t-131 -150.5t-84 -205t-30 -221.5q0 -104 26 -160.5t89 -56.5zM711 401q-27 -74 -67 -149.5t-92 -137t-115.5 -100.5t-135.5 -39q-213 0 -213 310q0 143 41 279 t119 242.5t189.5 171t252.5 64.5q51 0 82 -9t74 -27q82 43 172 43l-184 -936h149v-52q-41 -33 -98.5 -53t-112.5 -20q-59 0 -84.5 25.5t-25.5 54.5q0 37 14 120.5t43 212.5h-8zM398 1356q0 49 30.5 78.5t81.5 29.5q49 0 80 -29.5t31 -78.5q0 -47 -31 -76t-80 -29 q-51 0 -81.5 29t-30.5 76zM811 1356q0 49 31 78.5t80 29.5q51 0 82 -29.5t31 -78.5q0 -47 -31 -76t-82 -29q-49 0 -80 29t-31 76z" />
<glyph unicode="&#xe5;" horiz-adv-x="1095" d="M387 102q55 0 110.5 52.5t104.5 126t88 153.5t62 133l65 351q-29 20 -55.5 28t-73.5 8q-94 0 -171 -58t-131 -150.5t-84 -205t-30 -221.5q0 -104 26 -160.5t89 -56.5zM711 401q-27 -74 -67 -149.5t-92 -137t-115.5 -100.5t-135.5 -39q-213 0 -213 310q0 143 41 279 t119 242.5t189.5 171t252.5 64.5q51 0 82 -9t74 -27q82 43 172 43l-184 -936h149v-52q-41 -33 -98.5 -53t-112.5 -20q-59 0 -84.5 25.5t-25.5 54.5q0 37 14 120.5t43 212.5h-8zM536 1364q0 47 16.5 90t47.5 75t74 50t96 18q78 0 121 -43t43 -110q0 -49 -18.5 -91t-49.5 -73 t-73 -48.5t-89 -17.5q-78 0 -123 39t-45 111zM643 1372q0 -37 21.5 -55.5t47.5 -18.5q39 0 76 38t37 110q0 68 -59 67q-63 0 -93 -46t-30 -95z" />
<glyph unicode="&#xe6;" horiz-adv-x="1513" d="M403 102q45 0 87 21.5t76 55.5t59.5 76t40.5 83q-2 33 1 78t7 78q-104 12 -182 -4.5t-129.5 -50t-76 -80t-24.5 -93.5q0 -90 43 -127t98 -37zM680 217q-57 -109 -145.5 -175.5t-208.5 -66.5q-55 0 -103.5 19.5t-84.5 54.5t-57.5 86t-21.5 113q0 78 44 142.5t127 109.5 t200 64.5t262 6.5q25 86 37 158t3 123t-41 80t-93 29q-29 0 -64.5 -3.5t-72.5 -17.5l-109 -225h-53q-39 113 -41 233q88 47 187.5 74t216.5 27q115 0 171 -35t68 -86q66 55 150 88t182 33t169 -50.5t71 -148.5q0 -145 -144.5 -229t-466.5 -109q-8 -35 -11 -67.5t-3 -63.5 q0 -123 62.5 -201t183.5 -78q39 0 76.5 12.5t71.5 31t62 38.5l48 37l32 -39q-18 -39 -53 -75.5t-82 -66.5t-106.5 -47.5t-126.5 -17.5q-131 0 -217 60.5t-119 181.5zM1169 961q-88 0 -163.5 -82t-128.5 -279q199 6 309 68.5t110 173.5q0 43 -25.5 81t-101.5 38z" />
<glyph unicode="&#xe7;" horiz-adv-x="876" d="M782 182q-39 -68 -117.5 -127t-193.5 -75l-68 -119q86 -4 123 -40t41 -95q2 -63 -35.5 -109.5t-95 -76t-124 -43t-122.5 -11.5v61q39 6 78 17.5t70 28t49.5 40t15.5 52.5q0 18 -5 34.5t-18 29.5t-38 22.5t-66 13.5l103 192q-137 10 -217 103.5t-80 253.5q0 147 47 277 t128 227.5t190.5 154t234.5 56.5q78 0 127 -12.5t74 -35.5q2 -23 -3.5 -50t-16.5 -54t-28.5 -49.5t-35.5 -30.5l-140 144q-70 -2 -138 -43t-122.5 -117t-88.5 -183.5t-31 -242.5q-2 -141 56 -207t159 -64q43 -2 80.5 10.5t70.5 31t60 38.5l47 37z" />
<glyph unicode="&#xe8;" horiz-adv-x="929" d="M803 182q-18 -39 -53 -75.5t-82 -66.5t-106.5 -47.5t-127.5 -17.5q-170 0 -261 97.5t-91 269.5q0 145 41 274t114.5 225.5t179 152t234.5 55.5q98 0 169 -50.5t71 -148.5q0 -145 -144.5 -229t-465.5 -109q-8 -35 -11.5 -67.5t-3.5 -63.5q0 -123 62.5 -201t183.5 -78 q39 0 77 12.5t71.5 31t61.5 38.5l48 37zM588 961q-88 -2 -164 -83t-129 -278q199 6 309.5 68.5t110.5 173.5q0 43 -25.5 80t-101.5 39zM746 1214l-45 -34l-340 305v41q12 10 39.5 19t60.5 15.5t62.5 9.5t45.5 1z" />
<glyph unicode="&#xe9;" horiz-adv-x="929" d="M803 182q-18 -39 -53 -75.5t-82 -66.5t-106.5 -47.5t-127.5 -17.5q-170 0 -261 97.5t-91 269.5q0 145 41 274t114.5 225.5t179 152t234.5 55.5q98 0 169 -50.5t71 -148.5q0 -145 -144.5 -229t-465.5 -109q-8 -35 -11.5 -67.5t-3.5 -63.5q0 -123 62.5 -201t183.5 -78 q39 0 77 12.5t71.5 31t61.5 38.5l48 37zM588 961q-88 -2 -164 -83t-129 -278q199 6 309.5 68.5t110.5 173.5q0 43 -25.5 80t-101.5 39zM782 1571q16 2 43 -1t55.5 -9.5t53 -15.5t36.5 -19v-39l-403 -309l-45 36z" />
<glyph unicode="&#xea;" horiz-adv-x="929" d="M803 182q-18 -39 -53 -75.5t-82 -66.5t-106.5 -47.5t-127.5 -17.5q-170 0 -261 97.5t-91 269.5q0 145 41 274t114.5 225.5t179 152t234.5 55.5q98 0 169 -50.5t71 -148.5q0 -145 -144.5 -229t-465.5 -109q-8 -35 -11.5 -67.5t-3.5 -63.5q0 -123 62.5 -201t183.5 -78 q39 0 77 12.5t71.5 31t61.5 38.5l48 37zM588 961q-88 -2 -164 -83t-129 -278q199 6 309.5 68.5t110.5 173.5q0 43 -25.5 80t-101.5 39zM443 1208l-60 33l309 381q10 8 27 8q16 0 25 -8l149 -379l-55 -35l-160 219z" />
<glyph unicode="&#xeb;" horiz-adv-x="929" d="M803 182q-18 -39 -53 -75.5t-82 -66.5t-106.5 -47.5t-127.5 -17.5q-170 0 -261 97.5t-91 269.5q0 145 41 274t114.5 225.5t179 152t234.5 55.5q98 0 169 -50.5t71 -148.5q0 -145 -144.5 -229t-465.5 -109q-8 -35 -11.5 -67.5t-3.5 -63.5q0 -123 62.5 -201t183.5 -78 q39 0 77 12.5t71.5 31t61.5 38.5l48 37zM588 961q-88 -2 -164 -83t-129 -278q199 6 309.5 68.5t110.5 173.5q0 43 -25.5 80t-101.5 39zM332 1356q0 49 30.5 78.5t81.5 29.5q49 0 80 -29.5t31 -78.5q0 -47 -31 -76t-80 -29q-51 0 -81.5 29t-30.5 76zM745 1356q0 49 31 78.5 t80 29.5q51 0 82 -29.5t31 -78.5q0 -47 -31 -76t-82 -29q-49 0 -80 29t-31 76z" />
<glyph unicode="&#xec;" horiz-adv-x="567" d="M145 924v51q31 12 70 25.5t80 23.5t78 17.5t65 7.5l37 -25l-192 -909h151v-54q-43 -33 -100.5 -53t-112.5 -20q-59 0 -84.5 26.5t-25.5 61.5q0 41 6 80t16 86l143 661zM494 1214l-45 -34l-340 305v41q12 10 39.5 19t60.5 15.5t62.5 9.5t45.5 1z" />
<glyph unicode="&#xed;" horiz-adv-x="567" d="M145 924v51q31 12 70 25.5t80 23.5t78 17.5t65 7.5l37 -25l-192 -909h151v-54q-43 -33 -100.5 -53t-112.5 -20q-59 0 -84.5 26.5t-25.5 61.5q0 41 6 80t16 86l143 661zM571 1571q16 2 43 -1t55.5 -9.5t53 -15.5t36.5 -19v-39l-403 -309l-45 36z" />
<glyph unicode="&#xee;" horiz-adv-x="567" d="M145 924v51q31 12 70 25.5t80 23.5t78 17.5t65 7.5l37 -25l-192 -909h151v-54q-43 -33 -100.5 -53t-112.5 -20q-59 0 -84.5 26.5t-25.5 61.5q0 41 6 80t16 86l143 661zM236 1208l-60 33l309 381q10 8 27 8q16 0 25 -8l149 -379l-55 -35l-160 219z" />
<glyph unicode="&#xef;" horiz-adv-x="567" d="M145 924v51q31 12 70 25.5t80 23.5t78 17.5t65 7.5l37 -25l-192 -909h151v-54q-43 -33 -100.5 -53t-112.5 -20q-59 0 -84.5 26.5t-25.5 61.5q0 41 6 80t16 86l143 661zM93 1356q0 49 30.5 78.5t81.5 29.5q49 0 80 -29.5t31 -78.5q0 -47 -31 -76t-80 -29q-51 0 -81.5 29 t-30.5 76zM506 1356q0 49 31 78.5t80 29.5q51 0 82 -29.5t31 -78.5q0 -47 -31 -76t-82 -29q-49 0 -80 29t-31 76z" />
<glyph unicode="&#xf0;" horiz-adv-x="1015" d="M465 1247l227 103q-43 55 -96 91t-109 52v43h185q37 -14 81 -44t85 -77l202 92l43 -77l-194 -91q41 -68 66.5 -162t25.5 -221q0 -209 -50 -388t-134 -311t-198 -207t-239 -75q-147 0 -224 97.5t-77 271.5q0 125 42 249t121 222t190.5 159.5t251.5 61.5q37 0 73.5 -8 t59.5 -24q0 82 -15.5 148.5t-44.5 121.5l-225 -103zM643 948q-113 0 -188.5 -62.5t-122.5 -154.5t-67.5 -198.5t-20.5 -198.5q0 -47 6 -94t24.5 -87t51 -65t86.5 -25q68 0 136 65t123.5 178.5t90.5 267t35 333.5q-45 25 -80 33t-74 8z" />
<glyph unicode="&#xf1;" horiz-adv-x="1130" d="M791 584l25 117q11 54 11 108q0 47 -21.5 80t-68.5 33q-55 0 -112.5 -45.5t-106.5 -108.5t-89 -132t-60 -114l-109 -522h-172l180 905l-125 19l4 51q29 14 65 27.5t74 23.5t73.5 16.5t66.5 6.5l41 -25l-78 -362h10q39 82 89.5 152.5t106.5 122.5t117.5 82t125.5 30 q86 0 126 -54.5t40 -136.5q0 -45 -10.5 -112.5t-24.5 -127.5l-117 -503h152v-54q-41 -33 -99.5 -53t-113.5 -20q-59 0 -82 24.5t-23 53.5q0 39 10 85l21 93zM1024 1376q-66 -66 -120 -91t-101 -25q-37 0 -70 11t-64 23l-60 24q-30 11 -60 11q-27 0 -54.5 -10t-60.5 -39 l-39 57q76 72 135.5 96.5t106.5 24.5q37 0 68.5 -10t60 -22.5t58.5 -22.5t60 -10q27 0 53.5 9t59.5 32z" />
<glyph unicode="&#xf2;" horiz-adv-x="1042" d="M84 381q0 109 34 226.5t103.5 216t174 162t243.5 63.5q160 0 241 -98.5t81 -291.5q0 -135 -39 -259t-109 -218t-168 -150.5t-217 -56.5q-158 0 -251 101.5t-93 304.5zM598 961q-100 -2 -163.5 -66t-100.5 -158t-51.5 -202.5t-14.5 -198.5q0 -121 53.5 -197t143.5 -76 q72 0 128 54.5t96 143.5t61.5 201.5t21.5 227.5q0 121 -42 195t-132 76zM719 1214l-45 -34l-340 305v41q12 10 39.5 19t60.5 15.5t62.5 9.5t45.5 1z" />
<glyph unicode="&#xf3;" horiz-adv-x="1042" d="M84 381q0 109 34 226.5t103.5 216t174 162t243.5 63.5q160 0 241 -98.5t81 -291.5q0 -135 -39 -259t-109 -218t-168 -150.5t-217 -56.5q-158 0 -251 101.5t-93 304.5zM598 961q-100 -2 -163.5 -66t-100.5 -158t-51.5 -202.5t-14.5 -198.5q0 -121 53.5 -197t143.5 -76 q72 0 128 54.5t96 143.5t61.5 201.5t21.5 227.5q0 121 -42 195t-132 76zM795 1571q16 2 43 -1t55.5 -9.5t53 -15.5t36.5 -19v-39l-403 -309l-45 36z" />
<glyph unicode="&#xf4;" horiz-adv-x="1042" d="M84 381q0 109 34 226.5t103.5 216t174 162t243.5 63.5q160 0 241 -98.5t81 -291.5q0 -135 -39 -259t-109 -218t-168 -150.5t-217 -56.5q-158 0 -251 101.5t-93 304.5zM598 961q-100 -2 -163.5 -66t-100.5 -158t-51.5 -202.5t-14.5 -198.5q0 -121 53.5 -197t143.5 -76 q72 0 128 54.5t96 143.5t61.5 201.5t21.5 227.5q0 121 -42 195t-132 76zM469 1208l-60 33l309 381q10 8 27 8q16 0 25 -8l149 -379l-55 -35l-160 219z" />
<glyph unicode="&#xf5;" horiz-adv-x="1042" d="M84 381q0 109 34 226.5t103.5 216t174 162t243.5 63.5q160 0 241 -98.5t81 -291.5q0 -135 -39 -259t-109 -218t-168 -150.5t-217 -56.5q-158 0 -251 101.5t-93 304.5zM598 961q-100 -2 -163.5 -66t-100.5 -158t-51.5 -202.5t-14.5 -198.5q0 -121 53.5 -197t143.5 -76 q72 0 128 54.5t96 143.5t61.5 201.5t21.5 227.5q0 121 -42 195t-132 76zM1000 1376q-66 -66 -120 -91t-101 -25q-37 0 -70 11t-64 23l-60 24q-30 11 -60 11q-27 0 -54.5 -10t-60.5 -39l-39 57q76 72 135.5 96.5t106.5 24.5q37 0 68.5 -10t60 -22.5t58.5 -22.5t60 -10 q27 0 53.5 9t59.5 32z" />
<glyph unicode="&#xf6;" horiz-adv-x="1042" d="M84 381q0 109 34 226.5t103.5 216t174 162t243.5 63.5q160 0 241 -98.5t81 -291.5q0 -135 -39 -259t-109 -218t-168 -150.5t-217 -56.5q-158 0 -251 101.5t-93 304.5zM598 961q-100 -2 -163.5 -66t-100.5 -158t-51.5 -202.5t-14.5 -198.5q0 -121 53.5 -197t143.5 -76 q72 0 128 54.5t96 143.5t61.5 201.5t21.5 227.5q0 121 -42 195t-132 76zM330 1356q0 49 30.5 78.5t81.5 29.5q49 0 80 -29.5t31 -78.5q0 -47 -31 -76t-80 -29q-51 0 -81.5 29t-30.5 76zM743 1356q0 49 31 78.5t80 29.5q51 0 82 -29.5t31 -78.5q0 -47 -31 -76t-82 -29 q-49 0 -80 29t-31 76z" />
<glyph unicode="&#xf7;" d="M76 762h921v-109h-921v109zM397 1096q0 61 39 98t101 37q63 0 102 -37t39 -98q0 -59 -39 -96t-102 -37q-61 0 -100.5 37t-39.5 96zM397 316q0 61 39 98t101 37q63 0 102 -37t39 -98q0 -59 -39 -96t-102 -37q-61 0 -100.5 37t-39.5 96z" />
<glyph unicode="&#xf8;" horiz-adv-x="1042" d="M84 381q0 109 34 226.5t103.5 216t174 162t243.5 63.5q131 0 215 -74l145 168l78 -64l-162 -188q23 -47 34.5 -103.5t11.5 -128.5q0 -135 -39 -259t-109 -218t-168 -150.5t-217 -56.5q-143 0 -233 84l-160 -186l-74 66l174 202q-51 90 -51 240zM465 63q70 0 126 53.5 t96 140.5t61.5 196.5t21.5 222.5v49l-469 -545q23 -55 65 -86t99 -31zM598 961q-98 -2 -161.5 -63.5t-100.5 -154t-51.5 -199t-16.5 -194.5v-26q0 -12 2 -27l478 551q-46 111 -150 113z" />
<glyph unicode="&#xf9;" horiz-adv-x="1110" d="M999 113v-52q-41 -33 -99 -53t-114 -20q-59 0 -84.5 24.5t-25.5 53.5q0 37 10 123.5t45 211.5h-8q-27 -57 -67 -130.5t-95 -139t-125.5 -111t-156.5 -45.5q-72 0 -121 50.5t-49 142.5q0 45 14 133t35 193l44 214l42 197l-125 19v51l70.5 24.5t75.5 22.5t73 17.5t63 9.5 l45 -25q-33 -154 -66.5 -292t-62.5 -292q-10 -49 -21 -109.5t-11 -131.5q0 -43 23.5 -70t53.5 -27q45 0 90.5 27t85.5 70t75.5 95t64.5 103.5t48 95.5l30 70l90 461h170l-168 -911h151zM721 1214l-45 -34l-340 305v41q12 10 39.5 19t60.5 15.5t62.5 9.5t45.5 1z" />
<glyph unicode="&#xfa;" horiz-adv-x="1110" d="M999 113v-52q-41 -33 -99 -53t-114 -20q-59 0 -84.5 24.5t-25.5 53.5q0 37 10 123.5t45 211.5h-8q-27 -57 -67 -130.5t-95 -139t-125.5 -111t-156.5 -45.5q-72 0 -121 50.5t-49 142.5q0 45 14 133t35 193l44 214l42 197l-125 19v51l70.5 24.5t75.5 22.5t73 17.5t63 9.5 l45 -25q-33 -154 -66.5 -292t-62.5 -292q-10 -49 -21 -109.5t-11 -131.5q0 -43 23.5 -70t53.5 -27q45 0 90.5 27t85.5 70t75.5 95t64.5 103.5t48 95.5l30 70l90 461h170l-168 -911h151zM836 1571q16 2 43 -1t55.5 -9.5t53 -15.5t36.5 -19v-39l-403 -309l-45 36z" />
<glyph unicode="&#xfb;" horiz-adv-x="1110" d="M999 113v-52q-41 -33 -99 -53t-114 -20q-59 0 -84.5 24.5t-25.5 53.5q0 37 10 123.5t45 211.5h-8q-27 -57 -67 -130.5t-95 -139t-125.5 -111t-156.5 -45.5q-72 0 -121 50.5t-49 142.5q0 45 14 133t35 193l44 214l42 197l-125 19v51l70.5 24.5t75.5 22.5t73 17.5t63 9.5 l45 -25q-33 -154 -66.5 -292t-62.5 -292q-10 -49 -21 -109.5t-11 -131.5q0 -43 23.5 -70t53.5 -27q45 0 90.5 27t85.5 70t75.5 95t64.5 103.5t48 95.5l30 70l90 461h170l-168 -911h151zM469 1208l-60 33l309 381q10 8 27 8q16 0 25 -8l149 -379l-55 -35l-160 219z" />
<glyph unicode="&#xfc;" horiz-adv-x="1110" d="M999 113v-52q-41 -33 -99 -53t-114 -20q-59 0 -84.5 24.5t-25.5 53.5q0 37 10 123.5t45 211.5h-8q-27 -57 -67 -130.5t-95 -139t-125.5 -111t-156.5 -45.5q-72 0 -121 50.5t-49 142.5q0 45 14 133t35 193l44 214l42 197l-125 19v51l70.5 24.5t75.5 22.5t73 17.5t63 9.5 l45 -25q-33 -154 -66.5 -292t-62.5 -292q-10 -49 -21 -109.5t-11 -131.5q0 -43 23.5 -70t53.5 -27q45 0 90.5 27t85.5 70t75.5 95t64.5 103.5t48 95.5l30 70l90 461h170l-168 -911h151zM359 1356q0 49 30.5 78.5t81.5 29.5q49 0 80 -29.5t31 -78.5q0 -47 -31 -76t-80 -29 q-51 0 -81.5 29t-30.5 76zM772 1356q0 49 31 78.5t80 29.5q51 0 82 -29.5t31 -78.5q0 -47 -31 -76t-82 -29q-49 0 -80 29t-31 76z" />
<glyph unicode="&#xfd;" horiz-adv-x="931" d="M180 905l-131 17v51q10 8 33.5 20.5t54.5 24.5t63.5 21.5t61.5 9.5q43 0 62.5 -21.5t29.5 -56.5l170 -717l6 -123h5l47 121q27 57 54 126l54 138q27 70 49.5 137.5t38.5 124.5q0 23 -5 59.5t-11 73.5t-12.5 69t-10.5 44q29 12 62 18.5t63 6.5q61 0 109 -25 q-63 -254 -173 -508t-243 -516q-111 -215 -221.5 -321.5t-249.5 -106.5q-31 0 -58.5 8t-58.5 25q-1 6 0 11q0 18 4 40q6 29 19.5 57.5t35 53t48.5 38.5l166 -86q14 10 36.5 30t47 53.5t49 81.5t47.5 116zM768 1571q16 2 43 -1t55.5 -9.5t53 -15.5t36.5 -19v-39l-403 -309 l-45 36z" />
<glyph unicode="&#xfe;" horiz-adv-x="1110" d="M199 -299q72 -12 143 -51v-60h-322l-18 19l375 1808l-125 19v51q68 29 142.5 51.5t140.5 22.5l40 -25l-180 -872h8q37 82 81 151.5t95.5 121.5t111 82t126.5 30q45 0 86 -17.5t72 -53.5t48 -89t17 -123q0 -158 -47 -301t-128 -252t-189.5 -173.5t-233.5 -64.5 q-35 0 -59.5 2.5t-42.5 7.5t-36 13l-38 18zM721 922q-59 0 -112.5 -46.5t-99.5 -112t-83 -138t-59 -127.5l-80 -387q29 -25 60.5 -36.5t101.5 -11.5q82 0 154.5 60.5t126.5 155t86 210t32 228.5q0 98 -34 151.5t-93 53.5z" />
<glyph unicode="&#xff;" horiz-adv-x="931" d="M180 905l-131 17v51q10 8 33.5 20.5t54.5 24.5t63.5 21.5t61.5 9.5q43 0 62.5 -21.5t29.5 -56.5l170 -717l6 -123h5l47 121q27 57 54 126l54 138q27 70 49.5 137.5t38.5 124.5q0 23 -5 59.5t-11 73.5t-12.5 69t-10.5 44q29 12 62 18.5t63 6.5q61 0 109 -25 q-63 -254 -173 -508t-243 -516q-111 -215 -221.5 -321.5t-249.5 -106.5q-31 0 -58.5 8t-58.5 25q-1 6 0 11q0 18 4 40q6 29 19.5 57.5t35 53t48.5 38.5l166 -86q14 10 36.5 30t47 53.5t49 81.5t47.5 116zM283 1356q0 49 30.5 78.5t81.5 29.5q49 0 80 -29.5t31 -78.5 q0 -47 -31 -76t-80 -29q-51 0 -81.5 29t-30.5 76zM696 1356q0 49 31 78.5t80 29.5q51 0 82 -29.5t31 -78.5q0 -47 -31 -76t-82 -29q-49 0 -80 29t-31 76z" />
<glyph unicode="&#x100;" horiz-adv-x="1380" d="M360 0h-460l12 59q80 33 160 50l809 1349h53l231 -1349q37 -8 75 -19.5t69 -30.5l-11 -59h-520l10 59q92 35 181 50l-62 374h-481l-219 -374q88 -12 164 -50zM485 590h406l-66 434l-4 176h-4l-82 -180zM629 1614l21 106h618l-22 -106h-617z" />
<glyph unicode="&#x101;" horiz-adv-x="1095" d="M387 102q55 0 110.5 52.5t104.5 126t88 153.5t62 133l65 351q-29 20 -55.5 28t-73.5 8q-94 0 -171 -58t-131 -150.5t-84 -205t-30 -221.5q0 -104 26 -160.5t89 -56.5zM711 401q-27 -74 -67 -149.5t-92 -137t-115.5 -100.5t-135.5 -39q-213 0 -213 310q0 143 41 279 t119 242.5t189.5 171t252.5 64.5q51 0 82 -9t74 -27q82 43 172 43l-184 -936h149v-52q-41 -33 -98.5 -53t-112.5 -20q-59 0 -84.5 25.5t-25.5 54.5q0 37 14 120.5t43 212.5h-8zM488 1305l20 106h521l-23 -106h-518z" />
<glyph unicode="&#x102;" horiz-adv-x="1380" d="M360 0h-460l12 59q80 33 160 50l809 1349h53l231 -1349q37 -8 75 -19.5t69 -30.5l-11 -59h-520l10 59q92 35 181 50l-62 374h-481l-219 -374q88 -12 164 -50zM485 590h406l-66 434l-4 176h-4l-82 -180zM1203 1808q33 4 65 -28q-16 -37 -56 -77t-91.5 -73t-108.5 -54.5 t-108 -21.5q-111 0 -174.5 60.5t-79.5 169.5q25 39 86 31q16 -49 69 -82t117 -35q90 -2 162 28.5t119 81.5z" />
<glyph unicode="&#x103;" horiz-adv-x="1095" d="M387 102q55 0 110.5 52.5t104.5 126t88 153.5t62 133l65 351q-29 20 -55.5 28t-73.5 8q-94 0 -171 -58t-131 -150.5t-84 -205t-30 -221.5q0 -104 26 -160.5t89 -56.5zM711 401q-27 -74 -67 -149.5t-92 -137t-115.5 -100.5t-135.5 -39q-213 0 -213 310q0 143 41 279 t119 242.5t189.5 171t252.5 64.5q51 0 82 -9t74 -27q82 43 172 43l-184 -936h149v-52q-41 -33 -98.5 -53t-112.5 -20q-59 0 -84.5 25.5t-25.5 54.5q0 37 14 120.5t43 212.5h-8zM1039 1473q-18 -47 -50 -91.5t-74 -80t-91.5 -57t-100.5 -21.5q-111 0 -171 71.5t-71 182.5 l58 26q23 -51 74 -91t112 -42q33 0 71 7t73.5 22.5t67.5 40t52 55.5z" />
<glyph unicode="&#x104;" horiz-adv-x="1380" d="M360 0h-460l12 59q80 33 160 50l809 1349h53l231 -1349q37 -8 75 -19.5t69 -30.5l-4 -22l-7 -37h-81q-47 -25 -88.5 -54.5t-73 -64.5t-50 -74.5t-18.5 -82.5q0 -57 37 -94.5t100 -37.5t113 13v-60q-29 -23 -74 -41t-112 -18q-47 0 -89 14.5t-74 41t-50.5 64.5t-18.5 83 q0 104 78 180t205 131h-324l10 59q92 35 181 50l-62 374h-481l-219 -374q88 -12 164 -50zM485 590h406l-66 434l-4 176h-4l-82 -180z" />
<glyph unicode="&#x105;" horiz-adv-x="1095" d="M711 401q-27 -74 -67 -149.5t-92 -137t-115.5 -100.5t-135.5 -39q-213 0 -213 310q0 143 41 279t119 242.5t189.5 171t252.5 64.5q51 0 82 -9t74 -27q82 43 172 43l-184 -936h149v-52q-43 -33 -94 -51q-33 -18 -65.5 -43.5t-59.5 -57.5t-44.5 -70t-17.5 -81q0 -53 29 -88 t96 -37q23 2 39.5 7.5t44.5 13.5v-66q-29 -16 -72.5 -29.5t-80.5 -13.5q-123 0 -174.5 51.5t-51.5 129.5q0 90 57.5 153.5t166.5 110.5q-51 4 -72.5 26.5t-21.5 51.5q0 37 14 120.5t43 212.5h-8zM387 102q55 0 110.5 52.5t104.5 126t88 153.5t62 133l65 351q-29 20 -55.5 28 t-73.5 8q-94 0 -171 -58t-131 -150.5t-84 -205t-30 -221.5q0 -104 26 -160.5t89 -56.5z" />
<glyph unicode="&#x106;" horiz-adv-x="1300" d="M1141 373h51q0 -57 -11.5 -144.5t-33.5 -169.5q-41 -23 -88 -39t-98.5 -26t-100.5 -14.5t-92 -4.5q-174 0 -295 49.5t-195.5 129t-108.5 178t-34 196.5q0 209 59.5 380t169 293t266 189.5t353.5 67.5q135 0 229.5 -18.5t157.5 -50.5q-6 -33 -17.5 -77t-26.5 -93.5 t-32 -96.5l-30 -86h-54l-43 295q-27 10 -81 15.5t-105 5.5q-135 0 -250 -52.5t-198.5 -155t-131 -256t-47.5 -356.5q0 -127 44 -214t110.5 -140t144.5 -76q71 -21 136 -20h12h19q57 0 99 10q48 12 70 27zM1108 1829q18 2 46.5 -2t58.5 -13.5t55.5 -22.5t37.5 -28v-41 l-463 -186l-34 39z" />
<glyph unicode="&#x107;" horiz-adv-x="876" d="M782 182q-23 -39 -57.5 -75.5t-81.5 -66.5t-105.5 -47.5t-127.5 -17.5q-152 0 -240 96.5t-88 262.5q0 147 47 277t128 227.5t190.5 154t234.5 56.5q78 0 127 -12.5t74 -35.5q1 -6 0 -13q0 -17 -3 -37q-5 -28 -16.5 -54.5t-29 -49t-35.5 -30.5l-140 144q-70 -2 -138 -43 t-122.5 -117t-88.5 -184q-32 -101 -32 -227q0 -8 1 -15q-2 -141 56 -207t159 -66q43 0 80.5 12.5t70.5 31t60 38.5l47 37zM805 1571q16 2 43 -1t55.5 -9.5t53 -15.5t36.5 -19v-39l-403 -309l-45 36z" />
<glyph unicode="&#x108;" horiz-adv-x="1300" d="M1141 373h51q0 -57 -11.5 -144.5t-33.5 -169.5q-41 -23 -88 -39t-98.5 -26t-100.5 -14.5t-92 -4.5q-174 0 -295 49.5t-195.5 129t-108.5 178t-34 196.5q0 209 59.5 380t169 293t266 189.5t353.5 67.5q135 0 229.5 -18.5t157.5 -50.5q-6 -33 -17.5 -77t-26.5 -93.5 t-32 -96.5l-30 -86h-54l-43 295q-27 10 -81 15.5t-105 5.5q-135 0 -250 -52.5t-198.5 -155t-131 -256t-47.5 -356.5q0 -127 44 -214t110.5 -140t144.5 -76q71 -21 136 -20h12h19q57 0 99 10q48 12 70 27zM706 1540l-29 39l343 229q10 8 28 9q16 0 25 -9l174 -223l-31 -43 l-205 115z" />
<glyph unicode="&#x109;" horiz-adv-x="876" d="M782 182q-23 -39 -57.5 -75.5t-81.5 -66.5t-105.5 -47.5t-127.5 -17.5q-152 0 -240 96.5t-88 262.5q0 147 47 277t128 227.5t190.5 154t234.5 56.5q78 0 127 -12.5t74 -35.5q1 -6 0 -13q0 -17 -3 -37q-5 -28 -16.5 -54.5t-29 -49t-35.5 -30.5l-140 144q-70 -2 -138 -43 t-122.5 -117t-88.5 -184q-32 -101 -32 -227q0 -8 1 -15q-2 -141 56 -207t159 -66q43 0 80.5 12.5t70.5 31t60 38.5l47 37zM463 1208l-60 33l309 381q10 8 27 8q16 0 25 -8l149 -379l-55 -35l-160 219z" />
<glyph unicode="&#x10c;" horiz-adv-x="1300" d="M1141 373h51q0 -57 -11.5 -144.5t-33.5 -169.5q-41 -23 -88 -39t-98.5 -26t-100.5 -14.5t-92 -4.5q-174 0 -295 49.5t-195.5 129t-108.5 178t-34 196.5q0 209 59.5 380t169 293t266 189.5t353.5 67.5q135 0 229.5 -18.5t157.5 -50.5q-6 -33 -17.5 -77t-26.5 -93.5 t-32 -96.5l-30 -86h-54l-43 295q-27 10 -81 15.5t-105 5.5q-135 0 -250 -52.5t-198.5 -155t-131 -256t-47.5 -356.5q0 -127 44 -214t110.5 -140t144.5 -76q71 -21 136 -20h12h19q57 0 99 10q48 12 70 27zM1311 1819q16 0 30.5 -10.5t20.5 -24.5l-342 -230q-10 -6 -27 -6 q-14 0 -26 6l-174 224q8 14 19 27.5t32 13.5l184 -113z" />
<glyph unicode="&#x10d;" horiz-adv-x="876" d="M782 182q-23 -39 -57.5 -75.5t-81.5 -66.5t-105.5 -47.5t-127.5 -17.5q-152 0 -240 96.5t-88 262.5q0 147 47 277t128 227.5t190.5 154t234.5 56.5q78 0 127 -12.5t74 -35.5q1 -6 0 -13q0 -17 -3 -37q-5 -28 -16.5 -54.5t-29 -49t-35.5 -30.5l-140 144q-70 -2 -138 -43 t-122.5 -117t-88.5 -184q-32 -101 -32 -227q0 -8 1 -15q-2 -141 56 -207t159 -66q43 0 80.5 12.5t70.5 31t60 38.5l47 37zM940 1630q18 2 35.5 -8t23.5 -25l-336 -378q-10 -6 -26 -7q-16 0 -25 7l-166 376q8 16 28.5 26.5t41.5 8.5l157 -217z" />
<glyph unicode="&#x10e;" horiz-adv-x="1437" d="M-41 0l10 59q84 35 181 50l256 1214q-45 10 -85 23.5t-73 27.5l14 60h207q35 0 83 2t98 5l98 6q47 3 77 3q164 0 279 -39t185.5 -105.5t102 -157.5t31.5 -196q0 -104 -17 -217.5t-58 -221t-110 -204t-172 -169t-244.5 -115.5t-325.5 -43q-31 0 -73 3t-89 6l-94 6 q-47 3 -86 3h-195zM784 1343q-53 0 -108 -2t-84 -6l-262 -1241q20 -2 50 -3l59 -2q30 -1 54 -2h14q13 0 21 1h10q186 0 313 76q130 78 209 204t111.5 282.5t32.5 314.5q0 80 -18.5 149.5t-65.5 119.5t-128 79.5t-208 29.5zM1112 1819q16 0 30.5 -10.5t20.5 -24.5l-342 -230 q-10 -6 -27 -6q-14 0 -26 6l-174 224q8 14 19 27.5t32 13.5l184 -113z" />
<glyph unicode="&#x10f;" horiz-adv-x="1095" d="M391 102q55 0 110.5 52.5t104.5 126t88 153.5t62 133l65 351q-31 20 -56.5 27t-72.5 9q-98 -2 -176 -60t-131 -149.5t-81 -204t-28 -221.5q0 -104 26 -160.5t89 -56.5zM715 401q-27 -74 -68 -149.5t-93 -137t-114.5 -100.5t-134.5 -39q-213 0 -213 312q0 145 41 281.5 t119 241.5t188.5 168.5t251.5 63.5q53 0 80 -7t68 -25l78 387l-144 18v51q31 12 68 23.5t76.5 21t80.5 17.5t76 12l43 -16l-280 -1411h149v-52q-41 -33 -98.5 -53t-112.5 -20q-59 0 -84.5 25.5t-25.5 54.5q0 37 14 120.5t43 212.5h-8zM1116 1112q53 96 91 201.5t38 189.5 l25 33q14 2 37.5 -1t48 -10t47 -16.5t35.5 -19.5q-10 -57 -40 -114.5t-71 -111t-86 -98.5t-84 -75z" />
<glyph unicode="&#x110;" horiz-adv-x="1437" d="M-41 0l10 59q84 35 181 50l120 569h-184l23 106h182l115 539q-45 10 -85 23.5t-73 27.5l14 60h207q35 0 83 2t98 5l98 6q47 3 77 3q164 0 279 -39t185.5 -105.5t102 -157.5t31.5 -196q0 -104 -17 -217.5t-58 -221t-110 -204t-172 -169t-244.5 -115.5t-325.5 -43 q-31 0 -73 3t-89 6l-94 6q-47 3 -86 3h-195zM784 1343q-53 0 -108 -2t-84 -6l-117 -551h342l-22 -106h-342l-123 -582q20 -2 50 -3l59 -2q30 -1 53.5 -2t35.5 -1q193 -2 323 76t209 204t111.5 282.5t32.5 314.5q0 80 -18.5 149.5t-65.5 119.5t-128 79.5t-208 29.5z" />
<glyph unicode="&#x111;" horiz-adv-x="1095" d="M561 1276h330l27 121l-144 18v51q31 12 68 23.5t76.5 21t80.5 17.5t76 12l43 -16l-51 -248h182l-26 -107h-176l-209 -1056h149v-52q-41 -33 -98.5 -53t-112.5 -20q-59 0 -84.5 25.5t-25.5 54.5q0 37 14 120.5t43 212.5h-8q-27 -74 -68 -149.5t-93 -137t-114.5 -100.5 t-134.5 -39q-213 0 -213 312q0 145 41 281.5t119 241.5t188.5 168.5t251.5 63.5q53 0 80 -7t68 -25l30 159h-333zM391 102q55 0 110.5 52.5t104.5 126t88 153.5t62 133l65 351q-31 20 -56.5 27t-72.5 9q-98 -2 -176 -60t-131 -149.5t-81 -204t-28 -221.5q0 -104 26 -160.5 t89 -56.5z" />
<glyph unicode="&#x112;" horiz-adv-x="1171" d="M1231 1434q-16 -82 -39 -166t-53 -166h-54l-34 225h-449l-113 -543h332l113 152h51q-16 -102 -37.5 -205.5t-50.5 -208.5h-51l-47 156h-334l-119 -572h469l154 246h51q-4 -80 -16.5 -171t-34.5 -181h-1010l10 59q84 35 181 50l256 1214q-41 10 -80 22.5t-78 28.5l14 60 h969zM498 1614l21 106h618l-22 -106h-617z" />
<glyph unicode="&#x113;" horiz-adv-x="929" d="M803 182q-18 -39 -53 -75.5t-82 -66.5t-106.5 -47.5t-127.5 -17.5q-170 0 -261 97.5t-91 269.5q0 145 41 274t114.5 225.5t179 152t234.5 55.5q98 0 169 -50.5t71 -148.5q0 -145 -144.5 -229t-465.5 -109q-8 -35 -11.5 -67.5t-3.5 -63.5q0 -123 62.5 -201t183.5 -78 q39 0 77 12.5t71.5 31t61.5 38.5l48 37zM588 961q-88 -2 -164 -83t-129 -278q199 6 309.5 68.5t110.5 173.5q0 43 -25.5 80t-101.5 39zM410 1305l20 106h521l-23 -106h-518z" />
<glyph unicode="&#x116;" horiz-adv-x="1171" d="M1231 1434q-16 -82 -39 -166t-53 -166h-54l-34 225h-449l-113 -543h332l113 152h51q-16 -102 -37.5 -205.5t-50.5 -208.5h-51l-47 156h-334l-119 -572h469l154 246h51q-4 -80 -16.5 -171t-34.5 -181h-1010l10 59q84 35 181 50l256 1214q-41 10 -80 22.5t-78 28.5l14 60 h969zM670 1673q0 53 39 82t94 29t92 -29t37 -82t-37 -81.5t-92 -28.5t-94 28.5t-39 81.5z" />
<glyph unicode="&#x117;" horiz-adv-x="929" d="M803 182q-18 -39 -53 -75.5t-82 -66.5t-106.5 -47.5t-127.5 -17.5q-170 0 -261 97.5t-91 269.5q0 145 41 274t114.5 225.5t179 152t234.5 55.5q98 0 169 -50.5t71 -148.5q0 -145 -144.5 -229t-465.5 -109q-8 -35 -11.5 -67.5t-3.5 -63.5q0 -123 62.5 -201t183.5 -78 q39 0 77 12.5t71.5 31t61.5 38.5l48 37zM588 961q-88 -2 -164 -83t-129 -278q199 6 309.5 68.5t110.5 173.5q0 43 -25.5 80t-101.5 39zM537 1378q0 53 33 84t86 31q57 0 90 -30.5t33 -84.5q0 -51 -33 -79.5t-90 -28.5q-53 0 -86 28.5t-33 79.5z" />
<glyph unicode="&#x118;" horiz-adv-x="1171" d="M1231 1434q-16 -82 -39 -166t-53 -166h-54l-34 225h-449l-113 -543h332l113 152h51q-16 -102 -37.5 -205.5t-50.5 -208.5h-51l-47 156h-334l-119 -572h469l154 246h51q-4 -80 -16.5 -171t-34.5 -181h-97q-47 -25 -88 -54.5t-72.5 -64.5t-50 -74.5t-18.5 -82.5 q0 -57 37 -94.5t100 -37.5t113 13v-60q-29 -23 -74 -41t-112 -18q-47 0 -89.5 14.5t-74 41t-50 64.5t-18.5 83q0 104 78 180t205 131h-799l10 59q84 35 181 50l256 1214q-41 10 -80 22.5t-78 28.5l14 60h969z" />
<glyph unicode="&#x119;" horiz-adv-x="929" d="M803 182q-25 -53 -78 -100t-125 -76q-31 -18 -63.5 -42.5t-58 -56.5t-42 -70t-16.5 -79q0 -53 28.5 -88t96.5 -37q23 0 39 5.5t45 13.5v-64q-29 -16 -74 -29.5t-82 -13.5q-121 0 -173 51.5t-52 129.5q0 84 51 144t145 105q-174 2 -268 95.5t-94 271.5q0 145 41 274 t114.5 225.5t179 152t234.5 55.5q98 0 169 -50.5t71 -148.5q0 -145 -144.5 -229t-465.5 -109q-8 -35 -11.5 -67.5t-3.5 -63.5q0 -121 61.5 -200t184.5 -79q39 0 77 12.5t71.5 31t61.5 38.5l48 37zM588 961q-88 -2 -164 -83t-129 -278q199 6 309.5 68.5t110.5 173.5 q0 43 -25.5 80t-101.5 39z" />
<glyph unicode="&#x11a;" horiz-adv-x="1171" d="M1231 1434q-16 -82 -39 -166t-53 -166h-54l-34 225h-449l-113 -543h332l113 152h51q-16 -102 -37.5 -205.5t-50.5 -208.5h-51l-47 156h-334l-119 -572h469l154 246h51q-4 -80 -16.5 -171t-34.5 -181h-1010l10 59q84 35 181 50l256 1214q-41 10 -80 22.5t-78 28.5l14 60 h969zM1118 1819q16 0 30.5 -10.5t20.5 -24.5l-342 -230q-10 -6 -27 -6q-14 0 -26 6l-174 224q8 14 19 27.5t32 13.5l184 -113z" />
<glyph unicode="&#x11b;" horiz-adv-x="929" d="M803 182q-18 -39 -53 -75.5t-82 -66.5t-106.5 -47.5t-127.5 -17.5q-170 0 -261 97.5t-91 269.5q0 145 41 274t114.5 225.5t179 152t234.5 55.5q98 0 169 -50.5t71 -148.5q0 -145 -144.5 -229t-465.5 -109q-8 -35 -11.5 -67.5t-3.5 -63.5q0 -123 62.5 -201t183.5 -78 q39 0 77 12.5t71.5 31t61.5 38.5l48 37zM588 961q-88 -2 -164 -83t-129 -278q199 6 309.5 68.5t110.5 173.5q0 43 -25.5 80t-101.5 39zM934 1630q18 2 35.5 -8t23.5 -25l-336 -378q-10 -6 -26 -7q-16 0 -25 7l-166 376q8 16 28.5 26.5t41.5 8.5l157 -217z" />
<glyph unicode="&#x11c;" horiz-adv-x="1390" d="M1169 98q-45 -27 -102 -49t-117.5 -38.5t-121 -26t-111.5 -9.5q-272 0 -427 144.5t-155 410.5q0 207 58.5 378t169 293t269.5 189.5t359 67.5q135 0 231.5 -17.5t159.5 -51.5q-6 -31 -17 -76t-27 -94l-31 -98q-16 -48 -31 -85h-53l-43 295q-37 10 -92.5 15.5t-106.5 5.5 q-158 0 -275.5 -64.5t-195.5 -175.5t-117 -259t-39 -318q0 -145 41 -234.5t101.5 -138.5t129.5 -66q61 -15 113 -14h13h11q75 0 140 24q70 27 96 48l91 413q-53 4 -98.5 18.5t-88.5 30.5l15 60h501l-12 -60q-23 -14 -55.5 -26t-83.5 -23zM713 1540l-29 39l343 229q10 8 28 9 q16 0 25 -9l174 -223l-31 -43l-205 115z" />
<glyph unicode="&#x11d;" horiz-adv-x="1001" d="M573 1049q98 0 161 -25t97 -53q18 16 49 32.5t66 31t72 26.5l69 22q6 -10 11 -30q3 -16 3 -36q0 -30 -8 -60q-7 -26 -22 -46l-211 15q6 -18 12.5 -42t6.5 -53q0 -82 -34 -151.5t-93.5 -119.5t-138 -78.5t-167.5 -28.5q-35 0 -56 1t-48 7q-18 -20 -50 -48t-32 -61 q0 -35 45 -53t114 -34l148 -33q80 -17 148.5 -46.5t113.5 -77t45 -124.5q0 -96 -54 -173t-143 -131.5t-203 -84t-230 -29.5q-94 0 -162 19.5t-111 53t-63.5 76.5t-20.5 90q0 57 26 106.5t69 93.5t98 81t115 70q-31 16 -50.5 43.5t-19.5 62.5q0 31 20.5 64.5t48 64.5t55 53.5 t42.5 32.5q-25 6 -50.5 22.5t-48 43t-37 61.5t-14.5 78q0 80 34 147.5t93.5 115.5t137 76t167.5 28zM338 -346q63 0 125.5 18.5t113 52t82 84t31.5 113.5q0 61 -50 95t-122 54.5t-148.5 34t-131.5 31.5q-96 -70 -132 -145.5t-34 -141.5q-2 -92 70.5 -144t195.5 -52zM557 967 q-59 0 -105 -22.5t-79 -60.5t-49.5 -89.5t-16.5 -108.5q0 -78 50.5 -114.5t107.5 -36.5q61 0 105 21.5t74 58t44 83.5t14 99q0 76 -35.5 123t-109.5 47zM428 1208l-60 33l309 381q10 8 27 8q16 0 25 -8l149 -379l-55 -35l-160 219z" />
<glyph unicode="&#x11e;" horiz-adv-x="1390" d="M1169 98q-45 -27 -102 -49t-117.5 -38.5t-121 -26t-111.5 -9.5q-272 0 -427 144.5t-155 410.5q0 207 58.5 378t169 293t269.5 189.5t359 67.5q135 0 231.5 -17.5t159.5 -51.5q-6 -31 -17 -76t-27 -94l-31 -98q-16 -48 -31 -85h-53l-43 295q-37 10 -92.5 15.5t-106.5 5.5 q-158 0 -275.5 -64.5t-195.5 -175.5t-117 -259t-39 -318q0 -145 41 -234.5t101.5 -138.5t129.5 -66q61 -15 113 -14h13h11q75 0 140 24q70 27 96 48l91 413q-53 4 -98.5 18.5t-88.5 30.5l15 60h501l-12 -60q-23 -14 -55.5 -26t-83.5 -23zM1303 1808q33 4 65 -28 q-16 -37 -56 -77t-91.5 -73t-108.5 -54.5t-108 -21.5q-111 0 -174.5 60.5t-79.5 169.5q25 39 86 31q16 -49 69 -82t117 -35q90 -2 162 28.5t119 81.5z" />
<glyph unicode="&#x11f;" horiz-adv-x="1001" d="M573 1049q98 0 161 -25t97 -53q18 16 49 32.5t66 31t72 26.5l69 22q6 -10 11 -30q3 -16 3 -36q0 -30 -8 -60q-7 -26 -22 -46l-211 15q6 -18 12.5 -42t6.5 -53q0 -82 -34 -151.5t-93.5 -119.5t-138 -78.5t-167.5 -28.5q-35 0 -56 1t-48 7q-18 -20 -50 -48t-32 -61 q0 -35 45 -53t114 -34l148 -33q80 -17 148.5 -46.5t113.5 -77t45 -124.5q0 -96 -54 -173t-143 -131.5t-203 -84t-230 -29.5q-94 0 -162 19.5t-111 53t-63.5 76.5t-20.5 90q0 57 26 106.5t69 93.5t98 81t115 70q-31 16 -50.5 43.5t-19.5 62.5q0 31 20.5 64.5t48 64.5t55 53.5 t42.5 32.5q-25 6 -50.5 22.5t-48 43t-37 61.5t-14.5 78q0 80 34 147.5t93.5 115.5t137 76t167.5 28zM338 -346q63 0 125.5 18.5t113 52t82 84t31.5 113.5q0 61 -50 95t-122 54.5t-148.5 34t-131.5 31.5q-96 -70 -132 -145.5t-34 -141.5q-2 -92 70.5 -144t195.5 -52zM557 967 q-59 0 -105 -22.5t-79 -60.5t-49.5 -89.5t-16.5 -108.5q0 -78 50.5 -114.5t107.5 -36.5q61 0 105 21.5t74 58t44 83.5t14 99q0 76 -35.5 123t-109.5 47zM941 1473q-18 -47 -50 -91.5t-74 -80t-91.5 -57t-100.5 -21.5q-111 0 -171 71.5t-71 182.5l58 26q23 -51 74 -91 t112 -42q33 0 71 7t73.5 22.5t67.5 40t52 55.5z" />
<glyph unicode="&#x122;" horiz-adv-x="1390" d="M1169 98q-45 -27 -102 -49t-117.5 -38.5t-121 -26t-111.5 -9.5q-272 0 -427 144.5t-155 410.5q0 207 58.5 378t169 293t269.5 189.5t359 67.5q135 0 231.5 -17.5t159.5 -51.5q-6 -31 -17 -76t-27 -94l-31 -98q-16 -48 -31 -85h-53l-43 295q-37 10 -92.5 15.5t-106.5 5.5 q-158 0 -275.5 -64.5t-195.5 -175.5t-117 -259t-39 -318q0 -145 41 -234.5t101.5 -138.5t129.5 -66q61 -15 113 -14h13h11q75 0 140 24q70 27 96 48l91 413q-53 4 -98.5 18.5t-88.5 30.5l15 60h501l-12 -60q-23 -14 -55.5 -26t-83.5 -23zM473 -485q82 23 130.5 61.5 t58.5 104.5q-18 20 -50 41.5t-59 29.5q-2 29 15.5 56.5t42 48t53 34t49.5 13.5q66 -4 114 -44t48 -106q0 -57 -29 -109.5t-78 -93t-117.5 -69.5t-148.5 -39z" />
<glyph unicode="&#x123;" horiz-adv-x="1001" d="M573 1049q98 0 161 -25t97 -53q18 16 49 32.5t66 31t72 26.5l69 22q6 -10 11 -30q3 -16 3 -36q0 -30 -8 -60q-7 -26 -22 -46l-211 15q6 -18 12.5 -42t6.5 -53q0 -82 -34 -151.5t-93.5 -119.5t-138 -78.5t-167.5 -28.5q-35 0 -56 1t-48 7q-18 -20 -50 -48t-32 -61 q0 -35 45 -53t114 -34l148 -33q80 -17 148.5 -46.5t113.5 -77t45 -124.5q0 -96 -54 -173t-143 -131.5t-203 -84t-230 -29.5q-94 0 -162 19.5t-111 53t-63.5 76.5t-20.5 90q0 57 26 106.5t69 93.5t98 81t115 70q-31 16 -50.5 43.5t-19.5 62.5q0 31 20.5 64.5t48 64.5t55 53.5 t42.5 32.5q-25 6 -50.5 22.5t-48 43t-37 61.5t-14.5 78q0 80 34 147.5t93.5 115.5t137 76t167.5 28zM338 -346q63 0 125.5 18.5t113 52t82 84t31.5 113.5q0 61 -50 95t-122 54.5t-148.5 34t-131.5 31.5q-96 -70 -132 -145.5t-34 -141.5q-2 -92 70.5 -144t195.5 -52zM557 967 q-59 0 -105 -22.5t-79 -60.5t-49.5 -89.5t-16.5 -108.5q0 -78 50.5 -114.5t107.5 -36.5q61 0 105 21.5t74 58t44 83.5t14 99q0 76 -35.5 123t-109.5 47zM811.004 1582.97q-161.99 -44.9971 -176.989 -163.989q15.999 -19.999 46.9971 -39.498t57.9961 -27.498 q2 -28.998 -13.499 -54.4971q-15.499 -25.498 -38.9971 -45.9971q-23.499 -20.499 -48.9971 -32.998q-25.499 -12.499 -46.4971 -12.499q-60.9971 4 -95.9941 40.9971q-34.998 36.998 -34.998 102.994q0 52.9971 24.998 100.994q24.999 47.9971 67.9961 87.9941 q42.9971 39.998 102.994 67.4961q59.9961 27.498 131.991 38.498z" />
<glyph unicode="&#x124;" horiz-adv-x="1472" d="M477 0h-518l10 59q45 20 90 31.5t91 18.5l256 1214q-92 18 -158 51l14 60h518l-12 -60q-35 -18 -80 -30.5t-86 -20.5l-113 -535h644l114 535q-41 10 -76.5 21.5t-68.5 29.5l14 60h518l-12 -60q-41 -20 -87 -31.5t-91 -19.5l-258 -1214q92 -16 155 -50l-10 -59h-518l10 59 q39 16 81 28.5t85 21.5l121 573h-645l-119 -573q37 -8 74 -20.5t67 -29.5zM717 1540l-29 39l343 229q10 8 28 9q16 0 25 -9l174 -223l-31 -43l-205 115z" />
<glyph unicode="&#x125;" horiz-adv-x="1112" d="M211 1415v47l68.5 25.5t78.5 25t80 18.5t74 9l43 -18l-184 -860h10q39 82 88 152.5t103.5 122.5t113.5 82t121 30q94 0 136 -54.5t42 -134.5q0 -55 -10 -118.5t-25 -123.5l-116 -503h151v-54q-41 -33 -98.5 -53t-114.5 -20q-59 0 -81.5 24.5t-22.5 53.5q0 37 10 82l20 94 l74 342l25.5 118.5t11.5 106.5q0 47 -20.5 80t-55.5 33q-63 0 -122.5 -45.5t-110.5 -108.5t-90 -132t-60 -114l-108 -522h-172l280 1397zM278 1540l-29 39l343 229q10 8 28 9q16 0 25 -9l174 -223l-31 -43l-205 115z" />
<glyph unicode="&#x126;" horiz-adv-x="1476" d="M203 1141h164l39 182q-92 18 -158 51l14 60h518l-12 -60q-35 -18 -80 -30.5t-86 -20.5l-39 -182h643l41 182q-41 10 -76.5 21.5t-68.5 29.5l14 60h518l-12 -60q-41 -20 -87 -31.5t-91 -19.5l-39 -182h166l-25 -107h-164l-196 -925q92 -16 155 -50l-10 -59h-518l10 59 q39 16 81 28.5t85 21.5l121 573h-645l-119 -573q37 -8 74 -20.5t67 -29.5l-10 -59h-518l10 59q45 20 90 31.5t91 18.5l194 925h-164zM1133 788l53 246h-645l-52 -246h644z" />
<glyph unicode="&#x127;" horiz-adv-x="1112" d="M150 1253h172l28 144l-139 18v47l68.5 25.5t78.5 25t80 18.5t74 9l43 -18l-55 -269h338l-27 -106h-336l-104 -485h10q39 82 88 152.5t103.5 122.5t113.5 82t121 30q94 0 136 -54.5t42 -134.5q0 -55 -10 -118.5t-25 -123.5l-116 -503h151v-54q-41 -33 -98.5 -53 t-114.5 -20q-59 0 -81.5 24.5t-22.5 53.5q0 37 10 82l20 94l74 342l25.5 118.5t11.5 106.5q0 47 -20.5 80t-55.5 33q-63 0 -122.5 -45.5t-110.5 -108.5t-90 -132t-60 -114l-108 -522h-172l229 1147h-174z" />
<glyph unicode="&#x12a;" horiz-adv-x="702" d="M522 0h-524l10 59q90 37 176 50l256 1214q-41 8 -77.5 21.5t-75.5 29.5l14 60h524l-12 -60q-41 -16 -88 -29.5t-88 -21.5l-256 -1214q41 -8 81 -20.5t70 -29.5zM283 1614l21 106h618l-22 -106h-617z" />
<glyph unicode="&#x12b;" horiz-adv-x="567" d="M145 924v51q31 12 70 25.5t80 23.5t78 17.5t65 7.5l37 -25l-192 -909h151v-54q-43 -33 -100.5 -53t-112.5 -20q-59 0 -84.5 26.5t-25.5 61.5q0 41 6 80t16 86l143 661zM180 1305l20 106h521l-23 -106h-518z" />
<glyph unicode="&#x12e;" horiz-adv-x="702" d="M522 0h-104q-94 -47 -162 -118.5t-68 -157.5q0 -57 37 -94.5t101 -37.5q63 0 112 13v-60q-29 -23 -74 -41t-112 -18q-47 0 -89 14.5t-74 41t-50.5 64.5t-18.5 83q0 104 78 180t205 131h-305l10 59q90 37 176 50l256 1214q-41 8 -77.5 21.5t-75.5 29.5l14 60h524l-12 -60 q-41 -16 -88 -29.5t-88 -21.5l-256 -1214q41 -8 81 -20.5t70 -29.5z" />
<glyph unicode="&#x12f;" horiz-adv-x="567" d="M143 924v51q31 12 70 25.5t80 23.5t78 17.5t65 7.5l37 -25l-192 -911h151v-52q-23 -16 -48.5 -29.5t-53.5 -23.5q-31 -18 -64 -43.5t-58.5 -57.5t-41.5 -70t-16 -79q0 -53 28.5 -88t95.5 -37q20 0 38 6l46 13v-64q-29 -16 -73.5 -29.5t-81.5 -13.5q-121 0 -173.5 51.5 t-52.5 129.5q0 90 57.5 153.5t166.5 110.5q-49 4 -70.5 28.5t-21.5 57.5q0 41 6 80t16 86l143 661zM307 1378q0 53 33 84t86 31q57 0 90 -30.5t33 -84.5q0 -51 -33 -79.5t-90 -28.5q-53 0 -86 28.5t-33 79.5z" />
<glyph unicode="&#x130;" horiz-adv-x="702" d="M522 0h-524l10 59q90 37 176 50l256 1214q-41 8 -77.5 21.5t-75.5 29.5l14 60h524l-12 -60q-41 -16 -88 -29.5t-88 -21.5l-256 -1214q41 -8 81 -20.5t70 -29.5zM453 1673q0 53 39 82t94 29t92 -29t37 -82t-37 -81.5t-92 -28.5t-94 28.5t-39 81.5z" />
<glyph unicode="&#x131;" horiz-adv-x="567" d="M143 924v51q31 12 70 25.5t80 23.5t78 17.5t65 7.5l37 -25l-192 -909h151v-54q-43 -33 -100.5 -53t-112.5 -20q-59 0 -84.5 26.5t-25.5 61.5q0 41 6 80t16 86l143 661z" />
<glyph unicode="&#x134;" horiz-adv-x="677" d="M279 1434h522l-10 -60q-41 -18 -88.5 -30.5t-88.5 -20.5l-241 -1147q-31 -141 -83 -233.5t-112.5 -148.5t-121 -83.5t-107.5 -38.5l-15 31q41 33 75 66.5t62.5 84t53.5 122t47 178.5l246 1169q-88 20 -152 51zM295 1540l-29 39l343 229q10 8 28 9q16 0 25 -9l174 -223 l-31 -43l-205 115z" />
<glyph unicode="&#x135;" horiz-adv-x="563" d="M272 905l-122 19v51q63 29 141 51.5t141 22.5l41 -25l-199 -936q-31 -145 -85 -241.5t-113.5 -156t-113.5 -88t-87 -36.5l-25 45q25 12 58 42t65.5 82t64.5 130t54 184zM209 1208l-60 33l309 381q10 8 27 8q16 0 25 -8l149 -379l-55 -35l-160 219z" />
<glyph unicode="&#x136;" horiz-adv-x="1304" d="M975 1434h465l-15 -60q-37 -18 -82 -30.5t-83 -20.5l-531 -553l85 -149l102 -170l113 -179l116 -172l88 -49l-10 -51h-248l-60 49q-92 141 -178 305t-162 332h-108l-121 -577q84 -16 141 -50l-10 -59h-518l10 59q92 37 181 50l256 1214q-45 8 -85 20.5t-73 30.5l14 60 h518l-12 -60q-70 -33 -166 -51l-119 -567l123 28l492 539q-41 10 -74 21.5t-63 29.5zM366 -485q82 23 130.5 61.5t58.5 104.5q-18 20 -50 41.5t-59 29.5q-2 29 15.5 56.5t42 48t53 34t49.5 13.5q66 -4 114 -44t48 -106q0 -57 -29 -109.5t-78 -93t-117.5 -69.5t-148.5 -39z " />
<glyph unicode="&#x137;" horiz-adv-x="985" d="M612 92q-66 111 -110 210l-86 185l-74 21l-96 -508h-176l278 1397l-143 18v51q59 27 144 48.5t157 25.5l43 -22l-193 -957h60q43 27 89 66t88 80t74.5 78.5t51.5 64.5q2 14 3 38.5t0 50.5l-2 49q-1 24 -3 36q76 27 147 27q74 0 123 -27q-27 -68 -82 -135.5t-118.5 -125.5 t-125 -106.5t-98.5 -74.5q14 -39 46 -101.5t70 -130t80 -131t77 -104.5h129v-54q-41 -33 -89.5 -53t-101.5 -20q-49 0 -88 22.5t-74 81.5zM233 -473q162 45 177 164q-16 20 -47 39.5t-58 27.5q-2 29 13.5 54.5t39 46t49 33t46.5 12.5q61 -4 96 -41t35 -103q0 -53 -25 -101 t-68 -88t-103 -67.5t-132 -38.5z" />
<glyph unicode="&#x139;" horiz-adv-x="1101" d="M262 1434h561l-14 -60q-51 -18 -103.5 -31.5t-103.5 -19.5l-256 -1217h469l191 330h53q-4 -43 -10.5 -99t-15.5 -116.5t-20.5 -118t-23.5 -102.5h-1030l10 59q55 23 98.5 33t82.5 17l256 1214q-96 18 -158 51zM805 1829q18 2 46.5 -2t58.5 -13.5t55.5 -22.5t37.5 -28v-41 l-463 -186l-34 39z" />
<glyph unicode="&#x13a;" horiz-adv-x="567" d="M356 1397l-145 18v51q29 12 66.5 24.5t79.5 24t83 18.5t74 7l41 -22l-283 -1403h150v-54q-41 -33 -99.5 -53t-113.5 -20q-59 0 -87 26.5t-28 61.5q0 41 6 80t17 86zM643 1849q18 2 46.5 -2t58.5 -13.5t55.5 -22.5t37.5 -28v-41l-463 -186l-34 39z" />
<glyph unicode="&#x13b;" horiz-adv-x="1101" d="M262 1434h561l-14 -60q-51 -18 -103.5 -31.5t-103.5 -19.5l-256 -1217h469l191 330h53q-4 -43 -10.5 -99t-15.5 -116.5t-20.5 -118t-23.5 -102.5h-1030l10 59q55 23 98.5 33t82.5 17l256 1214q-96 18 -158 51zM270 -485q82 23 130.5 61.5t58.5 104.5q-18 20 -50 41.5 t-59 29.5q-2 29 15.5 56.5t42 48t53 34t49.5 13.5q66 -4 114 -44t48 -106q0 -57 -29 -109.5t-78 -93t-117.5 -69.5t-148.5 -39z" />
<glyph unicode="&#x13c;" horiz-adv-x="567" d="M356 1397l-145 18v51q29 12 66.5 24.5t79.5 24t83 18.5t74 7l41 -22l-283 -1403h150v-54q-41 -33 -99.5 -53t-113.5 -20q-59 0 -87 26.5t-28 61.5q0 41 6 80t17 86zM6 -473q162 45 177 164q-16 20 -47 39.5t-58 27.5q-2 29 13.5 54.5t39 46t49 33t46.5 12.5q61 -4 96 -41 t35 -103q0 -53 -25 -101t-68 -88t-103 -67.5t-132 -38.5z" />
<glyph unicode="&#x13d;" horiz-adv-x="1101" d="M262 1434h561l-14 -60q-51 -18 -103.5 -31.5t-103.5 -19.5l-256 -1217h469l191 330h53q-4 -43 -10.5 -99t-15.5 -116.5t-20.5 -118t-23.5 -102.5h-1030l10 59q55 23 98.5 33t82.5 17l256 1214q-96 18 -158 51zM905 1032q20 45 37.5 97.5t28 104.5t16.5 101t6 90l25 33 q16 2 42.5 -3t54.5 -14t52.5 -22.5t38.5 -27.5q-8 -55 -36.5 -113.5t-66.5 -110t-80 -93.5t-77 -64z" />
<glyph unicode="&#x13e;" horiz-adv-x="567" d="M356 1397l-145 18v51q29 12 66.5 24.5t79.5 24t83 18.5t74 7l41 -22l-283 -1403h150v-54q-41 -33 -99.5 -53t-113.5 -20q-59 0 -87 26.5t-28 61.5q0 41 6 80t17 86zM573 1112q53 96 91 201.5t38 189.5l25 33q14 2 37.5 -1t48 -10t47 -16.5t35.5 -19.5q-10 -57 -40 -114.5 t-71 -111t-86 -98.5t-84 -75z" />
<glyph unicode="&#x141;" horiz-adv-x="1101" d="M262 1434h561l-14 -60q-51 -18 -103.5 -31.5t-103.5 -19.5l-110 -520l313 172l-29 -135l-311 -172l-119 -562h469l191 330h53q-4 -43 -10.5 -99t-15.5 -116.5t-20.5 -118t-23.5 -102.5h-1030l10 59q55 23 98.5 33t82.5 17l92 440l-217 -119l28 133l215 119l138 641 q-96 18 -158 51z" />
<glyph unicode="&#x142;" horiz-adv-x="610" d="M27 604l204 119l140 674l-146 18v51q29 12 67 24.5t80 24t83 18.5t73 7l41 -22l-137 -678l213 125l-27 -136l-212 -122l-119 -592h151v-54q-41 -33 -99 -53t-114 -20q-59 0 -86.5 26.5t-27.5 61.5q0 41 6 80t16 86l70 348l-205 -121z" />
<glyph unicode="&#x143;" horiz-adv-x="1480" d="M1204 1434h436l-12 -60q-41 -29 -90 -49t-94 -33l-281 -1317h-110l-514 1129l-43 160h-7l-20 -160l-205 -973q37 -10 74 -28.5t68 -43.5l-13 -59h-434l10 59q88 53 185 72l249 1174q-39 16 -74.5 34.5t-64.5 36.5l10 58h340l441 -973l61 -176h8l33 176l176 831 q-82 35 -141 82zM1069 1829q18 2 46.5 -2t58.5 -13.5t55.5 -22.5t37.5 -28v-41l-463 -186l-34 39z" />
<glyph unicode="&#x144;" horiz-adv-x="1130" d="M791 584l25 117q11 54 11 108q0 47 -21.5 80t-68.5 33q-55 0 -112.5 -45.5t-106.5 -108.5t-89 -132t-60 -114l-109 -522h-172l180 905l-125 19l4 51q29 14 65 27.5t74 23.5t73.5 16.5t66.5 6.5l41 -25l-78 -362h10q39 82 89.5 152.5t106.5 122.5t117.5 82t125.5 30 q86 0 126 -54.5t40 -136.5q0 -45 -10.5 -112.5t-24.5 -127.5l-117 -503h152v-54q-41 -33 -99.5 -53t-113.5 -20q-59 0 -82 24.5t-23 53.5q0 39 10 85l21 93zM877 1571q16 2 43 -1t55.5 -9.5t53 -15.5t36.5 -19v-39l-403 -309l-45 36z" />
<glyph unicode="&#x145;" horiz-adv-x="1480" d="M1204 1434h436l-12 -60q-41 -29 -90 -49t-94 -33l-281 -1317h-110l-514 1129l-43 160h-7l-20 -160l-205 -973q37 -10 74 -28.5t68 -43.5l-13 -59h-434l10 59q88 53 185 72l249 1174q-39 16 -74.5 34.5t-64.5 36.5l10 58h340l441 -973l61 -176h8l33 176l176 831 q-82 35 -141 82zM364 -485q82 23 130.5 61.5t58.5 104.5q-18 20 -50 41.5t-59 29.5q-2 29 15.5 56.5t42 48t53 34t49.5 13.5q66 -4 114 -44t48 -106q0 -57 -29 -109.5t-78 -93t-117.5 -69.5t-148.5 -39z" />
<glyph unicode="&#x146;" horiz-adv-x="1130" d="M791 584l25 117q11 54 11 108q0 47 -21.5 80t-68.5 33q-55 0 -112.5 -45.5t-106.5 -108.5t-89 -132t-60 -114l-109 -522h-172l180 905l-125 19l4 51q29 14 65 27.5t74 23.5t73.5 16.5t66.5 6.5l41 -25l-78 -362h10q39 82 89.5 152.5t106.5 122.5t117.5 82t125.5 30 q86 0 126 -54.5t40 -136.5q0 -45 -10.5 -112.5t-24.5 -127.5l-117 -503h152v-54q-41 -33 -99.5 -53t-113.5 -20q-59 0 -82 24.5t-23 53.5q0 39 10 85l21 93zM233 -473q162 45 177 164q-16 20 -47 39.5t-58 27.5q-2 29 13.5 54.5t39 46t49 33t46.5 12.5q61 -4 96 -41t35 -103 q0 -53 -25 -101t-68 -88t-103 -67.5t-132 -38.5z" />
<glyph unicode="&#x147;" horiz-adv-x="1480" d="M1204 1434h436l-12 -60q-41 -29 -90 -49t-94 -33l-281 -1317h-110l-514 1129l-43 160h-7l-20 -160l-205 -973q37 -10 74 -28.5t68 -43.5l-13 -59h-434l10 59q88 53 185 72l249 1174q-39 16 -74.5 34.5t-64.5 36.5l10 58h340l441 -973l61 -176h8l33 176l176 831 q-82 35 -141 82zM1274 1819q16 0 30.5 -10.5t20.5 -24.5l-342 -230q-10 -6 -27 -6q-14 0 -26 6l-174 224q8 14 19 27.5t32 13.5l184 -113z" />
<glyph unicode="&#x148;" horiz-adv-x="1130" d="M791 584l25 117q11 54 11 108q0 47 -21.5 80t-68.5 33q-55 0 -112.5 -45.5t-106.5 -108.5t-89 -132t-60 -114l-109 -522h-172l180 905l-125 19l4 51q29 14 65 27.5t74 23.5t73.5 16.5t66.5 6.5l41 -25l-78 -362h10q39 82 89.5 152.5t106.5 122.5t117.5 82t125.5 30 q86 0 126 -54.5t40 -136.5q0 -45 -10.5 -112.5t-24.5 -127.5l-117 -503h152v-54q-41 -33 -99.5 -53t-113.5 -20q-59 0 -82 24.5t-23 53.5q0 39 10 85l21 93zM971 1630q18 2 35.5 -8t23.5 -25l-336 -378q-10 -6 -26 -7q-16 0 -25 7l-166 376q8 16 28.5 26.5t41.5 8.5 l157 -217z" />
<glyph unicode="&#x14c;" horiz-adv-x="1495" d="M135 569q0 186 56.5 348t163 282t256 189.5t337.5 69.5q150 0 252.5 -49t164.5 -129t90 -183.5t28 -213.5q0 -164 -46 -327t-142.5 -292t-243 -209t-346.5 -80q-147 0 -255 48.5t-177.5 129t-103.5 188t-34 228.5zM354 567q0 -113 30 -203t82 -153.5t123 -96.5 q67 -32 145 -32h9h8q144 0 241 73q99 75 159.5 192.5t86.5 260t26 277.5q0 104 -23.5 190t-71 147.5t-116 95.5t-158.5 34q-141 0 -243.5 -74t-169 -188.5t-97.5 -254t-31 -268.5zM663 1614l21 106h618l-22 -106h-617z" />
<glyph unicode="&#x14d;" horiz-adv-x="1042" d="M84 381q0 109 34 226.5t103.5 216t174 162t243.5 63.5q160 0 241 -98.5t81 -291.5q0 -135 -39 -259t-109 -218t-168 -150.5t-217 -56.5q-158 0 -251 101.5t-93 304.5zM598 961q-100 -2 -163.5 -66t-100.5 -158t-51.5 -202.5t-14.5 -198.5q0 -121 53.5 -197t143.5 -76 q72 0 128 54.5t96 143.5t61.5 201.5t21.5 227.5q0 121 -42 195t-132 76zM402 1305l20 106h521l-23 -106h-518z" />
<glyph unicode="&#x150;" horiz-adv-x="1495" d="M135 569q0 186 56.5 348t163 282t256 189.5t337.5 69.5q150 0 252.5 -49t164.5 -129t90 -183.5t28 -213.5q0 -164 -46 -327t-142.5 -292t-243 -209t-346.5 -80q-147 0 -255 48.5t-177.5 129t-103.5 188t-34 228.5zM354 567q0 -113 30 -203t82 -153.5t123 -96.5 q67 -32 145 -32h9h8q144 0 241 73q99 75 159.5 192.5t86.5 260t26 277.5q0 104 -23.5 190t-71 147.5t-116 95.5t-158.5 34q-141 0 -243.5 -74t-169 -188.5t-97.5 -254t-31 -268.5zM823 1819q12 2 36.5 -2.5t51.5 -10.5t48.5 -16t27.5 -21v-28l-268 -189l-39 37zM1179 1819 q14 2 39 -2.5t51.5 -12.5t49 -18t32.5 -23l-2 -20l-362 -195l-43 37z" />
<glyph unicode="&#x151;" horiz-adv-x="1042" d="M84 381q0 109 34 226.5t103.5 216t174 162t243.5 63.5q160 0 241 -98.5t81 -291.5q0 -135 -39 -259t-109 -218t-168 -150.5t-217 -56.5q-158 0 -251 101.5t-93 304.5zM598 961q-100 -2 -163.5 -66t-100.5 -158t-51.5 -202.5t-14.5 -198.5q0 -121 53.5 -197t143.5 -76 q72 0 128 54.5t96 143.5t61.5 201.5t21.5 227.5q0 121 -42 195t-132 76zM609 1573q12 2 38.5 -1t54 -9.5t50.5 -15.5t29 -17v-31l-283 -274l-47 32zM963 1573q14 2 39.5 -1t51.5 -11.5t49.5 -19.5t33.5 -25v-27l-408 -264l-38 37z" />
<glyph unicode="&#x152;" horiz-adv-x="1937" d="M895 0l-100 -17.5t-101 -7.5q-283 0 -421 140.5t-138 408.5q0 164 46 331t145.5 301t254 218t371.5 84q47 0 117 -6t127 -18h801q-18 -82 -41 -165t-51 -167h-54l-34 225h-449l-113 -543h332l113 152h51q-16 -102 -37.5 -205.5t-50.5 -208.5h-51l-47 156h-334l-121 -572 h471l154 246h51q-4 -86 -16.5 -174t-34.5 -178h-840zM694 82q53 -2 110.5 7t113.5 32l249 1182q-47 23 -108.5 36t-130.5 13q-133 0 -239.5 -65.5t-180.5 -179.5t-114 -267.5t-40 -329.5q0 -74 14.5 -150.5t51.5 -139t103.5 -101.5t170.5 -37z" />
<glyph unicode="&#x153;" horiz-adv-x="1593" d="M598 961q-100 -2 -163.5 -66t-100.5 -158t-51.5 -202.5t-14.5 -198.5q0 -121 53.5 -197t143.5 -76q72 0 128 54.5t96 143.5t61.5 201.5t21.5 227.5q0 121 -42 195t-132 76zM786 152q-39 -49 -85 -83t-93 -54.5t-94 -30t-86 -9.5q-158 0 -251 101.5t-93 304.5 q0 109 34 226.5t103.5 216t174 162t243.5 63.5q98 0 176 -45.5t107 -133.5q88 100 190 139.5t201 39.5q100 0 169.5 -50.5t69.5 -148.5q0 -145 -143 -229t-465 -109q-8 -35 -11 -67.5t-3 -63.5q0 -123 61.5 -201t182.5 -78q41 0 78.5 12.5t70.5 31t60 38.5l49 37l32 -39 q-18 -39 -53 -75.5t-82 -66.5t-105.5 -47.5t-125.5 -17.5q-131 0 -206 54.5t-106 122.5zM1251 958q-90 0 -165.5 -80.5t-127.5 -277.5q199 6 308.5 68.5t109.5 173.5q0 43 -25.5 79.5t-99.5 36.5z" />
<glyph unicode="&#x154;" horiz-adv-x="1284" d="M346 109q90 -16 162 -50l-10 -59h-539l10 59q49 20 93 30.5t88 19.5l256 1214q-49 12 -89.5 24.5t-68.5 26.5l14 60h180q82 0 181.5 8t189.5 8q203 0 302 -87t99 -247q0 -80 -27.5 -153.5t-77.5 -133t-123 -103.5t-165 -67q59 -139 130 -276l147 -272l96 -60l-10 -51 h-234l-69 57q-43 72 -77 141.5t-61.5 139.5t-49 143.5t-40.5 153.5h-196zM745 1343q-47 0 -80.5 -3t-62.5 -7l-127 -610h146h11q101 0 172 33q75 35 121 93t67.5 132t21.5 158q0 105 -63 154q-65 50 -206 50zM969 1829q18 2 46.5 -2t58.5 -13.5t55.5 -22.5t37.5 -28v-41 l-463 -186l-34 39z" />
<glyph unicode="&#x155;" horiz-adv-x="788" d="M625 899q-53 -20 -120 -103t-118 -225l-123 -571h-176l191 905l-125 19v51q70 33 145.5 50t136.5 24l41 -25l-57 -272h8q59 135 145 216t185 81q27 0 53.5 -5.5t50.5 -19.5q0 -18 -6 -48t-17.5 -60.5t-24.5 -58.5t-28 -42zM725 1571q16 2 43 -1t55.5 -9.5t53 -15.5 t36.5 -19v-39l-403 -309l-45 36z" />
<glyph unicode="&#x156;" horiz-adv-x="1284" d="M346 109q90 -16 162 -50l-10 -59h-539l10 59q49 20 93 30.5t88 19.5l256 1214q-49 12 -89.5 24.5t-68.5 26.5l14 60h180q82 0 181.5 8t189.5 8q203 0 302 -87t99 -247q0 -80 -27.5 -153.5t-77.5 -133t-123 -103.5t-165 -67q59 -139 130 -276l147 -272l96 -60l-10 -51 h-234l-69 57q-43 72 -77 141.5t-61.5 139.5t-49 143.5t-40.5 153.5h-196zM745 1343q-47 0 -80.5 -3t-62.5 -7l-127 -610h146h11q101 0 172 33q75 35 121 93t67.5 132t21.5 158q0 105 -63 154q-65 50 -206 50zM307 -485q82 23 130.5 61.5t58.5 104.5q-18 20 -50 41.5 t-59 29.5q-2 29 15.5 56.5t42 48t53 34t49.5 13.5q66 -4 114 -44t48 -106q0 -57 -29 -109.5t-78 -93t-117.5 -69.5t-148.5 -39z" />
<glyph unicode="&#x157;" horiz-adv-x="788" d="M625 899q-53 -20 -120 -103t-118 -225l-123 -571h-176l191 905l-125 19v51q70 33 145.5 50t136.5 24l41 -25l-57 -272h8q59 135 145 216t185 81q27 0 53.5 -5.5t50.5 -19.5q0 -18 -6 -48t-17.5 -60.5t-24.5 -58.5t-28 -42zM10 -473q162 45 177 164q-16 20 -47 39.5 t-58 27.5q-2 29 13.5 54.5t39 46t49 33t46.5 12.5q61 -4 96 -41t35 -103q0 -53 -25 -101t-68 -88t-103 -67.5t-132 -38.5z" />
<glyph unicode="&#x158;" horiz-adv-x="1284" d="M346 109q90 -16 162 -50l-10 -59h-539l10 59q49 20 93 30.5t88 19.5l256 1214q-49 12 -89.5 24.5t-68.5 26.5l14 60h180q82 0 181.5 8t189.5 8q203 0 302 -87t99 -247q0 -80 -27.5 -153.5t-77.5 -133t-123 -103.5t-165 -67q59 -139 130 -276l147 -272l96 -60l-10 -51 h-234l-69 57q-43 72 -77 141.5t-61.5 139.5t-49 143.5t-40.5 153.5h-196zM745 1343q-47 0 -80.5 -3t-62.5 -7l-127 -610h146h11q101 0 172 33q75 35 121 93t67.5 132t21.5 158q0 105 -63 154q-65 50 -206 50zM1090 1819q16 0 30.5 -10.5t20.5 -24.5l-342 -230q-10 -6 -27 -6 q-14 0 -26 6l-174 224q8 14 19 27.5t32 13.5l184 -113z" />
<glyph unicode="&#x159;" horiz-adv-x="788" d="M625 899q-53 -20 -120 -103t-118 -225l-123 -571h-176l191 905l-125 19v51q70 33 145.5 50t136.5 24l41 -25l-57 -272h8q59 135 145 216t185 81q27 0 53.5 -5.5t50.5 -19.5q0 -18 -6 -48t-17.5 -60.5t-24.5 -58.5t-28 -42zM852 1630q18 2 35.5 -8t23.5 -25l-336 -378 q-10 -6 -26 -7q-16 0 -25 7l-166 376q8 16 28.5 26.5t41.5 8.5l157 -217z" />
<glyph unicode="&#x15a;" horiz-adv-x="1079" d="M248 141q23 -18 76 -40q49 -20 102 -19h10h19q57 0 112 10q63 12 114.5 43t82.5 81t31 126q0 84 -40 141.5t-99.5 101.5t-128 84t-128 89t-99.5 115.5t-40 164.5q0 94 34 171t100.5 132.5t162.5 86t219 30.5q125 0 223.5 -19.5t153.5 -47.5q-8 -35 -24 -81l-31 -96 q-16 -49 -35 -95l-33 -81h-53l-25 281q-35 16 -89 24.5t-118 8.5q-61 0 -115.5 -14.5t-94 -44t-62 -74.5t-22.5 -107q0 -82 39.5 -136t99 -97t128 -83t128 -91.5t99.5 -124t40 -179.5q0 -96 -38 -173.5t-108.5 -134t-174 -87.5t-234.5 -31q-66 0 -126 8.5t-110.5 22.5 t-89 31.5t-59.5 34.5q8 37 23.5 87t33.5 101l37 99q18 48 35 83h53zM916 1829q18 2 46.5 -2t58.5 -13.5t55.5 -22.5t37.5 -28v-41l-463 -186l-34 39z" />
<glyph unicode="&#x15b;" horiz-adv-x="856" d="M522 242q-2 49 -27.5 84.5t-65.5 68.5t-85 66t-85 72.5t-65.5 92t-25.5 126.5t28.5 129t79 92t121 56.5t154.5 19.5q53 0 119.5 -9.5t126.5 -44.5q0 -23 -8.5 -52.5t-21.5 -57t-29.5 -51t-35.5 -31.5l-151 158q-43 -2 -80 -10.5t-64.5 -27t-43 -48t-15.5 -74.5 q0 -53 26.5 -91t66.5 -72t86 -65.5t86 -71.5t67 -92.5t27 -123.5q0 -74 -34 -131.5t-92.5 -97.5t-135 -60.5t-162.5 -20.5t-157 17.5t-112 44.5q10 53 24.5 103t59.5 93l185 -170q43 0 85 10.5t75.5 33t55 55.5t23.5 80zM733 1571q16 2 43 -1t55.5 -9.5t53 -15.5t36.5 -19 v-39l-403 -309l-45 36z" />
<glyph unicode="&#x15c;" horiz-adv-x="1079" d="M248 141q23 -18 76 -40q49 -20 102 -19h10h19q57 0 112 10q63 12 114.5 43t82.5 81t31 126q0 84 -40 141.5t-99.5 101.5t-128 84t-128 89t-99.5 115.5t-40 164.5q0 94 34 171t100.5 132.5t162.5 86t219 30.5q125 0 223.5 -19.5t153.5 -47.5q-8 -35 -24 -81l-31 -96 q-16 -49 -35 -95l-33 -81h-53l-25 281q-35 16 -89 24.5t-118 8.5q-61 0 -115.5 -14.5t-94 -44t-62 -74.5t-22.5 -107q0 -82 39.5 -136t99 -97t128 -83t128 -91.5t99.5 -124t40 -179.5q0 -96 -38 -173.5t-108.5 -134t-174 -87.5t-234.5 -31q-66 0 -126 8.5t-110.5 22.5 t-89 31.5t-59.5 34.5q8 37 23.5 87t33.5 101l37 99q18 48 35 83h53zM545 1540l-29 39l343 229q10 8 28 9q16 0 25 -9l174 -223l-31 -43l-205 115z" />
<glyph unicode="&#x15d;" horiz-adv-x="856" d="M522 242q-2 49 -27.5 84.5t-65.5 68.5t-85 66t-85 72.5t-65.5 92t-25.5 126.5t28.5 129t79 92t121 56.5t154.5 19.5q53 0 119.5 -9.5t126.5 -44.5q0 -23 -8.5 -52.5t-21.5 -57t-29.5 -51t-35.5 -31.5l-151 158q-43 -2 -80 -10.5t-64.5 -27t-43 -48t-15.5 -74.5 q0 -53 26.5 -91t66.5 -72t86 -65.5t86 -71.5t67 -92.5t27 -123.5q0 -74 -34 -131.5t-92.5 -97.5t-135 -60.5t-162.5 -20.5t-157 17.5t-112 44.5q10 53 24.5 103t59.5 93l185 -170q43 0 85 10.5t75.5 33t55 55.5t23.5 80zM371 1208l-60 33l309 381q10 8 27 8q16 0 25 -8 l149 -379l-55 -35l-160 219z" />
<glyph unicode="&#x15e;" horiz-adv-x="1079" d="M248 141q23 -18 76 -39.5t112 -21.5q68 0 131.5 12t114.5 43t82 81t31 126q0 84 -40 141.5t-99.5 101.5t-128 84t-128 89t-99.5 115.5t-40 164.5q0 94 34 171t100.5 132.5t162.5 86t219 30.5q125 0 223.5 -19.5t153.5 -47.5q-8 -35 -24 -81l-31 -96q-16 -49 -35 -95 l-33 -81h-53l-25 281q-35 16 -89 24.5t-118 8.5q-61 0 -115.5 -14.5t-94 -44t-62 -74.5t-22.5 -107q0 -82 39.5 -136t99 -97t128 -83t128 -91.5t99.5 -124t40 -179.5q0 -92 -33.5 -167.5t-99.5 -131t-160 -87t-215 -38.5l-76 -131q113 -2 151 -44t38 -105q0 -66 -42 -114 t-104.5 -78.5t-134 -46t-131.5 -15.5v68q41 6 82 17t75 29.5t54.5 45t20.5 63.5q0 20 -6.5 37.5t-21.5 29t-43 18.5t-73 11l109 215q-113 6 -203 35t-127 60q8 37 23.5 87t33.5 101l37 99q18 48 35 83h53z" />
<glyph unicode="&#xf6c1;" horiz-adv-x="1079" d="M248 141q23 -18 76 -39.5t112 -21.5q68 0 131.5 12t114.5 43t82 81t31 126q0 84 -40 141.5t-99.5 101.5t-128 84t-128 89t-99.5 115.5t-40 164.5q0 94 34 171t100.5 132.5t162.5 86t219 30.5q125 0 223.5 -19.5t153.5 -47.5q-8 -35 -24 -81l-31 -96q-16 -49 -35 -95 l-33 -81h-53l-25 281q-35 16 -89 24.5t-118 8.5q-61 0 -115.5 -14.5t-94 -44t-62 -74.5t-22.5 -107q0 -82 39.5 -136t99 -97t128 -83t128 -91.5t99.5 -124t40 -179.5q0 -92 -33.5 -167.5t-99.5 -131t-160 -87t-215 -38.5l-76 -131q113 -2 151 -44t38 -105q0 -66 -42 -114 t-104.5 -78.5t-134 -46t-131.5 -15.5v68q41 6 82 17t75 29.5t54.5 45t20.5 63.5q0 20 -6.5 37.5t-21.5 29t-43 18.5t-73 11l109 215q-113 6 -203 35t-127 60q8 37 23.5 87t33.5 101l37 99q18 48 35 83h53z" />
<glyph unicode="&#x15f;" horiz-adv-x="856" d="M522 242q-2 49 -27.5 84.5t-65.5 68.5t-85 66t-85 72.5t-65.5 92t-25.5 126.5t28.5 129t79 92t121 56.5t154.5 19.5q53 0 119.5 -9.5t126.5 -44.5q0 -23 -8.5 -52.5t-21.5 -57t-29.5 -51t-35.5 -31.5l-151 158q-43 -2 -80 -10.5t-64.5 -27t-43 -48t-15.5 -74.5 q0 -53 26.5 -91t66.5 -72t86 -65.5t86 -71.5t67 -92.5t27 -123.5q0 -66 -28 -119t-76 -92t-112.5 -62.5t-138.5 -31.5l-69 -119q86 -4 123.5 -40t39.5 -95q2 -63 -35.5 -109.5t-94 -76t-123 -43t-121.5 -11.5v61q39 6 77.5 17.5t68.5 28t48.5 40t16.5 52.5q0 18 -4.5 34.5 t-17.5 29.5t-38.5 22.5t-66.5 13.5l102 190q-78 4 -142.5 20.5t-101.5 41.5q10 53 24.5 103t59.5 93l185 -170q43 0 85 10.5t75.5 33t55 55.5t23.5 80z" />
<glyph unicode="&#xf6c2;" horiz-adv-x="856" d="M522 242q-2 49 -27.5 84.5t-65.5 68.5t-85 66t-85 72.5t-65.5 92t-25.5 126.5t28.5 129t79 92t121 56.5t154.5 19.5q53 0 119.5 -9.5t126.5 -44.5q0 -23 -8.5 -52.5t-21.5 -57t-29.5 -51t-35.5 -31.5l-151 158q-43 -2 -80 -10.5t-64.5 -27t-43 -48t-15.5 -74.5 q0 -53 26.5 -91t66.5 -72t86 -65.5t86 -71.5t67 -92.5t27 -123.5q0 -66 -28 -119t-76 -92t-112.5 -62.5t-138.5 -31.5l-69 -119q86 -4 123.5 -40t39.5 -95q2 -63 -35.5 -109.5t-94 -76t-123 -43t-121.5 -11.5v61q39 6 77.5 17.5t68.5 28t48.5 40t16.5 52.5q0 18 -4.5 34.5 t-17.5 29.5t-38.5 22.5t-66.5 13.5l102 190q-78 4 -142.5 20.5t-101.5 41.5q10 53 24.5 103t59.5 93l185 -170q43 0 85 10.5t75.5 33t55 55.5t23.5 80z" />
<glyph unicode="&#x160;" horiz-adv-x="1079" d="M248 141q23 -18 76 -40q49 -20 102 -19h10h19q57 0 112 10q63 12 114.5 43t82.5 81t31 126q0 84 -40 141.5t-99.5 101.5t-128 84t-128 89t-99.5 115.5t-40 164.5q0 94 34 171t100.5 132.5t162.5 86t219 30.5q125 0 223.5 -19.5t153.5 -47.5q-8 -35 -24 -81l-31 -96 q-16 -49 -35 -95l-33 -81h-53l-25 281q-35 16 -89 24.5t-118 8.5q-61 0 -115.5 -14.5t-94 -44t-62 -74.5t-22.5 -107q0 -82 39.5 -136t99 -97t128 -83t128 -91.5t99.5 -124t40 -179.5q0 -96 -38 -173.5t-108.5 -134t-174 -87.5t-234.5 -31q-66 0 -126 8.5t-110.5 22.5 t-89 31.5t-59.5 34.5q8 37 23.5 87t33.5 101l37 99q18 48 35 83h53zM1108 1819q16 0 30.5 -10.5t20.5 -24.5l-342 -230q-10 -6 -27 -6q-14 0 -26 6l-174 224q8 14 19 27.5t32 13.5l184 -113z" />
<glyph unicode="&#x161;" horiz-adv-x="856" d="M522 242q-2 49 -27.5 84.5t-65.5 68.5t-85 66t-85 72.5t-65.5 92t-25.5 126.5t28.5 129t79 92t121 56.5t154.5 19.5q53 0 119.5 -9.5t126.5 -44.5q0 -23 -8.5 -52.5t-21.5 -57t-29.5 -51t-35.5 -31.5l-151 158q-43 -2 -80 -10.5t-64.5 -27t-43 -48t-15.5 -74.5 q0 -53 26.5 -91t66.5 -72t86 -65.5t86 -71.5t67 -92.5t27 -123.5q0 -74 -34 -131.5t-92.5 -97.5t-135 -60.5t-162.5 -20.5t-157 17.5t-112 44.5q10 53 24.5 103t59.5 93l185 -170q43 0 85 10.5t75.5 33t55 55.5t23.5 80zM828 1630q18 2 35.5 -8t23.5 -25l-336 -378 q-10 -6 -26 -7q-16 0 -25 7l-166 376q8 16 28.5 26.5t41.5 8.5l157 -217z" />
<glyph unicode="&#x162;" horiz-adv-x="1249" d="M821 0h-241l-91 -154q113 -2 151 -44t38 -105q0 -66 -42 -114t-103.5 -78.5t-133 -46t-131.5 -15.5v68q39 6 81 17t75 29.5t53.5 45t20.5 63.5q0 20 -6.5 37.5t-21.5 29t-42 18.5t-72 11l121 238h-231l10 59q49 18 97 29.5t106 20.5l258 1218h-314l-170 -293h-53 q2 41 9.5 93.5l15.5 106.5t17 106.5t20 93.5h1188q-8 -41 -20.5 -92.5t-27 -105.5l-30 -106.5t-29.5 -95.5h-53l-43 293h-314l-258 -1218q49 -10 93.5 -20.5t82.5 -29.5z" />
<glyph unicode="&#x163;" horiz-adv-x="690" d="M111 975q41 23 87 41t91 28l33 156q29 23 66.5 40l78.5 34l43 -25l-49 -225h254q4 -25 0 -51.5t-21 -50.5h-254l-129 -594q-8 -39 -12 -69t-4 -54q0 -53 30.5 -78t67.5 -25q51 0 109.5 19.5t107.5 44.5l23 -37q-35 -47 -116 -91t-167 -58l-67 -119q86 -4 122.5 -40 t40.5 -95q2 -63 -35.5 -109.5t-95 -76t-124 -43t-121.5 -11.5v61q39 6 77.5 17.5t69.5 28t49.5 40t16.5 52.5q0 18 -5.5 34.5t-18.5 29.5t-37.5 22.5t-65.5 13.5l102 192q-70 10 -108.5 50.5t-38.5 115.5q0 29 5 64t13 72l135 643h-155z" />
<glyph unicode="&#x164;" horiz-adv-x="1249" d="M821 0h-575l10 59q49 18 97 29.5t106 20.5l258 1218h-314l-170 -293h-53q2 41 9.5 93.5l15.5 106.5t17 106.5t20 93.5h1188q-8 -41 -20.5 -92.5t-27 -105.5l-30 -106.5t-29.5 -95.5h-53l-43 293h-314l-258 -1218q49 -10 93.5 -20.5t82.5 -29.5zM1174 1819 q16 0 30.5 -10.5t20.5 -24.5l-342 -230q-10 -6 -27 -6q-14 0 -26 6l-174 224q8 14 19 27.5t32 13.5l184 -113z" />
<glyph unicode="&#x165;" horiz-adv-x="690" d="M111 975q41 23 87 41t91 28l33 156q29 23 66.5 40l78.5 34l43 -25l-49 -225h254q2 -12 2 -25t-2 -26q-4 -27 -21 -51h-254l-129 -594q-8 -39 -12 -69t-4 -54q0 -53 30.5 -78t67.5 -25q51 0 109.5 19.5t107.5 44.5l23 -37q-18 -27 -55 -53.5t-83 -49t-96.5 -37 t-95.5 -14.5q-90 0 -141 41t-51 127q0 29 5 64t13 72l135 643h-155zM557 1114q53 96 91 201.5t38 189.5l25 33q14 2 37.5 -1t48 -10t47 -16.5t35.5 -19.5q-10 -57 -40 -114.5t-71 -111t-86 -98.5t-84 -75z" />
<glyph unicode="&#x16a;" horiz-adv-x="1363" d="M229 1434h521l-13 -60q-80 -35 -166 -51l-174 -813q-15 -75 -15 -134q0 -27 3 -51q10 -77 49 -126t102.5 -72t147.5 -23q166 0 265.5 92.5t140.5 290.5l174 818q-90 31 -148 69l12 60h439l-15 -60q-35 -23 -82 -41t-92 -28l-174 -822q-57 -268 -201.5 -384.5 t-371.5 -116.5q-135 0 -228.5 38.5t-146.5 107.5t-68 164q-5 35 -5 72q0 64 16 134l176 825q-41 8 -84 21.5t-74 29.5zM629 1614l21 106h618l-22 -106h-617z" />
<glyph unicode="&#x16b;" horiz-adv-x="1110" d="M999 113v-52q-41 -33 -99 -53t-114 -20q-59 0 -84.5 24.5t-25.5 53.5q0 37 10 123.5t45 211.5h-8q-27 -57 -67 -130.5t-95 -139t-125.5 -111t-156.5 -45.5q-72 0 -121 50.5t-49 142.5q0 45 14 133t35 193l44 214l42 197l-125 19v51l70.5 24.5t75.5 22.5t73 17.5t63 9.5 l45 -25q-33 -154 -66.5 -292t-62.5 -292q-10 -49 -21 -109.5t-11 -131.5q0 -43 23.5 -70t53.5 -27q45 0 90.5 27t85.5 70t75.5 95t64.5 103.5t48 95.5l30 70l90 461h170l-168 -911h151zM440 1305l20 106h521l-23 -106h-518z" />
<glyph unicode="&#x16c;" horiz-adv-x="1363" d="M229 1434h521l-13 -60q-80 -35 -166 -51l-174 -813q-15 -75 -15 -134q0 -27 3 -51q10 -77 49 -126t102.5 -72t147.5 -23q166 0 265.5 92.5t140.5 290.5l174 818q-90 31 -148 69l12 60h439l-15 -60q-35 -23 -82 -41t-92 -28l-174 -822q-57 -268 -201.5 -384.5 t-371.5 -116.5q-135 0 -228.5 38.5t-146.5 107.5t-68 164q-5 35 -5 72q0 64 16 134l176 825q-41 8 -84 21.5t-74 29.5zM1227 1808q33 4 65 -28q-16 -37 -56 -77t-91.5 -73t-108.5 -54.5t-108 -21.5q-111 0 -174.5 60.5t-79.5 169.5q25 39 86 31q16 -49 69 -82t117 -35 q90 -2 162 28.5t119 81.5z" />
<glyph unicode="&#x16d;" horiz-adv-x="1110" d="M999 113v-52q-41 -33 -99 -53t-114 -20q-59 0 -84.5 24.5t-25.5 53.5q0 37 10 123.5t45 211.5h-8q-27 -57 -67 -130.5t-95 -139t-125.5 -111t-156.5 -45.5q-72 0 -121 50.5t-49 142.5q0 45 14 133t35 193l44 214l42 197l-125 19v51l70.5 24.5t75.5 22.5t73 17.5t63 9.5 l45 -25q-33 -154 -66.5 -292t-62.5 -292q-10 -49 -21 -109.5t-11 -131.5q0 -43 23.5 -70t53.5 -27q45 0 90.5 27t85.5 70t75.5 95t64.5 103.5t48 95.5l30 70l90 461h170l-168 -911h151zM1008 1473q-18 -47 -50 -91.5t-74 -80t-91.5 -57t-100.5 -21.5q-111 0 -171 71.5 t-71 182.5l58 26q23 -51 74 -91t112 -42q33 0 71 7t73.5 22.5t67.5 40t52 55.5z" />
<glyph unicode="&#x16e;" horiz-adv-x="1363" d="M229 1434h521l-13 -60q-80 -35 -166 -51l-174 -813q-15 -75 -15 -134q0 -27 3 -51q10 -77 49 -126t102.5 -72t147.5 -23q166 0 265.5 92.5t140.5 290.5l174 818q-90 31 -148 69l12 60h439l-15 -60q-35 -23 -82 -41t-92 -28l-174 -822q-57 -268 -201.5 -384.5 t-371.5 -116.5q-135 0 -228.5 38.5t-146.5 107.5t-68 164q-5 35 -5 72q0 64 16 134l176 825q-41 8 -84 21.5t-74 29.5zM729 1593q0 41 23 77t59.5 62.5t86 42t104.5 15.5q33 0 66.5 -6t60 -23.5t43 -46t16.5 -72.5q0 -41 -21.5 -75.5t-58 -60t-84 -40t-98.5 -14.5 q-92 0 -144.5 34.5t-52.5 106.5zM844 1599q0 -35 26.5 -49t63.5 -14q61 0 100.5 27.5t39.5 68.5t-28 57.5t-67 16.5q-57 0 -96 -30t-39 -77z" />
<glyph unicode="&#x16f;" horiz-adv-x="1110" d="M999 113v-52q-41 -33 -99 -53t-114 -20q-59 0 -84.5 24.5t-25.5 53.5q0 37 10 123.5t45 211.5h-8q-27 -57 -67 -130.5t-95 -139t-125.5 -111t-156.5 -45.5q-72 0 -121 50.5t-49 142.5q0 45 14 133t35 193l44 214l42 197l-125 19v51l70.5 24.5t75.5 22.5t73 17.5t63 9.5 l45 -25q-33 -154 -66.5 -292t-62.5 -292q-10 -49 -21 -109.5t-11 -131.5q0 -43 23.5 -70t53.5 -27q45 0 90.5 27t85.5 70t75.5 95t64.5 103.5t48 95.5l30 70l90 461h170l-168 -911h151zM512 1364q0 47 16.5 90t47.5 75t74 50t96 18q78 0 121 -43t43 -110q0 -49 -18.5 -91 t-49.5 -73t-73 -48.5t-89 -17.5q-78 0 -123 39t-45 111zM619 1372q0 -37 21.5 -55.5t47.5 -18.5q39 0 76 38t37 110q0 68 -59 67q-63 0 -93 -46t-30 -95z" />
<glyph unicode="&#x170;" horiz-adv-x="1363" d="M229 1434h521l-13 -60q-80 -35 -166 -51l-174 -813q-15 -75 -15 -134q0 -27 3 -51q10 -77 49 -126t102.5 -72t147.5 -23q166 0 265.5 92.5t140.5 290.5l174 818q-90 31 -148 69l12 60h439l-15 -60q-35 -23 -82 -41t-92 -28l-174 -822q-57 -268 -201.5 -384.5 t-371.5 -116.5q-135 0 -228.5 38.5t-146.5 107.5t-68 164q-5 35 -5 72q0 64 16 134l176 825q-41 8 -84 21.5t-74 29.5zM844 1819q12 2 36.5 -2.5t51.5 -10.5t48.5 -16t27.5 -21v-28l-268 -189l-39 37zM1200 1819q14 2 39 -2.5t51.5 -12.5t49 -18t32.5 -23l-2 -20l-362 -195 l-43 37z" />
<glyph unicode="&#x171;" horiz-adv-x="1110" d="M999 113v-52q-41 -33 -99 -53t-114 -20q-59 0 -84.5 24.5t-25.5 53.5q0 37 10 123.5t45 211.5h-8q-27 -57 -67 -130.5t-95 -139t-125.5 -111t-156.5 -45.5q-72 0 -121 50.5t-49 142.5q0 45 14 133t35 193l44 214l42 197l-125 19v51l70.5 24.5t75.5 22.5t73 17.5t63 9.5 l45 -25q-33 -154 -66.5 -292t-62.5 -292q-10 -49 -21 -109.5t-11 -131.5q0 -43 23.5 -70t53.5 -27q45 0 90.5 27t85.5 70t75.5 95t64.5 103.5t48 95.5l30 70l90 461h170l-168 -911h151zM631 1573q12 2 38.5 -1t54 -9.5t50.5 -15.5t29 -17v-31l-283 -274l-47 32zM985 1573 q14 2 39.5 -1t51.5 -11.5t49.5 -19.5t33.5 -25v-27l-408 -264l-38 37z" />
<glyph unicode="&#x172;" horiz-adv-x="1363" d="M229 1434h521l-13 -60q-80 -35 -166 -51l-174 -813q-23 -109 -12.5 -185.5t49.5 -125.5t102.5 -72t147.5 -23q166 0 265.5 92.5t140.5 290.5l174 818q-90 31 -148 69l12 60h439l-15 -60q-35 -23 -82 -41t-92 -28l-174 -822q-43 -203 -136 -317.5t-234 -157.5 q-49 -23 -93.5 -53.5t-78 -66t-54 -77.5t-20.5 -87q0 -57 37 -94.5t102 -37.5q63 0 113 13v-60q-29 -23 -74 -41t-113 -18q-47 0 -89 14.5t-74.5 41t-51 64.5t-18.5 83q0 96 67.5 167.5t176.5 127.5q-8 0 -15.5 -1t-17.5 -1q-135 0 -228.5 38.5t-146.5 107.5t-67.5 164 t10.5 206l176 825q-41 8 -84 21.5t-74 29.5z" />
<glyph unicode="&#x173;" horiz-adv-x="1110" d="M999 115v-54q-23 -16 -46 -28.5t-50 -22.5q-31 -18 -63.5 -43.5t-59 -57.5t-44 -70t-17.5 -81q0 -53 28.5 -88t94.5 -37q23 0 40 6l46 13v-64q-31 -16 -75 -29.5t-81 -13.5q-121 0 -173 51.5t-52 129.5q0 90 57.5 152.5t165.5 109.5q-51 4 -72.5 27.5t-21.5 50.5 q0 37 10 123.5t45 211.5h-8q-27 -57 -67 -130.5t-95 -139t-125.5 -111t-156.5 -45.5q-72 0 -121 50.5t-49 142.5q0 45 14 133t35 193l44 214l42 197l-125 19v51l70.5 24.5t75.5 22.5t73 17.5t63 9.5l45 -25q-33 -154 -66.5 -292t-62.5 -292q-10 -49 -21 -109.5t-11 -131.5 q0 -43 23.5 -70t53.5 -27q45 0 90.5 27t85.5 70t75.5 95t64.5 103.5t48 95.5l30 70l90 461h170l-168 -909h151z" />
<glyph unicode="&#x178;" horiz-adv-x="1300" d="M1065 1434h457l-15 -60q-41 -20 -82 -31.5t-82 -19.5l-538 -713l-107 -501q76 -10 144 -50l-11 -59h-520l11 59q82 37 180 50l106 499l-264 715q-45 8 -83 21.5t-73 29.5l15 60h540l-12 -60l-74 -26q-41 -14 -94 -25l207 -602l434 602q-43 10 -81 22.5t-70 28.5z M564 1616q0 49 33.5 73.5t82.5 24.5q51 0 84 -24.5t33 -73.5q0 -47 -33 -71.5t-84 -24.5q-49 0 -82.5 24.5t-33.5 71.5zM1020 1616q0 49 33 73.5t84 24.5q49 0 82 -24.5t35 -73.5q-2 -47 -35 -71.5t-82 -24.5q-51 0 -84 24.5t-33 71.5z" />
<glyph unicode="&#x179;" horiz-adv-x="1234" d="M1083 393h54q-4 -43 -10.5 -94t-14.5 -103.5t-17.5 -103.5t-19.5 -92h-1065v104l1077 1223h-595l-187 -287h-53q2 43 9 94.5t15.5 104.5t17.5 103.5t19 91.5h1018v-107l-1077 -1221h643zM1026 1829q18 2 46.5 -2t58.5 -13.5t55.5 -22.5t37.5 -28v-41l-463 -186l-34 39z " />
<glyph unicode="&#x17a;" horiz-adv-x="892" d="M238 369l450 497q-37 -2 -76 -2q-59 0 -124 5q-108 9 -222 28l-94 -147l-51 12l29 209q12 80 110 80q74 0 214 -21.5t335 -32.5l47 52q27 -4 50.5 -20.5t27.5 -45.5l-705 -776q121 -23 236 -60.5t213 -91.5l119 135l49 -28l-72 -209q-10 -31 -36.5 -51.5t-65.5 -20.5 t-97 26l-130 58q-73 33 -156.5 65.5t-175.5 47.5l-84 -90q-27 4 -51.5 20.5t-26.5 46.5zM750 1571q16 2 43 -1t55.5 -9.5t53 -15.5t36.5 -19v-39l-403 -309l-45 36z" />
<glyph unicode="&#x17b;" horiz-adv-x="1234" d="M1083 393h54q-4 -43 -10.5 -94t-14.5 -103.5t-17.5 -103.5t-19.5 -92h-1065v104l1077 1223h-595l-187 -287h-53q2 43 9 94.5t15.5 104.5t17.5 103.5t19 91.5h1018v-107l-1077 -1221h643zM701 1673q0 53 39 82t94 29t92 -29t37 -82t-37 -81.5t-92 -28.5t-94 28.5t-39 81.5 z" />
<glyph unicode="&#x17c;" horiz-adv-x="892" d="M238 369l450 497q-37 -2 -76 -2q-59 0 -124 5q-108 9 -222 28l-94 -147l-51 12l29 209q12 80 110 80q74 0 214 -21.5t335 -32.5l47 52q27 -4 50.5 -20.5t27.5 -45.5l-705 -776q121 -23 236 -60.5t213 -91.5l119 135l49 -28l-72 -209q-10 -31 -36.5 -51.5t-65.5 -20.5 t-97 26l-130 58q-73 33 -156.5 65.5t-175.5 47.5l-84 -90q-27 4 -51.5 20.5t-26.5 46.5zM459 1378q0 53 33 84t86 31q57 0 90 -30.5t33 -84.5q0 -51 -33 -79.5t-90 -28.5q-53 0 -86 28.5t-33 79.5z" />
<glyph unicode="&#x17d;" horiz-adv-x="1234" d="M1083 393h54q-4 -43 -10.5 -94t-14.5 -103.5t-17.5 -103.5t-19.5 -92h-1065v104l1077 1223h-595l-187 -287h-53q2 43 9 94.5t15.5 104.5t17.5 103.5t19 91.5h1018v-107l-1077 -1221h643zM1127 1819q16 0 30.5 -10.5t20.5 -24.5l-342 -230q-10 -6 -27 -6q-14 0 -26 6 l-174 224q8 14 19 27.5t32 13.5l184 -113z" />
<glyph unicode="&#x17e;" horiz-adv-x="892" d="M238 369l450 497q-37 -2 -76 -2q-59 0 -124 5q-108 9 -222 28l-94 -147l-51 12l29 209q12 80 110 80q74 0 214 -21.5t335 -32.5l47 52q27 -4 50.5 -20.5t27.5 -45.5l-705 -776q121 -23 236 -60.5t213 -91.5l119 135l49 -28l-72 -209q-10 -31 -36.5 -51.5t-65.5 -20.5 t-97 26l-130 58q-73 33 -156.5 65.5t-175.5 47.5l-84 -90q-27 4 -51.5 20.5t-26.5 46.5zM863 1630q18 2 35.5 -8t23.5 -25l-336 -378q-10 -6 -26 -7q-16 0 -25 7l-166 376q8 16 28.5 26.5t41.5 8.5l157 -217z" />
<glyph unicode="&#x17f;" horiz-adv-x="608" d="M264 922h-149v53q41 23 87 40t87 27l14 72q27 127 73 210t107.5 131t135 66.5t157.5 18.5q35 0 83 -8t81 -25q-4 -45 -21.5 -93t-58.5 -83l-155 127q-37 -10 -68 -22.5t-58.5 -46t-52 -95t-47.5 -168.5l-172 -1038q-23 -145 -76 -241.5t-113.5 -156t-117.5 -88t-88 -36.5 l-18 45q25 12 59.5 44t68 85t63.5 130t46 179z" />
<glyph unicode="&#x192;" d="M385 922h-147v53q41 23 87 40t87 27l14 72q27 127 73 210t106.5 131t134 66.5t157.5 18.5q35 0 83 -8t81 -25q-4 -45 -21.5 -93t-58.5 -83l-154 127q-37 -10 -68.5 -22.5t-59 -46t-52 -95t-47.5 -168.5l-20 -102h227q10 -51 -21 -102h-227l-129 -834q-23 -145 -76 -241.5 t-113.5 -156t-117.5 -88t-88 -36.5l-17 39q25 12 59 45t67.5 87t63.5 132t46 180z" />
<glyph unicode="&#x1f4;" horiz-adv-x="1390" d="M1169 98q-45 -27 -102 -49t-117.5 -38.5t-121 -26t-111.5 -9.5q-272 0 -427 144.5t-155 410.5q0 207 58.5 378t169 293t269.5 189.5t359 67.5q135 0 231.5 -17.5t159.5 -51.5q-6 -31 -17 -76t-27 -94l-31 -98q-16 -48 -31 -85h-53l-43 295q-37 10 -92.5 15.5t-106.5 5.5 q-158 0 -275.5 -64.5t-195.5 -175.5t-117 -259t-39 -318q0 -145 41 -234.5t101.5 -138.5t129.5 -66q61 -15 113 -14h13h11q75 0 140 24q70 27 96 48l91 413q-53 4 -98.5 18.5t-88.5 30.5l15 60h501l-12 -60q-23 -14 -55.5 -26t-83.5 -23zM1149 1829q18 2 46.5 -2t58.5 -13.5 t55.5 -22.5t37.5 -28v-41l-463 -186l-34 39z" />
<glyph unicode="&#x1f5;" horiz-adv-x="1001" d="M573 1049q98 0 161 -25t97 -53q18 16 49 32.5t66 31t72 26.5l69 22q6 -10 11 -30q3 -16 3 -36q0 -30 -8 -60q-7 -26 -22 -46l-211 15q6 -18 12.5 -42t6.5 -53q0 -82 -34 -151.5t-93.5 -119.5t-138 -78.5t-167.5 -28.5q-35 0 -56 1t-48 7q-18 -20 -50 -48t-32 -61 q0 -35 45 -53t114 -34l148 -33q80 -17 148.5 -46.5t113.5 -77t45 -124.5q0 -96 -54 -173t-143 -131.5t-203 -84t-230 -29.5q-94 0 -162 19.5t-111 53t-63.5 76.5t-20.5 90q0 57 26 106.5t69 93.5t98 81t115 70q-31 16 -50.5 43.5t-19.5 62.5q0 31 20.5 64.5t48 64.5t55 53.5 t42.5 32.5q-25 6 -50.5 22.5t-48 43t-37 61.5t-14.5 78q0 80 34 147.5t93.5 115.5t137 76t167.5 28zM338 -346q63 0 125.5 18.5t113 52t82 84t31.5 113.5q0 61 -50 95t-122 54.5t-148.5 34t-131.5 31.5q-96 -70 -132 -145.5t-34 -141.5q-2 -92 70.5 -144t195.5 -52zM557 967 q-59 0 -105 -22.5t-79 -60.5t-49.5 -89.5t-16.5 -108.5q0 -78 50.5 -114.5t107.5 -36.5q61 0 105 21.5t74 58t44 83.5t14 99q0 76 -35.5 123t-109.5 47zM807 1571q16 2 43 -1t55.5 -9.5t53 -15.5t36.5 -19v-39l-403 -309l-45 36z" />
<glyph unicode="&#x218;" horiz-adv-x="1079" d="M248 141q23 -18 76 -40q49 -20 102 -19h10h19q57 0 112 10q63 12 114.5 43t82.5 81t31 126q0 84 -40 141.5t-99.5 101.5t-128 84t-128 89t-99.5 115.5t-40 164.5q0 94 34 171t100.5 132.5t162.5 86t219 30.5q125 0 223.5 -19.5t153.5 -47.5q-8 -35 -24 -81l-31 -96 q-16 -49 -35 -95l-33 -81h-53l-25 281q-35 16 -89 24.5t-118 8.5q-61 0 -115.5 -14.5t-94 -44t-62 -74.5t-22.5 -107q0 -82 39.5 -136t99 -97t128 -83t128 -91.5t99.5 -124t40 -179.5q0 -96 -38 -173.5t-108.5 -134t-174 -87.5t-234.5 -31q-66 0 -126 8.5t-110.5 22.5 t-89 31.5t-59.5 34.5q8 37 23.5 87t33.5 101l37 99q18 48 35 83h53zM186 -485q82 23 130.5 61.5t58.5 104.5q-18 20 -50 41.5t-59 29.5q-2 29 15.5 56.5t42 48t53 34t49.5 13.5q66 -4 114 -44t48 -106q0 -57 -29 -109.5t-78 -93t-117.5 -69.5t-148.5 -39z" />
<glyph unicode="&#x219;" horiz-adv-x="856" d="M522 242q-2 49 -27.5 84.5t-65.5 68.5t-85 66t-85 72.5t-65.5 92t-25.5 126.5t28.5 129t79 92t121 56.5t154.5 19.5q53 0 119.5 -9.5t126.5 -44.5q0 -23 -8.5 -52.5t-21.5 -57t-29.5 -51t-35.5 -31.5l-151 158q-43 -2 -80 -10.5t-64.5 -27t-43 -48t-15.5 -74.5 q0 -53 26.5 -91t66.5 -72t86 -65.5t86 -71.5t67 -92.5t27 -123.5q0 -74 -34 -131.5t-92.5 -97.5t-135 -60.5t-162.5 -20.5t-157 17.5t-112 44.5q10 53 24.5 103t59.5 93l185 -170q43 0 85 10.5t75.5 33t55 55.5t23.5 80zM67 -473q162 45 177 164q-16 20 -47 39.5t-58 27.5 q-2 29 13.5 54.5t39 46t49 33t46.5 12.5q61 -4 96 -41t35 -103q0 -53 -25 -101t-68 -88t-103 -67.5t-132 -38.5z" />
<glyph unicode="&#x21a;" horiz-adv-x="1249" d="M821 0h-575l10 59q49 18 97 29.5t106 20.5l258 1218h-314l-170 -293h-53q2 41 9.5 93.5l15.5 106.5t17 106.5t20 93.5h1188q-8 -41 -20.5 -92.5t-27 -105.5l-30 -106.5t-29.5 -95.5h-53l-43 293h-314l-258 -1218q49 -10 93.5 -20.5t82.5 -29.5zM274 -485 q82 23 130.5 61.5t58.5 104.5q-18 20 -50 41.5t-59 29.5q-2 29 15.5 56.5t42 48t53 34t49.5 13.5q66 -4 114 -44t48 -106q0 -57 -29 -109.5t-78 -93t-117.5 -69.5t-148.5 -39z" />
<glyph unicode="&#x21b;" horiz-adv-x="690" d="M111 975q41 23 87 41t91 28l33 156q29 23 66.5 40l78.5 34l43 -25l-49 -225h254q2 -12 2 -25t-2 -26q-4 -27 -21 -51h-254l-129 -594q-8 -39 -12 -69t-4 -54q0 -53 30.5 -78t67.5 -25q51 0 109.5 19.5t107.5 44.5l23 -37q-18 -27 -55 -53.5t-83 -49t-96.5 -37 t-95.5 -14.5q-90 0 -141 41t-51 127q0 29 5 64t13 72l135 643h-155zM67 -473q162 45 177 164q-16 20 -47 39.5t-58 27.5q-2 29 13.5 54.5t39 46t49 33t46.5 12.5q61 -4 96 -41t35 -103q0 -53 -25 -101t-68 -88t-103 -67.5t-132 -38.5z" />
<glyph unicode="&#x237;" horiz-adv-x="563" d="M272 905l-122 19v51q63 29 141 51.5t141 22.5l41 -25l-199 -936q-31 -145 -85 -241.5t-113.5 -156t-113.5 -88t-87 -36.5l-25 45q25 12 58 42t65.5 82t64.5 130t54 184z" />
<glyph unicode="&#x2bc;" horiz-adv-x="598" d="M254 962q74 27 127 90.5t63 139.5q-16 20 -52 38l-58 27q-2 33 14.5 64t41 55.5t52 39.5t45.5 15q59 -6 97.5 -39.5t38.5 -99.5t-30 -129t-78 -115.5t-109.5 -90.5t-122.5 -56z" />
<glyph unicode="&#x2c6;" horiz-adv-x="903" d="M453 1208l-60 33l309 381q10 8 27 8q16 0 25 -8l149 -379l-55 -35l-160 219z" />
<glyph unicode="&#x2c7;" horiz-adv-x="798" d="M924 1630q18 2 35.5 -8t23.5 -25l-336 -378q-10 -6 -26 -7q-16 0 -25 7l-166 376q8 16 28.5 26.5t41.5 8.5l157 -217z" />
<glyph unicode="&#x2d8;" horiz-adv-x="1044" d="M1047 1473q-18 -47 -50 -91.5t-74 -80t-91.5 -57t-100.5 -21.5q-111 0 -171 71.5t-71 182.5l58 26q23 -51 74 -91t112 -42q33 0 71 7t73.5 22.5t67.5 40t52 55.5z" />
<glyph unicode="&#x2d9;" horiz-adv-x="612" d="M428 1378q0 53 33 84t86 31q57 0 90 -30.5t33 -84.5q0 -51 -33 -79.5t-90 -28.5q-53 0 -86 28.5t-33 79.5z" />
<glyph unicode="&#x2da;" horiz-adv-x="958" d="M483 1364q0 47 16.5 90t47.5 75t74 50t96 18q78 0 121 -43t43 -110q0 -49 -18.5 -91t-49.5 -73t-73 -48.5t-89 -17.5q-78 0 -123 39t-45 111zM590 1372q0 -37 21.5 -55.5t47.5 -18.5q39 0 76 38t37 110q0 68 -59 67q-63 0 -93 -46t-30 -95z" />
<glyph unicode="&#x2db;" horiz-adv-x="911" d="M608 31q-35 -12 -74.5 -39t-74.5 -61.5t-58.5 -79t-23.5 -93.5q0 -53 29.5 -88t95.5 -37q23 0 39 5.5t45 13.5v-64q-29 -16 -73 -29.5t-81 -13.5q-123 0 -174 51.5t-51 129.5q0 113 92 185.5t258 121.5z" />
<glyph unicode="&#x2dc;" horiz-adv-x="884" d="M885 1376q-66 -66 -120 -91t-101 -25q-37 0 -70 11t-64 23l-60 24q-30 11 -60 11q-27 0 -54.5 -10t-60.5 -39l-39 57q76 72 135.5 96.5t106.5 24.5q37 0 68.5 -10t60 -22.5t58.5 -22.5t60 -10q27 0 53.5 9t59.5 32z" />
<glyph unicode="&#x2dd;" horiz-adv-x="1275" d="M668 1573q12 2 38.5 -1t54 -9.5t50.5 -15.5t29 -17v-31l-283 -274l-47 32zM1022 1573q14 2 39.5 -1t51.5 -11.5t49.5 -19.5t33.5 -25v-27l-408 -264l-38 37z" />
<glyph unicode="&#x301;" horiz-adv-x="4" d="M-215 1571q16 2 43 -1t55.5 -9.5t53 -15.5t36.5 -19v-39l-403 -309l-45 36z" />
<glyph unicode="&#x394;" horiz-adv-x="1308" d="M-51 0v63l600 1371h57l588 -1371v-63h-1245zM535 1153l-441 -1026h862z" />
<glyph unicode="&#x2206;" horiz-adv-x="1308" d="M-51 0v63l600 1371h57l588 -1371v-63h-1245zM535 1153l-441 -1026h862z" />
<glyph unicode="&#x3a9;" horiz-adv-x="1632" d="M117 0q0 37 2 87t5 104.5t7 107.5t8 98h51l91 -241h325q-90 33 -172 89t-144.5 134t-99 177t-36.5 216q0 156 47 282t135 216t214 139t281 49q160 0 281 -47t204 -135t125 -211t42 -272q0 -127 -40 -231.5t-103.5 -185.5t-141.5 -136.5t-154 -83.5h306l92 241h51 q4 -45 8 -98t7 -107.5t5.5 -104.5t2.5 -87h-578v170q49 20 106.5 69.5t106.5 125t82 177t31 228.5q2 119 -25 225.5t-81 185.5t-135 125t-192 46q-123 0 -211 -45t-143 -122t-80.5 -178.5t-23.5 -213.5q-2 -127 32.5 -232.5t87 -186.5t113 -133.5t109.5 -70.5v-170h-598z " />
<glyph unicode="&#x2126;" horiz-adv-x="1632" d="M117 0q0 37 2 87t5 104.5t7 107.5t8 98h51l91 -241h325q-90 33 -172 89t-144.5 134t-99 177t-36.5 216q0 156 47 282t135 216t214 139t281 49q160 0 281 -47t204 -135t125 -211t42 -272q0 -127 -40 -231.5t-103.5 -185.5t-141.5 -136.5t-154 -83.5h306l92 241h51 q4 -45 8 -98t7 -107.5t5.5 -104.5t2.5 -87h-578v170q49 20 106.5 69.5t106.5 125t82 177t31 228.5q2 119 -25 225.5t-81 185.5t-135 125t-192 46q-123 0 -211 -45t-143 -122t-80.5 -178.5t-23.5 -213.5q-2 -127 32.5 -232.5t87 -186.5t113 -133.5t109.5 -70.5v-170h-598z " />
<glyph unicode="&#x3c0;" horiz-adv-x="1259" d="M1075 102l-8 -43q-66 -27 -147.5 -47t-149.5 -30h-51l192 915h-391l-82 -391q-14 -66 -34.5 -135.5t-45 -136t-52 -127t-56.5 -107.5q-16 -8 -40 -10t-50 -2q-43 0 -79 4t-34 8l-8 16q61 70 120.5 178.5t111 231.5t91 247t60.5 224h-35q-119 -2 -237 -123l-23 17 q23 51 48.5 96t64.5 78.5t95 53t138 17.5q23 0 83 -2t140 -4t172.5 -4t175.5 -2q66 0 110 1t76 7t54.5 16.5t46.5 28.5l23 -18q-20 -66 -76.5 -115t-144.5 -47h-25l-164 -778z" />
<glyph unicode="&#x401;" horiz-adv-x="1171" d="M1231 1434q-16 -82 -39 -166t-53 -166h-54l-34 225h-449l-113 -543h332l113 152h51q-16 -102 -37.5 -205.5t-50.5 -208.5h-51l-47 156h-334l-119 -572h469l154 246h51q-4 -80 -16.5 -171t-34.5 -181h-1010l10 59q84 35 181 50l256 1214q-41 10 -80 22.5t-78 28.5l14 60 h969zM472 1616q0 49 33.5 73.5t82.5 24.5q51 0 84 -24.5t33 -73.5q0 -47 -33 -71.5t-84 -24.5q-49 0 -82.5 24.5t-33.5 71.5zM928 1616q0 49 33 73.5t84 24.5q49 0 82 -24.5t35 -73.5q-2 -47 -35 -71.5t-82 -24.5q-51 0 -84 24.5t-33 71.5z" />
<glyph unicode="&#x402;" horiz-adv-x="1529" d="M1477 594q0 -158 -50.5 -271.5t-129 -186.5t-174 -107.5t-187.5 -34.5l-2 55q72 20 134 59t109.5 102.5t75 153t27.5 211.5q0 45 -9 83t-33 66t-64.5 43t-104.5 15q-86 0 -166 -25.5t-145 -60.5l-123 -587q35 -10 67.5 -22.5t65.5 -27.5l-12 -59h-531l11 59 q49 18 98 29.5t104 20.5l258 1218h-313l-170 -293h-51q2 41 9 93.5t16 106.5l19 106q9 52 17 94h1188q-8 -41 -19.5 -92.5t-25.5 -103.5l-30 -103q-15 -51 -31 -95h-52l-47 287h-313l-113 -530q63 31 160.5 61.5t214.5 30.5q172 0 247 -79t75 -216z" />
<glyph unicode="&#x403;" horiz-adv-x="1017" d="M346 109q100 -16 184 -50l-10 -59h-561l10 59q92 35 181 50l256 1214q-41 8 -80 21.5t-78 29.5l14 60h959q-8 -41 -20.5 -94.5t-28 -111t-32 -111.5l-30.5 -97h-53l-41 307h-414zM967 1829q18 2 46.5 -2t58.5 -13.5t55.5 -22.5t37.5 -28v-41l-463 -186l-34 39z" />
<glyph unicode="&#x404;" horiz-adv-x="1318" d="M1141 373h51q0 -57 -11.5 -144.5t-33.5 -169.5q-41 -23 -88 -39t-98.5 -26t-100.5 -14.5t-92 -4.5q-174 0 -295 49.5t-195.5 129t-108.5 178t-34 196.5q0 209 59.5 380t169 293t266 189.5t353.5 67.5q135 0 229.5 -18.5t157.5 -50.5q-6 -33 -17.5 -77t-26.5 -93.5 t-32 -96.5l-30 -86h-54l-43 295q-27 10 -81 15.5t-105 5.5q-115 0 -214 -37t-178 -111t-135.5 -183.5t-80.5 -252.5l674 29q4 -35 -3.5 -77t-23.5 -83q-70 6 -154 11l-171 10q-87 5 -174 8.5t-161 3.5q-6 -66 -6 -138q0 -127 44 -214t110.5 -140t144.5 -75.5t148 -20.5 q70 -2 118 10t70 27z" />
<glyph unicode="&#x405;" horiz-adv-x="1079" d="M248 141q23 -18 76 -40q49 -20 102 -19h10h19q57 0 112 10q63 12 114.5 43t82.5 81t31 126q0 84 -40 141.5t-99.5 101.5t-128 84t-128 89t-99.5 115.5t-40 164.5q0 94 34 171t100.5 132.5t162.5 86t219 30.5q125 0 223.5 -19.5t153.5 -47.5q-8 -35 -24 -81l-31 -96 q-16 -49 -35 -95l-33 -81h-53l-25 281q-35 16 -89 24.5t-118 8.5q-61 0 -115.5 -14.5t-94 -44t-62 -74.5t-22.5 -107q0 -82 39.5 -136t99 -97t128 -83t128 -91.5t99.5 -124t40 -179.5q0 -96 -38 -173.5t-108.5 -134t-174 -87.5t-234.5 -31q-66 0 -126 8.5t-110.5 22.5 t-89 31.5t-59.5 34.5q8 37 23.5 87t33.5 101l37 99q18 48 35 83h53z" />
<glyph unicode="&#x406;" horiz-adv-x="702" d="M522 0h-524l10 59q90 37 176 50l256 1214q-41 8 -77.5 21.5t-75.5 29.5l14 60h524l-12 -60q-41 -16 -88 -29.5t-88 -21.5l-256 -1214q41 -8 81 -20.5t70 -29.5z" />
<glyph unicode="&#x407;" horiz-adv-x="702" d="M522 0h-524l10 59q90 37 176 50l256 1214q-41 8 -77.5 21.5t-75.5 29.5l14 60h524l-12 -60q-41 -16 -88 -29.5t-88 -21.5l-256 -1214q41 -8 81 -20.5t70 -29.5zM305 1616q0 49 33 73.5t82 24.5q51 0 83 -24.5t32 -73.5q0 -47 -32 -71.5t-83 -24.5q-49 0 -82 24.5 t-33 71.5zM668 1616q0 49 32.5 73.5t81.5 24.5q51 0 83 -24.5t32 -73.5q0 -47 -31.5 -71.5t-83.5 -24.5q-49 0 -81.5 24.5t-32.5 71.5z" />
<glyph unicode="&#x408;" horiz-adv-x="677" d="M279 1434h522l-10 -60q-41 -18 -88.5 -30.5t-88.5 -20.5l-241 -1147q-31 -141 -83 -233.5t-112.5 -148.5t-121 -83.5t-107.5 -38.5l-15 31q41 33 75 66.5t62.5 84t53.5 122t47 178.5l246 1169q-88 20 -152 51z" />
<glyph unicode="&#x409;" horiz-adv-x="1865" d="M659 0l13 59q86 37 168 50l256 1218h-381q-51 -213 -98.5 -378t-90.5 -289.5t-84 -215t-80.5 -158t-79.5 -117.5t-81 -91q-53 -53 -119 -78t-119 -25q-18 27 -30.5 81.5t-14.5 107.5q0 12 1 24.5t3 24.5l41 51l227 -43q41 51 89.5 135t99.5 214t104.5 312.5t106.5 430.5 q-121 23 -195 61l13 60h1087l-12 -60q-41 -16 -89 -29.5t-102 -21.5l-98 -469q39 6 92 10t94 4q98 0 177 -21.5t136.5 -63.5t88 -102t30.5 -138q0 -162 -63 -267.5t-159.5 -168t-210 -88t-214.5 -25.5q-10 0 -38.5 1t-66.5 2l-78 2q-40 1 -71 1h-252zM1313 762q-47 0 -80 -3 t-62 -9l-135 -639q8 -4 26.5 -5.5t40 -3.5t42.5 -2h33q80 0 154.5 23.5t133 78t94 138.5t33.5 201q2 47 -11 88t-45 70.5t-87 46t-137 16.5z" />
<glyph unicode="&#x40a;" horiz-adv-x="2015" d="M813 0l12 59q43 18 82 30.5t84 19.5l127 600h-645l-125 -600q78 -16 141 -50l-10 -59h-520l12 59q45 20 90 30.5t91 19.5l256 1214q-92 14 -158 51l12 60h520l-12 -60q-41 -18 -83 -30.5t-83 -20.5l-108 -508h645l108 508q-41 10 -73.5 22.5l-71.5 28.5l12 60h533 l-13 -60q-41 -16 -90 -29.5t-100 -21.5l-109 -510q39 6 92.5 10t94.5 4q98 0 179 -20.5t138 -61t89 -100t32 -137.5q0 -152 -63.5 -251t-160 -157.5t-210 -82t-215.5 -23.5q-10 0 -39 1t-67 2l-78 2q-40 1 -70 1h-246zM1462 721q-49 0 -84 -3t-63 -9l-127 -598 q8 -4 27.5 -5.5t41 -3.5t41.5 -2h31q82 0 157 19.5t132 68t91 125t34 187.5q0 43 -13.5 83t-45 70.5t-86 49t-136.5 18.5z" />
<glyph unicode="&#x40b;" horiz-adv-x="1566" d="M893 1327l-113 -530q61 31 150.5 61.5t206.5 30.5q135 0 214 -67.5t81 -215.5q0 -66 -19 -151l-74 -346q70 -12 136 -50l-11 -59h-342l97 469q12 59 14 115.5t-15.5 100.5t-55.5 70.5t-105 26.5q-86 0 -160 -25.5t-139 -60.5l-123 -587q35 -10 68.5 -22.5t64.5 -27.5 l-10 -59h-533l11 59q49 16 98 28.5t104 21.5l256 1218h-311l-168 -293h-53q2 41 8 93.5t14.5 106.5t18.5 106.5t20 93.5h1188q-8 -41 -20.5 -91.5l-26.5 -103.5t-29.5 -104.5t-29.5 -92.5h-52l-47 285h-313z" />
<glyph unicode="&#x40c;" horiz-adv-x="1304" d="M975 1434h465l-15 -60q-37 -18 -82 -30.5t-83 -20.5l-531 -553l85 -149l102 -170l113 -179l116 -172l88 -49l-10 -51h-248l-60 49q-92 141 -178 305t-162 332h-108l-121 -577q84 -16 141 -50l-10 -59h-518l10 59q92 37 181 50l256 1214q-45 8 -85 20.5t-73 30.5l14 60 h518l-12 -60q-70 -33 -166 -51l-119 -567l123 28l492 539q-41 10 -74 21.5t-63 29.5zM1067 1829q18 2 46.5 -2t58.5 -13.5t55.5 -22.5t37.5 -28v-41l-463 -186l-34 39z" />
<glyph unicode="&#x40e;" horiz-adv-x="1331" d="M1247 1323q-94 18 -164 51l13 60h456l-12 -60q-29 -14 -67.5 -27.5t-90.5 -23.5l-606 -971q-127 -195 -234.5 -290t-224.5 -72q-10 18 -17 47t-13 59.5t-8.5 61t2.5 55.5l59 49l215 -55q10 8 24.5 24.5t28.5 36.5l28 41q13 20 21 37l-323 977l-72 22q-37 11 -72 29l13 60 h538l-12 -60q-35 -16 -81 -28.5t-97 -22.5l217 -678l16 -131h4l70 135zM907 1497q-84 0 -141.5 23.5t-91 59.5t-47 76t-9.5 70q33 27 92.5 40.5t102.5 17.5l51 -27v-135q12 -10 31.5 -18.5t52.5 -8.5q45 0 92 12.5t87 34t70.5 52t43.5 69.5q20 0 40.5 -8t30.5 -22 q-12 -43 -47 -85t-87 -76t-120.5 -54.5t-150.5 -20.5z" />
<glyph unicode="&#x40f;" horiz-adv-x="1452" d="M1096 1434h518l-10 -60q-35 -16 -78 -29.5t-103 -21.5l-258 -1214q82 -16 158 -50l-12 -59h-582q-29 -92 -65.5 -189.5t-85.5 -201.5h-54q0 100 3 197.5t12 193.5h-580l12 59q41 20 87 30.5t92 19.5l256 1214q-39 4 -78 17.5t-78 33.5l12 60h518l-10 -60 q-25 -14 -65.5 -27.5t-102.5 -23.5l-256 -1217h623l258 1217q-37 10 -74 22.5t-68 28.5z" />
<glyph unicode="&#x410;" horiz-adv-x="1380" d="M360 0h-460l12 59q80 33 160 50l809 1349h53l231 -1349q37 -8 75 -19.5t69 -30.5l-11 -59h-520l10 59q92 35 181 50l-62 374h-481l-219 -374q88 -12 164 -50zM485 590h406l-66 434l-4 176h-4l-82 -180z" />
<glyph unicode="&#x411;" horiz-adv-x="1208" d="M406 1323q-45 8 -84 21.5t-74 29.5l14 60h981q-14 -82 -40.5 -183.5t-61.5 -187.5h-54l-47 264h-438l-102 -493q49 8 97 11t89 3q203 0 318.5 -75t115.5 -234q0 -117 -44 -216.5t-127 -172t-202.5 -114.5t-269.5 -42q-10 0 -39.5 1t-68.5 2l-80 2q-41 1 -72 1h-258l10 59 q88 37 181 50zM637 741q-47 0 -85 -3t-75 -7l-131 -620q8 -4 27.5 -5.5t41 -3.5t42.5 -2h32q96 0 173 31t130.5 87t81 133t27.5 167q0 47 -10 88t-39 71t-81 47t-134 17z" />
<glyph unicode="&#x412;" horiz-adv-x="1239" d="M-41 0l10 59q92 39 181 50l256 1214q-41 8 -80 21.5t-78 29.5l14 60h217q76 0 152 6t190 6q82 0 156 -14.5t129 -45t88 -81t33 -123.5q0 -72 -21.5 -136.5t-66.5 -119t-114 -95t-161 -65.5v-8q47 -4 96.5 -20.5t89.5 -48.5t64.5 -80t24.5 -113q0 -109 -41 -201 t-122 -160.5t-204 -107.5t-287 -39q-72 0 -158.5 6t-170.5 6h-197zM524 94h13q77 0 147 23q76 25 133 72t91 115.5t34 156.5q0 68 -23.5 110.5t-67.5 65t-105.5 31t-137.5 8.5h-155l-119 -565q27 -8 65 -14q28 -4 80 -3q20 -1 45 0zM578 782q35 0 83 3t82 8 q162 57 224.5 154t62.5 212q0 80 -57.5 130t-192.5 50q-66 0 -111.5 -3t-76.5 -7l-117 -547h103z" />
<glyph unicode="&#x413;" horiz-adv-x="1017" d="M346 109q100 -16 184 -50l-10 -59h-561l10 59q92 35 181 50l256 1214q-41 8 -80 21.5t-78 29.5l14 60h959q-8 -41 -20.5 -94.5t-28 -111t-32 -111.5l-30.5 -97h-53l-41 307h-414z" />
<glyph unicode="&#x414;" horiz-adv-x="1388" d="M1298 106q-10 -43 -24 -96l-31 -110q-16 -57 -35.5 -112.5t-38.5 -96.5h-53l-12 309h-1008l-162 -309h-49q2 39 6.5 94l9.5 112.5t12 111.5t15 97h170q72 84 146.5 218.5t143.5 296t127 340t95 352.5q-51 10 -103 25.5t-93 35.5l14 60h1085l-14 -60q-66 -29 -178 -51 l-256 -1217h233zM868 106l256 1221h-389q-66 -252 -133 -449.5t-131.5 -348t-125 -255t-114.5 -168.5h637z" />
<glyph unicode="&#x415;" horiz-adv-x="1171" d="M1231 1434q-16 -82 -39 -166t-53 -166h-54l-34 225h-449l-113 -543h332l113 152h51q-16 -102 -37.5 -205.5t-50.5 -208.5h-51l-47 156h-334l-119 -572h469l154 246h51q-4 -80 -16.5 -171t-34.5 -181h-1010l10 59q84 35 181 50l256 1214q-41 10 -80 22.5t-78 28.5l14 60 h969z" />
<glyph unicode="&#x416;" horiz-adv-x="1921" d="M1049 1323q-41 12 -74 24.5t-62 26.5l13 60h473l-13 -60q-27 -12 -62.5 -25.5t-80.5 -25.5l-121 -567l138 28l456 539q-37 10 -69.5 22.5t-67.5 28.5l12 60h465l-12 -60q-41 -16 -83 -28.5t-83 -22.5l-498 -555l74 -145l88 -171q47 -89 100.5 -179.5t112.5 -172.5l86 -49 l-10 -51h-244l-57 51q-47 70 -86 147.5t-75 158.5t-68.5 164t-69.5 165h-123l-123 -577q33 -10 63.5 -21.5t59.5 -28.5l-10 -59h-475l10 59q72 35 160 50l125 593l-142 -28l-105 -149l-120 -160l-132 -163q-69 -81 -145 -151l-79 -51h-269l11 51l106 49q92 82 178 171 l165 179l150 171l130 149l-263 553q-82 23 -133 51l13 60h436l-12 -60q-63 -31 -150 -51l234 -551h141z" />
<glyph unicode="&#x417;" horiz-adv-x="1146" d="M403 -25q-117 0 -219 24t-164 58q6 33 19.5 76t31.5 89l35 92q18 46 37 83h52l26 -282q12 -6 36 -12.5t53.5 -11.5t60 -7t57.5 -2q88 0 163 23.5t130 73.5t86 127t33 181q-2 104 -75 151.5t-194 47.5l-161 -22q0 29 4 59.5t18 58.5h66q35 0 86 3t86 8q57 20 106 55t84 81 t55.5 99t22.5 113q-2 117 -57.5 164t-190.5 47q-61 0 -103 -12.5t-67 -26.5l-160 -250h-53l4 76q2 37 6.5 73.5t12.5 75.5t20 86q82 47 184.5 65.5t190.5 18.5q82 0 156.5 -16.5t131 -52t89.5 -90t33 -130.5q0 -53 -14.5 -109t-52.5 -109.5t-103.5 -101.5t-167.5 -83v-8 q41 -6 84 -24.5t77.5 -52.5t56 -81t21.5 -108q0 -119 -44 -214.5t-125 -163t-199 -103.5t-265 -36z" />
<glyph unicode="&#x418;" horiz-adv-x="1492" d="M477 0h-518l10 59q90 37 181 50l256 1214l-80 22q-41 11 -78 29l14 60h518l-12 -60q-35 -16 -77 -28.5t-89 -22.5l-188 -889l-54 -153l125 165l783 828l10 49q-45 10 -84 22.5t-70 28.5l13 60h518l-13 -60q-41 -16 -86 -28.5t-92 -22.5l-258 -1214q43 -8 83 -20.5 t73 -29.5l-10 -59h-518l10 59q35 14 78 27.5t90 22.5l188 886l53 154l-114 -156l-797 -839l-8 -45q45 -8 84 -20.5t69 -29.5z" />
<glyph unicode="&#x419;" horiz-adv-x="1492" d="M477 0h-518l10 59q90 37 181 50l256 1214l-80 22q-41 11 -78 29l14 60h518l-12 -60q-35 -16 -77 -28.5t-89 -22.5l-188 -889l-54 -153l125 165l783 828l10 49q-45 10 -84 22.5t-70 28.5l13 60h518l-13 -60q-41 -16 -86 -28.5t-92 -22.5l-258 -1214q43 -8 83 -20.5 t73 -29.5l-10 -59h-518l10 59q35 14 78 27.5t90 22.5l188 886l53 154l-114 -156l-797 -839l-8 -45q45 -8 84 -20.5t69 -29.5zM965 1497q-84 0 -141.5 23.5t-91 59.5t-47 76t-9.5 70q33 27 92.5 40.5t102.5 17.5l51 -27v-135q12 -10 31.5 -18.5t52.5 -8.5q45 0 92 12.5t87 34 t70.5 52t43.5 69.5q20 0 40.5 -8t30.5 -22q-12 -43 -47 -85t-87 -76t-120.5 -54.5t-150.5 -20.5z" />
<glyph unicode="&#x41a;" horiz-adv-x="1304" d="M975 1434h465l-15 -60q-37 -18 -82 -30.5t-83 -20.5l-531 -553l85 -149l102 -170l113 -179l116 -172l88 -49l-10 -51h-248l-60 49q-92 141 -178 305t-162 332h-108l-121 -577q84 -16 141 -50l-10 -59h-518l10 59q92 37 181 50l256 1214q-45 8 -85 20.5t-73 30.5l14 60 h518l-12 -60q-70 -33 -166 -51l-119 -567l123 28l492 539q-41 10 -74 21.5t-63 29.5z" />
<glyph unicode="&#x41b;" horiz-adv-x="1323" d="M590 1313q-121 23 -195 61l13 60h1075l-13 -60q-37 -16 -82 -29.5t-96 -21.5l-256 -1214q43 -8 83 -20.5t73 -29.5l-12 -59h-521l13 59q41 16 83 27.5l85 22.5l256 1218h-381q-51 -215 -98.5 -379t-90.5 -288.5t-84 -216t-80.5 -159t-79.5 -116.5t-81 -90 q-53 -53 -119 -78t-119 -25q-12 16 -21.5 46t-15.5 64t-7 67.5t3 60.5l41 51l227 -43q41 51 89.5 135t99.5 214t104.5 312.5t106.5 430.5z" />
<glyph unicode="&#x41c;" horiz-adv-x="1755" d="M1612 0h-508l10 59q45 16 88 27.5t90 22.5l193 921l61 240h-16l-111 -219l-647 -1051h-53l-178 1051l-23 239h-18l-54 -260l-194 -921q37 -8 73.5 -20.5t71.5 -29.5l-12 -59h-426l10 59q82 35 178 52l256 1212q-41 8 -81.5 21.5t-75.5 29.5l12 60h426l145 -936l25 -211h2 l107 215l577 932h377l-14 -60q-80 -35 -166 -51l-258 -1217q41 -8 77.5 -19t65.5 -28z" />
<glyph unicode="&#x41d;" horiz-adv-x="1472" d="M477 0h-518l10 59q45 20 90 31.5t91 18.5l256 1214q-92 18 -158 51l14 60h518l-12 -60q-35 -18 -80 -30.5t-86 -20.5l-113 -535h644l114 535q-41 10 -76.5 21.5t-68.5 29.5l14 60h518l-12 -60q-41 -20 -87 -31.5t-91 -19.5l-258 -1214q92 -16 155 -50l-10 -59h-518l10 59 q39 16 81 28.5t85 21.5l121 573h-645l-119 -573q37 -8 74 -20.5t67 -29.5z" />
<glyph unicode="&#x41e;" horiz-adv-x="1495" d="M135 569q0 186 56.5 348t163 282t256 189.5t337.5 69.5q150 0 252.5 -49t164.5 -129t90 -183.5t28 -213.5q0 -164 -46 -327t-142.5 -292t-243 -209t-346.5 -80q-147 0 -255 48.5t-177.5 129t-103.5 188t-34 228.5zM354 567q0 -113 30 -203t82 -153.5t123 -96.5 q67 -32 145 -32h9h8q144 0 241 73q99 75 159.5 192.5t86.5 260t26 277.5q0 104 -23.5 190t-71 147.5t-116 95.5t-158.5 34q-141 0 -243.5 -74t-169 -188.5t-97.5 -254t-31 -268.5z" />
<glyph unicode="&#x41f;" horiz-adv-x="1452" d="M477 0h-518l10 59q35 16 78 28.5t103 21.5l256 1214q-41 8 -80 21.5t-78 29.5l14 60h1352l-12 -60q-41 -20 -87.5 -31.5t-91.5 -19.5l-258 -1214q80 -10 156 -50l-10 -59h-518l10 59q25 14 65.5 26.5t100.5 23.5l258 1218h-625l-256 -1218q78 -16 141 -50z" />
<glyph unicode="&#x420;" horiz-adv-x="1220" d="M346 109q53 -6 99.5 -19.5t84.5 -30.5l-10 -59h-561l10 59q47 20 91 30.5t90 19.5l256 1214q-45 8 -84 21.5t-74 29.5l14 60h184q82 0 179.5 8t185.5 8q98 0 181 -19.5t141.5 -61.5t91 -104.5t32.5 -148.5q0 -121 -44 -223t-126.5 -178t-199.5 -119t-260 -43h-34 q-24 0 -51.5 1t-55 3t-46.5 4zM758 1343q-49 0 -87 -3t-67 -7l-139 -663q10 -2 29.5 -4t41 -3t41 -2.5t31.5 -1.5q213 0 321.5 122t108.5 333q0 51 -11 93t-43 73t-86 47t-140 16z" />
<glyph unicode="&#x421;" horiz-adv-x="1300" d="M1141 373h51q0 -57 -11.5 -144.5t-33.5 -169.5q-41 -23 -88 -39t-98.5 -26t-100.5 -14.5t-92 -4.5q-174 0 -295 49.5t-195.5 129t-108.5 178t-34 196.5q0 209 59.5 380t169 293t266 189.5t353.5 67.5q135 0 229.5 -18.5t157.5 -50.5q-6 -33 -17.5 -77t-26.5 -93.5 t-32 -96.5l-30 -86h-54l-43 295q-27 10 -81 15.5t-105 5.5q-135 0 -250 -52.5t-198.5 -155t-131 -256t-47.5 -356.5q0 -127 44 -214t110.5 -140t144.5 -76q71 -21 136 -20h12h19q57 0 99 10q48 12 70 27z" />
<glyph unicode="&#x422;" horiz-adv-x="1249" d="M821 0h-575l10 59q49 18 97 29.5t106 20.5l258 1218h-314l-170 -293h-53q2 41 9.5 93.5l15.5 106.5t17 106.5t20 93.5h1188q-8 -41 -20.5 -92.5t-27 -105.5l-30 -106.5t-29.5 -95.5h-53l-43 293h-314l-258 -1218q49 -10 93.5 -20.5t82.5 -29.5z" />
<glyph unicode="&#x423;" horiz-adv-x="1331" d="M1247 1323q-94 18 -164 51l13 60h456l-12 -60q-29 -14 -67.5 -27.5t-90.5 -23.5l-606 -971q-127 -195 -234.5 -290t-224.5 -72q-10 18 -17 47t-13 59.5t-8.5 61t2.5 55.5l59 49l215 -55q10 8 24.5 24.5t28.5 36.5l28 41q13 20 21 37l-323 977l-72 22q-37 11 -72 29l13 60 h538l-12 -60q-35 -16 -81 -28.5t-97 -22.5l217 -678l16 -131h4l70 135z" />
<glyph unicode="&#x424;" horiz-adv-x="1589" d="M778 1434h461l-12 -60q-25 -14 -59.5 -26.5t-86.5 -22.5l-22 -104q43 10 89 12t79 2q98 0 169.5 -28.5t118 -79t69 -119t22.5 -146.5q0 -133 -43 -249.5t-123 -203.5t-192.5 -137.5t-250.5 -50.5q-23 0 -67.5 3t-79.5 9l-25 -124q78 -20 123 -50l-12 -59h-461l10 59 q70 31 156 47l27 123q-41 -4 -74 -6t-64 -2q-76 0 -149.5 22.5t-130.5 68.5t-92 118t-35 168q0 129 44 244.5t124 203t193.5 138.5t252.5 51q27 0 71 -2t73 -6l20 98q-45 10 -79 21.5t-56 27.5zM1153 1139q-31 0 -58.5 -2t-56.5 -11l-170 -802q18 -4 56.5 -5.5t54.5 -1.5 q104 0 185 42t135.5 115t83 170t26.5 210q2 145 -67.5 214t-188.5 71zM594 317q25 0 52.5 3.5t43.5 7.5l172 805q-23 4 -56.5 5t-57.5 1q-98 0 -178.5 -39t-136.5 -109.5t-86 -167t-28 -213.5q-2 -70 22 -124t61.5 -92t88 -57.5t103.5 -19.5z" />
<glyph unicode="&#x425;" horiz-adv-x="1353" d="M1022 1434h471l-14 -60q-37 -16 -79 -28.5t-85 -22.5l-488 -555l281 -659q94 -16 154 -50l-11 -59h-544l10 59q78 37 166 50l-207 514l-430 -517q41 -6 81 -15t74 -32l-12 -59h-471l12 59q41 20 82 30.5t82 19.5l537 612l-254 602q-41 10 -78 21.5t-74 29.5l13 60h544 l-12 -60q-63 -29 -168 -51l182 -463l383 463l-77 20q-39 10 -80 31z" />
<glyph unicode="&#x426;" horiz-adv-x="1480" d="M-41 0l10 59q63 27 181 52l256 1212q-76 12 -158 51l14 60h518l-14 -60q-61 -29 -164 -51l-256 -1217h610l261 1217q-37 8 -73 20.5t-71 30.5l12 60h519l-13 -60q-43 -16 -88 -29.5t-90 -21.5l-260 -1217h236q-10 -43 -24.5 -97t-33.5 -110l-38 -111l-36 -97h-51l-12 309 h-1235z" />
<glyph unicode="&#x427;" horiz-adv-x="1284" d="M1143 0h-520l10 59q53 23 103 34t98 16l112 526q-63 -31 -162.5 -61.5t-222.5 -30.5q-86 0 -151.5 24.5t-104.5 77.5t-48 135t15 199l74 344q-35 8 -71.5 20.5t-65.5 30.5l12 60h479l-14 -60q-29 -14 -63.5 -27.5t-79.5 -23.5l-72 -336q-16 -80 -17 -142.5t18.5 -105.5 t63.5 -66.5t115 -23.5q86 0 166 24.5t150 59.5l125 590q-74 18 -136 51l13 60h477l-12 -60q-31 -16 -68 -28.5t-78 -22.5l-258 -1214q37 -8 68.5 -20.5t54.5 -29.5z" />
<glyph unicode="&#x428;" horiz-adv-x="1886" d="M926 1434h463l-15 -60q-31 -16 -69.5 -29.5t-73.5 -21.5l-258 -1217h452l261 1217q-35 10 -68 22.5t-59 28.5l12 60h477l-12 -60q-35 -16 -73 -29.5t-81 -21.5l-258 -1214q37 -8 71 -20.5t60 -29.5l-10 -59h-1786l10 59q82 37 160 50l256 1214q-37 10 -74 22.5t-63 28.5 l14 60h475l-12 -60q-29 -16 -64.5 -28.5t-78.5 -22.5l-258 -1217h452l258 1217q-35 10 -67.5 22.5t-53.5 28.5z" />
<glyph unicode="&#x429;" horiz-adv-x="1925" d="M-41 0l10 59q37 16 75 28.5t85 21.5l256 1214q-37 8 -74 20.5t-63 30.5l14 60h475l-12 -60q-29 -16 -64.5 -28.5t-78.5 -22.5l-258 -1217h452l258 1217q-33 10 -64.5 22.5t-56.5 28.5l13 60h463l-15 -60q-27 -16 -62.5 -28.5t-80.5 -22.5l-258 -1217h452l261 1217 q-35 10 -69 22.5t-58 28.5l12 60h479l-14 -60q-66 -37 -154 -51l-260 -1219h236q-10 -41 -25.5 -95t-34.5 -110l-37 -112q-18 -55 -35 -96h-51l-12 309h-1704z" />
<glyph unicode="&#x42a;" horiz-adv-x="1445" d="M1065 1434l-12 -60q-41 -16 -88 -29.5t-105 -21.5l-98 -469q39 8 93 11t95 3q96 0 178 -19.5t140.5 -59t91.5 -100t33 -142.5q0 -133 -45 -235.5t-130 -173t-208 -107.5t-277 -37q-10 0 -39.5 1t-66.5 2t-78 2t-72 1h-262l12 59q84 35 181 50l256 1218h-263l-168 -293 h-53q2 43 9.5 95.5t16.5 106.5l18 105q9 51 18 93h823zM887 762q-51 0 -85 -3t-63 -9l-135 -639q8 -4 27.5 -5.5t41 -3.5t41.5 -2h31q94 0 172 26t135.5 81t89.5 140t32 202q0 43 -13.5 82t-47.5 68.5t-89 46t-137 16.5z" />
<glyph unicode="&#x42b;" horiz-adv-x="1708" d="M1567 0h-518l10 59q43 20 85 30.5t87 19.5l256 1214l-73 20q-36 10 -77 31l13 60h520l-12 -60q-74 -35 -175 -51l-256 -1214q47 -8 84 -20.5t66 -29.5zM-41 0l10 59q88 37 181 50l256 1214q-41 8 -80 21.5t-78 29.5l14 60h545l-14 -60q-41 -16 -89.5 -30.5t-101.5 -20.5 l-98 -469q39 8 93 11t95 3q205 0 312.5 -88t107.5 -235q0 -141 -48 -244.5t-133 -172.5t-202 -101.5t-254 -32.5q-10 0 -38.5 1t-66.5 2l-78 2q-40 1 -71 1h-262zM629 762q-49 0 -84 -3t-64 -9l-135 -639q8 -4 27.5 -5.5t41 -3.5t41.5 -2h31q188 0 298 113t108 336 q2 43 -10.5 82t-42 67.5t-80.5 46t-131 17.5z" />
<glyph unicode="&#x42c;" horiz-adv-x="1187" d="M-41 0l10 59q88 37 181 50l256 1214q-41 8 -80 21.5t-78 29.5l14 60h545l-12 -60q-41 -16 -90.5 -30.5t-102.5 -20.5l-98 -469q39 8 93 11t95 3q205 0 324 -84t119 -239q0 -147 -52.5 -252t-141.5 -171.5t-209 -97t-257 -30.5q-10 0 -38.5 1t-66.5 2l-78 2q-40 1 -71 1 h-262zM629 762q-49 0 -84 -3t-64 -9l-135 -639q8 -4 27.5 -5.5t41 -3.5t42.5 -2h30q94 0 173 26t136.5 81t89.5 140t29 202q2 43 -12 82t-47 68.5t-89 46t-138 16.5z" />
<glyph unicode="&#x42d;" horiz-adv-x="1273" d="M428 643q-2 41 5 81t28 79l590 -2q8 123 -18.5 225t-82 174t-136.5 112t-179 40q-51 0 -108.5 -11.5t-84.5 -27.5l-159 -250h-54l5 63q3 37 8.5 78t13.5 85t18 85q39 23 89.5 39.5t103.5 26.5t105.5 14t95.5 4q287 0 439.5 -153.5t152.5 -430.5q0 -190 -59.5 -355 t-171 -285.5t-271.5 -189.5t-363 -69q-135 0 -214 19.5t-140 54.5q14 88 44 183.5t60 166.5h52l45 -295q29 -10 72.5 -16t97.5 -6q113 0 216 38t186 116.5t141.5 195.5t80.5 273z" />
<glyph unicode="&#x42e;" horiz-adv-x="1968" d="M479 0h-520l10 59q43 16 87 28.5t94 21.5l256 1214q-76 12 -158 51l14 60h520l-14 -60l-64.5 -25.5t-101.5 -25.5l-113 -535h236q29 141 90.5 264.5t152.5 213.5t210.5 141t265.5 51q150 0 248 -48t156.5 -124t82 -169t23.5 -185q0 -170 -50.5 -340t-148.5 -307.5 t-244.5 -223.5t-339.5 -86q-156 0 -255 64.5t-152 166t-65.5 227.5t6.5 249h-240l-119 -573q47 -10 82 -22.5t61 -27.5zM899 530q0 -80 12.5 -159.5t46 -144t94 -105.5t154.5 -39q96 -2 173 39t135.5 110.5t100.5 160.5t68.5 190.5t39 201t12.5 193.5q2 57 -9.5 122.5 t-47.5 122t-99 93.5t-166 37q-90 0 -162.5 -38t-130 -102.5t-99.5 -148.5t-68.5 -175t-40 -184.5t-13.5 -173.5z" />
<glyph unicode="&#x42f;" horiz-adv-x="1284" d="M1421 1434l-12 -60q-35 -16 -77 -28.5t-101 -22.5l-256 -1214q98 -16 153 -50l-10 -59h-543l11 59q86 37 192 50l103 493h-189q-61 -74 -113 -145l-104 -142q-51 -70 -106.5 -135t-122.5 -129l-80 -51h-270l10 51l108 49q80 70 146 139l123 133l110 126l107 120 q-29 10 -68 35t-73.5 65t-59.5 95t-25 127q0 242 169 369t493 131q41 0 100.5 -3t122.5 -3h262zM709 690q18 0 46 1l56 2q29 1 53.5 4t38.5 8l131 618q-18 4 -56 7t-67 3q-117 0 -197.5 -34.5t-129.5 -92t-70.5 -128t-19.5 -144.5q-2 -61 20.5 -106.5t56 -75t70.5 -46 t68 -16.5z" />
<glyph unicode="&#x430;" horiz-adv-x="1095" d="M387 102q55 0 110.5 52.5t104.5 126t88 153.5t62 133l65 351q-29 20 -55.5 28t-73.5 8q-94 0 -171 -58t-131 -150.5t-84 -205t-30 -221.5q0 -104 26 -160.5t89 -56.5zM711 401q-27 -74 -67 -149.5t-92 -137t-115.5 -100.5t-135.5 -39q-213 0 -213 310q0 143 41 279 t119 242.5t189.5 171t252.5 64.5q51 0 82 -9t74 -27q82 43 172 43l-184 -936h149v-52q-41 -33 -98.5 -53t-112.5 -20q-59 0 -84.5 25.5t-25.5 54.5q0 37 14 120.5t43 212.5h-8z" />
<glyph unicode="&#x431;" horiz-adv-x="1052" d="M84 387q0 143 23.5 288.5t72.5 274.5t125 232.5t180 163.5q102 59 218 79.5t237 28.5l131 107h51q-4 -59 -30.5 -123t-61.5 -107q-23 -31 -63.5 -43t-96.5 -16q-164 -14 -274.5 -47t-184 -100.5t-120.5 -180.5t-80 -287h10q45 92 103.5 164t123 122t131 77t132.5 27 q63 0 113 -26t84 -72t52.5 -107.5t18.5 -134.5q0 -133 -42 -263.5t-118 -235t-178 -169t-225 -64.5q-74 0 -134.5 26t-104.5 77t-68.5 128t-24.5 181zM317 680q-29 -61 -39 -143t-10 -195q0 -147 49.5 -213t120.5 -66q70 0 132.5 52.5t109.5 136.5t74.5 192.5t27.5 221.5 q0 135 -40 194.5t-126 59.5q-55 0 -104 -28t-89 -67t-67 -78.5t-39 -66.5z" />
<glyph unicode="&#x432;" horiz-adv-x="997" d="M903 852q0 -98 -73.5 -167t-208.5 -118q70 -4 115.5 -23.5t74.5 -49t41 -63.5t12 -66q0 -68 -32.5 -136.5t-91 -125t-140.5 -92.5t-180 -36q-88 0 -151.5 27t-105.5 73t-61.5 107.5t-19.5 132.5q0 106 22.5 204.5t60.5 181.5t90 148.5t112 108.5q121 90 295 91 q98 0 169.5 -50.5t71.5 -146.5zM680 330q-2 84 -46 124t-145 58q-45 -10 -98 -16.5t-108 -10.5q-6 -29 -11.5 -66.5t-5.5 -80.5q0 -117 49.5 -196t155.5 -79q31 0 67.5 18.5t67.5 53.5t51.5 84.5t22.5 110.5zM625 961q-47 -2 -94.5 -22.5t-90.5 -68t-80.5 -123t-68.5 -184.5 q96 0 175 22.5t135 61.5t87 90t31 107q0 41 -20.5 78t-73.5 39z" />
<glyph unicode="&#x433;" horiz-adv-x="798" d="M33 193q0 70 39 127t97 107t125.5 94t126 87t97.5 88t39 95q0 53 -21.5 92t-93.5 39t-136 -38t-103 -77l-31 35q16 31 49 66.5t79 67.5t100.5 52.5t113.5 20.5q119 0 177.5 -58.5t58.5 -134.5t-39 -135t-97.5 -109.5t-126 -94.5t-126 -88t-97.5 -92t-39 -104 q0 -53 35 -92t121 -39q76 0 142.5 34t117.5 75l29 -31q-27 -37 -67 -73.5t-92 -66.5t-113.5 -47.5t-129.5 -17.5q-47 0 -90 16.5t-75.5 45.5t-51 69t-18.5 87z" />
<glyph unicode="&#x434;" horiz-adv-x="1015" d="M59 344q0 125 42 249t121 222t190.5 159.5t251.5 61.5q37 0 73.5 -8t59.5 -24q0 63 -11.5 139t-39 141.5t-76.5 109.5t-123 44q-76 0 -124 -14.5t-95 -39.5l-27 39q23 25 59.5 46.5t80.5 39t92.5 26.5t95.5 9q80 0 144.5 -34.5t110.5 -106.5t71.5 -182.5t25.5 -264.5 q0 -209 -50 -388t-134 -311t-198 -207t-239 -75q-147 0 -224 97.5t-77 271.5zM643 948q-113 -2 -188.5 -63.5t-122.5 -153.5t-67.5 -198.5t-20.5 -198.5q0 -47 6 -94t24.5 -87t51 -65t86.5 -25q68 0 136 65t123.5 178.5t90.5 267t35 331.5q-45 25 -80 33t-74 10z" />
<glyph unicode="&#x435;" horiz-adv-x="929" d="M803 182q-18 -39 -53 -75.5t-82 -66.5t-106.5 -47.5t-127.5 -17.5q-170 0 -261 97.5t-91 269.5q0 145 41 274t114.5 225.5t179 152t234.5 55.5q98 0 169 -50.5t71 -148.5q0 -145 -144.5 -229t-465.5 -109q-8 -35 -11.5 -67.5t-3.5 -63.5q0 -123 62.5 -201t183.5 -78 q39 0 77 12.5t71.5 31t61.5 38.5l48 37zM588 961q-88 -2 -164 -83t-129 -278q199 6 309.5 68.5t110.5 173.5q0 43 -25.5 80t-101.5 39z" />
<glyph unicode="&#x436;" horiz-adv-x="1609" d="M119 881q53 74 116.5 114.5t147.5 40.5q43 0 77 -21.5t58.5 -58t36.5 -85t12 -99.5q0 -111 -18 -211h188l94 463h166l-96 -463h189q27 104 71.5 191.5t101 151t125 98t142.5 34.5q55 0 77.5 -7t49.5 -19q2 -23 -3 -50.5t-19.5 -55t-36 -53.5t-52.5 -42l-88 119 q-37 -10 -78 -53.5t-75.5 -118t-57 -180t-20.5 -240.5q-2 -117 33.5 -169t99.5 -52q35 0 62.5 14t56.5 43l22 -29q-41 -63 -108.5 -109t-141.5 -46q-53 0 -91 21.5t-62.5 58t-35.5 85t-11 101.5q0 57 4 111.5t12 107.5h-184l-97 -473h-163l96 473h-189 q-29 -106 -73.5 -195.5t-103 -154t-127 -100t-142.5 -35.5q-57 0 -80.5 8t-48.5 18q-4 27 2 57.5t20.5 58.5t37 51.5t51.5 35.5l88 -121q45 12 89 56.5t76.5 119t53 179t18.5 237.5q2 117 -24.5 169t-87.5 52q-76 0 -138 -57z" />
<glyph unicode="&#x437;" horiz-adv-x="899" d="M-25 74q2 27 12.5 54.5t27 54t37 49t44.5 36.5l140 -194q16 -4 42.5 -7.5t43.5 -3.5q47 0 96 18.5t89 52.5t65.5 84t27.5 112q-2 82 -45 118.5t-145 53.5l-144 -37q-10 27 -9 55.5t9 54.5h146q111 35 166 106t53 136q2 61 -37 102.5t-127 41.5q-16 0 -45 -3.5t-49 -7.5 q-29 -33 -65 -86l-66 -94q-18 8 -36 28.5t-30 47t-16 57.5t4 60q18 12 49 26.5t77 27.5t105.5 22.5t136.5 9.5q57 0 108.5 -12.5t90.5 -37t61.5 -61.5t22.5 -86q0 -195 -274 -295q63 0 109 -18.5t76 -47t44 -66.5t14 -75q0 -74 -32.5 -142.5t-93 -119.5t-147.5 -82t-196 -31 q-115 0 -203 26t-137 73z" />
<glyph unicode="&#x438;" horiz-adv-x="1110" d="M999 113v-52q-41 -33 -99 -53t-114 -20q-59 0 -84.5 24.5t-25.5 53.5q0 37 10 123.5t45 211.5h-8q-27 -57 -67 -130.5t-95 -139t-125.5 -111t-156.5 -45.5q-72 0 -121 50.5t-49 142.5q0 45 14 133t35 193l44 214l42 197l-125 19v51l70.5 24.5t75.5 22.5t73 17.5t63 9.5 l45 -25q-33 -154 -66.5 -292t-62.5 -292q-10 -49 -21 -109.5t-11 -131.5q0 -43 23.5 -70t53.5 -27q45 0 90.5 27t85.5 70t75.5 95t64.5 103.5t48 95.5l30 70l90 461h170l-168 -911h151z" />
<glyph unicode="&#x439;" horiz-adv-x="1110" d="M999 113v-52q-41 -33 -99 -53t-114 -20q-59 0 -84.5 24.5t-25.5 53.5q0 37 10 123.5t45 211.5h-8q-27 -57 -67 -130.5t-95 -139t-125.5 -111t-156.5 -45.5q-72 0 -121 50.5t-49 142.5q0 45 14 133t35 193l44 214l42 197l-125 19v51l70.5 24.5t75.5 22.5t73 17.5t63 9.5 l45 -25q-33 -154 -66.5 -292t-62.5 -292q-10 -49 -21 -109.5t-11 -131.5q0 -43 23.5 -70t53.5 -27q45 0 90.5 27t85.5 70t75.5 95t64.5 103.5t48 95.5l30 70l90 461h170l-168 -911h151zM698 1147q-92 0 -147 27.5t-84 66.5t-36 82t-3 76q33 25 72 39t82 18l51 -26v-158 q12 -10 31.5 -18.5t52.5 -8.5q90 0 157.5 56.5t94.5 134.5q18 0 39.5 -9.5t31.5 -23.5q-12 -43 -39.5 -88t-70.5 -82t-100.5 -61.5t-131.5 -24.5z" />
<glyph unicode="&#x43a;" horiz-adv-x="1046" d="M635 96q-66 111 -113 208l-88 183l-74 21l-96 -508h-176l178 905l-143 19v51q59 27 144 48t157 26l43 -23l-92 -465h59q43 27 92 66t94.5 80t82 78.5t55.5 64.5q2 14 3 38.5t0 50.5l-2 49q-1 24 -3 36q76 27 147 27q72 0 121 -27q-29 -63 -87 -130t-125 -127t-130 -110 l-100 -75q14 -39 48 -102l73 -130l81 -131l70 -106h129v-52q-41 -33 -89 -53t-101 -20q-49 0 -85 24.5t-73 83.5z" />
<glyph unicode="&#x43b;" horiz-adv-x="1052" d="M776 936h-239q-25 -111 -59 -232.5t-76 -238.5t-92 -218.5t-109 -170.5q-49 -59 -104.5 -81t-121.5 -20q-16 20 -26 54t-8 73q0 33 8 64t28 57l168 -69q39 49 81 135t80 189.5t71 214t53 208.5q-43 10 -90 29.5t-70 40.5v53h686l-180 -909h152v-54q-41 -33 -98.5 -53 t-116.5 -20t-85 24.5t-26 53.5q0 39 8 85t19 93z" />
<glyph unicode="&#x43c;" horiz-adv-x="1447" d="M475 889l-48 -205q-26 -113 -60.5 -225.5t-79.5 -214t-105 -170.5q-49 -59 -98 -79t-113 -20q-14 23 -23 57t-7 72q0 57 28 103l160 -53q39 49 76 134t70.5 188.5t61.5 215t50 211.5q-41 16 -76 32.5t-51 37.5v51h350l78 -614l6 -142h6l82 148l385 608h185l-183 -909h152 v-54q-41 -33 -98.5 -53t-114.5 -20q-59 0 -86 24.5t-27 53.5q0 39 11 86l20 94l100 456q4 18 12 43l15 52q8 27 17 51l16 41h-6l-555 -889h-56l-41 399l-34 328l-11 162h-8z" />
<glyph unicode="&#x43d;" horiz-adv-x="1130" d="M1034 1024l-180 -909h150v-54q-41 -33 -99.5 -53t-113.5 -20q-59 0 -86 24.5t-27 53.5q0 37 11 84l22 94l45 231h-398l-98 -475h-172l180 905l-125 19l-2 51q29 14 67 27.5t78 23.5t77.5 16.5t66.5 6.5l41 -25l-96 -461h397l90 461h172z" />
<glyph unicode="&#x43e;" horiz-adv-x="1042" d="M84 381q0 109 34 226.5t103.5 216t174 162t243.5 63.5q160 0 241 -98.5t81 -291.5q0 -135 -39 -259t-109 -218t-168 -150.5t-217 -56.5q-158 0 -251 101.5t-93 304.5zM598 961q-100 -2 -163.5 -66t-100.5 -158t-51.5 -202.5t-14.5 -198.5q0 -121 53.5 -197t143.5 -76 q72 0 128 54.5t96 143.5t61.5 201.5t21.5 227.5q0 121 -42 195t-132 76z" />
<glyph unicode="&#x43f;" horiz-adv-x="1130" d="M791 584l25 117q11 54 11 108q0 47 -21.5 80t-68.5 33q-55 0 -112.5 -45.5t-106.5 -108.5t-89 -132t-60 -114l-109 -522h-172l180 905l-125 19l4 51q29 14 65 27.5t74 23.5t73.5 16.5t66.5 6.5l41 -25l-78 -362h10q39 82 89.5 152.5t106.5 122.5t117.5 82t125.5 30 q86 0 126 -54.5t40 -136.5q0 -45 -10.5 -112.5t-24.5 -127.5l-117 -503h152v-54q-41 -33 -99.5 -53t-113.5 -20q-59 0 -82 24.5t-23 53.5q0 39 10 85l21 93z" />
<glyph unicode="&#x440;" horiz-adv-x="1110" d="M199 -299q72 -12 143 -51v-60h-322l-18 19l88 407l191 889l-125 19v51q68 29 142.5 51.5t139.5 22.5l41 -25l-84 -360h8q37 82 81 151.5t95.5 121.5t111 82t126.5 30q45 0 86 -17.5t72 -53.5t48 -89t17 -123q0 -158 -47 -301t-128 -252t-189.5 -173.5t-233.5 -64.5 q-35 0 -59.5 2.5t-42.5 7.5t-36 13l-38 18zM721 922q-59 0 -112.5 -46.5t-99.5 -112t-83 -138t-59 -127.5l-80 -387q29 -25 60.5 -36.5t101.5 -11.5q82 0 154.5 60.5t126.5 155t86 210t32 228.5q0 98 -34 151.5t-93 53.5z" />
<glyph unicode="&#x441;" horiz-adv-x="876" d="M782 182q-23 -39 -57.5 -75.5t-81.5 -66.5t-105.5 -47.5t-127.5 -17.5q-152 0 -240 96.5t-88 262.5q0 147 47 277t128 227.5t190.5 154t234.5 56.5q78 0 127 -12.5t74 -35.5q1 -6 0 -13q0 -17 -3 -37q-5 -28 -16.5 -54.5t-29 -49t-35.5 -30.5l-140 144q-70 -2 -138 -43 t-122.5 -117t-88.5 -184q-32 -101 -32 -227q0 -8 1 -15q-2 -141 56 -207t159 -66q43 0 80.5 12.5t70.5 31t60 38.5l47 37z" />
<glyph unicode="&#x442;" horiz-adv-x="1638" d="M1296 614q12 49 23.5 102.5t13.5 88.5q-2 53 -17.5 85t-62.5 32q-49 0 -100 -39t-97 -98.5t-84 -129t-63 -131.5l-125 -524h-163l129 575q14 63 24 122t10 122q0 47 -16 75t-57 28t-90.5 -39t-96.5 -98.5t-87 -129t-64 -133.5l-109 -522h-176l191 905l-125 19v51 q68 35 146.5 54.5t135.5 19.5l43 -25l-90 -362h8q25 57 69 124.5t101.5 126t123 97.5t130.5 39q25 0 49.5 -8.5t43 -30t30.5 -58.5t12 -94q0 -45 -9 -96t-21 -100q31 70 78 138t102 123.5t117.5 90.5t128.5 35q78 0 117.5 -49.5t39.5 -135.5q0 -66 -12 -124l-27 -126 l-133 -499h152v-54q-41 -33 -100.5 -53t-112.5 -20q-59 0 -82 26.5t-23 63.5q0 59 29 164z" />
<glyph unicode="&#x443;" horiz-adv-x="931" d="M180 905l-131 17v51q10 8 33.5 20.5t54.5 24.5t63.5 21.5t61.5 9.5q43 0 62.5 -21.5t29.5 -56.5l170 -717l6 -123h5l47 121q27 57 54 126l54 138q27 70 49.5 137.5t38.5 124.5q0 23 -5 59.5t-11 73.5t-12.5 69t-10.5 44q29 12 62 18.5t63 6.5q61 0 109 -25 q-63 -254 -173 -508t-243 -516q-111 -215 -221.5 -321.5t-249.5 -106.5q-31 0 -58.5 8t-58.5 25q-1 6 0 11q0 18 4 40q6 29 19.5 57.5t35 53t48.5 38.5l166 -86q14 10 36.5 30t47 53.5t49 81.5t47.5 116z" />
<glyph unicode="&#x444;" horiz-adv-x="1437" d="M637 -299q68 -12 143 -51v-60h-309l-18 17l112 514q-51 -66 -111.5 -109t-156.5 -43q-90 0 -152.5 65.5t-62.5 223.5q0 178 42 322.5t111.5 248t160.5 158.5t188 55q47 0 82.5 -12t62.5 -35l70 402l-144 18v51q59 27 140.5 45.5t150.5 28.5l41 -22l-113 -598 q35 47 102.5 88t164.5 41q45 0 84 -15.5t67.5 -50.5t45 -89t16.5 -134q0 -178 -42 -322.5t-112 -248t-161 -159t-187 -55.5q-59 0 -94 25t-51 53zM1063 946q-72 0 -123 -39t-86 -82l-131 -714q16 -23 47 -35.5t80 -12.5q70 0 130 60.5t104 159t69 221.5t25 250q0 98 -31 145 t-84 47zM375 72q25 0 54.5 12t57 31.5t52 44t41.5 51.5l133 713q-25 16 -51.5 23t-73.5 7q-72 0 -131.5 -60t-104.5 -157.5t-69.5 -221.5t-24.5 -251q0 -98 32 -145t85 -47z" />
<glyph unicode="&#x445;" horiz-adv-x="929" d="M412 436q-23 -25 -52.5 -53.5l-58.5 -59t-53.5 -61.5t-38.5 -57q-4 -14 -5 -41l-2 -56.5t-1 -55t2 -38.5q-35 -14 -71 -20t-69 -6q-68 0 -112 26q18 61 75.5 137t127 148t135.5 130l98 87l-139 377l-131 16v52q12 8 35.5 21t53.5 25.5t60.5 20.5t59.5 8q45 0 65.5 -23.5 t32.5 -54.5l100 -356l104 107q56 59 85 112q2 14 2 41t-2 56.5t-4 55t-4 38.5q35 12 68.5 19t68.5 7q66 0 114 -26q-12 -41 -40.5 -88t-67.5 -94.5t-83 -93.5l-85 -86q-41 -40 -77 -71l-56 -51l147 -399l133 -16v-52q-12 -8 -35.5 -20t-51 -24.5t-59.5 -20.5t-58 -8 q-43 0 -65.5 22.5t-33.5 55.5z" />
<glyph unicode="&#x446;" horiz-adv-x="1112" d="M766 -12q-45 0 -67.5 24.5t-22.5 53.5q0 37 10 123.5t45 211.5h-8q-27 -57 -67 -130.5t-95 -139t-125.5 -111t-156.5 -45.5q-72 0 -121 50.5t-49 142.5q0 45 14 133t35 193l44 214l42 197l-125 19v51l70.5 24.5t75.5 22.5t73 17.5t63 9.5l45 -25q-33 -154 -66.5 -292 t-62.5 -292q-10 -49 -21 -109.5t-11 -131.5q0 -43 23.5 -70t53.5 -27q45 0 90.5 27t85.5 70t75.5 95t64.5 103.5t48 95.5l30 70l90 461h170l-168 -911h151v-64q-25 -23 -38 -51.5t-19 -62t-7 -69.5t-3 -71q-2 -55 -23.5 -91t-55.5 -59.5t-77 -35.5t-86 -21l-14 41 q37 10 58.5 31t32.5 44.5t13 49t2 45.5q-2 72 38 126.5t100 107.5l-7 6q-25 -18 -67.5 -34.5t-79.5 -16.5z" />
<glyph unicode="&#x447;" horiz-adv-x="1009" d="M879 115v-54q-41 -33 -98.5 -53t-114.5 -20q-59 0 -85 26.5t-26 61.5q0 25 3 47t9 51l82 346h-8q-33 -43 -75 -81t-89 -66.5t-98 -46t-103 -17.5q-70 0 -118.5 44t-48.5 132q0 37 5 75t14 86t24 111l32 148l-125 19v51q33 12 71 24.5t76 22.5t72.5 17.5t63.5 9.5l45 -25 q-41 -174 -71.5 -292t-30.5 -197q0 -43 24.5 -71t71.5 -28q33 0 72 13.5t77.5 36t72.5 53t59 65.5l90 420h170l-193 -909h150z" />
<glyph unicode="&#x448;" horiz-adv-x="1597" d="M645 164q0 84 45 237h-8l-60 -131q-34 -74 -81 -139t-111.5 -110.5t-150.5 -45.5q-72 0 -121 50.5t-49 142.5q0 45 14 133t35 193l44 214l42 197l-125 19v51l70.5 24.5t75.5 22.5t73 17.5t63 9.5l45 -25q-33 -154 -66.5 -292t-62.5 -292q-10 -49 -21 -109.5t-11 -131.5 q0 -43 23.5 -70t53.5 -27q45 0 86 27t77 70t66 95t53.5 103.5t39.5 95.5l27 70l94 461h170l-65.5 -292t-61.5 -292l-23 -109q-12 -60 -12 -132q0 -43 22.5 -70t55.5 -27q45 0 86 27t77 70t66.5 95t54 103.5t40.5 95.5l28 70l90 461h168l-166 -911h150v-52q-41 -33 -98.5 -53 t-112.5 -20q-59 0 -85 24.5t-26 53.5q0 37 10.5 123.5t45.5 211.5h-9l-61 -131q-35 -74 -84 -139t-112.5 -110.5t-147.5 -45.5q-78 0 -119 50.5t-41 138.5z" />
<glyph unicode="&#x449;" horiz-adv-x="1599" d="M1489 113v-64q-25 -23 -38 -51.5t-19.5 -62t-8.5 -69.5l-4 -71q-2 -55 -23.5 -91t-55 -59.5t-75.5 -35.5t-85 -21l-15 41q37 10 58.5 31t32 44.5t12.5 49t2 45.5q0 72 40 126.5t99 107.5l-6 6q-27 -18 -70 -34.5t-80 -16.5q-45 0 -67.5 24.5t-22.5 53.5q0 37 10.5 123.5 t45.5 211.5h-9l-61 -131q-35 -74 -84 -139t-112.5 -110.5t-147.5 -45.5q-78 0 -119 50.5t-41 138.5q0 84 45 237h-8l-60 -131q-34 -74 -81 -139t-111.5 -110.5t-150.5 -45.5q-72 0 -121 50.5t-49 142.5q0 45 14 133t35 193l44 214l42 197l-125 19v51l70.5 24.5t75.5 22.5 t73 17.5t63 9.5l45 -25q-33 -154 -66.5 -292t-62.5 -292q-10 -49 -21 -109.5t-11 -131.5q0 -43 23.5 -70t53.5 -27q45 0 86 27t77 70t66 95t53.5 103.5t39.5 95.5l27 70l94 461h170l-65.5 -292t-61.5 -292l-23 -109q-12 -60 -12 -132q0 -43 22.5 -70t55.5 -27q45 0 86 27 t77 70t66.5 95t54 103.5t40.5 95.5l28 70l90 461h168l-166 -911h154z" />
<glyph unicode="&#x44a;" horiz-adv-x="931" d="M369 506q76 68 151.5 105.5t173.5 37.5q31 0 65 -11t61.5 -34.5t46 -61.5t18.5 -93q0 -92 -42 -177.5t-111.5 -152t-157 -105.5t-179.5 -39q-47 0 -95 14.5t-86 47.5t-61.5 87t-23.5 132q0 80 30.5 166t84 170t124 160.5t150.5 140.5q-66 -14 -146.5 -11t-170.5 17 l-95 -147l-51 12l31 207q12 80 111 80q37 0 74 -7l88 -14q50 -8 116 -16t156 -15l44 25l42 25q23 -4 42 -33t13 -64q-133 -57 -236.5 -176t-175.5 -270h9zM336 420q-18 -55 -24.5 -94t-6.5 -80q0 -76 34 -129.5t97 -53.5q57 0 106.5 29t86.5 76t57.5 105.5t22.5 119.5 q-2 37 -14.5 61.5t-31 40t-40 21.5t-39.5 6q-37 0 -74 -7t-70.5 -20.5t-60.5 -32.5t-43 -42z" />
<glyph unicode="&#x44b;" horiz-adv-x="1376" d="M322 420q-18 -55 -27.5 -103.5t-9.5 -101.5q0 -72 24.5 -112t85.5 -40q57 0 103.5 33t79 83t50 112.5t19.5 124.5q-2 37 -14 60.5t-30.5 38.5t-40 21.5t-40.5 6.5q-72 0 -119.5 -38t-80.5 -85zM340 506q55 68 125 116t168 48q31 0 64.5 -10.5t61 -34t46 -61.5t18.5 -93 q0 -92 -39 -180t-106.5 -159t-157.5 -114t-190 -43q-45 0 -85 13.5t-71 41t-48 70.5t-17 101q0 66 17 150.5t45 178t60 189.5l64 186l-123 19v51q31 14 71 26.5t81 22.5t80.5 16.5t70.5 8.5l45 -25l-95 -250q-46 -121 -93 -268h8zM1280 1024l-195 -909h150v-54 q-41 -33 -99.5 -53t-111.5 -20q-59 0 -86 26.5t-27 61.5q0 41 6.5 80t16.5 86l172 782h174z" />
<glyph unicode="&#x44c;" horiz-adv-x="911" d="M322 420q-18 -55 -27.5 -103.5t-9.5 -101.5q0 -72 33.5 -112t97.5 -40q57 0 106 33t86 83t57.5 112.5t22.5 124.5q-2 37 -14 60.5t-30.5 38.5t-41 21.5t-41.5 6.5q-72 0 -139 -38t-100 -85zM340 506q55 68 145 116t189 48q31 0 64.5 -10.5t61 -34t46 -61.5t18.5 -93 q0 -92 -43 -181t-113.5 -159t-163.5 -113t-194 -43q-111 0 -176 54.5t-65 171.5q0 66 17 150.5t45 178t60 189.5l64 186l-123 19v51q31 14 71 26.5t81 22.5t80.5 16.5t70.5 8.5l45 -25l-95 -250q-46 -121 -93 -268h8z" />
<glyph unicode="&#x44d;" horiz-adv-x="952" d="M309 63q57 0 115.5 30t108 85t87 135t56.5 181l-387 -50q-10 27 -10 66t10 65h395q2 16 3 36t1 38q0 143 -58.5 227.5t-162.5 84.5q-16 0 -44 -3.5t-48 -7.5q-29 -33 -66 -86l-67 -94q-18 8 -36 28.5t-30 47t-16 57.5t4 60q39 25 126 55.5t228 30.5q162 0 262.5 -96.5 t100.5 -264.5q0 -158 -44 -289t-121 -225t-180.5 -146.5t-220.5 -52.5q-115 0 -202.5 26t-137.5 73q2 27 12.5 54.5t27 54t37 49t44.5 36.5l140 -194q16 -4 37.5 -7.5t35.5 -3.5z" />
<glyph unicode="&#x44e;" horiz-adv-x="1466" d="M537 381q0 45 6 94h-185l-98 -475h-172l180 905l-125 19l-2 51q29 14 67 27.5t78 23.5t77.5 16.5t66.5 6.5l41 -25l-96 -461h184q20 92 63.5 179t107 155t147.5 110t186 42q160 0 240.5 -98.5t80.5 -291.5q0 -135 -39.5 -259t-111.5 -218t-171 -150.5t-218 -56.5 q-143 0 -225 101.5t-82 304.5zM1022 961q-90 -2 -149.5 -66t-94.5 -158t-50 -202.5t-15 -198.5q0 -121 45 -197t121 -76q72 0 130 54.5t100 143.5t64.5 201.5t22.5 227.5q0 121 -41 195t-133 76z" />
<glyph unicode="&#x44f;" horiz-adv-x="1028" d="M741 936q-27 4 -65.5 8t-63.5 4q-55 0 -103 -20.5t-85 -56t-57.5 -86t-20.5 -109.5q0 -78 60.5 -128t189.5 -50h51zM352 451q-37 8 -70.5 28.5t-60 51t-43 71.5t-16.5 92q0 76 38 138.5t103.5 107.5t153.5 70.5t190 25.5q27 0 64 -1t73.5 -4t72.5 -8t65 -13l-179 -895 h152v-54q-41 -33 -99.5 -53t-115.5 -20q-59 0 -85 24.5t-26 53.5q0 37 8.5 83t18.5 93l41 202l-141 -20q-43 -76 -107.5 -171t-138.5 -173q-47 -51 -88 -71.5t-84 -20.5t-78 21.5t-59 49.5v54h96q35 25 80 68.5t89 92t82.5 95.5t63.5 82z" />
<glyph unicode="&#x451;" horiz-adv-x="929" d="M803 182q-18 -39 -53 -75.5t-82 -66.5t-106.5 -47.5t-127.5 -17.5q-170 0 -261 97.5t-91 269.5q0 145 41 274t114.5 225.5t179 152t234.5 55.5q98 0 169 -50.5t71 -148.5q0 -145 -144.5 -229t-465.5 -109q-8 -35 -11.5 -67.5t-3.5 -63.5q0 -123 62.5 -201t183.5 -78 q39 0 77 12.5t71.5 31t61.5 38.5l48 37zM588 961q-88 -2 -164 -83t-129 -278q199 6 309.5 68.5t110.5 173.5q0 43 -25.5 80t-101.5 39zM340 1356q0 49 30.5 78.5t81.5 29.5q49 0 80 -29.5t31 -78.5q0 -47 -31 -76t-80 -29q-51 0 -81.5 29t-30.5 76zM753 1356q0 49 31 78.5 t80 29.5q51 0 82 -29.5t31 -78.5q0 -47 -31 -76t-82 -29q-49 0 -80 29t-31 76z" />
<glyph unicode="&#x452;" d="M152 1214h161l39 183l-139 18v47l68.5 25.5t77.5 25t80 18.5t75 9l43 -18l-68 -308h349l-25 -106h-344l-96 -446h10q80 164 185.5 244.5t217.5 80.5q94 0 140.5 -51t46.5 -133q0 -53 -4 -90t-17 -95l-133 -618q-31 -113 -81 -190.5t-105 -129t-107.5 -79t-85.5 -35.5 l-24 45q25 12 58.5 43t66 79t61.5 114.5t47 152.5l125 584q12 61 17.5 97t5.5 73q0 47 -24.5 76.5t-59.5 29.5q-55 0 -111.5 -36t-104.5 -88t-86 -110.5t-59 -103.5l-108 -522h-172l221 1108h-168z" />
<glyph unicode="&#x453;" horiz-adv-x="798" d="M33 193q0 70 39 127t97 107t125.5 94t126 87t97.5 88t39 95q0 53 -21.5 92t-93.5 39t-136 -38t-103 -77l-31 35q16 31 49 66.5t79 67.5t100.5 52.5t113.5 20.5q119 0 177.5 -58.5t58.5 -134.5t-39 -135t-97.5 -109.5t-126 -94.5t-126 -88t-97.5 -92t-39 -104 q0 -53 35 -92t121 -39q76 0 142.5 34t117.5 75l29 -31q-27 -37 -67 -73.5t-92 -66.5t-113.5 -47.5t-129.5 -17.5q-47 0 -90 16.5t-75.5 45.5t-51 69t-18.5 87zM772 1571q16 2 43 -1t55.5 -9.5t53 -15.5t36.5 -19v-39l-403 -309l-45 36z" />
<glyph unicode="&#x454;" horiz-adv-x="897" d="M805 182q-23 -39 -57.5 -75.5t-83 -66.5t-106.5 -47.5t-128 -17.5q-74 0 -138.5 25t-110.5 72t-72.5 113.5t-26.5 150.5q0 145 41 267t112.5 213t168 148.5t206.5 75.5q47 8 101 9q78 -2 124 -13.5t70 -34.5q2 -23 -3 -50t-17.5 -54t-28.5 -49.5t-35 -30.5l-139 144 q-59 0 -119.5 -26t-114 -75t-94.5 -123.5t-61 -177.5l381 29q4 -27 -1 -55.5t-22 -55.5h-368q-2 -25 -3 -49.5t-1 -52.5q-2 -141 67.5 -207t169.5 -66q43 0 81 12.5t70.5 31t59.5 38.5l47 37z" />
<glyph unicode="&#x455;" horiz-adv-x="856" d="M522 242q-2 49 -27.5 84.5t-65.5 68.5t-85 66t-85 72.5t-65.5 92t-25.5 126.5t28.5 129t79 92t121 56.5t154.5 19.5q53 0 119.5 -9.5t126.5 -44.5q0 -23 -8.5 -52.5t-21.5 -57t-29.5 -51t-35.5 -31.5l-151 158q-43 -2 -80 -10.5t-64.5 -27t-43 -48t-15.5 -74.5 q0 -53 26.5 -91t66.5 -72t86 -65.5t86 -71.5t67 -92.5t27 -123.5q0 -74 -34 -131.5t-92.5 -97.5t-135 -60.5t-162.5 -20.5t-157 17.5t-112 44.5q10 53 24.5 103t59.5 93l185 -170q43 0 85 10.5t75.5 33t55 55.5t23.5 80z" />
<glyph unicode="&#x456;" horiz-adv-x="567" d="M145 924v51q31 12 70 25.5t80 23.5t78 17.5t65 7.5l37 -25l-192 -909h151v-54q-43 -33 -100.5 -53t-112.5 -20q-59 0 -84.5 26.5t-25.5 61.5q0 41 6 80t16 86l143 661zM309 1378q0 53 33 84t86 31q57 0 90 -30.5t33 -84.5q0 -51 -33 -79.5t-90 -28.5q-53 0 -86 28.5 t-33 79.5z" />
<glyph unicode="&#x457;" horiz-adv-x="632" d="M143 1384q0 49 31 79t78 30q51 0 80.5 -29.5t29.5 -79.5q0 -47 -30.5 -75.5t-79.5 -28.5t-79 28.5t-30 75.5zM475 1384q0 49 30 79t79 30t79.5 -29.5t30.5 -79.5q0 -47 -30.5 -75.5t-79.5 -28.5t-79 28.5t-30 75.5zM164 924v51q31 12 69.5 25.5t79.5 23.5t78 17.5t66 7.5 l37 -25l-191 -909h150v-54q-41 -33 -99.5 -53t-111.5 -20q-59 0 -86 26.5t-27 61.5q0 41 6 80t17 86l145 661z" />
<glyph unicode="&#x458;" horiz-adv-x="563" d="M272 905l-122 19v51q63 29 141 51.5t141 22.5l41 -25l-199 -936q-31 -145 -85 -241.5t-113.5 -156t-113.5 -88t-87 -36.5l-25 45q25 12 58 42t65.5 82t64.5 130t54 184zM299 1378q0 53 33 84t86 31q57 0 90 -30.5t33 -84.5q0 -51 -33 -79.5t-90 -28.5q-53 0 -86 28.5 t-33 79.5z" />
<glyph unicode="&#x459;" horiz-adv-x="1435" d="M991 1024q-37 -125 -69.5 -248t-65.5 -270h8q55 68 144.5 116t187.5 48q31 0 65.5 -10.5t62.5 -34t46.5 -61.5t18.5 -93q0 -92 -43 -181t-114 -159t-164 -113t-194 -43q-111 0 -176 54.5t-65 171.5q0 66 15.5 157t39 190t50.5 200l53 188h-254q-25 -111 -59 -232.5 t-76 -238.5t-92 -218.5t-109 -170.5q-49 -59 -104.5 -81t-121.5 -20q-16 20 -26 54t-8 73q0 33 8 64t28 57l168 -69q39 49 81 135t80 189.5t71 214t53 208.5q-43 10 -90 29.5t-70 40.5v53h721zM846 420q-18 -55 -27.5 -103.5t-9.5 -101.5q0 -72 34 -112t97 -40 q57 0 106.5 33t86 83t57 112.5t22.5 124.5q-2 37 -14 60.5t-31.5 38.5t-41 21.5t-40.5 6.5q-72 0 -139 -38t-100 -85z" />
<glyph unicode="&#x45a;" horiz-adv-x="1517" d="M1047 1024l-55 -247q-28 -124 -52 -271h8q53 68 143.5 116t188.5 48q31 0 64.5 -10.5t61.5 -34t46 -61.5t18 -93q0 -92 -43 -181t-113.5 -159t-163.5 -113t-194 -43q-111 0 -176 54.5t-65 171.5q0 12 6 48l13 78q7 42 15.5 83t14.5 65h-406l-98 -475h-172l180 905 l-125 19l-2 51q29 14 67 27.5t78 23.5t77.5 16.5t66.5 6.5l41 -25l-96 -461h397l92 461h183zM928 420q-18 -55 -27.5 -103.5t-9.5 -101.5q0 -72 33.5 -112t97.5 -40q57 0 106.5 33t86 83t57 112.5t22.5 124.5q-2 37 -14 60.5t-30.5 38.5t-40 21.5t-40.5 6.5 q-37 0 -72.5 -10.5t-68.5 -28t-58.5 -39.5t-41.5 -45z" />
<glyph unicode="&#x45b;" horiz-adv-x="1112" d="M150 1214h163l37 183l-139 18v47l68.5 25.5t78.5 25t80 18.5t74 9l43 -18l-66 -308h349l-27 -106h-344l-96 -446h10q80 164 184.5 244.5t227.5 80.5q94 0 137 -54t43 -134q0 -37 -4 -80t-19 -101l-116 -503h151v-54q-41 -33 -98.5 -53t-114.5 -20q-59 0 -81.5 24.5 t-22.5 53.5q0 37 10 82l20 94l74 342q14 61 19.5 94t5.5 70q0 47 -20.5 79.5t-57.5 32.5q-63 0 -120.5 -36t-106 -88t-85 -110.5t-57.5 -103.5l-108 -522h-172l223 1108h-168z" />
<glyph unicode="&#x45c;" horiz-adv-x="1046" d="M635 96q-66 111 -113 208l-88 183l-74 21l-96 -508h-176l178 905l-143 19v51q59 27 144 48t157 26l43 -23l-92 -465h59q43 27 92 66t94.5 80t82 78.5t55.5 64.5q2 14 3 38.5t0 50.5l-2 49q-1 24 -3 36q76 27 147 27q72 0 121 -27q-29 -63 -87 -130t-125 -127t-130 -110 l-100 -75q14 -39 48 -102l73 -130l81 -131l70 -106h129v-52q-41 -33 -89 -53t-101 -20q-49 0 -85 24.5t-73 83.5zM821 1571q16 2 43 -1t55.5 -9.5t53 -15.5t36.5 -19v-39l-403 -309l-45 36z" />
<glyph unicode="&#x45e;" horiz-adv-x="931" d="M180 905l-131 17v51q10 8 33.5 20.5t54.5 24.5t63.5 21.5t61.5 9.5q43 0 62.5 -21.5t29.5 -56.5l170 -717l6 -123h5l47 121q27 57 54 126l54 138q27 70 49.5 137.5t38.5 124.5q0 23 -5 59.5t-11 73.5t-12.5 69t-10.5 44q29 12 62 18.5t63 6.5q61 0 109 -25 q-63 -254 -173 -508t-243 -516q-111 -215 -221.5 -321.5t-249.5 -106.5q-31 0 -58.5 8t-58.5 25q-1 6 0 11q0 18 4 40q6 29 19.5 57.5t35 53t48.5 38.5l166 -86q14 10 36.5 30t47 53.5t49 81.5t47.5 116zM590 1147q-92 0 -147 27.5t-84 66.5t-36 82t-3 76q33 25 72 39t82 18 l51 -26v-158q12 -10 31.5 -18.5t52.5 -8.5q90 0 157.5 56.5t94.5 134.5q18 0 39.5 -9.5t31.5 -23.5q-12 -43 -39.5 -88t-70.5 -82t-100.5 -61.5t-131.5 -24.5z" />
<glyph unicode="&#x45f;" horiz-adv-x="1110" d="M999 115v-54q-41 -33 -99 -53t-114 -20q-59 0 -84.5 24.5t-25.5 53.5q0 37 10 123.5t45 211.5h-8q-27 -57 -67 -130.5t-95 -139t-125.5 -111t-156.5 -45.5q-72 0 -121 50.5t-49 142.5q0 45 14 133t35 193l44 214l42 197l-125 19v51l70.5 24.5t75.5 22.5t73 17.5t63 9.5 l45 -25q-33 -154 -66.5 -292t-62.5 -292q-10 -49 -21 -109.5t-11 -131.5q0 -43 23.5 -70t53.5 -27q45 0 90.5 27t85.5 70t75.5 95t64.5 103.5t48 95.5l30 70l90 461h170l-168 -909h151zM600 -12q-33 -25 -40 -56.5t-2 -66.5t14.5 -72t11.5 -72q-2 -84 -57.5 -127t-139.5 -59 l-14 37q37 18 47 45t7 58.5t-11 68.5t-8 74q-2 72 33.5 117t129.5 83z" />
<glyph unicode="&#x462;" horiz-adv-x="1462" d="M844 1155l-70 -324q39 6 92.5 10.5t94.5 4.5q100 0 183 -18.5t142.5 -58.5t91 -104.5t31.5 -156.5q0 -123 -48 -219t-134 -162t-208 -99.5t-269 -33.5q-10 0 -39 1t-67 2l-78 2q-40 1 -70 1h-263l11 59q88 37 180 50l223 1046h-264l-168 -289h-53q2 41 8 93.5t14.5 105.5 l17.5 104.5t19 92.5h447l22 106q-41 8 -81 20.5t-74 30.5l12 58h545l-13 -58q-88 -35 -192 -51l-23 -106h522q-16 -80 -41.5 -173.5t-54.5 -177.5h-53l-53 244h-340zM895 739q-49 0 -82 -3t-61 -9l-131 -616q8 -4 27.5 -5.5t41 -3.5t41.5 -2h33q72 0 147.5 18.5t138 65.5 t102.5 128t38 204q2 49 -13.5 90t-50 71t-92 46t-139.5 16z" />
<glyph unicode="&#x463;" horiz-adv-x="1394" d="M823 506q55 68 145.5 116t188.5 48q31 0 64.5 -10.5t61.5 -34t46.5 -61.5t18.5 -93q0 -92 -43 -181t-114 -159t-164 -113t-193 -43q-111 0 -176.5 52.5t-65.5 150.5q0 61 23.5 157.5t53.5 193.5l53 181q24 83 23 117q0 49 -16 72t-57 23q-35 0 -77 -39t-84 -98.5 t-78 -129t-60 -133.5l-109 -522h-176l191 905l-125 19v51q68 35 146.5 54.5t135.5 19.5l43 -25l-90 -362h8q25 57 63 124.5t88 126t109.5 97.5t124.5 39q25 0 49.5 -8.5t43 -28t31 -51t12.5 -78.5q0 -33 -11.5 -79t-27 -97.5t-34 -103.5t-30.5 -97h8zM805 420 q-18 -55 -32.5 -106.5t-14.5 -125.5q0 -51 39 -88t102 -37q55 0 104.5 33t86 83t58 112.5t23.5 124.5q-2 37 -14 60.5t-30.5 38.5t-41 21.5t-41.5 6.5q-72 0 -139 -38t-100 -85z" />
<glyph unicode="&#x472;" horiz-adv-x="1495" d="M135 569q0 186 56.5 348t163 282t256 189.5t337.5 69.5q150 0 252.5 -49t164.5 -129t90 -183.5t28 -213.5q0 -164 -46 -327t-142.5 -292t-243 -209t-346.5 -80q-147 0 -255 48.5t-177.5 129t-103.5 188t-34 228.5zM354 567q0 -113 30 -203t82 -153.5t122.5 -97 t154.5 -31.5q121 -2 210 49t149.5 134t95.5 190.5t49 222.5q-68 -61 -143.5 -84t-122.5 -23q-55 0 -102.5 22.5t-93.5 48.5t-92 48.5t-99 22.5q-43 0 -110.5 -13.5t-127.5 -62.5q-2 -16 -2 -35v-35zM1065 721q33 0 89 5t103 28q6 68 7 131q0 104 -23.5 190t-71 147.5 t-116 95.5t-158.5 34q-123 0 -216 -56.5t-158.5 -147.5t-103.5 -206t-52 -231q61 53 124.5 85.5t110.5 49.5q25 8 47.5 11t40.5 3q55 0 100.5 -22.5t89.5 -48t89 -47t98 -21.5z" />
<glyph unicode="&#x473;" horiz-adv-x="1042" d="M84 381q0 109 34 226.5t103.5 216t174 162t243.5 63.5q160 0 241 -98.5t81 -291.5q0 -135 -39 -259t-109 -218t-168 -150.5t-217 -56.5q-158 0 -251 101.5t-93 304.5zM598 961q-74 -2 -127 -37t-90 -91.5t-59.5 -128t-34.5 -147.5q57 35 103 48t79 13t58.5 -10t49 -23.5 t47 -23.5t52.5 -10q16 0 40.5 5t49.5 19q6 55 6 115q0 121 -42 195t-132 76zM369 508q-39 0 -95 -31q-6 -74 -6 -141q0 -121 53.5 -197t143.5 -76q57 0 104 35t84 94.5t62.5 138.5t40.5 167q-53 -35 -96.5 -48.5t-79.5 -13.5q-33 0 -59.5 11.5t-51.5 24.5l-49 24.5t-51 11.5 z" />
<glyph unicode="&#x474;" horiz-adv-x="1409" d="M1567 1458q16 -6 28.5 -27.5t21.5 -49t14 -58.5t5 -59q0 -12 -1 -25.5t-3 -24.5l-43 -49l-184 56q-84 -94 -187.5 -236.5t-207 -309.5t-197.5 -348.5t-162 -351.5h-80l-231 1348l-74 22q-37 11 -71 29l12 60h545l-13 -60q-41 -16 -86 -28.5t-94 -22.5l131 -881l10 -163h5 l59 163q70 145 155 290t171 270.5t130 179t48 59.5q76 92 135 145q45 39 85 53.5t79 18.5z" />
<glyph unicode="&#x475;" horiz-adv-x="987" d="M907 838q-74 -92 -140.5 -204t-125.5 -225.5t-110 -221.5l-89 -187l-129 -25l-151 930l-131 17v51q12 8 36.5 21.5t54.5 25.5t61.5 20.5t60.5 8.5q45 0 64.5 -22.5t25.5 -55.5l94 -666l10 -129h4l60 141l76 164q39 84 83 166t94 157t107 140q45 51 100.5 74.5t96.5 25.5 q16 0 22 -2q25 -23 38.5 -68.5t13.5 -92.5v-17q0 -8 -3 -16l-38 -53z" />
<glyph unicode="&#x48a;" horiz-adv-x="1531" d="M477 0h-518l10 59q90 37 181 50l256 1214l-80 22q-41 11 -78 29l14 60h518l-12 -60q-35 -16 -77 -28.5t-89 -22.5l-188 -889l-54 -153l125 165l783 828l10 49q-45 10 -84 22.5t-70 28.5l13 60h518l-13 -60q-41 -16 -86 -28.5t-92 -22.5l-258 -1217h221l19 -14 q-8 -41 -41 -98t-79 -116.5t-101.5 -111t-106.5 -75.5h-55l162 309h-391l10 59q35 14 78 27.5t90 22.5l188 886l53 154l-114 -156l-797 -839l-8 -45q45 -8 84 -20.5t69 -29.5zM961 1497q-84 0 -141.5 23.5t-91.5 59.5t-46 76t-8 70q33 27 91 40.5t101 17.5l52 -27v-135 q14 -10 32.5 -18.5t50.5 -8.5q45 0 92.5 12.5t87.5 34t70.5 52t42.5 69.5q20 0 42 -8t32 -22q-14 -43 -49 -85t-87 -76t-120.5 -54.5t-150.5 -20.5z" />
<glyph unicode="&#x48b;" horiz-adv-x="1112" d="M766 -12q-45 0 -67.5 24.5t-22.5 53.5q0 37 10 123.5t45 211.5h-8q-27 -57 -67 -130.5t-95 -139t-125.5 -111t-156.5 -45.5q-72 0 -121 50.5t-49 142.5q0 45 14 133t35 193l44 214l42 197l-125 19v51l70.5 24.5t75.5 22.5t73 17.5t63 9.5l45 -25q-33 -154 -66.5 -292 t-62.5 -292q-10 -49 -21 -109.5t-11 -131.5q0 -43 23.5 -70t53.5 -27q45 0 90.5 27t85.5 70t75.5 95t64.5 103.5t48 95.5l30 70l90 461h170l-168 -911h151v-64q-25 -23 -38 -51.5t-19 -62t-7 -69.5t-3 -71q-2 -55 -23.5 -91t-55.5 -59.5t-77 -35.5t-86 -21l-14 41 q37 10 58.5 31t32.5 44.5t13 49t2 45.5q-2 72 38 126.5t100 107.5l-7 6q-25 -18 -67.5 -34.5t-79.5 -16.5zM696 1147q-92 0 -147 27.5t-84 66.5t-36 82t-3 76q33 25 72 39t82 18l51 -26v-158q12 -10 31.5 -18.5t52.5 -8.5q90 0 157.5 56.5t94.5 134.5q18 0 39.5 -9.5 t31.5 -23.5q-12 -43 -39.5 -88t-70.5 -82t-100.5 -61.5t-131.5 -24.5z" />
<glyph unicode="&#x48c;" horiz-adv-x="1263" d="M184 1163h265l32 160q-41 8 -80 21.5t-77 29.5l14 60h545l-13 -60q-41 -16 -90 -30.5t-102 -20.5l-33 -160h397l-20 -106h-401l-41 -203q39 8 93 11t95 3q205 0 323.5 -84t118.5 -239q0 -147 -52 -252t-141 -171.5t-209 -97t-257 -30.5q-10 0 -39 1t-67 2l-77 2 q-40 1 -71 1h-262l10 59q88 37 180 50l199 948h-260zM705 762q-49 0 -84 -3t-64 -9l-135 -639q8 -4 27.5 -5.5t41 -3.5t41.5 -2h31q94 -2 173 25t136.5 82t89 140t29.5 202q2 43 -12 82t-47 68.5t-89 46t-138 16.5z" />
<glyph unicode="&#x48d;" horiz-adv-x="911" d="M98 1026h172l55 227q26 104 37 164l-124 19v51q31 14 69.5 26.5t78.5 22.5t78 16.5t68 8.5l41 -25q-10 -33 -24 -86l-31 -121l-35 -145l-37 -158h340l-24 -106h-340l-52 -242l-36 -172h8q55 68 144 116t188 48q31 0 64.5 -10.5t61 -34t46 -61.5t18.5 -93q0 -92 -43 -181 t-113.5 -159t-163.5 -113t-194 -43q-111 0 -176 54.5t-65 171.5q0 39 12 114.5t31.5 174t44.5 209.5l49 221h-174zM322 420q-18 -55 -27.5 -103.5t-9.5 -101.5q0 -72 33.5 -112t97.5 -40q57 0 106 33t86 83t57.5 112.5t22.5 124.5q-2 37 -14 60.5t-30.5 38.5t-40 21.5 t-40.5 6.5q-37 0 -72.5 -10.5t-68.5 -28t-58.5 -39.5t-41.5 -45z" />
<glyph unicode="&#x48e;" horiz-adv-x="1198" d="M346 109q53 -6 99.5 -19.5t84.5 -30.5l-10 -59h-561l10 59q47 20 91 30.5t90 19.5l256 1214q-45 8 -84 21.5t-74 29.5l14 60h184q82 0 179.5 8t185.5 8q98 0 181 -19.5t141.5 -61.5t91 -104.5t32.5 -148.5q0 -180 -95 -316t-267 -200l70 -166l-115 -47l-76 180 q-35 -8 -72.5 -11t-78.5 -3h-33q-23 0 -50.5 1t-54 3t-45.5 4zM758 1343q-49 0 -87 -3t-67 -7l-139 -663q10 -2 29.5 -4t41 -3t41 -2.5t31.5 -1.5q68 0 127 13l-106 264l104 43l109 -266q98 53 147 156.5t49 244.5q0 51 -11 93t-43 73t-86 47t-140 16z" />
<glyph unicode="&#x48f;" horiz-adv-x="1110" d="M199 -299q72 -12 143 -51v-60h-322l-18 19l88 407l191 889l-125 19v51q68 29 142.5 51.5t139.5 22.5l41 -25l-84 -360h8q37 82 81 151.5t95.5 121.5t111 82t126.5 30q45 0 86 -17.5t72 -53.5t48 -89t17 -123q0 -102 -20.5 -198.5t-57 -182.5t-88 -158.5t-114.5 -126.5 l135 -190l-88 -60l-135 191q-106 -66 -230 -66q-35 0 -59.5 2.5t-42.5 7.5t-36 13l-38 18zM721 922q-59 0 -112.5 -46.5t-99.5 -112t-83 -138t-59 -127.5l-80 -387q29 -25 60.5 -36.5t101.5 -11.5q82 0 161 68l-133 191l82 61l123 -176q37 49 67.5 109.5t52 127t34 136 t12.5 137.5q0 98 -34 151.5t-93 53.5z" />
<glyph unicode="&#x490;" horiz-adv-x="1017" d="M346 109q47 -4 94 -17.5t90 -32.5l-10 -59h-561l10 59q47 23 91 34t90 16l256 1214l-82 20q-41 10 -76 31l14 60h778l168 278h54q-4 -43 -10.5 -93t-15.5 -102l-18 -102q-9 -49 -20 -88h-594z" />
<glyph unicode="&#x491;" horiz-adv-x="845" d="M750 1024l143 248h53q-6 -86 -20.5 -181.5t-32.5 -168.5h-418l-201 -922h-184l197 924q-70 12 -123 47v53h586z" />
<glyph unicode="&#x492;" horiz-adv-x="1038" d="M467 782h309l-22 -106h-308l-120 -567q47 -8 95 -20.5t89 -29.5l-10 -59h-561l10 59q92 35 180 50l121 567h-182l22 106h180l117 541q-41 8 -80 21.5t-78 29.5l13 60h958q-8 -41 -20.5 -94.5t-27.5 -111t-31.5 -111.5l-30.5 -97h-52l-41 307h-413z" />
<glyph unicode="&#x493;" horiz-adv-x="960" d="M74 518h168l82 387q-35 6 -73 26.5t-54 39.5v53h766q-18 -80 -42 -163t-53 -167h-53l-39 242h-278l-88 -418h292l-26 -106h-287l-88 -412h-170l86 412h-170z" />
<glyph unicode="&#x494;" horiz-adv-x="1249" d="M481 754q61 31 149.5 61.5t205.5 30.5q94 0 157.5 -21.5t103.5 -61.5t57 -96.5t17 -123.5q0 -147 -42 -281.5t-120.5 -238t-190 -170t-253.5 -78.5v55q104 37 181 105.5t128.5 157.5t76 195.5t24.5 223.5q0 111 -42 169t-163 58q-86 0 -165 -24.5t-144 -59.5l-115 -546 q47 -8 93 -20.5t87 -29.5l-12 -59h-555l10 59q92 35 181 50l256 1214q-41 8 -80 21.5t-78 29.5l14 60h959l-23 -95q-12 -53 -26.5 -108t-31 -110.5l-30.5 -98.5h-53l-41 305h-414z" />
<glyph unicode="&#x495;" horiz-adv-x="997" d="M934 1024q-16 -80 -40 -163t-52 -167h-51l-43 242h-277l-123 -567q68 84 145.5 136t184.5 52q98 0 152.5 -57.5t54.5 -155.5q0 -109 -34 -231.5t-100.5 -233t-166 -195.5t-228.5 -118l-24 45q82 43 151.5 122t119.5 174t78 196.5t28 191.5q0 59 -28 97t-81 38 q-76 0 -147.5 -38t-120.5 -107l-60 -285h-184l193 903q-35 6 -70 27.5t-51 40.5v53h774z" />
<glyph unicode="&#x496;" horiz-adv-x="1994" d="M1049 1323q-41 12 -74 24.5t-62 26.5l13 60h473l-13 -60q-27 -12 -62.5 -25.5t-80.5 -25.5l-121 -567l138 28l456 539q-37 10 -69.5 22.5t-67.5 28.5l12 60h465l-12 -60q-41 -16 -83 -28.5t-83 -22.5l-498 -555l73 -145l87 -170t100.5 -178.5t110.5 -170.5h162 q-8 -41 -23.5 -95t-34.5 -110l-36 -111q-18 -54 -35 -97h-53l-13 309h-131l-57 51q-47 70 -86 147.5t-75 158.5t-68.5 164t-69.5 165h-123l-123 -577q33 -10 63.5 -21.5t59.5 -28.5l-10 -59h-475l10 59q72 35 160 50l125 593l-142 -28l-105 -149l-120 -160l-132 -163 q-69 -81 -145 -151l-79 -51h-269l11 51l106 49q92 82 178 171l165 179l150 171l130 149l-263 553q-82 23 -133 51l13 60h436l-12 -60q-63 -31 -150 -51l234 -551h141z" />
<glyph unicode="&#x497;" horiz-adv-x="1609" d="M119 881q53 74 116.5 114.5t147.5 40.5q43 0 77 -21.5t58.5 -58t36.5 -85t12 -99.5q0 -111 -18 -211h188l94 463h166l-96 -463h189q27 104 71.5 191.5t101 151t125 98t142.5 34.5q55 0 77.5 -7t49.5 -19q2 -23 -3 -50.5t-19.5 -55t-36 -53.5t-52.5 -42l-88 119 q-37 -10 -78 -53.5t-75.5 -118t-57 -180t-20.5 -240.5q-2 -117 33.5 -169t99.5 -52q35 0 62.5 14t56.5 43l22 -29l-24 -37q-29 -45 -38 -85.5t-9 -79.5t3 -76t1 -70q-2 -55 -23.5 -91t-55.5 -59.5t-76 -35.5t-85 -21l-14 41q37 10 58.5 31t31.5 44.5t12 49t2 45.5 q0 72 27.5 124t91.5 110l-4 4q-72 -49 -148 -49q-53 0 -91 21.5t-62.5 58t-35.5 85t-11 101.5q0 57 4 111.5t12 107.5h-184l-97 -473h-163l96 473h-189q-29 -106 -73.5 -195.5t-103 -154t-127 -100t-142.5 -35.5q-57 0 -80.5 8t-48.5 18q-4 27 2 57.5t20.5 58.5t37 51.5 t51.5 35.5l88 -121q45 12 89 56.5t76.5 119t53 179t18.5 237.5q2 117 -24.5 169t-87.5 52q-76 0 -138 -57z" />
<glyph unicode="&#x498;" horiz-adv-x="1146" d="M307 -391q0 94 2 186t10 185q-92 8 -169.5 28.5t-129.5 48.5q6 33 19.5 76t31.5 89l35 92q18 46 37 83h52l26 -284q12 -6 36 -12.5t53.5 -11.5t60 -7t57.5 -2q88 0 163 24.5t130 74.5t86 127t33 181q-2 104 -75 151.5t-194 47.5l-161 -22q0 29 4 59.5t18 58.5h66 q35 0 86 3t86 8q57 20 106 55t84 81t55.5 99t22.5 113q-2 117 -57.5 164t-190.5 47q-61 0 -103 -12.5t-67 -26.5l-160 -250h-53l4 76q2 37 6.5 73.5t12.5 75.5t20 86q82 47 184.5 65.5t190.5 18.5q82 0 156.5 -16.5t131 -52t89.5 -90t33 -130.5q0 -53 -14.5 -109 t-52.5 -109.5t-103.5 -101.5t-167.5 -83v-8q41 -6 84 -24.5t77.5 -52.5t56 -81t21.5 -108q0 -219 -139 -353.5t-389 -158.5q-29 -86 -64.5 -179.5t-83.5 -191.5h-53z" />
<glyph unicode="&#x499;" horiz-adv-x="899" d="M-25 74q2 27 12.5 54.5t27 54t37 49t44.5 36.5l140 -194q16 -4 42.5 -7.5t43.5 -3.5q47 0 96 18.5t89 52.5t65.5 84t27.5 112q-2 82 -45 118.5t-145 53.5l-144 -37q-10 27 -9 55.5t9 54.5h146q111 35 166 106t53 136q2 61 -37 101t-127 43q-16 0 -45 -3.5t-49 -7.5 q-29 -35 -65 -87l-66 -93q-18 8 -36 28.5t-30 47t-16 57.5t4 60q18 12 49 26.5t77 27.5t105.5 22.5t136.5 9.5q57 0 108.5 -12.5t90.5 -37t61.5 -61.5t22.5 -86q0 -195 -274 -295q63 0 109 -18.5t76 -47t44 -66.5t14 -75q0 -68 -25.5 -129t-74.5 -110.5t-119.5 -83 t-158.5 -45.5q-29 -25 -33 -55.5t0 -64.5t13 -70t9 -71q0 -84 -55 -127t-139 -59l-15 37q37 18 47.5 45t8.5 58.5t-10.5 68.5t-8.5 74q-2 53 15.5 90t62.5 67q-111 2 -195 27t-131 72z" />
<glyph unicode="&#x49a;" horiz-adv-x="1363" d="M975 0l-60 49q-92 141 -178 305t-162 332h-108l-121 -577q84 -16 141 -50l-10 -59h-518l10 59q92 37 181 50l256 1214q-45 8 -85 20.5t-73 30.5l14 60h518l-12 -60q-70 -33 -166 -51l-119 -567l123 28l492 539q-41 10 -74 21.5t-63 29.5l14 60h465l-15 -60 q-37 -18 -82 -30.5t-83 -20.5l-531 -553l84 -149l101 -169l112 -177l115 -171h153q-8 -41 -23.5 -95t-33.5 -110l-37 -111q-18 -54 -35 -97h-53l-12 309h-125z" />
<glyph unicode="&#x49b;" d="M774 -12q-39 0 -70.5 24.5t-68.5 83.5q-66 111 -113 208l-88 183l-74 21l-96 -508h-176l178 905l-143 19v51q59 27 144 48t157 26l43 -23l-92 -465h59q43 27 92 66t94.5 80t82 78.5t55.5 64.5q2 14 3 38.5t0 50.5l-2 49q-1 24 -3 36q76 27 147 27q72 0 121 -27 q-29 -63 -87 -130t-125 -127t-130 -110l-100 -75q14 -39 48 -102l73 -130l81 -131l70 -106h154v-64q-25 -23 -38.5 -51.5t-19.5 -62t-8 -69.5l-4 -71q-2 -55 -23.5 -91t-55.5 -59.5t-76 -35.5t-85 -21l-14 41q37 10 57.5 31t31.5 44.5t13 49t2 45.5q0 72 39 126.5t97 107.5 l-6 6q-25 -18 -66 -34.5t-76 -16.5h-2z" />
<glyph unicode="&#x49c;" horiz-adv-x="1443" d="M1114 1434h465l-12 -60q-43 -18 -86 -30.5t-82 -20.5l-529 -551l85 -150l102 -171l110 -179q57 -90 117 -172l86 -49l-10 -51h-244l-61 49q-92 141 -178 307t-162 334h-45l-68 -317h-104l65 317h-96l-121 -581q88 -16 141 -50l-10 -59h-518l10 59q92 35 181 50l256 1214 q-88 12 -158 51l14 60h518l-12 -60q-70 -33 -166 -51l-119 -569l99 10l67 330h107l-68 -320l60 10l491 539q-41 10 -77 22.5t-60 28.5z" />
<glyph unicode="&#x49d;" horiz-adv-x="1165" d="M571 561h47q43 27 83 66t75 80t62 78l45 65q2 14 3 38.5t0 50.5l-2 49q-1 24 -3 36q76 27 147 27q74 0 123 -27q-29 -63 -80 -131t-108.5 -128t-113.5 -109.5t-93 -75.5q14 -39 39.5 -101.5t57.5 -129.5l65 -130q33 -63 63 -106h129v-52q-41 -33 -89 -53t-103 -20 q-49 0 -85 24.5t-71 83.5q-33 55 -56.5 113.5t-41 112t-27.5 96.5t-19 69l-63 5l-55 -263h-97l58 271l-101 8l-96 -508h-176l178 905l-143 19v51q59 27 144 48t157 26l43 -23l-92 -465h98l59 270h97z" />
<glyph unicode="&#x49e;" horiz-adv-x="1349" d="M164 1190h254l28 133q-88 12 -157 51l12 60h520l-14 -60q-35 -16 -76 -28.5t-88 -22.5l-29 -133h226l-23 -98h-223l-72 -336l131 28l494 539q-41 10 -75 22.5t-62 28.5l12 60h463l-12 -60q-43 -18 -86.5 -30.5t-81.5 -20.5l-527 -551l85 -149l102 -171l110 -180 q57 -90 117 -172l88 -49l-10 -51h-250l-57 49q-92 141 -177.5 305t-162.5 332h-115l-123 -577q41 -8 78 -20.5t65 -29.5l-10 -59h-520l10 59q47 18 91 29.5t89 20.5l209 983h-254z" />
<glyph unicode="&#x49f;" horiz-adv-x="985" d="M150 1253h167l31 144l-143 18v51q59 27 144 48.5t157 25.5l43 -22l-55 -265h344l-27 -106h-338l-117 -586h60q43 27 89 66t88 80t74.5 78.5t51.5 64.5q2 14 3 38.5t0 50.5l-2 49q-1 24 -3 36q76 27 147 27q74 0 123 -27q-27 -68 -82 -135.5t-118.5 -125.5t-125 -106.5 t-98.5 -74.5q14 -39 46 -101.5t70 -130t80 -131t77 -104.5h129v-54q-41 -33 -89.5 -53t-101.5 -20q-49 0 -88 22.5t-74 81.5q-66 111 -110 210l-86 185l-74 21l-96 -508h-176l227 1147h-172z" />
<glyph unicode="&#x4a0;" horiz-adv-x="1558" d="M1231 1434h463l-13 -60q-43 -18 -85 -30.5t-80 -20.5l-529 -551l85 -150l102 -171l110 -179q57 -90 117 -172l88 -49l-12 -51h-246l-60 49q-92 141 -177 305t-163 332h-106l-123 -577q41 -8 78 -20.5t65 -29.5l-10 -59h-520l10 59q92 37 181 50l258 1218h-265l-166 -289 h-53q2 43 9.5 95.5t16.5 105.5l18 103l18 92h796l-14 -60q-35 -16 -76 -28.5t-88 -22.5l-121 -567l123 28l494 539q-41 10 -76 22.5t-61 28.5z" />
<glyph unicode="&#x4a1;" horiz-adv-x="1153" d="M381 936h-166l-139 -227h-51q6 78 16 157.5t27 157.5h505l-94 -463h62q43 27 91 66l94 80q46 41 83 78.5t55 64.5q2 14 3 38.5t0 50.5l-2 49q-1 24 -3 36q76 27 146 27q74 0 122 -27q-29 -63 -87 -130t-124.5 -127t-130.5 -110l-100 -75q14 -39 48 -102l74 -130l81 -131 l70 -104h129v-54q-41 -33 -89.5 -53t-101.5 -20q-49 0 -86 24.5t-72 83.5q-66 111 -112 208l-88 183l-74 21l-96 -508h-176z" />
</font>
</defs>
</svg>
