<?xml version="1.0" standalone="no"?>
<!DOCTYPE svg PUBLIC "-//W3C//DTD SVG 1.1//EN" "http://www.w3.org/Graphics/SVG/1.1/DTD/svg11.dtd" >
<svg xmlns="http://www.w3.org/2000/svg">
<metadata>
This is a custom SVG webfont generated by Font Squirrel.
Copyright   : Copyright c 2011 by OmnibusType wwwomnibustypecom with Reserved Font Name Asap
Designer    : Pablo Cosgaya
Foundry     : OmnibusType
Foundry URL : wwwomnibustypecom
</metadata>
<defs>
<font id="AsapItalic" horiz-adv-x="655" >
<font-face units-per-em="2048" ascent="1638" descent="-410" />
<missing-glyph horiz-adv-x="491" />
<glyph unicode=" "  horiz-adv-x="491" />
<glyph unicode="&#x09;" horiz-adv-x="491" />
<glyph unicode="&#xa0;" horiz-adv-x="491" />
<glyph unicode="!" horiz-adv-x="602" d="M133 41l14 135q4 45 86 45h35q78 0 78 -45l-14 -135q-6 -45 -86 -45h-35q-78 0 -78 45zM201 459l98 934q6 45 86 45h41q76 0 76 -45l-154 -934q-6 -45 -67 -45h-23q-57 0 -57 45z" />
<glyph unicode="&#x22;" horiz-adv-x="653" d="M123 991v402q0 45 86 45h20q76 0 76 -45l-4 -29l-84 -373q-6 -25 -49 -24q-45 -1 -45 24zM385 991v402q0 45 86 45h21q76 0 75 -45l-4 -29l-84 -373q-6 -25 -49 -24q-45 -1 -45 24z" />
<glyph unicode="#" horiz-adv-x="1093" d="M0 463q0 96 51 96h187l86 301h-168q-23 0 -29 13.5t-6 48.5q0 96 51 96h195l98 342q6 25 24.5 35t71.5 10h8q53 0 54 -31l-105 -356h244l96 342q6 25 24.5 35t71.5 10h11q53 0 53 -31l-100 -356h141q23 0 29 -14.5t6 -47.5q-1 -96 -52 -96h-172l-84 -301h156 q23 0 29 -14.5t6 -46.5q0 -96 -51 -97h-189l-100 -360q-8 -25 -26.5 -35t-67.5 -10h-8q-53 0 -54 35l105 370h-242l-102 -360q-6 -25 -25.5 -35t-69.5 -10h-8q-53 0 -53 35l104 370h-155q-23 0 -29 13.5t-6 48.5zM391 559h242l86 301h-242z" />
<glyph unicode="$" horiz-adv-x="1015" d="M70 115q0 133 32 133q2 0 41 -25.5t113 -51.5t160 -28l55 521q-68 29 -99.5 42t-87 46.5t-82 65.5t-48 85t-21.5 117q0 172 114.5 286.5t305.5 135.5l8 63q4 23 12.5 32t32.5 9q37 0 37 -41l-6 -59q100 -2 204.5 -38t104.5 -85q0 -20 -31.5 -65.5t-46.5 -45.5 q-10 0 -40.5 18.5t-85 38t-121.5 21.5l-52 -465q80 -31 127 -54t105.5 -67.5t87.5 -109t29 -148.5q0 -195 -120 -316.5t-317 -137.5l-8 -90q-2 -41 -45 -41q-23 0 -30 9t-7 32l8 86q-115 4 -222 34.5t-107 92.5zM317 1040q0 -66 44.5 -106.5t130.5 -77.5l45 428 q-98 -18 -159 -80t-61 -164zM498 150q102 18 167.5 91t65.5 177q0 76 -47 124t-135 89z" />
<glyph unicode="%" horiz-adv-x="1566" d="M160 1044q0 119 29.5 202t79.5 124t101.5 58.5t108.5 17.5q250 0 250 -270q0 -170 -79 -283t-240 -113q-250 0 -250 264zM260 12q0 13 8 23l899 1364q27 39 64 39h51q27 0 27 -19q0 -10 -9 -20l-899 -1364q-27 -39 -63 -39h-51q-27 0 -27 16zM295 1042q0 -149 125 -149 q96 0 137 85t41 200q0 158 -131 157q-172 0 -172 -293zM836 252q0 119 29.5 202t79.5 123.5t101.5 58t108.5 17.5q250 0 250 -270q0 -170 -79 -282.5t-241 -112.5q-250 0 -249 264zM971 250q0 -150 125 -150q96 0 137 85t41 200q0 158 -131 158q-172 0 -172 -293z" />
<glyph unicode="&#x26;" horiz-adv-x="1277" d="M66 358q0 172 92 288t209 147l2 8q-82 33 -132.5 101.5t-50.5 162.5q0 184 129 282.5t324 98.5q162 0 162 -55q0 -25 -19.5 -65t-36.5 -40q-2 0 -38.5 6t-79.5 6q-82 0 -140.5 -26.5t-84 -68.5t-36 -75.5t-10.5 -66.5q0 -88 62.5 -156.5t189.5 -68.5h240l24 215 q6 45 84 45h9q78 0 77 -45l-22 -215h174q33 0 33 -39q0 -10 -6.5 -33t-29 -49.5t-56.5 -26.5h-131q-43 -395 -43 -436q0 -117 98 -117q39 0 65 7l27 8q14 0 14 -19q0 -143 -149 -143q-141 0 -197 86q-152 -86 -338 -86q-104 0 -193 33.5t-155.5 120.5t-66.5 216zM246 377 q0 -129 81 -185.5t187 -56.5q141 0 272 76l45 477h-247q-338 0 -338 -311z" />
<glyph unicode="'" horiz-adv-x="374" d="M121 991v402q0 45 86 45h20q76 0 76 -45l-4 -29l-84 -373q-6 -25 -49 -24q-45 -1 -45 24z" />
<glyph unicode="(" horiz-adv-x="616" d="M102 401q0 362 135.5 680t356.5 502q20 20 45 21q18 0 36.5 -14.5t18.5 -33.5q0 -23 -22 -49q-184 -193 -294 -489.5t-110 -624.5q0 -449 207 -729q14 -16 14 -35q0 -16 -19 -39.5t-44 -23.5q-20 0 -43 22q-133 135 -207 347t-74 466z" />
<glyph unicode=")" horiz-adv-x="616" d="M-82 -381q1 15 19 33q199 207 304 514t105 610q0 442 -207 731q-14 16 -14 35q0 16 19.5 40t43.5 24q20 0 43 -23q133 -135 207 -347t74 -466q0 -362 -136 -679.5t-356 -502.5q-20 -20 -43 -20q-20 0 -39.5 16.5t-19.5 34.5z" />
<glyph unicode="*" horiz-adv-x="763" d="M78 1210q0 23 13 38.5t28 15.5q12 0 18 -2l197 -66l22 215q2 41 45 41q37 0 37 -41l-22 -215l209 66q6 2 18 2t22.5 -11.5t10.5 -31.5q0 -29 -33 -37l-209 -66l125 -203q8 -16 8 -22q0 -14 -17.5 -29.5t-31.5 -15.5q-18 0 -29 18l-127 207l-172 -207q-18 -18 -32.5 -18 t-24.5 10q-16 10 -16 26.5t12 30.5l168 203l-195 66q-25 8 -24 26z" />
<glyph unicode="+" horiz-adv-x="1146" d="M96 465q0 76 49 76h367l39 366q2 41 65 41h15q57 0 57 -41l-39 -366h365q23 0 29 -14.5t6 -47.5q0 -76 -50 -76h-364l-39 -366q-6 -41 -66 -41h-14q-57 0 -57 41l39 366h-367q-23 0 -29 14.5t-6 47.5z" />
<glyph unicode="," horiz-adv-x="405" d="M2 -209q0 10 16 37q90 139 111 328q6 65 88 65h19q76 0 75 -57q-16 -166 -103 -284t-149 -118q-57 0 -57 29z" />
<glyph unicode="-" d="M82 524q0 92 51 92h397q35 0 35 -55q0 -92 -51 -92h-397q-35 0 -35 55z" />
<glyph unicode="." horiz-adv-x="405" d="M96 41l15 135q4 45 86 45h34q78 0 78 -45l-14 -135q-6 -45 -86 -45h-35q-78 0 -78 45z" />
<glyph unicode="/" horiz-adv-x="757" d="M-113 -141q1 8 7 20l808 1518q25 41 60 41h49q29 0 29 -21q0 -8 -6 -20l-811 -1518q-23 -41 -60 -41h-47q-29 0 -29 21z" />
<glyph unicode="0" horiz-adv-x="1095" d="M70 551q0 225 49 403.5t130 281.5t175 156.5t197 53.5q176 0 288.5 -144.5t112.5 -427.5q0 -432 -168 -659t-387 -227q-174 0 -285.5 142t-111.5 421zM244 553q0 -215 67.5 -316.5t171.5 -101.5q61 0 122 40t117 122t91 230.5t35 342.5q0 219 -69.5 323.5t-174.5 104.5 q-137 0 -248.5 -184t-111.5 -561z" />
<glyph unicode="1" horiz-adv-x="1095" d="M16 55q0 92 52 92h356l117 1104l-369 -61q-33 0 -33 82q0 31 8.5 43t34.5 18l486 105q25 0 42 -12.5t17 -30.5l-131 -1248h305q35 0 35 -55q0 -92 -51 -92h-834q-35 0 -35 55z" />
<glyph unicode="2" horiz-adv-x="1095" d="M45 106q0 14 4 19l633 700q137 152 137 287q0 86 -62.5 136t-172.5 50q-82 0 -153 -26.5t-113 -52t-52 -25.5q-14 0 -34.5 37t-20.5 61q0 61 136 107.5t249 46.5q186 0 293.5 -84t107.5 -223q0 -109 -37.5 -195t-128.5 -186l-552 -611h589q35 0 35 -55q0 -92 -51 -92 h-766q-14 0 -27.5 38t-13.5 68z" />
<glyph unicode="3" horiz-adv-x="1095" d="M82 90q0 121 31 121q2 0 42 -19.5t113.5 -38t157.5 -18.5q55 0 107.5 15.5t103.5 50.5t83 103.5t32 162.5q0 121 -73 171t-208 50h-70q-35 0 -34 55q0 91 51 91h59q80 0 142.5 31.5t94 78.5t48 93t16.5 85q0 72 -50 124t-173 52q-82 0 -148.5 -16t-104.5 -33.5t-48 -17.5 q-16 0 -36.5 39t-20.5 65q0 43 134 77t244 34q174 0 275.5 -79t101.5 -232q0 -123 -67.5 -209t-173.5 -125l-2 -8q92 -25 156.5 -111t64.5 -215q0 -127 -49.5 -223.5t-127 -149.5t-160.5 -79.5t-167 -26.5q-49 0 -116.5 6t-147.5 30.5t-80 65.5z" />
<glyph unicode="4" horiz-adv-x="1095" d="M8 434q0 29 6 35l772 940q25 29 72 29h33q57 0 57 -45l-94 -904h139q35 0 35 -55q0 -92 -51 -92h-139l-31 -301q-6 -45 -66 -45h-47q-57 0 -57 45l31 301h-623q-14 0 -25.5 30.5t-11.5 61.5zM215 489h469l68 652l-9 4z" />
<glyph unicode="5" horiz-adv-x="1095" d="M86 90q0 121 31 121q2 0 41 -19.5t109.5 -38t148.5 -18.5q137 0 243.5 88t106.5 252q0 119 -87 180.5t-253 61.5h-174q-53 0 -53 45q0 2 8 51q35 213 90 559q8 61 74 62h547q35 0 34 -56q0 -92 -51 -92h-446l-72 -422h106q84 0 159 -18.5t143.5 -59.5t109.5 -115.5 t41 -176.5q0 -143 -50 -248t-134 -158t-172 -76.5t-185 -23.5q-47 0 -108.5 6t-134 30.5t-72.5 65.5z" />
<glyph unicode="6" horiz-adv-x="1095" d="M76 403q0 186 66.5 359.5t163.5 291t207 208t198 133.5t135 43q27 0 41 -36t14 -69q0 -18 -18 -26q-414 -164 -564 -545q123 68 283 67q154 0 252 -98t98 -262q0 -213 -142 -346t-347 -133q-193 0 -290 107t-97 306zM248 414q0 -276 241 -277q104 0 196.5 81t92.5 231 q0 119 -68.5 176t-172.5 57q-134 0 -265 -70q-25 -119 -24 -198z" />
<glyph unicode="7" horiz-adv-x="1095" d="M127 27q0 12 10 30l721 1229h-647q-35 0 -35 55q0 93 51 93h809q10 0 20.5 -31t10.5 -62q0 -18 -6 -34l-742 -1278q-20 -33 -83 -33h-25q-84 0 -84 31z" />
<glyph unicode="8" horiz-adv-x="1095" d="M68 350q0 150 68.5 263.5t201.5 164.5q-139 90 -139 266q0 190 123.5 296t304.5 106q158 0 258 -81t100 -228q0 -254 -233 -357q100 -47 154.5 -114.5t54.5 -192.5q0 -238 -142.5 -361.5t-349.5 -123.5q-180 0 -290.5 92t-110.5 270zM246 371q0 -113 67.5 -174.5 t171.5 -61.5q121 0 210 82t89 232q0 43 -15 77.5t-32.5 56t-56.5 44t-61.5 33t-76 30t-73.5 27.5q-223 -123 -223 -346zM371 1059q0 -49 17.5 -86t55 -62.5t71.5 -40t93 -34.5q205 115 205 284q0 90 -56.5 134t-146.5 44q-104 0 -171.5 -60t-67.5 -179z" />
<glyph unicode="9" horiz-adv-x="1095" d="M141 967q0 213 142.5 346t347.5 133q193 0 290 -107.5t97 -306.5q0 -186 -66.5 -359t-164 -291t-207 -208t-197.5 -133t-135 -43q-27 0 -41 36t-14 68q0 18 18 27q414 164 563 545q-123 -68 -282 -68q-154 0 -252.5 98.5t-98.5 262.5zM315 987q0 -119 69 -176t173 -57 q133 -1 264 69q25 119 25 199q0 276 -242 276q-104 0 -196.5 -80.5t-92.5 -230.5z" />
<glyph unicode=":" horiz-adv-x="405" d="M51 41l15 135q4 45 86 45h34q78 0 78 -45l-14 -135q-6 -45 -86 -45h-35q-78 0 -78 45zM141 895l15 135q4 45 86 45h34q78 0 78 -45l-14 -135q-6 -45 -86 -45h-35q-78 0 -78 45z" />
<glyph unicode=";" horiz-adv-x="405" d="M-33 -209q0 10 17 37q90 139 110 328q6 65 88 65h19q76 0 75 -57q-16 -166 -103 -284t-148 -118q-57 0 -58 29zM154 895l14 135q4 45 86 45h35q78 0 78 -45l-15 -135q-6 -45 -86 -45h-35q-77 0 -77 45z" />
<glyph unicode="&#x3c;" horiz-adv-x="1146" d="M82 440q0 88 61 115l879 356q18 6 33 7q37 0 37 -54q0 -80 -60 -100l-760 -297l697 -299q41 -18 41 -72q0 -82 -52 -82q-16 0 -28 6l-805 357q-43 20 -43 63z" />
<glyph unicode="=" horiz-adv-x="1146" d="M76 281q0 77 51 77h877q35 0 34 -49q0 -88 -51 -88h-876q-35 0 -35 60zM111 614q0 78 51 78h876q35 0 35 -49q0 -88 -51 -88h-877q-35 0 -34 59z" />
<glyph unicode="&#x3e;" horiz-adv-x="1146" d="M51 66q0 80 60 100l759 297l-696 299q-41 18 -41 72q0 82 51 81q16 0 29 -6l805 -356q43 -21 43 -64q0 -88 -62 -114l-878 -357q-18 -6 -33 -6q-37 0 -37 54z" />
<glyph unicode="?" horiz-adv-x="911" d="M162 1325q0 51 118.5 86t245.5 35q182 0 283.5 -87t101.5 -220q0 -84 -43 -162t-107.5 -140.5t-131 -120t-121.5 -126t-72 -135.5q-10 -41 -71 -41h-31q-57 0 -58 43q0 66 58.5 155.5t152.5 173.5q84 76 122 114t72 96.5t34 115.5q0 182 -238 182q-76 0 -168 -34.5 t-94 -34.5q-14 0 -33.5 37.5t-19.5 62.5zM213 41l14 135q4 45 86 45h35q78 0 78 -45l-14 -135q-6 -45 -88 -45h-35q-76 0 -76 45z" />
<glyph unicode="@" horiz-adv-x="1994" d="M172 485q0 403 266.5 681t655.5 278q309 0 495.5 -182.5t186.5 -483.5q0 -283 -121 -475t-309 -192q-92 0 -145.5 49t-57.5 121v14q-100 -184 -277 -184q-49 0 -96 17t-95 55t-77 116t-29 184q0 244 119 397.5t313 153.5q131 0 228 -96q4 12 11 31.5t10 27t9.5 16.5 t16.5 12t24 3h13q45 0 45 -43q-68 -631 -68 -680q0 -86 82 -86q115 0 204 169t89 390q0 260 -157.5 418t-413.5 158q-342 0 -576.5 -252t-234.5 -617q0 -291 153.5 -472t403.5 -181q82 0 153.5 16.5t112.5 34t47 17.5q8 0 8 -13q-2 -31 -6 -47q-12 -47 -106.5 -72.5 t-208.5 -25.5q-297 0 -482.5 206t-185.5 537zM719 494q0 -258 180 -258q70 0 141.5 67.5t122.5 220.5q27 274 39 314q-84 70 -188 69q-295 0 -295 -413z" />
<glyph unicode="A" horiz-adv-x="1255" d="M-47 29q0 10 10 30l625 1346q14 33 84 33h59q72 0 80 -33l344 -1348q2 -8 2 -20q0 -41 -90 -41h-16q-72 0 -80 33l-86 336h-602l-152 -336q-14 -33 -84 -33h-10q-84 0 -84 33zM356 520h490l-150 610l-14 119l-45 -119z" />
<glyph unicode="B" horiz-adv-x="1214" d="M104 49q0 8 138 1323q6 61 67 62h377q209 0 319.5 -86t110.5 -234q0 -115 -81 -220.5t-185 -133.5l-2 -8q10 -2 27.5 -8.5t62.5 -30t80 -54t62.5 -87t27.5 -123.5q0 -225 -158 -337t-428 -112h-362q-55 0 -56 49zM295 156h309q143 0 230.5 79.5t87.5 215.5q0 100 -77 154 t-222 54h-275zM365 815h247q135 0 225.5 80t90.5 195q0 188 -277 188h-239z" />
<glyph unicode="C" horiz-adv-x="1267" d="M78 561q0 184 38 336t122 279t235.5 198.5t360.5 71.5q143 0 258.5 -41t115.5 -84q0 -25 -31.5 -73t-50.5 -48q-4 0 -45 22.5t-116.5 45t-161.5 22.5q-190 0 -314 -95t-175.5 -247.5t-51.5 -361.5q0 -227 103.5 -335t318.5 -108q98 0 188.5 25t139.5 49.5t51 24.5 q14 0 14 -23q0 -47 -14 -113q-12 -55 -134 -86.5t-261 -31.5q-301 0 -445.5 140t-144.5 433z" />
<glyph unicode="D" horiz-adv-x="1423" d="M102 49q1 8 138 1323q6 61 67 62h441q260 0 414.5 -140.5t154.5 -443.5q0 -229 -59.5 -399t-164 -265.5t-227.5 -140.5t-268 -45h-440q-55 0 -56 49zM293 156h307q223 0 376.5 162.5t153.5 502.5q0 242 -111.5 349.5t-301.5 107.5h-307z" />
<glyph unicode="E" horiz-adv-x="1118" d="M92 49q0 8 137 1323q7 62 68 62h723q35 0 35 -45q0 -111 -51 -111h-605l-49 -467h541q35 0 35 -45q0 -111 -52 -111h-540l-51 -499h606q35 0 35 -45q0 -111 -52 -111h-725q-55 0 -55 49z" />
<glyph unicode="F" horiz-adv-x="1030" d="M100 41l140 1331q6 61 67 62h649q35 0 35 -45q0 -111 -51 -111h-530l-50 -467h514q35 0 35 -45q0 -111 -51 -111h-514l-63 -614q-6 -45 -86 -45h-17q-78 0 -78 45z" />
<glyph unicode="G" horiz-adv-x="1376" d="M106 563q0 442 199 662.5t551 220.5q143 0 260 -41t117 -84q0 -25 -32 -73t-50 -48q-4 0 -43 22.5t-113.5 45t-167.5 22.5q-264 0 -398 -183t-134 -517q0 -446 405 -447q164 0 267 27l45 414h-242q-35 0 -35 45q0 110 50 110h1h361q55 0 55 -49q0 -8 -57 -555 q-16 -147 -473 -147q-565 0 -566 575z" />
<glyph unicode="H" horiz-adv-x="1501" d="M127 41l141 1352q4 45 86 45h17q78 0 78 -45l-62 -580h741l62 580q4 45 86 45h16q78 0 78 -45l-141 -1352q-6 -45 -86 -45h-17q-78 0 -77 45l63 616h-741l-64 -616q-6 -45 -86 -45h-16q-78 0 -78 45z" />
<glyph unicode="I" horiz-adv-x="577" d="M127 41l141 1352q4 45 86 45h17q78 0 78 -45l-142 -1352q-6 -45 -86 -45h-16q-78 0 -78 45z" />
<glyph unicode="J" horiz-adv-x="823" d="M-23 53q0 121 31 121q2 0 44 -9t91 -9q141 0 212 61.5t85 194.5l105 981q4 45 86 45h16q78 0 78 -45l-102 -973q-45 -432 -465 -432q-180 0 -181 65z" />
<glyph unicode="K" horiz-adv-x="1179" d="M90 41l141 1352q4 45 86 45h17q78 0 78 -45l-66 -627h8l568 643q27 29 112 29h21q69 0 69 -24q0 -19 -24 -44l-570 -633l535 -680q14 -18 14 -32q-2 -29 -92 -29h-14q-88 0 -111 27l-516 659h-8l-68 -641q-6 -45 -86 -45h-16q-78 0 -78 45z" />
<glyph unicode="L" horiz-adv-x="991" d="M102 61l140 1332q4 45 86 45h16q78 0 78 -45l-129 -1237h596q35 0 35 -45q-1 -111 -52 -111h-714q-33 0 -44.5 14.5t-11.5 46.5z" />
<glyph unicode="M" horiz-adv-x="1726" d="M111 41l141 1352q4 45 86 45h74q68 0 84 -37l315 -672l41 -129l66 117l458 684q22 37 88 37h68q78 0 78 -45l-142 -1352q-6 -45 -86 -45h-14q-78 0 -78 45l115 1102l-485 -717q-18 -27 -50 -27h-82q-29 0 -40 27l-342 729l-117 -1114q-6 -45 -86 -45h-15q-78 0 -77 45z " />
<glyph unicode="N" horiz-adv-x="1472" d="M106 41l142 1352q4 45 86 45h43q59 0 82 -39l563 -987l49 -115l115 1096q4 45 86 45h14q78 0 78 -45l-141 -1352q-6 -45 -86 -45h-41q-53 0 -70 29l-582 1019l-43 105l-116 -1108q-6 -45 -86 -45h-15q-78 0 -78 45z" />
<glyph unicode="O" horiz-adv-x="1497" d="M109 578q0 135 22.5 255.5t74.5 234.5t132 197t205 132t280 49q276 0 421 -148.5t145 -437.5q0 -420 -192.5 -646t-526.5 -226q-274 0 -417.5 149.5t-143.5 440.5zM295 596q0 -223 99 -338t292 -115q236 0 375 181.5t139 515.5q0 223 -100.5 336.5t-292.5 113.5 q-238 0 -375 -178t-137 -516z" />
<glyph unicode="P" horiz-adv-x="1167" d="M102 41l140 1331q6 61 67 62h416q72 0 137.5 -13.5t133 -47.5t108.5 -105.5t41 -175.5q0 -121 -41 -214.5t-98.5 -142.5t-130 -78.5t-124 -38t-92.5 -8.5h-317l-59 -569q-6 -45 -86 -45h-17q-78 0 -78 45zM358 766h320q37 0 79 12.5t90 42t78.5 94t30.5 152.5 q0 117 -74.5 164t-179.5 47h-290z" />
<glyph unicode="Q" horiz-adv-x="1497" d="M314.5 1218.5q191.5 227.5 525.5 227.5q276 0 419.5 -150.5t143.5 -441.5q0 -346 -132 -565t-362 -279v-8l398 -129q25 -10 24 -41q0 -154 -43 -154q-16 0 -207.5 76t-409 165t-227.5 93q-321 125 -321 554q0 425 191.5 652.5zM311 594q0 -221 101.5 -339t289.5 -118 q233 0 372.5 181.5t139.5 508.5q0 225 -100 344t-291 119q-231 0 -371.5 -183t-140.5 -513z" />
<glyph unicode="R" horiz-adv-x="1249" d="M102 41l140 1331q6 61 67 62h344q227 0 343 -75t116 -237q0 -147 -73.5 -247.5t-200.5 -149.5v-8q53 -20 86.5 -81t68.5 -175l119 -404q4 -16 4 -22q0 -39 -90 -39h-20q-72 0 -80 33l-113 401q-33 117 -96.5 159t-188.5 42h-184l-61 -590q-6 -45 -86 -45h-17 q-78 0 -78 45zM360 786h271q121 0 206 87.5t85 201.5q0 102 -68 152.5t-186 50.5h-256z" />
<glyph unicode="S" horiz-adv-x="1024" d="M74 115q0 133 32 133q4 0 45.5 -25.5t118 -52.5t168.5 -27q125 0 211 77t86 198q0 84 -61.5 139t-149.5 89t-176 72t-149.5 113.5t-61.5 188.5q0 190 137.5 308t358.5 118q100 0 208.5 -36t108.5 -87q0 -20 -31.5 -65.5t-46.5 -45.5q-8 0 -40.5 19.5t-90 39t-129.5 19.5 q-123 0 -206.5 -64.5t-83.5 -185.5q0 -61 44 -105t111.5 -68.5t144 -59.5t144.5 -73t112 -112.5t44 -175.5q0 -211 -138.5 -334.5t-361.5 -123.5q-106 0 -227 31.5t-121 95.5z" />
<glyph unicode="T" horiz-adv-x="1124" d="M98 1323q0 111 52 111h966q35 0 35 -45q0 -111 -51 -111h-389l-129 -1237q-6 -45 -86 -45h-17q-78 0 -78 45l129 1237h-397q-35 0 -35 45z" />
<glyph unicode="U" horiz-adv-x="1458" d="M131 395q0 21 102 998q4 45 89 45h16q76 0 76 -45q-100 -950 -101 -971q0 -127 90.5 -203t258.5 -76q164 0 280.5 87t130.5 223l98 940q4 45 89 45h16q76 0 76 -45l-99 -934q-23 -223 -181.5 -347t-426.5 -124q-250 0 -382 106.5t-132 300.5z" />
<glyph unicode="V" horiz-adv-x="1263" d="M113 1395q0 43 92 43h18q72 0 80 -33l264 -1094l11 -106l38 108l494 1092q14 33 84 33h12q86 0 86 -33q0 -10 -10 -31l-610 -1345q-14 -33 -84 -33h-64q-72 0 -80 33q-332 1362 -331 1366z" />
<glyph unicode="W" horiz-adv-x="1806" d="M100 1397q0 41 93 41h18q74 0 80 -33l155 -1008q16 -111 17 -190l424 1196q10 35 82 35h32q72 0 78 -35l148 -1008l14 -188l424 1198q10 33 84 33h12q86 0 86 -33q0 -8 -506 -1376q-10 -33 -84 -33h-83q-74 0 -80 33l-136 833l-14 266l-72 -266l-309 -833 q-14 -33 -84 -33h-84q-74 0 -80 33z" />
<glyph unicode="X" horiz-adv-x="1251" d="M-35 29q0 14 21 39l528 680l-344 618q-12 18 -12 33q0 39 96 39h29q68 0 86 -31l276 -494l389 496q20 29 90 29h13q92 0 92 -33q0 -10 -21 -39l-473 -608l387 -690q12 -25 13 -33q0 -39 -97 -39h-32q-68 0 -86 31l-318 563l-440 -565q-20 -29 -90 -29h-17q-90 0 -90 33z " />
<glyph unicode="Y" horiz-adv-x="1144" d="M109 1399q0 39 96 39h22q68 0 86 -31l283 -504l397 506q20 29 94 29q92 0 93 -33q-1 -10 -21 -39l-497 -637l-72 -688q-6 -45 -86 -45h-17q-78 0 -77 45l71 694l-360 631q-12 18 -12 33z" />
<glyph unicode="Z" horiz-adv-x="1261" d="M12 98q0 25 11 35l958 1145h-739q-35 0 -35 45q0 111 51 111h940q10 0 22.5 -34t12.5 -65q0 -25 -10 -35l-959 -1144h803q35 0 35 -45q0 -111 -51 -111h-1000q-14 0 -26.5 34t-12.5 64z" />
<glyph unicode="[" horiz-adv-x="595" d="M92 -221l182 1732q6 61 68 62h248q37 0 37 -41q0 -86 -49 -86h-160l-168 -1602h158q37 0 36 -41q0 -86 -49 -86h-248q-33 0 -44 14.5t-11 47.5z" />
<glyph unicode="\" horiz-adv-x="739" d="M72 1413q0 27 32 27h52q41 0 53 -43l457 -1399q2 -6 2 -16q0 -27 -31 -27h-51q-42 0 -54 43l-456 1399q-4 12 -4 16z" />
<glyph unicode="]" horiz-adv-x="595" d="M-35 -242q0 86 49 86h160l168 1602h-158q-37 0 -37 41q0 86 50 86h247q33 0 44.5 -14.5t11.5 -47.5l-183 -1732q-6 -61 -67 -62h-248q-37 0 -37 41z" />
<glyph unicode="^" horiz-adv-x="921" d="M74 690q0 19 8 37l324 633q23 41 73 41h41q49 0 66 -41l188 -633q4 -10 4 -29q-6 -43 -61 -43h-8q-51 0 -66 47l-162 535l-274 -535q-27 -47 -76 -47h-8q-49 0 -49 35z" />
<glyph unicode="_" horiz-adv-x="1093" d="M-43 -242q0 57 47 58h1096q37 0 37 -41q0 -58 -47 -58h-1096q-37 0 -37 41z" />
<glyph unicode="`" d="M143 1516q2 25 98.5 24.5t127.5 -53.5q119 -203 118 -230q0 -18 -47 -18q-74 0 -104 37q-180 205 -188 222q-4 9 -5 18z" />
<glyph unicode="a" horiz-adv-x="1116" d="M82 430q0 289 137 471t365 182q143 0 260 -110q12 39 20 55t26.5 31.5t45.5 15.5h12q51 0 51 -43q-81 -758 -81 -813q0 -31 6 -49t19 -24.5t22.5 -8.5t25.5 -2q14 0 32.5 5t23.5 5q12 0 12 -14q0 -31 -8 -76q-6 -35 -46 -51t-77 -16q-184 0 -185 200v21 q-117 -221 -319 -221q-55 0 -110.5 20.5t-109.5 66.5t-88 137t-34 218zM260 442q0 -305 203 -305q82 0 166 81t141 265l27 269q4 37 16 102q-100 80 -213 80q-340 0 -340 -492z" />
<glyph unicode="b" horiz-adv-x="1165" d="M78 41l153 1454q6 45 86 45h9q78 0 77 -45l-65 -625q121 213 326 213q63 0 123.5 -19.5t122 -63.5t99.5 -135t38 -218q0 -289 -149.5 -474t-393.5 -185q-158 0 -273 110q-29 -102 -86 -102h-16q-51 0 -51 45zM264 217q94 -80 223 -80q109 0 188 42t119 116t57 157t17 183 q0 299 -243 299q-84 0 -170 -79t-146 -261l-28 -275q-6 -45 -17 -102z" />
<glyph unicode="c" horiz-adv-x="993" d="M96 418q0 186 51.5 330.5t176.5 239.5t313 95q129 0 208 -34.5t79 -71.5q0 -23 -28 -63t-52 -40q-2 0 -25.5 15.5t-77 31t-125.5 15.5q-156 0 -249 -122t-93 -384q0 -154 67 -224.5t212 -70.5q74 0 137.5 16.5t98 32t38.5 15.5q13 0 13 -25q0 -41 -11 -92 q-10 -53 -107 -73.5t-183 -20.5q-221 0 -332 102.5t-111 327.5z" />
<glyph unicode="d" horiz-adv-x="1157" d="M84 430q0 289 141.5 471t372.5 182q168 0 279 -92l55 504q6 45 86 45h8q78 0 78 -45q-131 -1214 -131 -1276q0 -31 6 -49t19.5 -24.5t22.5 -8.5t26 -2q14 0 32.5 5t22.5 5q12 0 12 -14q0 -31 -8 -76q-6 -35 -46 -51t-77 -16q-184 0 -184 200v21q-119 -221 -330 -221 q-63 0 -124.5 20.5t-123 66.5t-99.5 137t-38 218zM264 442q0 -168 61.5 -236.5t182.5 -68.5q84 0 170 80t145 262l39 377q-96 78 -239 78q-102 0 -175 -41t-111 -113.5t-55.5 -155.5t-17.5 -182z" />
<glyph unicode="e" horiz-adv-x="1103" d="M94 412q0 297 139.5 484t423.5 187q174 0 259 -87t85 -185q0 -102 -46 -178t-126.5 -117t-175 -60.5t-204.5 -19.5q-100 0 -177 15v-21q0 -162 77 -228.5t222 -66.5q82 0 154 24.5t114 50.5t50 26q14 0 14 -25q0 -39 -10 -92q-12 -63 -127 -97t-209 -34q-463 0 -463 424z M283 584h145q35 0 65.5 1t97 12t113 31.5t83 63.5t36.5 102.5t-50 100.5t-134 41q-307 0 -356 -352z" />
<glyph unicode="f" horiz-adv-x="665" d="M123 979q0 92 51 92h82l20 207q27 270 293 270q145 0 146 -63q0 -20 -18.5 -59.5t-34.5 -39.5q-2 0 -12.5 3.5t-32 7.5t-48.5 4q-53 0 -83.5 -29t-39.5 -115l-18 -186h178q33 0 33 -39q0 -10 -6 -32.5t-28.5 -49t-57.5 -26.5h-135l-93 -883q-6 -45 -86 -45h-8 q-78 0 -78 45l93 883h-82q-35 0 -35 55z" />
<glyph unicode="g" horiz-adv-x="1118" d="M84 -289q0 113 29 113q4 0 42 -27.5t112.5 -55.5t168.5 -28q150 0 229.5 119t102.5 389q-119 -221 -330 -221q-57 0 -113.5 19.5t-112.5 64.5t-91 134t-35 212q0 289 140.5 471t371.5 182q150 0 270 -110q12 39 20.5 55t27 31.5t45.5 15.5h12q51 0 51 -43l-88 -829 q-37 -356 -154.5 -496.5t-345.5 -140.5q-147 0 -249.5 47t-102.5 98zM264 442q0 -292 212 -292h1q84 0 171 81.5t147 268.5l26 252q4 37 17 102q-106 80 -224 80q-350 0 -350 -492z" />
<glyph unicode="h" horiz-adv-x="1157" d="M111 39l153 1456q6 45 86 45h8q78 0 78 -45l-65 -610q146 198 356 198h2q270 0 270 -266q0 -16 -29.5 -295.5t-29.5 -302.5q0 -31 6 -49t19.5 -24.5t22.5 -8.5t26 -2q14 0 32.5 5t22.5 5q12 0 12 -14q0 -31 -8 -76q-6 -35 -46 -51t-77 -16q-184 0 -184 200 q0 37 28.5 304.5t28.5 283.5q0 158 -155 158q-84 0 -174.5 -75t-151.5 -251l-59 -567q-6 -45 -86 -45h-9q-77 0 -77 43z" />
<glyph unicode="i" horiz-adv-x="542" d="M129 182q0 39 20.5 250t41 404.5t22.5 193.5q6 45 86 45h8q78 0 78 -45q-82 -750 -82 -811q0 -39 12.5 -58.5t24.5 -22.5t35 -3q14 0 32.5 5t22.5 5q12 0 12 -14q0 -31 -8 -76q-6 -35 -46 -51t-77 -16q-182 0 -182 194zM242 1374l12 121q6 45 86 45h25q78 0 77 -45 l-12 -121q0 -45 -78 -45h-24q-86 0 -86 45z" />
<glyph unicode="j" horiz-adv-x="565" d="M-137 -350q0 98 22 98q2 0 37 -17.5t78 -17.5q53 0 84 33t39 119l123 1165q6 45 86 45h8q78 0 78 -45l-125 -1182q-16 -160 -93 -221t-177 -61q-70 0 -115 23.5t-45 60.5zM274 1374l13 121q6 45 86 45h24q78 0 78 -45l-12 -121q0 -45 -78 -45h-25q-86 0 -86 45z" />
<glyph unicode="k" horiz-adv-x="1067" d="M111 41l153 1454q4 45 86 45h8q78 0 78 -45l-96 -915h8l459 467q26 28 105 28h6h8q69 0 69 -23q0 -19 -24 -44l-447 -451l412 -500q14 -20 14 -28q0 -20 -20.5 -26.5t-71.5 -6.5h-8q-88 0 -109 27l-401 485h-8l-49 -467q-6 -45 -86 -45h-9q-78 0 -77 45z" />
<glyph unicode="l" horiz-adv-x="608" d="M156 188q0 41 32.5 366t66.5 633l34 308q6 45 86 45h8q78 0 78 -45q-131 -1215 -131 -1276q0 -31 6 -49t19.5 -24.5t22.5 -8.5t25 -2q14 0 33 5t23 5q12 0 12 -14q0 -31 -8 -76q-6 -35 -46 -51t-77 -16q-184 0 -184 200z" />
<glyph unicode="m" horiz-adv-x="1736" d="M76 39q90 801 90 897q0 29 -1 48.5t-1 21.5q0 47 115 47q53 0 53 -154q0 -14 -2 -25q133 209 344 209q244 0 268 -221q133 221 350 221q270 0 271 -266q0 -16 -30 -295.5t-30 -302.5q0 -31 6.5 -49t19.5 -24.5t22.5 -8.5t25.5 -2q14 0 32.5 5t22.5 5q12 0 13 -14 q0 -31 -9 -76q-6 -35 -46 -51t-77 -16q-184 0 -184 200q0 37 28.5 304.5t28.5 283.5q0 158 -155 158q-78 0 -161 -71.5t-144 -237.5l-62 -584q-4 -45 -86 -45h-8q-78 0 -78 43q76 705 76 737q0 158 -156 158q-78 0 -159.5 -69.5t-143.5 -235.5q-8 -86 -61 -588 q-6 -45 -86 -45h-8q-78 0 -78 43z" />
<glyph unicode="n" horiz-adv-x="1140" d="M76 39q90 801 90 897q0 29 -1 48.5t-1 21.5q0 47 115 47q53 0 53 -154q0 -10 -2 -22q151 206 362 206h2q270 0 271 -266q0 -16 -30 -295.5t-30 -302.5q0 -31 6.5 -49t19.5 -24.5t22.5 -8.5t25.5 -2q14 0 32.5 5t22.5 5q12 0 13 -14q0 -31 -9 -76q-6 -35 -46 -51t-77 -16 q-184 0 -184 200q0 37 28.5 304.5t28.5 283.5q0 158 -155 158q-84 0 -175 -76t-151 -254l-59 -563q-6 -45 -86 -45h-8q-78 0 -78 43z" />
<glyph unicode="o" horiz-adv-x="1165" d="M92 428q0 131 31 245.5t94.5 208t170 147.5t245.5 54q201 0 306 -113.5t105 -330.5q0 -313 -140 -482t-388 -169q-209 0 -316.5 112.5t-107.5 327.5zM268 434q0 -299 258 -299q164 0 252 128t88 372q0 154 -62.5 227.5t-193.5 73.5q-166 0 -254 -133t-88 -369z" />
<glyph unicode="p" horiz-adv-x="1173" d="M45 -383q133 1221 133 1319q0 29 -1 48.5t-1 21.5q0 47 115 47q53 0 53 -154q0 -14 -2 -27q119 211 332 211q63 0 123.5 -19.5t122 -64.5t99.5 -135t38 -213q0 -293 -140.5 -478t-373.5 -185q-158 0 -277 108l-49 -477q-6 -45 -86 -45h-8q-78 0 -78 43zM281 227 q104 -92 237 -92q360 0 361 504q0 295 -244 295q-84 0 -171 -80t-147 -260q-14 -123 -36 -367z" />
<glyph unicode="q" horiz-adv-x="1159" d="M92 430q0 289 148.5 471t394.5 182q158 0 272 -110q29 102 86 102h17q51 0 51 -45l-148 -1411q-6 -45 -86 -45h-8q-78 0 -78 45l60 582q-121 -213 -326 -213q-63 0 -123.5 20.5t-122 66.5t-99.5 137t-38 218zM270 442q0 -305 244 -305q84 0 170 79t145 261l29 275 q6 47 16 102q-94 80 -223 80q-381 0 -381 -492z" />
<glyph unicode="r" horiz-adv-x="749" d="M127 39q90 799 90 897q0 29 -1 48.5t-1 21.5q0 47 115 47q53 0 53 -154q0 -8 -2 -20q49 96 121.5 150t150.5 54q102 0 103 -77q0 -37 -20.5 -76t-39.5 -39q-4 0 -26.5 11t-53.5 11q-70 0 -140 -73.5t-120 -249.5l-57 -549q-6 -45 -86 -45h-8q-78 0 -78 43z" />
<glyph unicode="s" horiz-adv-x="845" d="M55 104q0 111 33 111q6 0 37 -19.5t87 -40t122 -20.5q96 0 157.5 48t61.5 132q0 70 -46 114t-110.5 66.5t-130 48t-111.5 83t-46 149.5q0 137 105 222t267 85q88 0 171 -24.5t83 -73.5q0 -20 -25.5 -59t-47.5 -39q-2 0 -27 12t-66 24.5t-86 12.5q-92 0 -143 -37t-51 -100 q0 -53 45 -88t109.5 -57.5t130 -52.5t110.5 -93.5t45 -157.5q0 -162 -105.5 -262t-281.5 -100q-82 0 -184.5 30.5t-102.5 85.5z" />
<glyph unicode="t" horiz-adv-x="700" d="M109 979q0 92 51 92h102l25 215q6 45 84 45h8q78 0 78 -45l-23 -215h174q33 0 33 -39q0 -10 -6 -32.5t-28.5 -49t-57.5 -26.5h-131q-70 -631 -70 -672q0 -117 98 -117q37 0 64 7.5t29 7.5q14 0 14 -19q0 -33 -10 -76q-16 -67 -136 -67h-4q-229 0 -229 225l72 711h-103 q-35 0 -34 55z" />
<glyph unicode="u" horiz-adv-x="1140" d="M117 254l78 776q6 45 86 45h8q78 0 78 -45q-74 -707 -74 -735q0 -158 156 -158q86 0 177 80t150 268l58 545q6 45 86 45h8q78 0 78 -45q-80 -750 -80 -811q0 -31 6 -49t19.5 -24.5t22.5 -8.5t25 -2q14 0 33 5t23 5q12 0 12 -14q0 -31 -8 -76q-6 -35 -46 -51t-77 -16 q-184 0 -184 200v21q-147 -221 -365 -221q-270 0 -270 266z" />
<glyph unicode="v" horiz-adv-x="993" d="M82 1040q4 35 92 35h16q72 0 80 -33l187 -829l362 829q14 33 86 33q84 0 84 -31q0 -14 -8 -32l-434 -983q-14 -33 -84 -33h-72q-72 0 -80 33q-229 999 -229 1011z" />
<glyph unicode="w" horiz-adv-x="1529" d="M104 1040q4 35 93 35h18q74 0 80 -33l129 -817l297 815q14 35 84 35h22q70 0 76 -35l131 -815l299 817q10 33 88 33q86 0 86 -31q0 -14 -8 -32l-379 -983q-14 -33 -84 -33h-67q-72 0 -78 33l-109 745l-272 -745q-10 -33 -84 -33h-68q-74 0 -79 33q-174 1004 -175 1011z " />
<glyph unicode="x" horiz-adv-x="993" d="M-14 27q0 14 18 41l383 481l-258 455q-14 20 -14 36q6 35 98 35h23q68 0 86 -31l196 -339l273 342q19 28 85 28h5h8q90 0 90 -31q0 -16 -18 -40l-359 -451l281 -485q14 -20 14 -37q-6 -35 -98 -35h-23q-68 0 -86 31l-215 374l-301 -376q-23 -29 -90 -29h-8q-90 0 -90 31z " />
<glyph unicode="y" horiz-adv-x="985" d="M84 1040q0 35 92 35h17q70 0 77 -33l201 -739l350 739q16 33 88 33q84 0 84 -33q0 -1 -8 -30l-674 -1395q-20 -43 -100 -43h-31q-63 0 -63 31q0 10 229 452q-262 971 -262 983z" />
<glyph unicode="z" horiz-adv-x="1001" d="M29 94q0 23 10 33l682 797h-524q-35 0 -35 55q0 92 51 92h719q12 0 21.5 -32.5t9.5 -65.5q0 -20 -9 -29l-680 -797h564q35 0 34 -55q0 -92 -51 -92h-758q-10 0 -22 31.5t-12 62.5z" />
<glyph unicode="{" horiz-adv-x="561" d="M39 621l2 38q2 47 59 70q66 29 92.5 89.5t38.5 174.5l37 342q14 131 67.5 184.5t117.5 53.5h102q37 0 37 -41q0 -86 -49 -86h-45q-41 0 -59.5 -31t-24.5 -94l-37 -360q-20 -201 -195 -318q20 -10 47 -35.5t54.5 -87t27.5 -139.5q0 -41 -21.5 -222.5t-21.5 -236.5 q0 -78 60 -78h45q37 0 37 -41q0 -86 -50 -86h-102q-51 0 -94 43t-43 146q0 49 22.5 254t22.5 231q0 133 -84 170q-43 18 -43 60z" />
<glyph unicode="|" horiz-adv-x="512" d="M197 -242v1774q0 45 49 45h20q49 0 49 -45v-1774q0 -45 -49 -45h-20q-49 0 -49 45z" />
<glyph unicode="}" horiz-adv-x="561" d="M-35 -242q0 86 49 86h45q41 0 59.5 31t24.5 94l37 361q20 201 195 317q-20 10 -47 36t-54.5 87t-27.5 139q0 41 21.5 222.5t21.5 236.5q0 78 -60 78h-45q-37 0 -37 41q0 86 50 86h102q51 0 94 -43t43 -146q0 -49 -22.5 -253.5t-22.5 -231.5q0 -133 84 -170q43 -18 43 -59 l-2 -39q-2 -47 -59 -70q-66 -29 -92.5 -89t-38.5 -175l-37 -342q-14 -131 -67.5 -184.5t-117.5 -53.5h-102q-37 0 -37 41z" />
<glyph unicode="~" horiz-adv-x="1120" d="M162 539q0 35 82 70.5t178 35.5q82 0 192.5 -26.5t157.5 -26.5q31 0 74 11t53 11q23 0 41 -18t18 -47q0 -37 -81.5 -73t-178.5 -36q-84 0 -193.5 27t-156.5 27q-31 0 -74 -11.5t-53 -11.5q-31 0 -49 33q-10 20 -10 35z" />
<glyph unicode="&#xa1;" horiz-adv-x="602" d="M96 -322l154 934q6 45 67 45h23q57 0 57 -45l-98 -934q-6 -45 -86 -45h-41q-76 0 -76 45zM252 895l14 135q4 45 86 45h35q78 0 78 -45l-14 -135q-6 -45 -86 -45h-35q-78 0 -78 45z" />
<glyph unicode="&#xa2;" horiz-adv-x="995" d="M104 418q0 180 48.5 321.5t165 237.5t292.5 104l6 62q2 41 46 41q37 0 36 -41l-6 -62q109 -6 174.5 -38.5t65.5 -65.5q0 -23 -27.5 -63t-52.5 -40q-4 0 -22.5 12.5t-59.5 27t-94 18.5l-86 -797q66 2 122 18.5t86.5 31t37.5 14.5q12 0 12 -25q0 -41 -10 -92 q-16 -82 -263 -94l-10 -92q-6 -41 -45 -41q-23 0 -30 9t-7 32l11 94q-195 10 -292.5 113.5t-97.5 314.5zM283 430q0 -139 54 -211t171 -82l86 797q-141 -12 -226 -134t-85 -370z" />
<glyph unicode="&#xa3;" horiz-adv-x="1005" d="M-4 37q0 16 4 57q2 29 31.5 49.5t64.5 33.5t67 51t38 98l39 368h-115q-35 0 -35 56q0 92 51 92h115l18 178q43 426 465 426q199 0 199 -66q0 -14 -17.5 -57t-37.5 -43q-2 0 -45 9t-82 9q-145 0 -220 -64.5t-90 -203.5l-18 -188h299q33 0 33 -39q0 -10 -6 -32.5 t-28.5 -49.5t-57.5 -27h-256l-19 -184q-12 -129 -45 -213t-55.5 -106.5t-54.5 -43.5h573q23 0 29 -14t6 -47q0 -86 -51 -86h-766q-33 0 -33 37z" />
<glyph unicode="&#xa4;" horiz-adv-x="1093" d="M141 348.5q0 20.5 27 46.5l53 49q-47 76 -47 170q0 152 94 260l-45 48q-18 23 -18 41t18.5 38.5t42.5 20.5q29 0 43 -21l45 -49q104 72 221 72t207 -70l54 50q25 20 43 20t36.5 -17.5t18.5 -35.5q0 -25 -27 -49l-55 -50q53 -84 53 -178q0 -141 -98 -250l45 -49 q18 -22 18 -43q-4 -18 -24.5 -38.5t-40.5 -20.5q-25 0 -41 22l-45 50q-102 -68 -219 -68q-121 0 -207 68l-55 -52q-23 -20 -45.5 -20t-37 17.5t-14.5 38zM299 633q0 -90 60.5 -150.5t152.5 -60.5q104 0 185 78t81 182q0 92 -61.5 154.5t-153.5 62.5q-106 0 -185 -80 t-79 -186z" />
<glyph unicode="&#xa5;" horiz-adv-x="1144" d="M68 444q0 86 47 86h346l18 197h-344q-33 0 -33 51q1 86 48 86h258l-287 502q-12 18 -12 33q0 39 96 39h22q68 0 86 -31l283 -504l397 506q20 29 94 29q92 0 93 -33q0 -10 -21 -39l-393 -502h260q33 0 33 -51q0 -86 -47 -86h-350l-21 -197h350q33 0 33 -51q0 -86 -47 -86 h-350l-37 -352q-6 -45 -86 -45h-17q-78 0 -77 45l36 352h-346q-33 0 -32 51z" />
<glyph unicode="&#xa6;" horiz-adv-x="512" d="M102 -242l70 660q4 45 53 45h21q45 0 45 -45l-70 -660q-6 -45 -53 -45h-21q-45 0 -45 45zM219 870l70 662q4 45 53 45h20q45 0 46 -45l-70 -662q-6 -45 -53 -45h-21q-45 0 -45 45z" />
<glyph unicode="&#xa7;" horiz-adv-x="878" d="M100 692q0 170 138 279q-61 57 -62 153q0 160 109.5 241t251.5 81q88 0 169.5 -24.5t81.5 -73.5q0 -20 -25.5 -59.5t-47.5 -39.5q-2 0 -26.5 12.5t-65.5 24.5t-86 12q-88 0 -134.5 -37.5t-46.5 -97.5q0 -51 43 -80.5t104.5 -48t124 -44t105.5 -86t43 -154.5 q0 -180 -139 -285q63 -59 63 -150q0 -164 -108.5 -245.5t-249.5 -81.5q-86 0 -163 24.5t-77 71.5q0 111 33 111q6 0 35 -15.5t76 -30t94 -14.5q86 0 134 38t48 95q0 51 -43 83t-105.5 50.5t-125 45t-105.5 88t-43 157.5zM274 715q0 -74 48.5 -107.5t146.5 -62.5q55 12 93 56 t38 122q0 70 -48 104.5t-144 63.5q-133 -37 -134 -176z" />
<glyph unicode="&#xa8;" d="M90 1288l10 105q6 45 86 45h9q78 0 77 -45l-10 -105q-6 -45 -86 -45h-8q-78 0 -78 45zM385 1288l10 105q4 45 86 45h8q78 0 78 -45l-10 -105q-6 -45 -86 -45h-8q-78 0 -78 45z" />
<glyph unicode="&#xa9;" horiz-adv-x="1513" d="M20 721q0 305 214.5 517t521.5 212t522 -212t215 -517t-216 -520t-521 -215t-520.5 215t-215.5 520zM119 721q0 -262 187.5 -449.5t449.5 -187.5q264 0 451.5 187.5t187.5 449.5q0 264 -187.5 447.5t-451.5 183.5t-450.5 -183.5t-186.5 -447.5zM395 711q0 436 398 436 q88 0 160.5 -24.5t72.5 -51.5q0 -16 -15.5 -44t-27.5 -28q-2 0 -25.5 14.5t-67.5 28t-95 13.5q-147 0 -218 -83t-71 -261q0 -176 69.5 -259t212.5 -83q55 0 104.5 15t76 30.5t30.5 15.5q12 0 27.5 -26.5t15.5 -38.5q0 -27 -77 -58t-177 -31q-201 0 -297 106.5t-96 328.5z " />
<glyph unicode="&#xaa;" horiz-adv-x="653" d="M78 1124q0 141 68.5 231.5t183.5 90.5q76 0 135 -55q14 51 45 51h8q23 0 23 -21q-41 -374 -41 -401q0 -18 6 -28.5t12 -11.5t19 -1q6 0 15 2t11 2q6 0 6 -6q0 -16 -4 -39q-6 -33 -59 -33q-92 0 -92 99v10q-57 -109 -162 -109q-66 0 -120 50.5t-54 168.5zM166 1130 q0 -152 104 -151q41 0 85 40t71 130l14 133q4 37 9 51q-55 39 -111 39q-172 0 -172 -242z" />
<glyph unicode="&#xab;" horiz-adv-x="964" d="M90 522q0 31 31 64l301 319q25 25 47 25q18 0 42 -19.5t24 -42.5q0 -12 -21 -45l-258 -295l195 -297q12 -18 12 -32q0 -18 -25.5 -46t-52.5 -28q-23 0 -43 27l-231 319q-20 29 -21 51zM442 522q0 31 31 64l301 319q25 25 47 25q18 0 42 -19.5t24 -42.5q0 -12 -21 -45 l-258 -295l195 -297q12 -18 12 -32q0 -18 -25.5 -46t-52.5 -28q-23 0 -43 27l-231 319q-20 29 -21 51z" />
<glyph unicode="&#xac;" horiz-adv-x="1146" d="M94 584q0 12 4 47q6 61 47 61h889q33 0 44.5 -14t11.5 -47l-46 -428q-6 -45 -65 -45h-27q-57 0 -57 45l37 340h-801q-37 0 -37 41z" />
<glyph unicode="&#xad;" d="M82 524q0 92 51 92h397q35 0 35 -55q0 -92 -51 -92h-397q-35 0 -35 55z" />
<glyph unicode="&#xae;" horiz-adv-x="1513" d="M20 723q0 305 214.5 517t521.5 212t522 -212t215 -517t-216 -520t-521 -215t-520.5 215t-215.5 520zM119 723q0 -262 187.5 -449.5t449.5 -187.5q264 0 451.5 187.5t187.5 449.5q0 264 -187.5 447.5t-451.5 183.5t-450.5 -183.5t-186.5 -447.5zM510 322v784q0 37 37 37 h203q291 0 290 -213q0 -147 -139 -203v-8q35 -12 57.5 -46t51.5 -104l94 -237q4 -16 4 -19q0 -18 -51 -18h-13q-39 0 -47 18l-92 238q-27 70 -66.5 94.5t-113.5 24.5h-109v-348q0 -27 -49 -27h-8q-49 0 -49 27zM616 762h160q63 0 108.5 44t45.5 103q0 141 -162 142h-152 v-289z" />
<glyph unicode="&#xaf;" d="M47 1309q0 90 51 90h463q35 0 35 -53q0 -92 -51 -93h-463q-35 0 -35 56z" />
<glyph unicode="&#xb0;" horiz-adv-x="706" d="M74 1147q0 127 86 213t215 86q104 0 175 -70.5t71 -173.5q0 -127 -88.5 -213t-213.5 -86q-109 0 -177 70t-68 174zM174 1153q0 -66 44 -112t110 -46q78 0 134 56.5t56 140.5q0 68 -42.5 115t-108.5 47q-80 0 -136.5 -60.5t-56.5 -140.5z" />
<glyph unicode="&#xb1;" horiz-adv-x="1146" d="M18 61l5 27q10 61 67 62h868q55 0 56 -62l-4 -27q-10 -61 -68 -61h-868q-31 0 -43.5 14t-12.5 47zM111 731l2 14q6 61 67 62h346l37 346q6 61 68 61h14q55 0 55 -61l-36 -346h344q55 0 55 -62l-2 -14q-6 -61 -68 -61h-344l-37 -344q-6 -61 -67 -62h-15q-55 1 -55 62 l37 344h-346q-55 0 -55 61z" />
<glyph unicode="&#xb2;" d="M39 674q0 8 2 10l365 403q80 88 79 166q0 49 -35.5 78t-99.5 29q-47 0 -89 -14.5t-65.5 -30t-29.5 -15.5q-8 0 -19.5 21.5t-11.5 36.5q0 35 78 61.5t143 26.5q106 0 169 -48t63 -128q0 -117 -96 -221l-318 -351h340q20 0 21 -32q0 -53 -31 -54h-441q-8 0 -16 22.5 t-8 39.5z" />
<glyph unicode="&#xb3;" d="M84 666q0 70 18 69l24 -11q24 -11 67 -22.5t90 -11.5q72 0 130 45t58 148q0 127 -162 127h-41q-20 0 -20 30q0 54 31 54h32q88 0 131 55t43 111q0 102 -129 102q-47 0 -86 -9.5t-60.5 -19.5t-27.5 -10q-8 0 -20 22.5t-12 36.5q0 25 77.5 44.5t141.5 19.5q100 0 158.5 -46 t58.5 -132q0 -72 -39 -122t-101 -71l-2 -6q53 -14 91 -62.5t38 -123.5q0 -139 -91 -208t-199 -69q-18 0 -46 2t-65 7.5t-62.5 18.5t-25.5 32z" />
<glyph unicode="&#xb4;" d="M137 1257q0 25 142 230q37 53 133 53t96 -24q0 -18 -134 -155q-50 -52 -83 -85q-37 -37 -109 -37q-45 0 -45 18z" />
<glyph unicode="&#xb5;" horiz-adv-x="1159" d="M100 -383l146 1413q6 45 86 45h8q78 0 78 -45q-74 -707 -74 -735q0 -158 156 -158q86 0 177 80t150 268l58 545q6 45 86 45h8q78 0 78 -45q-80 -750 -80 -811q0 -31 6 -49t19.5 -24.5t22.5 -8.5t26 -2q14 0 32.5 5t22.5 5q12 0 12 -14q0 -31 -8 -76q-6 -35 -46 -51 t-77 -16q-184 0 -184 200v21q-147 -221 -365 -221q-61 0 -125 18l-41 -387q-6 -45 -86 -45h-8q-78 0 -78 43z" />
<glyph unicode="&#xb6;" horiz-adv-x="1054" d="M125 922q0 233 151.5 372.5t364.5 139.5h436q23 0 30 -9.5t7 -31.5l-4 -45q-2 -41 -45 -41h-74l-170 -1616q-6 -45 -45 -45h-45q-37 0 -37 45l170 1616h-159l-170 -1616q-6 -45 -46 -45h-45q-36 0 -36 45l86 815q-162 18 -265.5 135t-103.5 281z" />
<glyph unicode="&#xb7;" horiz-adv-x="546" d="M182 725q0 51 33 85t84 34q41 0 67.5 -26.5t26.5 -67.5q0 -53 -33.5 -85t-83.5 -32q-41 0 -67.5 25.5t-26.5 66.5z" />
<glyph unicode="&#xb8;" d="M104 -346q0 68 25 67l21 -12q20 -12 58 -25.5t81 -13.5q123 0 123 82q0 27 -19.5 42.5t-42 20.5t-42 16t-19.5 28q0 2 8 26l47 115h88l-41 -100h8q31 0 62 -6.5t64.5 -38t33.5 -82.5q0 -203 -256 -203q-25 0 -53.5 3t-63 11t-58.5 25.5t-24 44.5z" />
<glyph unicode="&#xb9;" horiz-adv-x="444" d="M111 1343q0 31 24 35l223 60q35 0 35 -25l-82 -780q-4 -25 -47 -25h-8q-43 0 -43 25l74 698l-158 -35q-18 0 -18 47z" />
<glyph unicode="&#xba;" horiz-adv-x="690" d="M109 1120q0 98 25.5 166t68.5 100.5t84 46t88 13.5q203 0 203 -217q-1 -326 -259 -326q-211 0 -210 217zM197 1124q0 -80 31 -113.5t94 -33.5q168 0 167 248q0 147 -124 147q-168 0 -168 -248z" />
<glyph unicode="&#xbb;" horiz-adv-x="964" d="M74 190q0 12 20 41l260 297l-196 295q-12 18 -13 35q0 27 28 49.5t50 22.5q25 0 43 -25l232 -319q23 -31 22 -58q-2 -24 -33 -57l-301 -319q-27 -27 -47 -27q-23 0 -44 22.5t-21 42.5zM426 190q0 12 20 41l261 297l-197 295q-12 18 -12 35q0 27 27.5 49.5t49.5 22.5 q25 0 43 -25l232 -319q23 -31 22 -58q-1 -24 -32 -57l-301 -319q-27 -27 -47 -27q-23 0 -44.5 22.5t-21.5 42.5z" />
<glyph unicode="&#xbc;" horiz-adv-x="1374" d="M109 8q0 11 10 21l977 1378q23 33 65 33h27q27 0 26 -13q0 -6 -10 -20l-977 -1378q-23 -33 -65 -33h-27q-27 0 -26 12zM147 1343q0 31 25 35l223 60q35 0 35 -25l-82 -780q-4 -25 -47 -25h-8q-43 0 -43 25l74 698l-158 -35q-18 0 -19 47zM647 229q0 12 4 21l449 561 q12 16 41 16h18q33 0 33 -26l-57 -539h79q20 0 21 -33q0 -51 -31 -51h-78l-16 -155q-4 -27 -37 -27h-26q-35 0 -35 27l16 155h-358q-8 0 -15.5 16.5t-7.5 34.5zM766 262h270l43 393l-6 2z" />
<glyph unicode="&#xbd;" horiz-adv-x="1527" d="M109 8q0 11 10 21l977 1378q23 33 65 33h27q27 0 26 -13q0 -6 -10 -20l-977 -1378q-23 -33 -65 -33h-27q-27 0 -26 12zM147 1343q0 31 25 35l223 60q35 0 35 -25l-82 -780q-4 -25 -47 -25h-8q-43 0 -43 25l74 698l-158 -35q-18 0 -19 47zM846 61q0 8 2 11l364 403 q80 88 80 166q0 49 -35.5 78t-99.5 29q-47 0 -89 -15.5t-65.5 -30t-29.5 -14.5q-8 0 -19.5 21.5t-11.5 35.5q0 35 78 62t143 27q106 0 169 -48.5t63 -128.5q0 -117 -97 -221l-317 -350h340q20 0 20 -33q0 -53 -30 -53h-441q-8 0 -16 22.5t-8 38.5z" />
<glyph unicode="&#xbe;" horiz-adv-x="1511" d="M109 666q0 70 18 69l24 -11q24 -11 66.5 -22.5t89.5 -11.5q72 0 130.5 45t58.5 148q0 127 -162 127h-41q-20 0 -21 30q0 54 31 54h33q88 0 131 55t43 111q0 102 -129 102q-47 0 -86 -9.5t-60.5 -19.5t-27.5 -10q-8 0 -20.5 22.5t-12.5 36.5q0 25 78 44.5t141 19.5 q100 0 158.5 -46t58.5 -132q0 -72 -39 -122t-100 -71l-2 -6q53 -14 91 -62.5t38 -123.5q0 -139 -91 -208t-200 -69q-18 0 -46 2t-64.5 7.5t-62 18.5t-25.5 32zM244 8q0 11 10 21l977 1378q23 33 65 33h27q27 0 27 -13q0 -6 -11 -20l-977 -1378q-23 -33 -65 -33h-27 q-27 0 -26 12zM786 229q0 12 5 21l448 561q12 16 41 16h18q33 0 33 -26l-57 -539h80q20 0 20 -33q0 -51 -31 -51h-77l-17 -155q-4 -27 -37 -27h-26q-35 0 -35 27l16 155h-358q-8 0 -15.5 16.5t-7.5 34.5zM905 262h271l43 393l-7 2z" />
<glyph unicode="&#xbf;" horiz-adv-x="870" d="M66 -68q0 84 43 162t107.5 139.5t130 120t120.5 127t72 135.5q10 41 71 41h31q57 0 57 -43q0 -66 -58 -155.5t-153 -173.5q-84 -76 -121.5 -114t-71.5 -97.5t-34 -116.5q0 -180 238 -180q61 0 121.5 17.5t95.5 34.5t37 17q10 0 12 -4t2 -20q0 -45 -10 -101 q-10 -53 -112.5 -74.5t-194.5 -21.5q-182 0 -282.5 87t-100.5 220zM559 895l14 135q4 45 89 45h34q76 0 76 -45l-14 -135q-4 -45 -86 -45h-35q-78 0 -78 45z" />
<glyph unicode="&#xc0;" horiz-adv-x="1255" d="M-47 29q0 10 10 30l625 1346q14 33 84 33h59q72 0 80 -33l344 -1348q2 -8 2 -20q0 -41 -90 -41h-16q-72 0 -80 33l-86 336h-602l-152 -336q-14 -33 -84 -33h-10q-84 0 -84 33zM356 520h490l-150 610l-14 119l-45 -119zM522 1884q2 25 98.5 25t127.5 -54 q119 -203 118 -229q0 -18 -47 -18q-74 0 -104 37q-180 205 -189 222q-4 9 -4 17z" />
<glyph unicode="&#xc1;" horiz-adv-x="1255" d="M-47 29q0 10 10 30l625 1346q14 33 84 33h59q72 0 80 -33l344 -1348q2 -8 2 -20q0 -41 -90 -41h-16q-72 0 -80 33l-86 336h-602l-152 -336q-14 -33 -84 -33h-10q-84 0 -84 33zM356 520h490l-150 610l-14 119l-45 -119zM602 1626q0 25 141 229q37 53 133.5 53.5 t96.5 -24.5q0 -18 -134 -155q-50 -52 -83 -84q-37 -37 -109 -37q-45 0 -45 18z" />
<glyph unicode="&#xc2;" horiz-adv-x="1255" d="M-47 29q0 10 10 30l625 1346q14 33 84 33h59q72 0 80 -33l344 -1348q2 -8 2 -20q0 -41 -90 -41h-16q-72 0 -80 33l-86 336h-602l-152 -336q-14 -33 -84 -33h-10q-84 0 -84 33zM356 520h490l-150 610l-14 119l-45 -119zM471 1589q0 18 14 41l136 180q33 45 98 45h51 q66 0 90 -45l96 -180q10 -16 11 -35q-4 -31 -58 -30q-39 0 -65 26l-113 152l-141 -152q-33 -27 -76 -26.5t-43 24.5z" />
<glyph unicode="&#xc3;" horiz-adv-x="1255" d="M-47 29q0 10 10 30l625 1346q14 33 84 33h59q72 0 80 -33l344 -1348q2 -8 2 -20q0 -41 -90 -41h-16q-72 0 -80 33l-86 336h-602l-152 -336q-14 -33 -84 -33h-10q-84 0 -84 33zM356 520h490l-150 610l-14 119l-45 -119zM406 1704q0 39 69.5 77t149.5 38q59 0 142 -20.5 t120 -20.5q29 0 60.5 13t49.5 13q20 0 40 -22.5t20 -38.5q0 -37 -64.5 -76t-142.5 -39q-68 0 -155 20.5t-120 20.5q-29 0 -60.5 -13.5t-49.5 -13.5q-23 0 -41 22t-18 40z" />
<glyph unicode="&#xc4;" horiz-adv-x="1255" d="M-47 29q0 10 10 30l625 1346q14 33 84 33h59q72 0 80 -33l344 -1348q2 -8 2 -20q0 -41 -90 -41h-16q-72 0 -80 33l-86 336h-602l-152 -336q-14 -33 -84 -33h-10q-84 0 -84 33zM356 520h490l-150 610l-14 119l-45 -119zM492 1657l10 104q6 45 86 45h8q78 0 78 -45 l-10 -104q-6 -45 -86 -45h-9q-77 0 -77 45zM786 1657l11 104q4 45 86 45h8q78 0 78 -45l-11 -104q-6 -45 -86 -45h-8q-78 0 -78 45z" />
<glyph unicode="&#xc5;" horiz-adv-x="1255" d="M-47 29q0 10 10 30l625 1346q14 33 84 33h59q72 0 80 -33l344 -1348q2 -8 2 -20q0 -41 -90 -41h-16q-72 0 -80 33l-86 336h-602l-152 -336q-14 -33 -84 -33h-10q-84 0 -84 33zM356 520h490l-150 610l-14 119l-45 -119zM557 1679q0 78 57.5 134.5t133.5 56.5 q68 0 111.5 -45t43.5 -111q0 -78 -56 -134t-134 -56q-68 0 -112 44t-44 111zM629 1688q0 -41 24.5 -67t65.5 -26q47 0 79.5 33t32.5 80q0 39 -25.5 64.5t-64.5 25.5q-45 0 -78.5 -32.5t-33.5 -77.5z" />
<glyph unicode="&#xc6;" horiz-adv-x="1873" d="M-96 27q0 14 12 36l795 1315q33 55 92 56h921q35 0 35 -45q0 -111 -51 -111h-750l54 -467h583q35 0 35 -45q0 -111 -51 -111h-551l57 -499h508q35 0 35 -45q0 -111 -51 -111h-598q-61 0 -68 59l-32 306h-605l-198 -336q-20 -33 -84 -33h-10q-78 0 -78 31zM369 518h489 l-61 612v119l-60 -119z" />
<glyph unicode="&#xc7;" horiz-adv-x="1267" d="M78 561q0 184 38 336t122 279t235.5 198.5t360.5 71.5q143 0 258.5 -41t115.5 -84q0 -25 -31.5 -73t-50.5 -48q-4 0 -45 22.5t-116.5 45t-161.5 22.5q-190 0 -314 -95t-175.5 -247.5t-51.5 -361.5q0 -227 103.5 -335t318.5 -108q98 0 188.5 25t139.5 49.5t51 24.5 q14 0 14 -23q0 -47 -14 -113q-10 -47 -103.5 -77.5t-211.5 -36.5l-37 -92h8q31 0 61.5 -6.5t64.5 -38t34 -82.5q0 -203 -256 -203q-25 0 -53.5 3t-63.5 11t-58.5 25.5t-23.5 44.5q0 68 25 67l20 -12q20 -12 58 -25.5t81 -13.5q123 0 123 82q0 27 -19.5 42.5t-42 20.5t-42 16 t-19.5 28q0 2 8 26l41 103q-295 4 -437 143t-142 430z" />
<glyph unicode="&#xc8;" horiz-adv-x="1118" d="M92 49q0 8 137 1323q7 62 68 62h723q35 0 35 -45q0 -111 -51 -111h-605l-49 -467h541q35 0 35 -45q0 -111 -52 -111h-540l-51 -499h606q35 0 35 -45q0 -111 -52 -111h-725q-55 0 -55 49zM477 1884q2 25 98.5 25t126.5 -54q119 -203 119 -229q0 -18 -47 -18q-74 0 -104 37 q-180 205 -189 222q-4 9 -4 17z" />
<glyph unicode="&#xc9;" horiz-adv-x="1118" d="M92 49q0 8 137 1323q7 62 68 62h723q35 0 35 -45q0 -111 -51 -111h-605l-49 -467h541q35 0 35 -45q0 -111 -52 -111h-540l-51 -499h606q35 0 35 -45q0 -111 -52 -111h-725q-55 0 -55 49zM557 1626q0 25 141 229q37 53 133.5 53.5t96.5 -24.5q0 -18 -134 -155 q-50 -52 -83 -84q-37 -37 -109 -37q-45 0 -45 18z" />
<glyph unicode="&#xca;" horiz-adv-x="1118" d="M92 49q0 8 137 1323q7 62 68 62h723q35 0 35 -45q0 -111 -51 -111h-605l-49 -467h541q35 0 35 -45q0 -111 -52 -111h-540l-51 -499h606q35 0 35 -45q0 -111 -52 -111h-725q-55 0 -55 49zM426 1589q0 18 14 41l135 180q33 45 99 45h51q66 0 90 -45l96 -180q10 -16 11 -35 q-4 -31 -58 -30q-39 0 -65 26l-113 152l-141 -152q-33 -27 -76 -26.5t-43 24.5z" />
<glyph unicode="&#xcb;" horiz-adv-x="1118" d="M92 49q0 8 137 1323q7 62 68 62h723q35 0 35 -45q0 -111 -51 -111h-605l-49 -467h541q35 0 35 -45q0 -111 -52 -111h-540l-51 -499h606q35 0 35 -45q0 -111 -52 -111h-725q-55 0 -55 49zM446 1657l11 104q6 45 86 45h8q78 0 78 -45l-11 -104q-6 -45 -86 -45h-8 q-78 0 -78 45zM741 1657l11 104q4 45 86 45h8q78 0 78 -45l-11 -104q-6 -45 -86 -45h-8q-78 0 -78 45z" />
<glyph unicode="&#xcc;" horiz-adv-x="577" d="M127 41l141 1352q4 45 86 45h17q78 0 78 -45l-142 -1352q-6 -45 -86 -45h-16q-78 0 -78 45zM182 1884q2 25 98.5 25t127.5 -54q119 -203 118 -229q0 -18 -47 -18q-74 0 -104 37q-180 205 -188 222q-4 9 -5 17z" />
<glyph unicode="&#xcd;" horiz-adv-x="577" d="M127 41l141 1352q4 45 86 45h17q78 0 78 -45l-142 -1352q-6 -45 -86 -45h-16q-78 0 -78 45zM262 1626q0 25 141 229q37 53 133.5 53.5t96.5 -24.5q0 -18 -134 -155q-50 -52 -83 -84q-37 -37 -109 -37q-45 0 -45 18z" />
<glyph unicode="&#xce;" horiz-adv-x="577" d="M127 41l141 1352q4 45 86 45h17q78 0 78 -45l-142 -1352q-6 -45 -86 -45h-16q-78 0 -78 45zM131 1589q0 18 14 41l136 180q33 45 98 45h51q66 0 90 -45l96 -180q10 -16 11 -35q-4 -31 -58 -30q-39 0 -65 26l-113 152l-141 -152q-33 -27 -76 -26.5t-43 24.5z" />
<glyph unicode="&#xcf;" horiz-adv-x="577" d="M127 41l141 1352q4 45 86 45h17q78 0 78 -45l-142 -1352q-6 -45 -86 -45h-16q-78 0 -78 45zM152 1657l10 104q6 45 86 45h8q78 0 78 -45l-10 -104q-6 -45 -86 -45h-9q-77 0 -77 45zM446 1657l11 104q4 45 86 45h8q78 0 78 -45l-11 -104q-6 -45 -86 -45h-8q-78 0 -78 45z " />
<glyph unicode="&#xd0;" horiz-adv-x="1425" d="M-2 700q0 111 51 111h133l60 561q6 61 67 62h441q260 0 414.5 -140.5t154.5 -443.5q0 -229 -59.5 -399t-164 -265.5t-227.5 -140.5t-268 -45h-440q-55 0 -56 49l62 606h-133q-35 0 -35 45zM295 156h307q223 0 377 162.5t154 502.5q0 242 -112 349.5t-302 107.5h-307 l-50 -467h228q35 0 35 -45q0 -111 -52 -111h-227z" />
<glyph unicode="&#xd1;" horiz-adv-x="1472" d="M106 41l142 1352q4 45 86 45h43q59 0 82 -39l563 -987l49 -115l115 1096q4 45 86 45h14q78 0 78 -45l-141 -1352q-6 -45 -86 -45h-41q-53 0 -70 29l-582 1019l-43 105l-116 -1108q-6 -45 -86 -45h-15q-78 0 -78 45zM522 1704q0 39 70 77t149 38q59 0 142.5 -20.5 t120.5 -20.5q29 0 60.5 13t49.5 13q20 0 40 -22.5t20 -38.5q0 -37 -64.5 -76t-142.5 -39q-68 0 -155 20.5t-120 20.5q-29 0 -60.5 -13.5t-49.5 -13.5q-23 0 -41.5 22t-18.5 40z" />
<glyph unicode="&#xd2;" horiz-adv-x="1497" d="M109 578q0 135 22.5 255.5t74.5 234.5t132 197t205 132t280 49q276 0 421 -148.5t145 -437.5q0 -420 -192.5 -646t-526.5 -226q-274 0 -417.5 149.5t-143.5 440.5zM295 596q0 -223 99 -338t292 -115q236 0 375 181.5t139 515.5q0 223 -100.5 336.5t-292.5 113.5 q-238 0 -375 -178t-137 -516zM651 1884q2 25 98.5 25t127.5 -54q119 -203 118 -229q0 -18 -47 -18q-74 0 -104 37q-180 205 -188 222q-4 9 -5 17z" />
<glyph unicode="&#xd3;" horiz-adv-x="1497" d="M109 578q0 135 22.5 255.5t74.5 234.5t132 197t205 132t280 49q276 0 421 -148.5t145 -437.5q0 -420 -192.5 -646t-526.5 -226q-274 0 -417.5 149.5t-143.5 440.5zM295 596q0 -223 99 -338t292 -115q236 0 375 181.5t139 515.5q0 223 -100.5 336.5t-292.5 113.5 q-238 0 -375 -178t-137 -516zM731 1626q0 25 141 229q37 53 133.5 53.5t96.5 -24.5q0 -18 -134 -155q-50 -52 -83 -84q-37 -37 -109 -37q-45 0 -45 18z" />
<glyph unicode="&#xd4;" horiz-adv-x="1497" d="M109 578q0 135 22.5 255.5t74.5 234.5t132 197t205 132t280 49q276 0 421 -148.5t145 -437.5q0 -420 -192.5 -646t-526.5 -226q-274 0 -417.5 149.5t-143.5 440.5zM295 596q0 -223 99 -338t292 -115q236 0 375 181.5t139 515.5q0 223 -100.5 336.5t-292.5 113.5 q-238 0 -375 -178t-137 -516zM600 1589q0 18 14 41l136 180q33 45 98 45h51q66 0 90 -45l96 -180q10 -16 11 -35q-4 -31 -58 -30q-39 0 -65 26l-113 152l-141 -152q-33 -27 -76 -26.5t-43 24.5z" />
<glyph unicode="&#xd5;" horiz-adv-x="1497" d="M109 578q0 135 22.5 255.5t74.5 234.5t132 197t205 132t280 49q276 0 421 -148.5t145 -437.5q0 -420 -192.5 -646t-526.5 -226q-274 0 -417.5 149.5t-143.5 440.5zM295 596q0 -223 99 -338t292 -115q236 0 375 181.5t139 515.5q0 223 -100.5 336.5t-292.5 113.5 q-238 0 -375 -178t-137 -516zM535 1704q0 39 69.5 77t149.5 38q59 0 142 -20.5t120 -20.5q29 0 60.5 13t49.5 13q20 0 40 -22.5t20 -38.5q0 -37 -64.5 -76t-142.5 -39q-68 0 -155 20.5t-119 20.5q-29 0 -61 -13.5t-50 -13.5q-23 0 -41 22t-18 40z" />
<glyph unicode="&#xd6;" horiz-adv-x="1497" d="M109 578q0 135 22.5 255.5t74.5 234.5t132 197t205 132t280 49q276 0 421 -148.5t145 -437.5q0 -420 -192.5 -646t-526.5 -226q-274 0 -417.5 149.5t-143.5 440.5zM295 596q0 -223 99 -338t292 -115q236 0 375 181.5t139 515.5q0 223 -100.5 336.5t-292.5 113.5 q-238 0 -375 -178t-137 -516zM621 1657l10 104q6 45 86 45h8q78 0 78 -45l-10 -104q-6 -45 -86 -45h-9q-77 0 -77 45zM915 1657l11 104q4 45 86 45h8q78 0 78 -45l-11 -104q-6 -45 -86 -45h-8q-78 0 -78 45z" />
<glyph unicode="&#xd7;" horiz-adv-x="1146" d="M70 86q0 13 20 29l387 352l-313 350q-14 14 -14 29q0 12 20 28l43 41q14 14 28.5 14.5t28.5 -14.5l314 -352l387 352q14 14 28.5 14.5t28.5 -14.5l35 -41q10 -12 10 -28q0 -12 -16 -29l-387 -350l313 -352q10 -12 10 -29q0 -12 -16 -29l-45 -41q-16 -16 -28.5 -16 t-29.5 16l-311 355l-389 -355q-16 -16 -28.5 -16t-28.5 16l-33 41q-14 14 -14 29z" />
<glyph unicode="&#xd8;" horiz-adv-x="1497" d="M-2 42.5q0 12.5 16 29.5l166 166q-71 137 -71 340q0 135 22.5 255.5t74.5 234.5t132 197t205 132t280 49q279 0 420 -148l127 125q14 14 28.5 14.5t26.5 -12.5q14 -14 15 -26q0 -14 -15 -29l-133 -133q96 -143 97 -377q0 -420 -192.5 -646t-526.5 -226q-307 0 -449 184 l-153 -154q-16 -16 -28.5 -16t-25.5 12q-16 16 -16 28.5zM295 596q0 -125 31 -213l784 780q-102 127 -303 127q-238 0 -375 -178t-137 -516zM358 307q97 -164 328 -164q236 0 375 181.5t139 515.5q0 156 -49 258z" />
<glyph unicode="&#xd9;" horiz-adv-x="1458" d="M131 395q0 21 102 998q4 45 89 45h16q76 0 76 -45q-100 -950 -101 -971q0 -127 90.5 -203t258.5 -76q164 0 280.5 87t130.5 223l98 940q4 45 89 45h16q76 0 76 -45l-99 -934q-23 -223 -181.5 -347t-426.5 -124q-250 0 -382 106.5t-132 300.5zM627 1884q2 25 98 25 t127 -54q119 -203 119 -229q0 -18 -47 -18q-74 0 -105 37q-180 205 -188 222q-4 9 -4 17z" />
<glyph unicode="&#xda;" horiz-adv-x="1458" d="M131 395q0 21 102 998q4 45 89 45h16q76 0 76 -45q-100 -950 -101 -971q0 -127 90.5 -203t258.5 -76q164 0 280.5 87t130.5 223l98 940q4 45 89 45h16q76 0 76 -45l-99 -934q-23 -223 -181.5 -347t-426.5 -124q-250 0 -382 106.5t-132 300.5zM707 1626q0 25 141 229 q37 53 133 53.5t96 -24.5q0 -18 -134 -155q-50 -52 -83 -84q-36 -37 -108 -37q-45 0 -45 18z" />
<glyph unicode="&#xdb;" horiz-adv-x="1458" d="M131 395q0 21 102 998q4 45 89 45h16q76 0 76 -45q-100 -950 -101 -971q0 -127 90.5 -203t258.5 -76q164 0 280.5 87t130.5 223l98 940q4 45 89 45h16q76 0 76 -45l-99 -934q-23 -223 -181.5 -347t-426.5 -124q-250 0 -382 106.5t-132 300.5zM575 1589q1 18 15 41 l135 180q33 45 98 45h51q66 0 91 -45l96 -180q10 -16 10 -35q-4 -31 -57 -30q-39 0 -66 26l-112 152l-142 -152q-33 -27 -76 -26.5t-43 24.5z" />
<glyph unicode="&#xdc;" horiz-adv-x="1458" d="M131 395q0 21 102 998q4 45 89 45h16q76 0 76 -45q-100 -950 -101 -971q0 -127 90.5 -203t258.5 -76q164 0 280.5 87t130.5 223l98 940q4 45 89 45h16q76 0 76 -45l-99 -934q-23 -223 -181.5 -347t-426.5 -124q-250 0 -382 106.5t-132 300.5zM596 1657l10 104q6 45 86 45 h8q78 0 78 -45l-10 -104q-6 -45 -86 -45h-8q-78 0 -78 45zM891 1657l10 104q4 45 86 45h8q78 0 78 -45l-10 -104q-6 -45 -86 -45h-8q-78 0 -78 45z" />
<glyph unicode="&#xdd;" horiz-adv-x="1144" d="M109 1399q0 39 96 39h22q68 0 86 -31l283 -504l397 506q20 29 94 29q92 0 93 -33q-1 -10 -21 -39l-497 -637l-72 -688q-6 -45 -86 -45h-17q-78 0 -77 45l71 694l-360 631q-12 18 -12 33zM555 1626q0 25 141 229q37 53 133.5 53.5t96.5 -24.5q0 -18 -134 -155 q-50 -52 -83 -84q-37 -37 -109 -37q-45 0 -45 18z" />
<glyph unicode="&#xde;" horiz-adv-x="1161" d="M102 41l142 1352q6 45 86 45h16q78 0 78 -45l-23 -209h297q72 0 137.5 -13.5t133 -47t108.5 -105.5t41 -176q0 -123 -38 -215t-92 -141.5t-125.5 -79t-125 -38t-104.5 -8.5h-318l-32 -319q-6 -45 -86 -45h-17q-78 0 -78 45zM332 516h319q37 0 79 12.5t90 42t79 94 t31 152.5q0 117 -75 164t-179 47h-291z" />
<glyph unicode="&#xdf;" horiz-adv-x="1134" d="M111 41l108 1026q16 168 139 273.5t306 105.5q371 0 370 -297q0 -106 -65.5 -210.5t-177.5 -150.5q111 -25 171 -110.5t60 -206.5q0 -219 -142 -345t-345 -126h-70q-35 0 -35 55q0 92 51 92h72q119 0 204 85t85 229q0 109 -65.5 172t-166.5 63h-71q-35 0 -35 56 q0 92 51 92h25q106 0 188 81t82 191q0 182 -207 182q-104 0 -173 -62t-79 -169l-108 -1026q-6 -45 -86 -45h-9q-78 0 -77 45z" />
<glyph unicode="&#xe0;" horiz-adv-x="1116" d="M82 430q0 289 137 471t365 182q143 0 260 -110q12 39 20 55t26.5 31.5t45.5 15.5h12q51 0 51 -43q-81 -758 -81 -813q0 -31 6 -49t19 -24.5t22.5 -8.5t25.5 -2q14 0 32.5 5t23.5 5q12 0 12 -14q0 -31 -8 -76q-6 -35 -46 -51t-77 -16q-184 0 -185 200v21 q-117 -221 -319 -221q-55 0 -110.5 20.5t-109.5 66.5t-88 137t-34 218zM260 442q0 -305 203 -305q82 0 166 81t141 265l27 269q4 37 16 102q-100 80 -213 80q-340 0 -340 -492zM403 1516q2 25 98.5 24.5t127.5 -53.5q119 -203 119 -230q-1 -18 -48 -18q-74 0 -104 37 q-180 205 -188 222q-4 9 -5 18z" />
<glyph unicode="&#xe1;" horiz-adv-x="1116" d="M82 430q0 289 137 471t365 182q143 0 260 -110q12 39 20 55t26.5 31.5t45.5 15.5h12q51 0 51 -43q-81 -758 -81 -813q0 -31 6 -49t19 -24.5t22.5 -8.5t25.5 -2q14 0 32.5 5t23.5 5q12 0 12 -14q0 -31 -8 -76q-6 -35 -46 -51t-77 -16q-184 0 -185 200v21 q-117 -221 -319 -221q-55 0 -110.5 20.5t-109.5 66.5t-88 137t-34 218zM260 442q0 -305 203 -305q82 0 166 81t141 265l27 269q4 37 16 102q-100 80 -213 80q-340 0 -340 -492zM483 1257q0 25 142 230q37 53 133 53t96 -24q0 -18 -134 -155q-50 -52 -83 -85 q-37 -37 -109 -37q-45 0 -45 18z" />
<glyph unicode="&#xe2;" horiz-adv-x="1116" d="M82 430q0 289 137 471t365 182q143 0 260 -110q12 39 20 55t26.5 31.5t45.5 15.5h12q51 0 51 -43q-81 -758 -81 -813q0 -31 6 -49t19 -24.5t22.5 -8.5t25.5 -2q14 0 32.5 5t23.5 5q12 0 12 -14q0 -31 -8 -76q-6 -35 -46 -51t-77 -16q-184 0 -185 200v21 q-117 -221 -319 -221q-55 0 -110.5 20.5t-109.5 66.5t-88 137t-34 218zM260 442q0 -305 203 -305q82 0 166 81t141 265l27 269q4 37 16 102q-100 80 -213 80q-340 0 -340 -492zM352 1221q1 18 15 41l135 180q33 45 98 45h51q66 0 90 -45l97 -180q10 -16 10 -35 q-4 -31 -57 -31q-39 0 -66 27l-113 151l-141 -151q-33 -27 -76 -27t-43 25z" />
<glyph unicode="&#xe3;" horiz-adv-x="1116" d="M82 430q0 289 137 471t365 182q143 0 260 -110q12 39 20 55t26.5 31.5t45.5 15.5h12q51 0 51 -43q-81 -758 -81 -813q0 -31 6 -49t19 -24.5t22.5 -8.5t25.5 -2q14 0 32.5 5t23.5 5q12 0 12 -14q0 -31 -8 -76q-6 -35 -46 -51t-77 -16q-184 0 -185 200v21 q-117 -221 -319 -221q-55 0 -110.5 20.5t-109.5 66.5t-88 137t-34 218zM260 442q0 -305 203 -305q82 0 166 81t141 265l27 269q4 37 16 102q-100 80 -213 80q-340 0 -340 -492zM287 1335q0 39 69.5 77t149.5 38q59 0 142 -20.5t120 -20.5q29 0 60.5 13.5t50.5 13.5 q20 0 39.5 -22.5t19.5 -39.5q0 -37 -64.5 -75.5t-142.5 -38.5q-68 0 -155 20t-119 20q-29 0 -60.5 -13t-50.5 -13q-23 0 -41 21.5t-18 39.5z" />
<glyph unicode="&#xe4;" horiz-adv-x="1116" d="M82 430q0 289 137 471t365 182q143 0 260 -110q12 39 20 55t26.5 31.5t45.5 15.5h12q51 0 51 -43q-81 -758 -81 -813q0 -31 6 -49t19 -24.5t22.5 -8.5t25.5 -2q14 0 32.5 5t23.5 5q12 0 12 -14q0 -31 -8 -76q-6 -35 -46 -51t-77 -16q-184 0 -185 200v21 q-117 -221 -319 -221q-55 0 -110.5 20.5t-109.5 66.5t-88 137t-34 218zM260 442q0 -305 203 -305q82 0 166 81t141 265l27 269q4 37 16 102q-100 80 -213 80q-340 0 -340 -492zM373 1288l10 105q6 45 86 45h8q78 0 78 -45l-10 -105q-6 -45 -86 -45h-8q-78 0 -78 45z M668 1288l10 105q4 45 86 45h8q78 0 78 -45l-10 -105q-6 -45 -86 -45h-9q-77 0 -77 45z" />
<glyph unicode="&#xe5;" horiz-adv-x="1116" d="M82 430q0 289 137 471t365 182q143 0 260 -110q12 39 20 55t26.5 31.5t45.5 15.5h12q51 0 51 -43q-81 -758 -81 -813q0 -31 6 -49t19 -24.5t22.5 -8.5t25.5 -2q14 0 32.5 5t23.5 5q12 0 12 -14q0 -31 -8 -76q-6 -35 -46 -51t-77 -16q-184 0 -185 200v21 q-117 -221 -319 -221q-55 0 -110.5 20.5t-109.5 66.5t-88 137t-34 218zM260 442q0 -305 203 -305q82 0 166 81t141 265l27 269q4 37 16 102q-100 80 -213 80q-340 0 -340 -492zM438 1311q0 78 57.5 134t133.5 56q68 0 111.5 -45t43.5 -110q0 -78 -56 -134.5t-134 -56.5 q-68 0 -112 44t-44 112zM510 1319q0 -41 24.5 -66.5t65.5 -25.5q47 0 80 32.5t33 79.5q0 39 -25.5 65t-64.5 26q-45 0 -79 -33t-34 -78z" />
<glyph unicode="&#xe6;" horiz-adv-x="1697" d="M59 252q0 109 54.5 181.5t155 107t196.5 48t229 17.5q25 135 90 242q-43 88 -200 88q-82 0 -159 -21.5t-121 -43t-48 -21.5q-20 0 -40.5 39t-20.5 61q0 43 125.5 88t273.5 45q213 0 307 -104q137 104 340 104q176 0 260 -85t84 -187q0 -96 -46 -167t-127 -108.5t-175 -55 t-205 -17.5h-176v-33q0 -162 77 -228.5t222 -66.5q82 0 153.5 24.5t113.5 50.5t51 26q14 0 14 -25q0 -39 -10 -92q-12 -63 -127 -97t-209 -34q-258 0 -373 131q-72 -57 -179.5 -94t-209.5 -37q-145 0 -232.5 66.5t-87.5 197.5zM246 270q0 -133 157 -133q150 0 299 103 q-24 74 -24 172v51q-432 0 -432 -193zM870 610h142q41 0 90 5.5t127 20.5t128 56t50 103q0 66 -49 103.5t-135 37.5q-293 0 -353 -326z" />
<glyph unicode="&#xe7;" horiz-adv-x="993" d="M96 418q0 186 51.5 330.5t176.5 239.5t313 95q129 0 208 -34.5t79 -71.5q0 -23 -28 -63t-52 -40q-2 0 -25.5 15.5t-77 31t-125.5 15.5q-156 0 -249 -122t-93 -384q0 -154 67 -224.5t212 -70.5q74 0 137.5 16.5t98 32t38.5 15.5q12 0 13 -25q0 -41 -11 -92 q-14 -72 -225 -92l-37 -90h8q31 0 62 -6.5t64.5 -38t33.5 -82.5q0 -203 -256 -203q-25 0 -53.5 3t-63 11t-58 25.5t-23.5 44.5q0 68 24 67l21 -12q20 -12 58 -25.5t81 -13.5q123 0 123 82q0 27 -19.5 42.5t-42 20.5t-42 16t-19.5 28q0 2 8 26l41 103q-209 6 -313.5 108.5 t-104.5 321.5z" />
<glyph unicode="&#xe8;" horiz-adv-x="1103" d="M94 412q0 297 139.5 484t423.5 187q174 0 259 -87t85 -185q0 -102 -46 -178t-126.5 -117t-175 -60.5t-204.5 -19.5q-100 0 -177 15v-21q0 -162 77 -228.5t222 -66.5q82 0 154 24.5t114 50.5t50 26q14 0 14 -25q0 -39 -10 -92q-12 -63 -127 -97t-209 -34q-463 0 -463 424z M283 584h145q35 0 65.5 1t97 12t113 31.5t83 63.5t36.5 102.5t-50 100.5t-134 41q-307 0 -356 -352zM436 1516q2 25 98.5 24.5t127.5 -53.5q119 -203 118 -230q0 -18 -47 -18q-74 0 -104 37q-180 205 -189 222q-4 9 -4 18z" />
<glyph unicode="&#xe9;" horiz-adv-x="1103" d="M94 412q0 297 139.5 484t423.5 187q174 0 259 -87t85 -185q0 -102 -46 -178t-126.5 -117t-175 -60.5t-204.5 -19.5q-100 0 -177 15v-21q0 -162 77 -228.5t222 -66.5q82 0 154 24.5t114 50.5t50 26q14 0 14 -25q0 -39 -10 -92q-12 -63 -127 -97t-209 -34q-463 0 -463 424z M283 584h145q35 0 65.5 1t97 12t113 31.5t83 63.5t36.5 102.5t-50 100.5t-134 41q-307 0 -356 -352zM516 1257q0 25 141 230q37 53 133.5 53t96.5 -24q0 -18 -134 -155q-50 -52 -83 -85q-37 -37 -109 -37q-45 0 -45 18z" />
<glyph unicode="&#xea;" horiz-adv-x="1103" d="M94 412q0 297 139.5 484t423.5 187q174 0 259 -87t85 -185q0 -102 -46 -178t-126.5 -117t-175 -60.5t-204.5 -19.5q-100 0 -177 15v-21q0 -162 77 -228.5t222 -66.5q82 0 154 24.5t114 50.5t50 26q14 0 14 -25q0 -39 -10 -92q-12 -63 -127 -97t-209 -34q-463 0 -463 424z M283 584h145q35 0 65.5 1t97 12t113 31.5t83 63.5t36.5 102.5t-50 100.5t-134 41q-307 0 -356 -352zM385 1221q0 18 14 41l136 180q33 45 98 45h51q66 0 90 -45l96 -180q10 -16 11 -35q-4 -31 -58 -31q-39 0 -65 27l-113 151l-141 -151q-33 -27 -76 -27t-43 25z" />
<glyph unicode="&#xeb;" horiz-adv-x="1103" d="M94 412q0 297 139.5 484t423.5 187q174 0 259 -87t85 -185q0 -102 -46 -178t-126.5 -117t-175 -60.5t-204.5 -19.5q-100 0 -177 15v-21q0 -162 77 -228.5t222 -66.5q82 0 154 24.5t114 50.5t50 26q14 0 14 -25q0 -39 -10 -92q-12 -63 -127 -97t-209 -34q-463 0 -463 424z M283 584h145q35 0 65.5 1t97 12t113 31.5t83 63.5t36.5 102.5t-50 100.5t-134 41q-307 0 -356 -352zM406 1288l10 105q6 45 86 45h8q78 0 78 -45l-10 -105q-6 -45 -86 -45h-9q-77 0 -77 45zM700 1288l11 105q4 45 86 45h8q78 0 78 -45l-11 -105q-6 -45 -86 -45h-8 q-78 0 -78 45z" />
<glyph unicode="&#xec;" horiz-adv-x="542" d="M100 1516q2 25 98.5 24.5t127.5 -53.5q119 -203 118 -230q0 -18 -47 -18q-74 0 -104 37q-180 205 -188 222q-4 9 -5 18zM129 182q0 39 20.5 250t41 404.5t22.5 193.5q6 45 86 45h8q78 0 78 -45q-82 -750 -82 -811q0 -39 12.5 -58.5t24.5 -22.5t35 -3q14 0 32.5 5t22.5 5 q12 0 12 -14q0 -31 -8 -76q-6 -35 -46 -51t-77 -16q-182 0 -182 194z" />
<glyph unicode="&#xed;" horiz-adv-x="542" d="M86 1257q0 25 141 230q37 53 133.5 53t96.5 -24q0 -18 -134 -155q-50 -52 -83 -85q-37 -37 -109 -37q-45 0 -45 18zM129 182q0 39 20.5 250t41 404.5t22.5 193.5q6 45 86 45h8q78 0 78 -45q-82 -750 -82 -811q0 -39 12.5 -58.5t24.5 -22.5t35 -3q14 0 32.5 5t22.5 5 q12 0 12 -14q0 -31 -8 -76q-6 -35 -46 -51t-77 -16q-182 0 -182 194z" />
<glyph unicode="&#xee;" horiz-adv-x="542" d="M25 1221q0 18 14 41l135 180q33 45 98 45h52q66 0 90 -45l96 -180q10 -16 10 -35q-4 -31 -57 -31q-39 0 -66 27l-112 151l-142 -151q-33 -27 -75.5 -27t-42.5 25zM129 182q0 39 20.5 250t41 404.5t22.5 193.5q6 45 86 45h8q78 0 78 -45q-82 -750 -82 -811 q0 -39 12.5 -58.5t24.5 -22.5t35 -3q14 0 32.5 5t22.5 5q12 0 12 -14q0 -31 -8 -76q-6 -35 -46 -51t-77 -16q-182 0 -182 194z" />
<glyph unicode="&#xef;" horiz-adv-x="542" d="M33 1288l10 105q6 45 86 45h8q78 0 78 -45l-10 -105q-6 -45 -86 -45h-8q-78 0 -78 45zM129 182q0 39 20.5 250t41 404.5t22.5 193.5q6 45 86 45h8q78 0 78 -45q-82 -750 -82 -811q0 -39 12.5 -58.5t24.5 -22.5t35 -3q14 0 32.5 5t22.5 5q12 0 12 -14q0 -31 -8 -76 q-6 -35 -46 -51t-77 -16q-182 0 -182 194zM328 1288l10 105q4 45 86 45h8q78 0 78 -45l-10 -105q-6 -45 -86 -45h-8q-78 0 -78 45z" />
<glyph unicode="&#xf0;" horiz-adv-x="1165" d="M86 424q0 311 145.5 485t393.5 174q88 0 161 -24q-35 94 -75 184q-118 -16 -170 -23q-7 -1 -9 -1q-18 0 -32.5 19t-14.5 42q0 25 35 31l150 20q-20 37 -47 80q-8 10 -9 21q0 18 25 20q61 8 76 8q35 0 59 -30q41 -57 53 -78q158 23 162 22q23 0 33 -21.5t10 -39.5 q0 -29 -33 -31l-125 -16q164 -307 164 -621q0 -317 -139 -487t-389 -170q-207 0 -315.5 111.5t-108.5 324.5zM262 432q0 -152 62.5 -224.5t193.5 -72.5q342 0 342 500q0 301 -258 301q-164 0 -252 -126t-88 -378z" />
<glyph unicode="&#xf1;" horiz-adv-x="1140" d="M76 39q90 801 90 897q0 29 -1 48.5t-1 21.5q0 47 115 47q53 0 53 -154q0 -10 -2 -22q152 207 364 206q270 0 271 -266q0 -16 -30 -295.5t-30 -302.5q0 -31 6.5 -49t19.5 -24.5t22.5 -8.5t25.5 -2q14 0 32.5 5t22.5 5q12 0 13 -14q0 -31 -9 -76q-6 -35 -46 -51t-77 -16 q-184 0 -184 200q0 37 28.5 304.5t28.5 283.5q0 158 -155 158q-84 0 -175 -76t-151 -254l-59 -563q-6 -45 -86 -45h-8q-78 0 -78 43zM299 1335q0 39 69.5 77t149.5 38q59 0 142 -20.5t120 -20.5q29 0 60.5 13.5t50.5 13.5q20 0 39.5 -22.5t19.5 -39.5q0 -37 -64.5 -75.5 t-142.5 -38.5q-68 0 -154.5 20t-119.5 20q-29 0 -60.5 -13t-50.5 -13q-23 0 -41 21.5t-18 39.5z" />
<glyph unicode="&#xf2;" horiz-adv-x="1165" d="M92 428q0 131 31 245.5t94.5 208t170 147.5t245.5 54q201 0 306 -113.5t105 -330.5q0 -313 -140 -482t-388 -169q-209 0 -316.5 112.5t-107.5 327.5zM268 434q0 -299 258 -299q164 0 252 128t88 372q0 154 -62.5 227.5t-193.5 73.5q-166 0 -254 -133t-88 -369zM442 1516 q2 25 98.5 24.5t127.5 -53.5q119 -203 118 -230q0 -18 -47 -18q-74 0 -104 37q-180 205 -188 222q-4 9 -5 18z" />
<glyph unicode="&#xf3;" horiz-adv-x="1165" d="M92 428q0 131 31 245.5t94.5 208t170 147.5t245.5 54q201 0 306 -113.5t105 -330.5q0 -313 -140 -482t-388 -169q-209 0 -316.5 112.5t-107.5 327.5zM268 434q0 -299 258 -299q164 0 252 128t88 372q0 154 -62.5 227.5t-193.5 73.5q-166 0 -254 -133t-88 -369zM522 1257 q0 25 142 230q37 53 133 53t96 -24q0 -18 -134 -155q-50 -52 -83 -85q-37 -37 -109 -37q-45 0 -45 18z" />
<glyph unicode="&#xf4;" horiz-adv-x="1165" d="M92 428q0 131 31 245.5t94.5 208t170 147.5t245.5 54q201 0 306 -113.5t105 -330.5q0 -313 -140 -482t-388 -169q-209 0 -316.5 112.5t-107.5 327.5zM268 434q0 -299 258 -299q164 0 252 128t88 372q0 154 -62.5 227.5t-193.5 73.5q-166 0 -254 -133t-88 -369zM391 1221 q1 18 15 41l135 180q33 45 98 45h51q66 0 90 -45l97 -180q10 -16 10 -35q-4 -31 -58 -31q-39 0 -65 27l-113 151l-141 -151q-33 -27 -76 -27t-43 25z" />
<glyph unicode="&#xf5;" horiz-adv-x="1165" d="M92 428q0 131 31 245.5t94.5 208t170 147.5t245.5 54q201 0 306 -113.5t105 -330.5q0 -313 -140 -482t-388 -169q-209 0 -316.5 112.5t-107.5 327.5zM268 434q0 -299 258 -299q164 0 252 128t88 372q0 154 -62.5 227.5t-193.5 73.5q-166 0 -254 -133t-88 -369zM326 1335 q0 39 69.5 77t149.5 38q59 0 142 -20.5t120 -20.5q29 0 60.5 13.5t50.5 13.5q20 0 39.5 -22.5t19.5 -39.5q0 -37 -64.5 -75.5t-142.5 -38.5q-68 0 -155 20t-119 20q-29 0 -61 -13t-50 -13q-23 0 -41 21.5t-18 39.5z" />
<glyph unicode="&#xf6;" horiz-adv-x="1165" d="M92 428q0 131 31 245.5t94.5 208t170 147.5t245.5 54q201 0 306 -113.5t105 -330.5q0 -313 -140 -482t-388 -169q-209 0 -316.5 112.5t-107.5 327.5zM268 434q0 -299 258 -299q164 0 252 128t88 372q0 154 -62.5 227.5t-193.5 73.5q-166 0 -254 -133t-88 -369zM412 1288 l10 105q6 45 86 45h8q78 0 78 -45l-10 -105q-6 -45 -86 -45h-9q-77 0 -77 45zM707 1288l10 105q4 45 86 45h8q78 0 78 -45l-10 -105q-6 -45 -86 -45h-9q-77 0 -77 45z" />
<glyph unicode="&#xf7;" horiz-adv-x="1146" d="M96 465q0 76 70 76h827q55 0 56 -62q0 -76 -70 -76h-827q-56 1 -56 62zM440 41l13 104q4 45 86 45h8q78 0 78 -45l-13 -104q-6 -45 -86 -45h-8q-78 0 -78 45zM520 799l12 104q4 45 86 45h9q78 0 78 -45l-13 -104q-6 -45 -86 -45h-8q-78 0 -78 45z" />
<glyph unicode="&#xf8;" horiz-adv-x="1165" d="M76 45q0 12 10 23l84 86q-66 100 -66 274q0 131 31 245.5t94.5 208t170 147.5t245.5 54q203 0 309 -116l90 92q8 12 21 12q10 0 22 -12l11 -10q12 -12 12 -23q0 -8 -10 -22l-101 -103q57 -102 58 -262q0 -313 -140.5 -482t-388.5 -169q-201 0 -309 104l-78 -80 q-12 -12 -20 -12q-10 0 -23 12l-10 11q-12 12 -12 22zM281 434q0 -86 18 -145l532 551q-61 96 -208 96q-166 0 -254 -133t-88 -369zM338 215q64 -80 201 -80q164 0 252 128t88 372q0 76 -15 125z" />
<glyph unicode="&#xf9;" horiz-adv-x="1140" d="M117 254l78 776q6 45 86 45h8q78 0 78 -45q-74 -707 -74 -735q0 -158 156 -158q86 0 177 80t150 268l58 545q6 45 86 45h8q78 0 78 -45q-80 -750 -80 -811q0 -31 6 -49t19.5 -24.5t22.5 -8.5t25 -2q14 0 33 5t23 5q12 0 12 -14q0 -31 -8 -76q-6 -35 -46 -51t-77 -16 q-184 0 -184 200v21q-147 -221 -365 -221q-270 0 -270 266zM446 1516q2 25 98.5 24.5t127.5 -53.5q119 -203 119 -230q-1 -18 -48 -18q-74 0 -104 37q-180 205 -188 222q-4 9 -5 18z" />
<glyph unicode="&#xfa;" horiz-adv-x="1140" d="M117 254l78 776q6 45 86 45h8q78 0 78 -45q-74 -707 -74 -735q0 -158 156 -158q86 0 177 80t150 268l58 545q6 45 86 45h8q78 0 78 -45q-80 -750 -80 -811q0 -31 6 -49t19.5 -24.5t22.5 -8.5t25 -2q14 0 33 5t23 5q12 0 12 -14q0 -31 -8 -76q-6 -35 -46 -51t-77 -16 q-184 0 -184 200v21q-147 -221 -365 -221q-270 0 -270 266zM526 1257q0 25 142 230q37 53 133 53t96 -24q0 -18 -134 -155q-50 -52 -83 -85q-37 -37 -109 -37q-45 0 -45 18z" />
<glyph unicode="&#xfb;" horiz-adv-x="1140" d="M117 254l78 776q6 45 86 45h8q78 0 78 -45q-74 -707 -74 -735q0 -158 156 -158q86 0 177 80t150 268l58 545q6 45 86 45h8q78 0 78 -45q-80 -750 -80 -811q0 -31 6 -49t19.5 -24.5t22.5 -8.5t25 -2q14 0 33 5t23 5q12 0 12 -14q0 -31 -8 -76q-6 -35 -46 -51t-77 -16 q-184 0 -184 200v21q-147 -221 -365 -221q-270 0 -270 266zM395 1221q1 18 15 41l135 180q33 45 98 45h51q66 0 90 -45l97 -180q10 -16 10 -35q-4 -31 -57 -31q-39 0 -66 27l-113 151l-141 -151q-33 -27 -76 -27t-43 25z" />
<glyph unicode="&#xfc;" horiz-adv-x="1140" d="M117 254l78 776q6 45 86 45h8q78 0 78 -45q-74 -707 -74 -735q0 -158 156 -158q86 0 177 80t150 268l58 545q6 45 86 45h8q78 0 78 -45q-80 -750 -80 -811q0 -31 6 -49t19.5 -24.5t22.5 -8.5t25 -2q14 0 33 5t23 5q12 0 12 -14q0 -31 -8 -76q-6 -35 -46 -51t-77 -16 q-184 0 -184 200v21q-147 -221 -365 -221q-270 0 -270 266zM416 1288l10 105q6 45 86 45h8q78 0 78 -45l-10 -105q-6 -45 -86 -45h-8q-78 0 -78 45zM711 1288l10 105q4 45 86 45h8q78 0 78 -45l-10 -105q-6 -45 -86 -45h-9q-77 0 -77 45z" />
<glyph unicode="&#xfd;" horiz-adv-x="985" d="M84 1040q0 35 92 35h17q70 0 77 -33l201 -739l350 739q16 33 88 33q84 0 84 -33q0 -1 -8 -30l-674 -1395q-20 -43 -100 -43h-31q-63 0 -63 31q0 10 229 452q-262 971 -262 983zM438 1257q0 25 142 230q37 53 133 53t96 -24q0 -18 -134 -155q-50 -52 -83 -85 q-37 -37 -109 -37q-45 0 -45 18z" />
<glyph unicode="&#xfe;" horiz-adv-x="1167" d="M74 -383l198 1878q4 45 86 45h9q78 0 77 -43l-63 -604q119 190 317 190q57 0 113.5 -20.5t113 -66.5t91.5 -137t35 -218q0 -289 -132.5 -471t-351.5 -182q-152 0 -272 104l-49 -473q-6 -45 -86 -45h-8q-78 0 -78 43zM309 225q100 -90 234 -90q330 0 329 494 q0 305 -213 305q-80 0 -163.5 -71.5t-143.5 -237.5z" />
<glyph unicode="&#xff;" horiz-adv-x="985" d="M84 1040q0 35 92 35h17q70 0 77 -33l201 -739l350 739q16 33 88 33q84 0 84 -33q0 -1 -8 -30l-674 -1395q-20 -43 -100 -43h-31q-63 0 -63 31q0 10 229 452q-262 971 -262 983zM328 1288l10 105q6 45 86 45h8q78 0 78 -45l-10 -105q-6 -45 -86 -45h-8q-78 0 -78 45z M623 1288l10 105q4 45 86 45h8q78 0 78 -45l-10 -105q-6 -45 -86 -45h-9q-77 0 -77 45z" />
<glyph unicode="&#x131;" horiz-adv-x="542" d="M129 182q0 39 20.5 250t41 404.5t22.5 193.5q6 45 86 45h8q78 0 78 -45q-82 -750 -82 -811q0 -39 12.5 -58.5t24.5 -22.5t35 -3q14 0 32.5 5t22.5 5q12 0 12 -14q0 -31 -8 -76q-6 -35 -46 -51t-77 -16q-182 0 -182 194z" />
<glyph unicode="&#x141;" horiz-adv-x="995" d="M-10 651q0 47 45 74l147 82l62 586q4 45 86 45h16q78 0 78 -45l-49 -478l233 132q16 8 23 8q14 0 14 -29q0 -49 -47 -74l-233 -131l-70 -665h596q35 0 35 -45q-1 -111 -52 -111h-714q-33 0 -44.5 14.5t-11.5 46.5l68 652l-147 -82q-16 -8 -21 -8q-14 0 -14 28z" />
<glyph unicode="&#x142;" horiz-adv-x="600" d="M98 690q0 49 47 74l91 49q14 147 33.5 318.5t29.5 266.5t10 97q6 45 86 45h8q78 0 78 -45q-31 -281 -61 -580l90 52q16 8 22 8q14 0 15 -29q0 -49 -47 -74l-90 -51q-60 -563 -60 -602q0 -31 6 -49t19.5 -24.5t23 -8.5t25.5 -2q14 0 32.5 5t22.5 5q12 0 13 -14 q0 -31 -9 -76q-6 -35 -46 -51t-77 -16q-184 0 -184 200q0 53 49 531l-90 -49q-16 -8 -22 -8q-14 0 -15 28z" />
<glyph unicode="&#x152;" horiz-adv-x="2091" d="M109 578q0 424 189 646t525 222q281 0 432 -158l11 84q6 62 67 62h723q35 0 35 -45q0 -111 -51 -111h-604l-50 -467h541q35 0 35 -45q0 -111 -51 -111h-541l-51 -499h606q35 0 35 -45q0 -111 -51 -111h-725q-55 0 -56 49q0 12 11 101q-180 -162 -469 -162 q-274 0 -417.5 149.5t-143.5 440.5zM295 596q0 -223 99 -338t292 -115q236 0 375 181.5t139 515.5q0 223 -100.5 336.5t-292.5 113.5q-238 0 -375 -178t-137 -516z" />
<glyph unicode="&#x153;" horiz-adv-x="1783" d="M104 428q0 131 31 245.5t94.5 208t170 147.5t245.5 54q199 0 318 -125q141 125 364 125q174 0 259 -87t85 -185q0 -102 -46 -178t-127 -117t-175 -60.5t-205 -19.5q-100 0 -176 15v-21q0 -162 77 -228.5t222 -66.5q82 0 153.5 24.5t113.5 50.5t51 26q14 0 14 -25 q0 -39 -10 -92q-12 -63 -127 -97t-209 -34q-244 0 -359 114q-127 -115 -340 -114q-209 0 -316.5 112.5t-107.5 327.5zM281 434q0 -299 258 -299q156 0 245 117q-20 63 -20 160q0 233 84 395q-66 129 -225 129q-166 0 -254 -133t-88 -369zM952 584h146q35 0 65.5 1t97 12 t112.5 31.5t83 63.5t37 102.5t-50 100.5t-134 41q-307 0 -357 -352z" />
<glyph unicode="&#x160;" horiz-adv-x="1024" d="M74 115q0 133 32 133q4 0 45.5 -25.5t118 -52.5t168.5 -27q125 0 211 77t86 198q0 84 -61.5 139t-149.5 89t-176 72t-149.5 113.5t-61.5 188.5q0 190 137.5 308t358.5 118q100 0 208.5 -36t108.5 -87q0 -20 -31.5 -65.5t-46.5 -45.5q-8 0 -40.5 19.5t-90 39t-129.5 19.5 q-123 0 -206.5 -64.5t-83.5 -185.5q0 -61 44 -105t111.5 -68.5t144 -59.5t144.5 -73t112 -112.5t44 -175.5q0 -211 -138.5 -334.5t-361.5 -123.5q-106 0 -227 31.5t-121 95.5zM403 1823q4 29 52 28q45 0 71 -26l109 -152l145 152q33 27 70 26q49 0 49 -28q0 -16 -14 -37 l-137 -180q-33 -45 -99 -45h-51q-65 0 -90 45l-94 180q-10 18 -11 37z" />
<glyph unicode="&#x161;" horiz-adv-x="845" d="M55 104q0 111 33 111q6 0 37 -19.5t87 -40t122 -20.5q96 0 157.5 48t61.5 132q0 70 -46 114t-110.5 66.5t-130 48t-111.5 83t-46 149.5q0 137 105 222t267 85q88 0 171 -24.5t83 -73.5q0 -20 -25.5 -59t-47.5 -39q-2 0 -27 12t-66 24.5t-86 12.5q-92 0 -143 -37t-51 -100 q0 -53 45 -88t109.5 -57.5t130 -52.5t110.5 -93.5t45 -157.5q0 -162 -105.5 -262t-281.5 -100q-82 0 -184.5 30.5t-102.5 85.5zM246 1454q4 29 51 29q45 0 72 -27l108 -151l146 151q33 27 69 27q49 0 49 -29q0 -16 -14 -37l-137 -180q-33 -45 -98 -45h-52q-65 0 -90 45 l-94 180q-10 18 -10 37z" />
<glyph unicode="&#x178;" horiz-adv-x="1144" d="M109 1399q0 39 96 39h22q68 0 86 -31l283 -504l397 506q20 29 94 29q92 0 93 -33q-1 -10 -21 -39l-497 -637l-72 -688q-6 -45 -86 -45h-17q-78 0 -77 45l71 694l-360 631q-12 18 -12 33zM444 1657l11 104q6 45 86 45h8q78 0 78 -45l-11 -104q-6 -45 -86 -45h-8 q-78 0 -78 45zM739 1657l11 104q4 45 86 45h8q78 0 78 -45l-11 -104q-6 -45 -86 -45h-8q-78 0 -78 45z" />
<glyph unicode="&#x17d;" horiz-adv-x="1261" d="M12 98q0 25 11 35l958 1145h-739q-35 0 -35 45q0 111 51 111h940q10 0 22.5 -34t12.5 -65q0 -25 -10 -35l-959 -1144h803q35 0 35 -45q0 -111 -51 -111h-1000q-14 0 -26.5 34t-12.5 64zM526 1825q4 29 52 28q45 0 71 -26l109 -152l145 152q33 27 70 26q49 0 49 -28 q0 -16 -14 -37l-138 -180q-33 -45 -98 -45h-51q-65 0 -90 45l-94 180q-10 18 -11 37z" />
<glyph unicode="&#x17e;" horiz-adv-x="1001" d="M29 94q0 23 10 33l682 797h-524q-35 0 -35 55q0 92 51 92h719q12 0 21.5 -32.5t9.5 -65.5q0 -20 -9 -29l-680 -797h564q35 0 34 -55q0 -92 -51 -92h-758q-10 0 -22 31.5t-12 62.5zM375 1454q4 29 51 29q45 0 72 -27l108 -151l146 151q33 27 69 27q49 0 49 -29 q0 -16 -14 -37l-137 -180q-33 -45 -98 -45h-52q-65 0 -90 45l-94 180q-10 18 -10 37z" />
<glyph unicode="&#x192;" horiz-adv-x="679" d="M31 -381l182 1305h-82q-33 0 -33 55q0 92 56 92h82l26 207q35 270 303 270q143 0 144 -61q0 -18 -20.5 -59.5t-37.5 -41.5q-2 0 -12 3.5t-31.5 7.5t-48.5 4q-53 0 -84 -29t-43 -115l-24 -186h178q31 0 30 -39q0 -10 -7 -32.5t-30.5 -49t-58.5 -26.5h-135l-182 -1305 q-6 -45 -88 -45h-9q-76 0 -75 45z" />
<glyph unicode="&#x2c6;" d="M61 1221q1 18 15 41l135 180q33 45 98 45h51q66 0 91 -45l96 -180q10 -16 10 -35q-4 -31 -57 -31q-39 0 -66 27l-112 151l-142 -151q-33 -27 -76 -27t-43 25z" />
<glyph unicode="&#x2c7;" d="M82 1454q4 29 51 29q45 0 72 -27l108 -151l146 151q33 27 69 27q49 0 50 -29q0 -16 -15 -37l-137 -180q-33 -45 -98 -45h-52q-65 0 -90 45l-94 180q-10 18 -10 37z" />
<glyph unicode="&#x2d8;" d="M35 1409q0 55 35 55q12 0 19 -4t9 -9t5 -17.5t8 -20.5q35 -80 213 -80q176 0 227 80q6 10 12 26.5t13.5 20.5t23.5 4q29 0 29 -24q0 -113 -101.5 -177.5t-218.5 -64.5q-113 0 -193.5 55.5t-80.5 155.5z" />
<glyph unicode="&#x2d9;" d="M240 1288l10 105q6 45 86 45h8q78 0 78 -45l-10 -105q-6 -45 -86 -45h-9q-77 0 -77 45z" />
<glyph unicode="&#x2da;" d="M154 1311q0 78 57 134t133 56q68 0 112 -45t44 -110q0 -78 -56.5 -134.5t-134.5 -56.5q-68 0 -111.5 44t-43.5 112zM225 1319q0 -41 24.5 -66.5t65.5 -25.5q47 0 80 32.5t33 79.5q0 39 -25.5 65t-64.5 26q-45 0 -79 -33t-34 -78z" />
<glyph unicode="&#x2db;" d="M109 -193q0 57 34 139.5t95 82.5h18q33 0 33 -25q0 -12 -19.5 -63.5t-19.5 -83.5q0 -88 119 -88q37 0 82 18t49 18q12 0 12 -26q0 -154 -182 -154q-127 0 -174 55.5t-47 126.5z" />
<glyph unicode="&#x2dc;" horiz-adv-x="747" d="M49 1335q0 39 69.5 77t149.5 38q59 0 142.5 -20.5t119.5 -20.5q29 0 61 13.5t50 13.5q20 0 39.5 -22.5t19.5 -39.5q0 -37 -64 -75.5t-142 -38.5q-68 0 -155 20t-120 20q-29 0 -60.5 -13t-49.5 -13q-23 0 -41.5 21.5t-18.5 39.5z" />
<glyph unicode="&#x2dd;" horiz-adv-x="786" d="M106 1257q0 25 142 230q37 53 133 53t96 -24q0 -18 -134 -155q-50 -52 -83 -85q-36 -37 -108 -37q-45 0 -46 18zM406 1257q0 25 141 230q37 53 133 53t96 -24q0 -18 -134 -155q-50 -52 -83 -85q-36 -37 -108 -37q-45 0 -45 18z" />
<glyph unicode="&#x3c0;" horiz-adv-x="1261" d="M72 958q0 63 75.5 88t239.5 25h832q45 0 45 -31q0 -10 -2 -23t-8.5 -37t-25 -40t-44.5 -16h-115q-72 -694 -72 -756v-100q0 -72 -47 -72h-57q-39 0 -55.5 27.5t-16.5 91.5v43q0 16 1 34.5t4 48t5.5 59.5t9.5 92.5t13 124t18.5 177t24.5 230.5h-397q-35 -207 -104.5 -466 t-137.5 -411q-23 -51 -76 -51h-47q-53 0 -53 39q0 4 3 12t3 10q74 168 141.5 414t98.5 453q-94 0 -155.5 -9.5t-63.5 -9.5q-37 0 -37 53z" />
<glyph unicode="&#x2000;" horiz-adv-x="954" />
<glyph unicode="&#x2001;" horiz-adv-x="1909" />
<glyph unicode="&#x2002;" horiz-adv-x="954" />
<glyph unicode="&#x2003;" horiz-adv-x="1909" />
<glyph unicode="&#x2004;" horiz-adv-x="636" />
<glyph unicode="&#x2005;" horiz-adv-x="477" />
<glyph unicode="&#x2006;" horiz-adv-x="318" />
<glyph unicode="&#x2007;" horiz-adv-x="318" />
<glyph unicode="&#x2008;" horiz-adv-x="238" />
<glyph unicode="&#x2009;" horiz-adv-x="381" />
<glyph unicode="&#x200a;" horiz-adv-x="106" />
<glyph unicode="&#x2010;" d="M82 524q0 92 51 92h397q35 0 35 -55q0 -92 -51 -92h-397q-35 0 -35 55z" />
<glyph unicode="&#x2011;" d="M82 524q0 92 51 92h397q35 0 35 -55q0 -92 -51 -92h-397q-35 0 -35 55z" />
<glyph unicode="&#x2012;" d="M82 524q0 92 51 92h397q35 0 35 -55q0 -92 -51 -92h-397q-35 0 -35 55z" />
<glyph unicode="&#x2013;" horiz-adv-x="1024" d="M-2 526q0 92 51 92h942q35 0 35 -55q0 -92 -51 -92h-942q-35 0 -35 55z" />
<glyph unicode="&#x2014;" horiz-adv-x="2048" d="M-2 526q0 92 51 92h1962q35 0 35 -55q0 -92 -51 -92h-1962q-35 0 -35 55z" />
<glyph unicode="&#x2018;" horiz-adv-x="434" d="M100 1145q16 166 103.5 283.5t148.5 117.5q57 0 58 -28q0 -10 -17 -37q-90 -139 -110 -328q-6 -66 -88 -66h-19q-76 0 -76 58z" />
<glyph unicode="&#x2019;" horiz-adv-x="434" d="M41 1114q0 10 16 37q90 139 111 328q6 65 88 65h18q76 0 76 -57q-16 -166 -103 -284t-149 -118q-57 0 -57 29z" />
<glyph unicode="&#x201a;" horiz-adv-x="405" d="M2 -209q0 10 16 37q90 139 111 328q6 65 88 65h19q76 0 75 -57q-16 -166 -103 -284t-149 -118q-57 0 -57 29z" />
<glyph unicode="&#x201c;" horiz-adv-x="716" d="M66 1145q16 166 103 283.5t148 117.5q57 0 58 -28q0 -10 -17 -37q-90 -139 -110 -328q-6 -66 -88 -66h-19q-76 0 -75 58zM352 1145q16 166 103.5 283.5t148.5 117.5q57 0 58 -28q0 -10 -17 -37q-90 -139 -110 -328q-7 -66 -89 -66h-18q-76 0 -76 58z" />
<glyph unicode="&#x201d;" horiz-adv-x="716" d="M45 1116q0 10 16 37q90 139 111 328q6 65 88 65h19q76 0 75 -57q-16 -166 -103 -284t-149 -118q-57 0 -57 29zM332 1116q0 10 16 37q90 139 111 328q6 65 88 65h18q76 0 76 -57q-16 -166 -103 -284t-149 -118q-57 0 -57 29z" />
<glyph unicode="&#x201e;" horiz-adv-x="688" d="M2 -209q0 10 16 37q90 139 111 328q6 65 88 65h19q76 0 75 -57q-16 -166 -103 -284t-149 -118q-57 0 -57 29zM285 -209q0 10 16 37q90 139 111 328q6 65 88 65h18q76 0 76 -57q-16 -166 -103.5 -284t-148.5 -118q-57 0 -57 29z" />
<glyph unicode="&#x2020;" horiz-adv-x="1095" d="M137 926q0 102 51 102h324l37 365q4 45 92 45q76 0 76 -45l-37 -365h321q35 0 35 -61q0 -102 -51 -103h-323l-115 -1106q-6 -45 -88 -45q-80 0 -80 45l115 1106h-322q-35 0 -35 62z" />
<glyph unicode="&#x2021;" horiz-adv-x="1095" d="M59 184q0 102 52 103h323l60 577h-322q-35 0 -35 62q0 102 51 102h324l37 365q4 45 92 45q76 0 76 -45l-37 -365h321q35 0 35 -61q0 -102 -51 -103h-323l-60 -577h322q35 0 34 -62q0 -102 -51 -102h-323l-37 -365q-6 -45 -88 -45q-80 0 -80 45l37 365h-322q-35 0 -35 61z " />
<glyph unicode="&#x2022;" horiz-adv-x="688" d="M82 641q0 113 82 199t205 86q98 0 164.5 -65.5t66.5 -164.5q0 -119 -83 -201.5t-204 -82.5q-100 0 -165.5 65.5t-65.5 163.5z" />
<glyph unicode="&#x2026;" horiz-adv-x="1263" d="M96 41l15 135q4 45 86 45h34q78 0 78 -45l-14 -135q-6 -45 -86 -45h-35q-78 0 -78 45zM524 41l15 135q4 45 86 45h34q78 0 78 -45l-14 -135q-6 -45 -86 -45h-35q-78 0 -78 45zM950 41l15 135q4 45 86 45h34q78 0 78 -45l-14 -135q-6 -45 -86 -45h-35q-78 0 -78 45z" />
<glyph unicode="&#x202f;" horiz-adv-x="381" />
<glyph unicode="&#x2030;" horiz-adv-x="2125" d="M164 1044q0 119 29.5 202t80 124t101.5 58.5t108 17.5q250 0 250 -270q0 -170 -79 -283t-240 -113q-250 0 -250 264zM217 12q0 13 8 23l899 1364q27 39 64 39h51q27 0 27 -19q0 -10 -9 -20l-899 -1364q-27 -39 -63 -39h-51q-27 0 -27 16zM299 1042q0 -149 125 -149 q96 0 137 85t41 200q0 158 -131 157q-172 0 -172 -293zM752 252q0 119 29.5 202t79.5 123.5t101.5 58t108.5 17.5q250 0 250 -270q0 -170 -79 -282.5t-241 -112.5q-250 0 -249 264zM887 250q0 -150 125 -150q96 0 137 85t41 200q0 158 -131 158q-172 0 -172 -293zM1391 252 q0 119 29.5 202t79.5 123.5t101.5 58t108.5 17.5q250 0 250 -270q0 -170 -79 -282.5t-241 -112.5q-250 0 -249 264zM1526 250q0 -150 125 -150q96 0 137 85t41 200q0 158 -131 158q-172 0 -172 -293z" />
<glyph unicode="&#x2039;" horiz-adv-x="614" d="M90 522q0 31 31 64l301 319q25 25 47 25q18 0 42 -19.5t24 -42.5q0 -12 -21 -45l-258 -295l195 -297q12 -18 12 -32q0 -18 -25.5 -46t-52.5 -28q-23 0 -43 27l-231 319q-20 29 -21 51z" />
<glyph unicode="&#x203a;" horiz-adv-x="614" d="M74 190q0 12 20 41l260 297l-196 295q-12 18 -13 35q0 27 28 49.5t50 22.5q25 0 43 -25l232 -319q23 -31 22 -58q-2 -24 -33 -57l-301 -319q-27 -27 -47 -27q-23 0 -44 22.5t-21 42.5z" />
<glyph unicode="&#x2044;" horiz-adv-x="540" d="M-244 12q0 12 8 23l900 1362q27 39 63 39h51q27 0 27 -19q0 -10 -8 -20l-899 -1362q-27 -39 -64 -39h-51q-27 0 -27 16z" />
<glyph unicode="&#x205f;" horiz-adv-x="477" />
<glyph unicode="&#x20ac;" horiz-adv-x="1228" d="M-18 524q0 96 49 97h100q14 160 19 190h-101q-35 0 -35 41q0 96 49 96h117q68 246 236 372t407 126q129 0 232.5 -41t103.5 -84q0 -25 -29.5 -69t-50.5 -44q-4 0 -36.5 22.5t-97 45t-142.5 22.5q-168 0 -277.5 -82.5t-163.5 -267.5h570q33 0 33 -37q0 -8 -6.5 -28.5 t-29 -46t-57.5 -25.5h-540q-18 -133 -19 -190h584q33 0 33 -37q0 -8 -6 -28.5t-29 -46.5t-57 -26h-523q14 -178 109 -263t242 -85q90 0 168.5 26.5t121.5 53.5t45 27q12 0 13 -23q0 -39 -13 -113q-12 -53 -117.5 -85.5t-217.5 -32.5q-516 0 -537 495h-113q-35 0 -34 41z" />
<glyph unicode="&#x2122;" horiz-adv-x="1581" d="M61 1380v19q0 35 23 35h541q23 0 22 -35v-19q0 -35 -22 -34h-217v-697q0 -25 -48 -24h-8q-47 -1 -47 24v697h-221q-23 0 -23 34zM721 649v762q0 25 45 25h43q37 0 47 -21l219 -379l29 -71l31 65l217 385q14 21 49 21h39q45 0 45 -25v-762q0 -25 -45 -24h-8q-47 0 -48 24 v621l-231 -404q-8 -14 -25 -14h-47q-16 0 -24 14l-236 410v-627q0 -25 -47 -24h-8q-45 0 -45 24z" />
<glyph unicode="&#x2126;" horiz-adv-x="1497" d="M12 39q0 100 51 100h78l119 -8q-154 157 -154 455q0 418 191.5 639t525.5 221q276 0 419.5 -146.5t143.5 -435.5q0 -504 -278 -733l123 8h78q35 0 34 -41q0 -98 -51 -98h-485q-35 0 -35 39q0 61 23 67q188 45 295.5 231.5t107.5 506.5q0 221 -99.5 333.5t-291.5 112.5 q-244 0 -379 -184t-135 -535q0 -391 278 -465q12 -3 13 -18q0 -39 -9 -61q-8 -27 -34 -27h-494q-35 0 -35 39z" />
<glyph unicode="&#x2190;" horiz-adv-x="1536" d="M0 541v8q0 16 16 33l529 475q31 29 71 28h113q39 0 39 -14q-4 -10 -25 -29l-479 -426h1235q39 0 39 -61q0 -82 -53 -82h-1235l391 -428q16 -20 16 -27q0 -16 -39 -16h-112q-41 0 -68 29l-428 477q-10 10 -10 33z" />
<glyph unicode="&#x2191;" horiz-adv-x="1083" d="M-18 563l12 113q4 39 16 39q6 0 27 -21l381 -436l123 1155q4 45 65 45h21q57 0 57 -45l-123 -1155l473 434q20 20 30.5 20.5t10.5 -38.5l-12 -113q-6 -41 -37 -69l-524 -478q-16 -14 -35 -14h-8q-18 0 -31 14l-428 480q-18 20 -18 69z" />
<glyph unicode="&#x2192;" horiz-adv-x="1536" d="M-2 532q0 82 53 82h1235l-391 428q-16 20 -16 27q0 16 39 16h112q41 0 68 -28l428 -477q10 -10 10 -33v-8q0 -16 -16 -33l-529 -475q-31 -29 -71 -29h-113q-39 0 -39 14q4 10 25 29l479 426h-1235q-39 0 -39 61z" />
<glyph unicode="&#x2193;" horiz-adv-x="1083" d="M6 784l12 113q6 41 37 70l525 477q16 14 34 14h9q18 0 30 -14l428 -479q18 -20 19 -70l-13 -113q-4 -39 -16 -39q-6 0 -27 21l-380 436l-123 -1155q-4 -45 -66 -45h-20q-58 0 -58 45l123 1155l-473 -434q-20 -20 -30.5 -20.5t-10.5 38.5z" />
<glyph unicode="&#x2202;" horiz-adv-x="1052" d="M41 344q0 129 46 230.5t120 159t151.5 86t153.5 28.5q174 0 266 -113q6 63 6 125q0 229 -89 365.5t-224 136.5q-53 0 -99 -15.5t-73 -31t-33 -15.5q-14 0 -35.5 33t-21.5 56q0 45 103.5 83.5t201.5 38.5q213 0 342 -170t129 -481q0 -203 -42 -361.5t-104.5 -251.5 t-143.5 -154.5t-151.5 -83t-137.5 -21.5q-59 0 -119 17.5t-117 55t-93 110.5t-36 173zM229 352q0 -94 47.5 -160.5t145.5 -66.5q125 0 214 137t124 340q-93 103 -236 103q-121 0 -208 -110t-87 -243z" />
<glyph unicode="&#x2206;" horiz-adv-x="1449" d="M0 51q0 43 23 86l673 1270q25 47 78 47h53q51 0 66 -47l405 -1270q10 -35 11 -55q0 -82 -70 -82h-1186q-53 0 -53 51zM174 139h965l-357 1129h-10z" />
<glyph unicode="&#x220f;" horiz-adv-x="1536" d="M125 1348q0 86 51 86h1354q23 0 29 -14.5t6 -47.5q0 -86 -52 -86h-210l-152 -1454q-6 -45 -88 -45h-12q-76 0 -76 45l151 1454h-579l-152 -1454q-6 -45 -88 -45h-12q-76 0 -76 45l152 1454h-211q-23 0 -29 14.5t-6 47.5z" />
<glyph unicode="&#x2211;" horiz-adv-x="1214" d="M-33 -162q0 43 33 88l612 688l-444 693q-16 20 -16 59q0 68 67 68h940q53 0 53 -62l-2 -24q-6 -61 -67 -62h-733v-8l376 -598q12 -16 13 -43q-4 -23 -21 -43l-549 -621v-8h811q55 0 56 -61l-4 -51q-6 -61 -70 -62h-1002q-53 0 -53 47z" />
<glyph unicode="&#x2212;" horiz-adv-x="1146" d="M72 436q0 92 51 92h915q35 0 35 -55q0 -92 -51 -92h-916q-35 0 -34 55z" />
<glyph unicode="&#x221a;" horiz-adv-x="1265" d="M68 635q0 29 32 43q272 100 281 100q29 0 39 -43q20 -88 79.5 -314t90.5 -351q16 -66 28 -148l594 1700q12 43 84 43h25q59 0 59 -27q0 -4 -678 -1902q-16 -43 -75 -43h-62q-59 0 -71 43l-240 870q-135 -49 -145 -49q-23 0 -29 27q-12 47 -12 51z" />
<glyph unicode="&#x221e;" horiz-adv-x="1613" d="M96 530q0 174 108.5 276.5t264.5 102.5q109 0 191.5 -61.5t164.5 -175.5q14 14 57.5 54t63 57.5t58 47t68.5 43t72 24.5t85 11q129 0 206.5 -78.5t77.5 -205.5q0 -182 -110.5 -285.5t-255.5 -103.5q-92 0 -176 56t-176 185q-111 -117 -205 -179t-209 -62 q-119 0 -202 83.5t-83 210.5zM223 545q0 -80 52.5 -133.5t136.5 -53.5q137 0 325 207q-125 227 -291 228q-92 0 -157.5 -73t-65.5 -175zM879 578q90 -121 151.5 -170.5t136.5 -49.5q98 0 156.5 77t58.5 167q0 88 -48 139.5t-128 51.5q-51 0 -111.5 -35t-99 -69.5 t-116.5 -110.5z" />
<glyph unicode="&#x222b;" horiz-adv-x="761" d="M-70 -266q0 80 27 80l26 -12q26 -11 54 -11q186 0 227 402q16 166 40 538.5t42 536.5q55 516 363 516q133 0 133 -62q0 -31 -12.5 -50t-26.5 -19l-10 3q-10 3 -24.5 6t-31.5 3q-102 0 -156 -97.5t-77 -314.5q-16 -158 -41 -524.5t-43 -538.5q-16 -160 -53 -269 t-88.5 -161.5t-101.5 -72t-111 -19.5q-135 0 -136 66z" />
<glyph unicode="&#x2248;" horiz-adv-x="1120" d="M143 301q0 35 82 71t178 36q82 0 193 -27t158 -27q31 0 73.5 11.5t53.5 11.5q23 0 41 -18.5t18 -47.5q0 -37 -82 -72.5t-178 -35.5q-84 0 -193.5 26.5t-156.5 26.5q-31 0 -74 -11.5t-53 -11.5q-31 0 -49 33q-10 20 -11 35zM178 637q0 35 82 70.5t178 35.5 q82 0 192.5 -26.5t157.5 -26.5q31 0 74 11.5t53 11.5q23 0 41.5 -18.5t18.5 -47.5q0 -37 -82 -72.5t-178 -35.5q-84 0 -193.5 26.5t-156.5 26.5q-31 0 -74 -11.5t-53 -11.5q-32 0 -50 33q-10 20 -10 35z" />
<glyph unicode="&#x2260;" horiz-adv-x="1146" d="M76 281q0 78 51 77h283l178 197h-443q-35 0 -34 59q0 78 51 78h551l147 160q31 35 68 35h84q25 0 24 -15q0 -6 -10 -20l-145 -160h157q35 0 35 -49q0 -88 -51 -88h-266l-181 -197h429q35 0 34 -49q0 -88 -51 -88h-536l-156 -170q-31 -35 -68 -35h-84q-27 0 -26 15 q0 6 12 20l156 170h-174q-35 0 -35 60z" />
<glyph unicode="&#x2264;" horiz-adv-x="1159" d="M41 61l4 27q8 61 68 62h845q55 0 56 -62l-4 -27q-10 -61 -68 -61h-846q-31 0 -43 14t-12 47zM106 653q0 88 62 115l879 356q18 6 32 6q37 0 37 -53q0 -80 -59 -100l-760 -297l696 -299q41 -18 41 -72q0 -82 -51 -82q-16 0 -29 6l-804 357q-44 20 -44 63z" />
<glyph unicode="&#x2265;" horiz-adv-x="1159" d="M41 61l4 27q8 61 68 62h845q55 0 56 -62l-4 -27q-10 -61 -68 -61h-846q-31 0 -43 14t-12 47zM63 281q0 80 60 100l760 297l-697 299q-41 18 -41 72q0 82 52 81q16 0 28 -6l805 -356q43 -20 43 -63q0 -88 -61 -115l-879 -357q-18 -6 -33 -6q-37 0 -37 54z" />
<glyph unicode="&#x25ca;" horiz-adv-x="1142" d="M111 700q0 25 18 52l430 678q27 43 78 43h39q47 0 65 -43l291 -678q8 -18 8 -41q-2 -18 -18 -43l-430 -676q-27 -43 -78 -43h-39q-47 0 -65 43l-291 678q-8 20 -8 30zM260 711l250 -611l383 611l-254 608z" />
<glyph unicode="&#xe000;" horiz-adv-x="1075" d="M0 1075h1075v-1075h-1075v1075z" />
<glyph unicode="&#xfb01;" horiz-adv-x="1153" d="M119 979q0 92 51 92h82l20 207q27 270 293 270q145 0 146 -63q0 -20 -18.5 -59.5t-35.5 -39.5q-2 0 -12 3.5t-31.5 7.5t-48.5 4q-53 0 -83.5 -29t-39.5 -115l-18 -186h178q33 0 33 -39q0 -10 -6 -32.5t-28.5 -49t-57.5 -26.5h-135l-93 -883q-6 -45 -86 -45h-8 q-78 0 -78 45l93 883h-82q-35 0 -35 55zM739 182q0 39 20.5 250t41 404.5t22.5 193.5q6 45 86 45h9q78 0 77 -45q-82 -750 -82 -811q0 -39 12.5 -58.5t25 -22.5t34.5 -3q14 0 32.5 5t22.5 5q12 0 13 -14q0 -31 -9 -76q-6 -35 -46 -51t-76 -16q-182 0 -183 194zM852 1374 l12 121q6 45 86 45h25q78 0 78 -45l-13 -121q0 -45 -77 -45h-25q-86 0 -86 45z" />
<glyph unicode="&#xfb02;" horiz-adv-x="1210" d="M119 979q0 92 51 92h82l20 207q27 270 293 270q145 0 146 -63q0 -20 -18.5 -59.5t-35.5 -39.5q-2 0 -12 3.5t-31.5 7.5t-48.5 4q-53 0 -83.5 -29t-39.5 -115l-18 -186h178q33 0 33 -39q0 -10 -6 -32.5t-28.5 -49t-57.5 -26.5h-135l-93 -883q-6 -45 -86 -45h-8 q-78 0 -78 45l93 883h-82q-35 0 -35 55zM776 188q0 41 34 366t67 633l32 308q6 45 86 45h9q78 0 77 -45q-131 -1215 -131 -1276q0 -31 6.5 -49t19.5 -24.5t22.5 -8.5t25.5 -2q14 0 32.5 5t22.5 5q12 0 13 -14q0 -31 -9 -76q-6 -35 -46 -51t-76 -16q-184 0 -185 200z" />
</font>
</defs>
</svg>
