<?xml version="1.0" standalone="no"?>
<!DOCTYPE svg PUBLIC "-//W3C//DTD SVG 1.1//EN" "http://www.w3.org/Graphics/SVG/1.1/DTD/svg11.dtd" >
<svg xmlns="http://www.w3.org/2000/svg">
<metadata>
This is a custom SVG webfont generated by Font Squirrel.
Copyright   : Copyright  2010 ParaType Ltd All rights reserved
Designer    : AKorolkova OUmpeleva VYefimov
Foundry     : ParaType Ltd
Foundry URL : httpwwwparatypecom
</metadata>
<defs>
<font id="webfont6rEAMeGK" horiz-adv-x="1091" >
<font-face units-per-em="2048" ascent="1593" descent="-455" />
<missing-glyph horiz-adv-x="497" />
<glyph unicode="&#xfb01;" horiz-adv-x="1228" d="M1151 0h-455v51q63 35 135 49v822h-428v-822q53 -4 101.5 -17t91.5 -32v-51h-512v51q63 37 135 49v822h-156v53q72 45 156 67v72q0 127 41 210t106.5 131t150.5 66.5t171 18.5q41 0 91 -5t98.5 -14.5t88.5 -21.5t60 -26q-6 -68 -18 -107l-27 -84h-61l-170 176 q-59 0 -120 -12t-112 -47t-83 -100.5t-32 -172.5v-102h215q43 0 89.5 1t92.5 4t88 8t77 12h51v-949q41 -10 73.5 -21t61.5 -28v-51z" />
<glyph unicode="&#xfb02;" horiz-adv-x="1253" d="M838 1397q-45 25 -94.5 42t-96.5 17q-55 0 -100 -12t-77 -48t-49.5 -100.5t-17.5 -171.5v-100h236v-102h-236v-822q106 -12 193 -49v-51h-512v51q63 37 135 49v822h-156v53q72 45 156 67v72q0 127 31 210t85 131t127 66.5t159 18.5q18 0 43.5 -3t52 -9t51.5 -13.5 t43 -13.5l78 23q41 12 82 16h51v-1440q35 -8 77 -20t77 -29v-51h-471v51q33 16 65.5 29.5t67.5 19.5v1297z" />
<glyph unicode=" "  horiz-adv-x="497" />
<glyph unicode="&#x09;" horiz-adv-x="497" />
<glyph unicode="&#xa0;" horiz-adv-x="497" />
<glyph unicode="!" horiz-adv-x="669" d="M356 446l-65 361v606q45 23 92 23t92 -23v-606l-65 -361h-54zM244 117q0 61 39 98t100 37q63 0 102 -37t39 -98q0 -59 -39 -96t-102 -37q-61 0 -100 37t-39 96z" />
<glyph unicode="&#x22;" horiz-adv-x="778" d="M424 1372q10 27 31.5 44.5t56.5 17.5q63 0 86 -62l-65 -340h-41zM178 1372q10 27 31.5 44.5t56.5 17.5q63 0 86 -62l-65 -340h-41z" />
<glyph unicode="#" d="M631 477h-291l-86 -358h-109l86 358h-163l28 94h156l74 308h-156l29 94h149l82 342h107l-80 -342h291l81 342h107l-82 -342h164l-35 -94h-152l-73 -308h157l-34 -94h-144l-86 -358h-106zM360 571h291l74 308h-291z" />
<glyph unicode="$" d="M489 -25q-61 0 -118.5 9.5t-105.5 25t-86 33.5t-58 37q2 20 4 54t6 69t9 67.5t14 51.5h51l123 -199q27 -16 69.5 -27.5t91.5 -13.5v584q-8 0 -12 4l-65 30q-59 27 -114.5 60t-97.5 79t-68 107.5t-26 145.5q0 74 29 137t79 112.5t121 79t154 35.5v100h107v-100 q98 -6 171 -26.5t126 -45.5q-2 -66 -17.5 -108.5t-31.5 -75.5h-53l-103 139q-23 4 -43 6.5t-49 4.5v-547l59 -27q63 -31 124 -64.5t108 -79.5t75.5 -111.5t28.5 -162.5q0 -150 -104.5 -252t-290.5 -124v-125h-107v118zM807 344q0 106 -61.5 168.5t-149.5 103.5v-524 q92 25 151.5 89.5t59.5 162.5zM291 1128q0 -55 15.5 -97t42 -74.5t62 -58.5t78.5 -48v500q-92 -10 -145 -73t-53 -149z" />
<glyph unicode="%" horiz-adv-x="1652" d="M1383 1454l71 -63l-1198 -1405l-69 65zM106 1110q0 80 26.5 143.5t75 109.5t113 70.5t141.5 24.5q78 0 143.5 -21.5t113 -64.5t74 -108.5t26.5 -153.5q0 -80 -26.5 -144.5t-74 -109.5t-113 -69.5t-143.5 -24.5t-142 21.5t-112.5 64.5t-75 108.5t-26.5 153.5zM278 1110 q0 -123 47 -197.5t137 -74.5q184 0 185 272q0 270 -185 270q-184 0 -184 -270zM829 326q0 80 26.5 143.5t75 109.5t113 70.5t141.5 24.5q78 0 143.5 -21.5t113 -64.5t74 -108.5t26.5 -153.5q0 -80 -26.5 -144.5t-74 -109.5t-113 -69.5t-143.5 -24.5t-142 21.5t-112.5 64.5 t-75 108.5t-26.5 153.5zM1001 326q0 -123 47 -197.5t137 -74.5q184 0 185 272q0 270 -185 270q-184 0 -184 -270z" />
<glyph unicode="&#x26;" horiz-adv-x="1779" d="M1106 252q-61 55 -134 130t-141 153l-124 149q-57 72 -91 119q-88 -86 -126.5 -167t-38.5 -190q0 -78 25.5 -144t70.5 -115.5t108.5 -77t137.5 -27.5q92 0 172 42t141 128zM578 1194q0 -37 14 -79t37.5 -83t51.5 -80t54 -69q74 61 120 142t36 192q-4 66 -41 110.5 t-117 44.5q-45 0 -74.5 -15.5t-48 -41t-25.5 -57t-7 -64.5zM1427 0l-108 71q-66 42 -143 117q-29 -39 -72 -76.5t-101.5 -68.5t-130 -49.5t-155.5 -18.5q-109 0 -197 33t-149.5 88.5t-95 127t-33.5 149.5q0 100 36.5 181t88 141.5t106.5 102.5l92 68q-59 66 -100 154 t-41 164q0 51 20.5 101t60.5 88t98.5 61.5t131.5 23.5q135 0 218 -58.5t83 -168.5q0 -68 -23.5 -126t-60.5 -107.5t-83 -90.5t-91 -76q84 -104 194.5 -214.5t233.5 -221.5q16 23 41 76t46.5 125t34.5 157t7 169q-61 12 -121 49v53h416v-53q-55 -35 -135 -49 q-18 -121 -47 -219.5t-59.5 -173t-58 -127t-44.5 -76.5q78 -63 152.5 -117.5t167.5 -108.5l112 -49v-51h-291z" />
<glyph unicode="'" horiz-adv-x="454" d="M178 1372q10 27 31.5 44.5t56.5 17.5q63 0 86 -62l-65 -340h-41z" />
<glyph unicode="(" horiz-adv-x="702" d="M614 -430q-104 76 -194 166t-156.5 202.5t-104.5 250t-38 309.5q0 168 39 303t106.5 247.5t158.5 208t196 181.5l43 -37q-82 -88 -150 -180.5t-116 -201t-74.5 -236.5t-26.5 -285q0 -154 28.5 -284t79 -239.5t117 -199.5t142.5 -164z" />
<glyph unicode=")" horiz-adv-x="702" d="M39 -389q76 74 142.5 167t115.5 206.5t77.5 247t28.5 286.5q0 158 -26.5 283t-73.5 229.5t-114.5 194.5t-149.5 176l43 37q104 -80 195.5 -170t159 -201t106.5 -246t39 -303q0 -170 -37 -310t-102.5 -256t-156.5 -211t-198 -171z" />
<glyph unicode="*" horiz-adv-x="952" d="M127 1262q-6 14 -2 35.5t16.5 43t29.5 38t36 20.5l205 -178q0 -16 -6.5 -30.5t-22.5 -23.5zM205 909q-16 2 -32.5 17.5t-29 37t-18.5 44t0 39.5l256 88q31 -16 31 -50zM555 797q-10 -12 -31.5 -18.5t-46.5 -6.5t-46 6t-32 17l47 266q33 16 66 0zM823 1047q8 -14 3 -37 t-17 -44.5t-28.5 -38t-35.5 -18.5l-200 172q0 18 7 29.5t19 22.5zM750 1399q16 -2 32.5 -17.5t27.5 -37t16 -44t-1 -40.5l-254 -97q-29 20 -28 54zM397 1509q8 12 30 19.5t46 7.5q25 0 47.5 -7t32.5 -20l-45 -266q-31 -20 -64 0z" />
<glyph unicode="+" d="M86 758h406v430h108v-430h406v-109h-406v-440h-108v440h-406v109z" />
<glyph unicode="," horiz-adv-x="579" d="M104 -305q39 14 74 44t60.5 66.5t39 80.5t9.5 87q-25 23 -66 45.5t-71 32.5q-10 39 -1 76t27.5 65.5t42 46t45.5 19.5q72 -10 126 -63.5t54 -159.5q0 -57 -20.5 -119.5t-59 -118t-94 -99.5t-125.5 -65z" />
<glyph unicode="-" horiz-adv-x="870" d="M145 641h578v-129h-578v129z" />
<glyph unicode="." horiz-adv-x="571" d="M145 117q0 61 39 98t101 37q63 0 102 -37t39 -98q0 -59 -39 -96t-102 -37q-61 0 -100.5 37t-39.5 96z" />
<glyph unicode="/" horiz-adv-x="704" d="M670 1458l86 -37l-748 -1687l-84 39z" />
<glyph unicode="0" d="M72 717q0 369 122.5 555t352.5 186q248 0 362.5 -183t114.5 -558q0 -369 -124 -555.5t-365 -186.5q-125 0 -213.5 50.5t-143.5 145.5t-80.5 232.5t-25.5 313.5zM268 717q0 -147 14.5 -268t46 -208t82 -134.5t121.5 -47.5q162 0 228.5 160t66.5 498q0 147 -12 268t-45 207 t-87 133t-136 47q-154 0 -216.5 -158.5t-62.5 -496.5z" />
<glyph unicode="1" d="M870 0h-598v59q51 23 103.5 40.5t105.5 29.5v1006l8 120q-57 -23 -118.5 -32t-126.5 -6l-11 49q94 31 194.5 77t186.5 115h52v-1329q51 -12 102 -29.5t102 -40.5v-59z" />
<glyph unicode="2" d="M272 1034h-51q-23 59 -46 139t-40 152q72 61 172.5 97t216.5 36q102 0 176 -28.5t122 -77.5t70.5 -113.5t22.5 -134.5q0 -115 -53 -235.5t-132 -234.5t-171 -214.5t-170 -175.5l-86 -80v-8l115 12h352l100 229h52q4 -45 8 -98t7 -107.5t5 -104.5t2 -87h-846v66l110 114 q65 68 134.5 150t138 174t121.5 187t87 189.5t34 180.5q0 59 -15.5 112.5t-46 93.5t-74.5 62.5t-102 22.5q-43 0 -75.5 -6.5t-71.5 -18.5z" />
<glyph unicode="3" d="M524 72q57 0 106.5 25.5t86.5 69.5t58.5 101.5t21.5 120.5q0 76 -23.5 133.5t-64.5 95t-95.5 57t-117.5 19.5h-134v56l345 460l69 72v8l-110 -12h-347l-79 -209h-52q-8 43 -15 92t-13 97.5t-10.5 93.5t-4.5 82h801v-64l-342 -457l-88 -90v-4l70 15q96 -4 172 -37 t128 -87.5t79.5 -127t27.5 -158.5q0 -102 -41 -185t-109.5 -141.5t-157.5 -90.5t-187 -32q-47 0 -100.5 7.5t-104.5 21.5t-95 32.5t-75 43.5l57 184h41q12 -14 34 -37l45 -47l46 -49l39 -43l53 -10q33 -6 86 -6z" />
<glyph unicode="4" d="M977 0h-533v59q100 35 189 50v286h-625v47l758 1016h55v-956h260v-107h-260v-286q80 -16 156 -50v-59zM633 1028l22 148h-6l-80 -148l-344 -473l-82 -68l146 15h344v526z" />
<glyph unicode="5" d="M883 1546h51q-2 -31 -5 -68.5t-9 -75.5l-13 -73q-6 -35 -14 -57h-504l-49 -395h133q102 0 187 -28t145.5 -82t94.5 -132t34 -178q0 -119 -41 -209t-108.5 -150.5t-153.5 -91.5t-178 -31q-41 0 -88.5 7.5t-93.5 21.5t-87 33.5t-69 42.5l59 184h41l31 -37l38 -47l39 -49 q19 -25 35 -43q20 -4 38 -10t55 -6q68 0 124 26.5t97 72.5t63.5 107.5t22.5 133.5q0 82 -31 142t-84 98t-123.5 56.5t-148.5 16.5l-146 -2l82 711h488z" />
<glyph unicode="6" d="M1028 432q0 -94 -32.5 -177t-92 -145.5t-143.5 -98.5t-187 -36q-115 0 -202.5 40t-148 112t-91.5 170t-31 215q0 193 63.5 353.5t169 284.5t242 206t283.5 114l23 -61q-109 -39 -206 -105.5t-174 -156.5t-128 -201.5t-64 -240.5q33 55 117 101t195 46q88 0 163.5 -28.5 t129 -82t84 -131.5t30.5 -178zM831 416q0 145 -70.5 237t-197.5 92q-96 0 -164.5 -48t-97.5 -107q-4 -29 -4 -68v-61q0 -66 17.5 -134.5t53 -126t90 -94t126.5 -36.5q66 0 112.5 29.5t76.5 78.5t44 112t14 126z" />
<glyph unicode="7" d="M227 1067h-51q-8 43 -16 92t-14.5 98.5t-9.5 94.5t-3 82h848v-60q-102 -182 -170 -335.5t-116 -310.5t-82.5 -332t-69.5 -396h-205q76 299 188.5 594t259.5 594l62 98l-107 -10h-434z" />
<glyph unicode="8" d="M100 322q0 70 25 132t69 112t104 89t132 64q-57 31 -107.5 67.5t-87 84t-58 103.5t-21.5 126q0 80 28.5 145.5t80.5 112.5t127 73.5t167 26.5q180 0 280.5 -91t100.5 -234q0 -119 -78 -208t-203 -147q72 -37 133.5 -82t105.5 -98t69.5 -115.5t25.5 -134.5 q0 -76 -29.5 -143.5t-88 -118.5t-143.5 -81t-195 -30q-113 0 -195 29t-136 77t-80 110.5t-26 130.5zM813 313q0 70 -27.5 126.5t-73.5 100.5t-106.5 80.5t-124.5 67.5q-59 -35 -98 -78t-62.5 -89t-34 -91t-10.5 -84q0 -49 15.5 -99t48.5 -89t85 -63.5t128 -24.5 q63 0 112.5 21.5t82 56t49 78.5t16.5 87zM332 1126q0 -63 23.5 -110t62.5 -85t89 -69t103 -57q86 70 121 139.5t35 153.5q0 127 -56.5 195.5t-154.5 68.5q-55 0 -96 -20.5t-70 -53.5t-43 -75t-14 -87z" />
<glyph unicode="9" d="M96 997q0 100 30 184.5t88 146t143 96t196 34.5q119 0 206 -40t144.5 -111.5t84 -175t26.5 -228.5q0 -190 -55.5 -352t-150.5 -284t-225 -197.5t-280 -94.5l-37 60q121 33 214 96.5t160 150.5t107.5 192.5t57.5 221.5q-47 -49 -111.5 -82.5t-175.5 -33.5q-92 0 -170 27.5 t-133 80.5t-87 131t-32 178zM293 999q0 -59 18.5 -115.5t53 -100.5t84 -70.5t110.5 -26.5q98 0 162.5 34t95.5 85q4 27 4 66v63q0 74 -15 150.5t-48 138t-86.5 100.5t-126.5 39q-123 0 -187.5 -97.5t-64.5 -265.5z" />
<glyph unicode=":" horiz-adv-x="669" d="M243 905q0 61 39 98t101 37q63 0 102 -37t39 -98q0 -59 -39 -96t-102 -37q-61 0 -100.5 37t-39.5 96zM243 117q0 61 39 98t101 37q63 0 102 -37t39 -98q0 -59 -39 -96t-102 -37q-61 0 -100.5 37t-39.5 96z" />
<glyph unicode=";" horiz-adv-x="679" d="M254 905q0 61 39 98t101 37q63 0 102 -37t39 -98q0 -59 -39 -96t-102 -37q-61 0 -100.5 37t-39.5 96zM213 -305q39 14 74 44t60.5 66.5t39 80.5t9.5 87q-25 23 -66 45.5t-71 32.5q-10 39 -1 76t27.5 65.5t42 46t45.5 19.5q72 -10 126 -63.5t54 -159.5q0 -57 -20.5 -119.5 t-59 -118t-94 -99.5t-125.5 -65z" />
<glyph unicode="&#x3c;" d="M90 664v63l789 481l51 -90l-512 -309l-176 -82l174 -63l542 -320l-81 -133z" />
<glyph unicode="=" d="M86 922h922v-109h-922v109zM86 594h922v-109h-922v109z" />
<glyph unicode="&#x3e;" d="M1004 756v-64l-789 -481l-49 90l512 309l176 82l-174 64l-543 319l80 133z" />
<glyph unicode="?" horiz-adv-x="968" d="M260 1063h-51q-16 55 -36.5 142t-29.5 167q78 47 167 66.5t218 19.5q92 0 161 -25.5t115 -69.5t69.5 -105.5t23.5 -133.5q0 -92 -34 -160.5t-84 -124t-109.5 -103.5t-110.5 -101t-85 -116.5t-34 -149.5h-41q-14 59 -14 116q0 74 23.5 130.5t58.5 103.5t76 89t75.5 86 t58 94t23.5 116q0 45 -13 89t-41 80t-71 57.5t-104 21.5q-66 0 -106.5 -10.5t-57.5 -26.5zM293 117q0 61 39 98t100 37q63 0 102 -37t39 -98q0 -59 -38.5 -96t-102.5 -37q-61 0 -100 37t-39 96z" />
<glyph unicode="@" horiz-adv-x="2179" d="M1370 971q76 35 154 33l-105 -586q-12 -68 -17 -123t0 -95t22.5 -61.5t52.5 -21.5q68 0 139.5 38t131.5 109.5t99 174t39 229.5q0 156 -59.5 282.5t-162.5 215.5t-241.5 137.5t-296.5 48.5q-188 0 -338.5 -66.5t-257 -182.5t-164 -272.5t-57.5 -334.5q0 -182 59.5 -322.5 t167 -238t256 -147.5t326.5 -50q59 0 135 14.5t138 42.5l32 -90q-72 -41 -157.5 -57.5t-190.5 -16.5q-176 0 -335.5 53.5t-281.5 160t-193.5 266t-71.5 372.5q0 223 73.5 403.5t201.5 307.5t300 195.5t369 68.5q184 0 342.5 -54t275.5 -155.5t182.5 -248t65.5 -332.5 q0 -133 -46 -252t-125 -209t-181.5 -143.5t-214.5 -53.5q-61 0 -104.5 19.5t-66 63.5t-23.5 113.5t22 168.5h-9q-23 -66 -62.5 -130.5t-90.5 -116.5t-109.5 -85t-118.5 -33q-123 0 -189.5 85t-66.5 227q0 131 44.5 255.5t119 223t173 158t206.5 59.5q74 0 117 -12t92 -35z M1335 872q-33 20 -66.5 30.5t-86.5 10.5q-78 0 -147.5 -54t-121 -138t-81 -183.5t-29.5 -191.5q0 -98 30.5 -153.5t116.5 -55.5q39 0 84 38t89 99.5t86 138t75 154.5z" />
<glyph unicode="A" horiz-adv-x="1398" d="M455 0h-455v59q74 33 147 50l519 1349h59l518 -1349q41 -8 81 -18.5t75 -31.5v-59h-525v59q41 16 84 28.5t84 21.5l-139 374h-489l-135 -374q86 -12 176 -50v-59zM455 590h413l-161 434l-39 176h-4l-52 -180z" />
<glyph unicode="B" horiz-adv-x="1259" d="M59 0v59q82 39 168 50v1214q-41 8 -84 21.5t-84 29.5v60h217q39 0 75 2l75 4q39 2 84 4t102 2q82 0 167 -13.5t153.5 -50t111.5 -103.5t43 -173q0 -53 -16 -106.5t-50 -99.5t-85 -81t-121 -51v-8q61 -10 121.5 -35t108 -67t77 -103t29.5 -147q0 -111 -49 -191t-128 -131 t-179.5 -74.5t-202.5 -23.5q-72 0 -162 6t-174 6h-197zM606 94q74 0 138.5 22.5t110.5 62.5t72.5 96.5t26.5 121.5q0 82 -31.5 136.5t-86 86t-125 44t-146.5 12.5h-153v-565q29 -8 68.5 -12.5t125.5 -4.5zM514 782q35 0 83 3t79 8q94 33 154.5 105.5t60.5 170.5 q0 135 -81 202.5t-216 67.5q-63 0 -108.5 -2t-73.5 -6v-549h102z" />
<glyph unicode="C" horiz-adv-x="1318" d="M1120 373h54q10 -57 18 -145q5 -58 5 -113q0 -28 -1 -56q-31 -25 -74 -40t-91 -25t-98 -14.5t-95 -4.5q-172 0 -307.5 44t-228.5 134.5t-143 230.5t-50 333q0 201 55 341t149.5 229t219 130t262.5 41q135 0 227 -17.5t162 -51.5q0 -33 -2 -77t-6.5 -93.5t-10.5 -96.5 t-12 -86h-53l-107 295q-23 12 -75 16.5t-103 4.5q-102 0 -193.5 -38t-160 -117t-109.5 -198.5t-41 -281.5q0 -145 37 -263t106.5 -201t170 -127t227.5 -44q68 0 113 10t59 27z" />
<glyph unicode="D" horiz-adv-x="1449" d="M59 0v59q72 33 168 50v1214q-47 10 -90 23.5t-78 27.5v60h209q35 0 82 2t97 5l97 6q46 3 77 3q348 0 535 -186.5t187 -528.5q0 -162 -46 -300t-140 -238.5t-238.5 -157.5t-340.5 -57q-31 0 -70 3t-82 6l-87 6q-44 3 -83 3h-197zM592 1343q-53 0 -102.5 -1t-77.5 -7v-1241 q10 -2 36.5 -3t57.5 -2t58 -1h40q141 0 239.5 53.5t161 142.5t91 205.5t28.5 245.5q0 100 -27.5 208t-90 197t-165 146t-249.5 57z" />
<glyph unicode="E" horiz-adv-x="1191" d="M1030 1434q-2 -82 -7 -165t-15 -167h-54l-84 225h-446v-543h334l80 152h51q6 -101 6 -204.5t-6 -209.5h-51l-80 156h-334v-572h471l100 246h52q14 -86 20 -174q4 -53 4 -106q0 -36 -2 -72h-1010v59q72 33 168 50v1214q-41 8 -84 21.5t-84 29.5v60h971z" />
<glyph unicode="F" horiz-adv-x="1114" d="M403 109q90 -12 177 -50v-59h-521v59q35 16 72 28.5t76 21.5v1214q-45 10 -82 23.5t-66 27.5v60h961q-2 -80 -7 -164t-16 -168h-53l-84 225h-457v-584h355l84 152h47q4 -47 6 -99.5t2 -105.5q0 -55 -2 -108.5t-6 -100.5h-47l-84 158h-355v-530z" />
<glyph unicode="G" horiz-adv-x="1409" d="M1247 98q-39 -23 -91 -44t-110.5 -38.5t-117 -29t-109.5 -11.5q-164 0 -295 44t-223 135.5t-142 230.5t-50 332q0 201 58 342t155.5 230t221.5 129t253 40q135 0 228 -17.5t163 -51.5q0 -31 -2 -76t-6 -94.5t-10.5 -97.5t-12.5 -85h-53l-107 295q-23 12 -76 16.5 t-104 4.5q-102 0 -194.5 -38t-161 -117t-109.5 -198.5t-41 -281.5q0 -145 40 -262t110.5 -200t166 -128t206.5 -45q41 0 79.5 8t71.5 19.5t54.5 23.5t29.5 21v413q-53 4 -101 18.5l-96 30.5v60h502v-60q-20 -14 -49 -26t-78 -23v-469z" />
<glyph unicode="H" horiz-adv-x="1490" d="M578 0h-519v59q82 33 168 50v1214q-96 14 -168 51v60h519v-60q-35 -18 -74 -30.5t-80 -20.5v-535h643v535q-43 10 -81 22.5t-73 28.5v60h519v-60q-37 -20 -81 -31.5t-87 -19.5v-1214q47 -8 90 -20.5t78 -29.5v-59h-519v59q74 33 154 50v573h-643v-573q41 -8 80 -20.5 t74 -29.5v-59z" />
<glyph unicode="I" horiz-adv-x="720" d="M623 0h-525v59q80 37 164 50v1214q-41 8 -82 21.5t-82 29.5v60h525v-60q-37 -16 -80 -29.5t-84 -21.5v-1214q43 -8 86 -20.5t78 -29.5v-59z" />
<glyph unicode="J" horiz-adv-x="698" d="M80 1434h520v-60q-37 -16 -76 -29.5t-80 -21.5v-1147q0 -143 -32.5 -235.5t-80.5 -148.5t-102.5 -82.5t-99.5 -37.5l-23 31q31 27 56.5 60.5t45 85t30 125t10.5 180.5v1169q-45 10 -88 22.5t-80 28.5v60z" />
<glyph unicode="K" horiz-adv-x="1323" d="M782 1434h453v-60q-41 -18 -80 -30.5t-76 -20.5l-411 -545l117 -151l140 -173l149 -181l151 -173l98 -49v-51h-256l-70 49q-121 141 -240 305l-233 332h-100v-577q94 -16 154 -50v-59h-519v59q82 33 168 50v1214q-92 12 -168 51v60h519v-60q-33 -14 -72 -27.5t-82 -23.5 v-567l123 28l383 539q-41 10 -78 22.5t-70 28.5v60z" />
<glyph unicode="L" horiz-adv-x="1124" d="M59 1434h562v-60q-49 -18 -98.5 -31.5t-98.5 -19.5v-1217h471l121 330h53q6 -43 11 -99t8.5 -116.5t3.5 -118t-2 -102.5h-1031v59q49 23 90 33t78 17v1214q-47 8 -90 21.5t-78 29.5v60z" />
<glyph unicode="M" horiz-adv-x="1775" d="M1714 0h-508v59q41 16 82 27.5l84 22.5v921l8 240h-16l-68 -219l-419 -1051h-54l-399 1051l-74 239h-18l2 -260v-921q39 -8 78 -20.5t77 -29.5v-59h-428v59q39 16 81 29.5t85 22.5v1212q-43 8 -85 21.5t-83 29.5v60h420l357 -936l69 -211h2l70 215l369 932h370v-60 q-37 -16 -75.5 -29.5t-79.5 -21.5v-1217q43 -8 80.5 -19t72.5 -28v-59z" />
<glyph unicode="N" horiz-adv-x="1499" d="M997 1434h443v-60q-86 -57 -168 -82v-1317h-117l-743 1129l-80 160h-6l18 -160v-973q84 -23 158 -72v-59h-443v59q37 23 79 40.5t89 31.5v1174q-41 16 -81 34.5t-74 36.5v58h346l645 -973l94 -176h8l-10 176v831q-43 18 -83 39t-75 43v60z" />
<glyph unicode="O" horiz-adv-x="1515" d="M109 717q0 160 44 296t126.5 235.5t203.5 154.5t275 55t274.5 -55t203.5 -154.5t127 -235.5t44 -296t-44 -296t-127 -235.5t-204 -155t-274 -55.5q-154 0 -275 55.5t-203.5 155t-126.5 235.5t-44 296zM328 717q0 -131 27.5 -247t83 -202t139.5 -136t198 -50q104 0 182 50 t128.5 136t76 202t25.5 247t-26.5 246.5t-82 201.5t-139.5 136.5t-199 50.5q-113 0 -191.5 -50.5t-127.5 -136.5t-71.5 -201.5t-22.5 -246.5z" />
<glyph unicode="P" horiz-adv-x="1220" d="M424 109q55 -6 104.5 -19.5t92.5 -30.5v-59h-562v59q41 20 84 30.5t84 19.5v1214q-47 8 -88 21.5t-80 29.5v60h185q82 0 178 8t184 8q100 0 196.5 -21.5t171.5 -72.5t121 -136t46 -212q0 -121 -47 -207t-126 -141.5t-179.5 -81t-206.5 -25.5h-32q-22 0 -46.5 1t-47 3 t-32.5 4v-452zM563 1343q-49 0 -79.5 -2t-59.5 -8v-663q10 -4 29.5 -5t41 -3.5t42.5 -2.5h32q72 0 135.5 19.5t111.5 62.5t77 108.5t29 158.5q0 168 -95.5 251.5t-263.5 83.5z" />
<glyph unicode="Q" horiz-adv-x="1515" d="M1556 -236q-82 -74 -167 -125q-83 -50 -177 -51h-8q-84 0 -176 31t-197 74l-222 90q-118 47 -255 82l62 41q45 6 88 6q102 0 201.5 -24.5t200 -53.5t202.5 -53.5t209 -24.5q55 0 112.5 8.5t116.5 28.5zM109 717q0 160 44 296t126.5 235.5t203.5 154.5t275 55t274.5 -55 t203.5 -154.5t127 -235.5t44 -296t-44 -296t-127 -235.5t-204 -155t-274 -55.5q-154 0 -275 55.5t-203.5 155t-126.5 235.5t-44 296zM328 717q0 -131 27.5 -247t83 -202t139.5 -136t198 -50q104 0 182 50t128.5 136t76 202t25.5 247t-26.5 246.5t-82 201.5t-139.5 136.5 t-199 50.5q-113 0 -191.5 -50.5t-127.5 -136.5t-71.5 -201.5t-22.5 -246.5z" />
<glyph unicode="R" horiz-adv-x="1304" d="M424 109q47 -10 90 -21.5t84 -28.5v-59h-539v59q45 20 86 30.5t82 19.5v1214q-53 10 -94 23.5t-74 27.5v60h181q82 0 179 8t189 8q100 0 187.5 -22.5t151 -71.5t99 -125t35.5 -182q0 -150 -78.5 -248.5t-214.5 -141.5q88 -139 184.5 -276t201.5 -272l110 -60v-51h-248 l-78 57q-57 72 -104 140.5t-88 139.5t-77 143l-73 155h-192v-526zM563 1343q-49 0 -80.5 -2t-58.5 -8v-612h147q141 0 224.5 90t83.5 238q0 152 -88.5 223t-227.5 71z" />
<glyph unicode="S" horiz-adv-x="1097" d="M307 141q25 -25 64 -42t116 -17q66 0 123.5 17.5t99.5 51t66.5 82t24.5 109.5q0 82 -50.5 137.5t-125 98.5t-162.5 83.5t-163 97t-125 135.5t-50 198q0 86 30.5 153.5t87 114.5t134.5 72.5t174 25.5q125 0 228.5 -19.5t162.5 -47.5q0 -35 -5 -81t-12 -95.5t-15.5 -95.5 t-16.5 -81h-53l-82 281q-37 16 -93.5 24.5t-119.5 8.5q-104 0 -168 -58.5t-64 -163.5q0 -84 50.5 -141t126 -102t162.5 -87t163 -97.5t126 -131t50 -188.5q0 -92 -33.5 -168t-97 -129t-156 -82t-208.5 -29q-129 0 -231.5 31t-145.5 66q2 35 7 84t12 101t15.5 101.5 t16.5 83.5h53z" />
<glyph unicode="T" horiz-adv-x="1267" d="M922 0h-576v59q45 16 91 28.5t100 21.5v1218h-314l-108 -293h-52q-6 41 -10 93.5t-7 106.5t-5 106.5t-2 93.5h1190q0 -41 -2 -92.5t-5 -105.5l-7 -107q-3 -52 -9 -95h-53l-106 293h-314v-1218q53 -10 99.5 -20.5t89.5 -29.5v-59z" />
<glyph unicode="U" horiz-adv-x="1376" d="M20 1434h521v-60q-39 -16 -78 -28.5t-78 -22.5v-838q0 -109 23.5 -181.5t68.5 -116.5t111.5 -63.5t150.5 -19.5q162 0 252 89.5t90 293.5v818q-47 16 -88 33.5t-73 35.5v60h436v-60q-39 -23 -79 -41t-81 -28v-822q0 -131 -35 -225t-97.5 -155.5t-151.5 -91t-197 -29.5 q-256 0 -391.5 115.5t-135.5 355.5v870q-84 12 -168 51v60z" />
<glyph unicode="V" horiz-adv-x="1400" d="M1116 1323q-49 10 -92 23.5l-84 27.5v60h461v-60q-59 -33 -148 -51l-462 -1323l-113 -25l-522 1348q-41 10 -80 23.5l-76 27.5v60h543v-60q-35 -14 -78 -27.5t-90 -23.5l350 -936l43 -164h4l41 168z" />
<glyph unicode="W" horiz-adv-x="1912" d="M1630 1323q-43 6 -86 19.5t-90 31.5v60h459v-60q-70 -31 -148 -51l-342 -1323l-127 -25l-329 1115l-324 -1090l-125 -25l-362 1348q-41 10 -80 22.5t-76 28.5v60h532v-60l-79.5 -27.5t-87.5 -23.5l202 -825l45 -267h4l72 271l277 932h69l297 -932l60 -266h4l47 270z" />
<glyph unicode="X" horiz-adv-x="1372" d="M809 1434h471v-60q-35 -14 -74 -27.5t-80 -23.5l-360 -555l420 -659q98 -16 168 -50v-59h-545v59q74 37 156 50l-324 514l-311 -517q43 -6 84 -15t80 -32v-59h-474v59q39 20 77 30.5t75 19.5l401 612l-385 602l-80 25q-40 12 -81 26v60h542v-60q-31 -12 -68.5 -24.5 t-86.5 -26.5l286 -463l279 463q-84 18 -170 51v60z" />
<glyph unicode="Y" horiz-adv-x="1318" d="M868 1434h451v-60q-78 -39 -156 -51l-387 -713v-501q80 -10 156 -50v-59h-520v59q74 37 168 50v499l-414 715q-47 8 -87 21.5t-79 29.5v60h543v-60q-31 -12 -70 -25.5t-88 -25.5l336 -602l315 602q-47 10 -89 23.5t-79 27.5v60z" />
<glyph unicode="Z" horiz-adv-x="1249" d="M1092 393h53q6 -41 11 -92t8 -104.5t4 -104.5q0 -17 1 -33q0 -32 -2 -59h-1087v104l852 1223h-631l-125 -287h-51q-6 43 -11 94.5t-8.5 104.5t-4.5 103.5t-1 91.5h1047v-107l-848 -1221h668z" />
<glyph unicode="[" horiz-adv-x="628" d="M170 1434h387v-86h-213v-1735h213v-84h-387v1905z" />
<glyph unicode="\" horiz-adv-x="782" d="M838 -219l-84 -47l-850 1679l86 45z" />
<glyph unicode="]" horiz-adv-x="628" d="M459 -471h-387v84h213v1735h-213v86h387v-1905z" />
<glyph unicode="^" horiz-adv-x="1024" d="M477 1456h66l348 -567h-180l-181 309l-49 137l-65 -139l-205 -307h-115z" />
<glyph unicode="_" horiz-adv-x="839" d="M0 -293h840v-108h-840v108z" />
<glyph unicode="`" horiz-adv-x="671" d="M549 1214l-45 -34l-381 305v41q12 10 39.5 19t60.5 15.5t62.5 9.5t46.5 1z" />
<glyph unicode="a" horiz-adv-x="1034" d="M840 268q0 -45 2 -77.5t4 -69.5l141 -21v-43q-51 -27 -113.5 -47t-119.5 -30h-52q-20 47 -24 103t-6 124h-10q-8 -41 -32 -83t-62 -75t-89 -53.5t-117 -20.5q-125 0 -203.5 76t-78.5 199q0 94 38 154.5t111.5 95.5t182 50t252.5 23q6 64 6 119q0 21 -1 40 q-3 71 -22.5 121t-57.5 77.5t-100 27.5q-29 0 -64.5 -3t-70.5 -17l-96 -246h-53q-20 61 -35.5 127t-19.5 129q78 47 173 74t212 27q104 0 166.5 -30t95 -77t43 -104.5t10.5 -114.5q0 -123 -5 -237t-5 -218zM444 102q51 0 90 20.5t66 49.5t43 58.5t23 50.5v215 q-119 0 -195 -12.5t-119 -39t-59.5 -66.5t-16.5 -91q0 -88 45 -136.5t123 -48.5z" />
<glyph unicode="b" horiz-adv-x="1116" d="M158 1397l-156 16v53q63 27 142 43l147 31h51v-719h4q35 104 118 166t183 62q186 0 285.5 -127t99.5 -392q0 -270 -136 -409t-392 -139q-51 0 -102.5 7t-98.5 17t-85 24.5t-60 28.5v1338zM592 922q-98 0 -159.5 -67t-90.5 -169v-571q37 -20 90 -31.5t113 -11.5 q135 0 213 117.5t78 340.5q0 80 -13.5 152t-43 125t-75.5 84t-112 31z" />
<glyph unicode="c" horiz-adv-x="954" d="M874 143q-37 -72 -119.5 -120t-193.5 -48q-121 0 -210 38t-148.5 109t-89 170t-29.5 220q0 260 127 398.5t346 138.5q100 0 179 -17.5t134 -46.5q-6 -68 -22.5 -151.5t-40.5 -139.5h-55l-86 244q-14 10 -33 15t-62 5q-139 0 -214.5 -101t-75.5 -343q0 -78 21.5 -151.5 t65.5 -132t110.5 -93.5t154.5 -35q72 0 125 20.5t90 49.5z" />
<glyph unicode="d" horiz-adv-x="1136" d="M764 203q-10 -45 -34.5 -86t-60.5 -73t-82 -50.5t-100 -18.5q-203 0 -303 129t-100 402q0 262 128 399t345 137q76 0 119 -7t94 -25v387l-156 16v53q59 25 138 43.5t151 30.5h51v-1423l136 -17v-43q-59 -29 -123 -49t-125 -28h-51l-19 223h-8zM528 102q100 0 160 63.5 t82 172.5v577q-35 20 -82 28.5t-121 8.5q-139 0 -212.5 -121.5t-73.5 -324.5q0 -84 14 -157t45 -128t76.5 -87t111.5 -32z" />
<glyph unicode="e" horiz-adv-x="1030" d="M913 143q-16 -35 -51 -65.5t-80 -53t-98 -36t-109 -13.5q-121 0 -213 38t-153.5 109t-93 169t-31.5 221q0 262 121 399.5t342 137.5q72 0 141.5 -19.5t123.5 -64.5t88 -120t34 -186q0 -35 -3 -70.5t-11 -76.5h-639q0 -86 21.5 -161t64.5 -130t108.5 -87t153.5 -32 q72 0 145.5 20.5t110.5 53.5zM539 958q-117 0 -178.5 -78.5t-73.5 -277.5h450q2 18 3 35.5t1 34.5q0 131 -49 208.5t-153 77.5z" />
<glyph unicode="f" horiz-adv-x="700" d="M627 1540q18 0 42.5 -2t51.5 -5t51.5 -8t42.5 -12q-6 -68 -17.5 -126t-27.5 -105h-51l-90 176q-59 0 -101.5 -12t-70 -47t-41 -100.5t-13.5 -172.5v-102h236v-102h-236v-822q106 -12 197 -49v-51h-516v51q63 37 135 49v822h-156v53q72 45 156 67v72q0 127 31 210t86 131 t130 66.5t161 18.5z" />
<glyph unicode="g" horiz-adv-x="1077" d="M506 1049q111 0 186.5 -21.5t126.5 -66.5q121 82 252 118q16 -23 23.5 -55.5t7.5 -60.5l-27 -50h-215q51 -74 51 -194q0 -147 -103 -239.5t-302 -92.5q-39 0 -63.5 2t-55.5 6l-23 -41q-13 -23 -14 -47q0 -41 47 -64.5t118 -42t154 -38t154.5 -53t119.5 -87.5 q50 -57 50 -149q0 -69 -34 -125q-36 -59 -99 -99t-152.5 -61.5t-195.5 -21.5q-223 0 -337 75.5t-114 190.5q0 55 17.5 96t50.5 72t82 54.5t113 43.5q-45 20 -75 56t-30 88q0 47 40 93t81 73q-117 31 -179.5 116.5t-62.5 194.5q0 70 27 130t78 105t127 70t176 25zM809 -166 q0 66 -44 104.5t-109.5 63.5t-141.5 41t-141 37q-78 -47 -102.5 -99.5t-24.5 -107.5q0 -109 77.5 -163t225.5 -54q76 0 126 14.5t79.5 38t42 56t12.5 69.5zM283 719q0 -49 11 -93t36.5 -77t68.5 -52.5t107 -19.5q119 0 170 69.5t51 172.5q0 111 -50 175t-171 64 q-125 0 -174 -62t-49 -177z" />
<glyph unicode="h" horiz-adv-x="1202" d="M1167 0h-442v51q49 27 123 49v480q0 160 -45 251t-164 91q-53 0 -96 -19.5t-78 -50.5t-59.5 -71t-36.5 -83v-598q33 -8 62.5 -18t57.5 -31v-51h-440v51q63 33 135 49v1297l-155 16v53q59 25 138 43.5t150 30.5h52v-723h2q43 96 123.5 164t195.5 68q82 0 146.5 -19.5 t107.5 -69t65.5 -132.5t22.5 -210v-518q35 -8 70 -18t65 -31v-51z" />
<glyph unicode="i" horiz-adv-x="616" d="M539 0h-455v51q31 16 63.5 27.5t71.5 21.5v805l-135 17v53q59 25 129 43t139 31h51v-949q41 -10 74 -21t62 -28v-51zM180 1372q0 55 36 88t95 33t94 -33t35 -88t-35 -87t-94 -32t-95 32t-36 87z" />
<glyph unicode="j" horiz-adv-x="589" d="M217 905l-135 17v53q59 29 130 46t138 28h51v-961q0 -145 -36.5 -241.5t-86 -156t-100.5 -88t-82 -36.5l-24 39q25 12 50 42.5t46.5 85t35 132.5t13.5 184v856zM178 1372q0 55 36 88t95 33t94 -33t35 -88t-35 -87t-94 -32t-95 32t-36 87z" />
<glyph unicode="k" horiz-adv-x="1056" d="M614 1024h396v-53q-39 -16 -77 -28.5t-79 -20.5q-31 -41 -71 -88l-81 -95l-78 -88l-65 -67l75 -100l95 -124l106 -133q54 -68 107 -127l115 -49v-51h-254l-55 49q-109 135 -181 241l-131 197l-67 21v-408q68 -12 133 -49v-51h-453v51q68 33 135 49v1297l-155 16v53 q57 27 137 43l151 31h52v-979h53l72 82l77 93l76 95l68 91q-51 14 -101 49v53z" />
<glyph unicode="l" horiz-adv-x="616" d="M539 0h-455v51q68 33 135 49v1297l-156 16v53q53 25 133 43.5t156 30.5h51v-1440q68 -16 136 -49v-51z" />
<glyph unicode="m" horiz-adv-x="1767" d="M1122 0h-438v51q20 12 50 25.5t71 23.5v473q0 82 -7 147.5t-26.5 109.5t-56.5 68t-97 24q-45 0 -82.5 -18.5t-67.5 -49.5t-51.5 -70t-33.5 -82v-602q33 -10 62.5 -21t58.5 -28v-51h-441v51q29 14 64 26.5t72 22.5v805l-136 17v53q66 29 134.5 46t134.5 28h51v-232h2 q33 96 111.5 164t195.5 68q49 0 94 -10.5t84 -38t66 -77t39 -126.5q37 113 119 182.5t204 69.5q76 0 132.5 -19.5t93.5 -69t54 -133.5t17 -213v-514q70 -12 136 -49v-51h-441v51q61 33 121 49v510q0 74 -7 131.5t-27.5 97.5t-57.5 61.5t-98 21.5q-98 0 -152.5 -68 t-79.5 -172v-582q72 -20 133 -49v-51z" />
<glyph unicode="n" horiz-adv-x="1216" d="M1182 0h-441v51q55 29 121 49v486q0 156 -45 246t-164 90q-51 0 -95 -18.5t-78 -50.5t-58.5 -72t-38.5 -83v-598q63 -12 123 -49v-51h-443v51q51 27 136 49v805l-136 17v53q53 23 123 41t146 33h51v-230h2q43 94 124 162t196 68q82 0 146 -19.5t107 -69t66 -132.5 t23 -210v-518q82 -14 135 -49v-51z" />
<glyph unicode="o" horiz-adv-x="1132" d="M84 512q0 129 34 228.5t97.5 168t152.5 104.5t197 36q127 0 219.5 -39t150.5 -110t86 -169t28 -219q0 -258 -131.5 -397.5t-352.5 -139.5q-123 0 -213 38t-149.5 109t-89 170t-29.5 220zM281 512q0 -92 17 -174t55 -142.5t99.5 -95t147.5 -34.5q111 0 181.5 108.5 t70.5 337.5q0 94 -17.5 175t-54.5 141.5t-94 95t-137 34.5q-121 0 -194.5 -108.5t-73.5 -337.5z" />
<glyph unicode="p" horiz-adv-x="1159" d="M518 -410h-455v52q70 33 136 49v1214l-136 17v53q66 29 134.5 46t134.5 28h51v-230h2q41 104 114.5 167t192.5 63q182 0 282.5 -121t100.5 -393q0 -129 -33.5 -233.5t-96 -176.5t-151.5 -111t-198 -39q-76 0 -119 9.5t-94 31.5v-325q33 -4 65.5 -15.5t69.5 -33.5v-52z M627 922q-100 0 -159.5 -63.5t-84.5 -174.5v-573q37 -23 83 -34t120 -11q68 0 122 34.5t92 98t58.5 148.5t20.5 188q0 84 -13.5 154.5t-43 122.5t-77.5 81t-118 29z" />
<glyph unicode="q" horiz-adv-x="1122" d="M762 182q-29 -82 -100.5 -144.5t-182.5 -62.5q-197 0 -296 130.5t-99 400.5q0 266 132 401t380 135q111 0 211 -20.5t147 -42.5v-1288q35 -6 68 -17.5t68 -31.5v-52h-455v52q63 33 135 49v491h-8zM528 102q100 0 158.5 63.5t83.5 170.5v588q-37 12 -87 20t-116 8 q-137 0 -211.5 -106.5t-74.5 -335.5q0 -86 12 -160t42 -129t76.5 -87t116.5 -32z" />
<glyph unicode="r" horiz-adv-x="786" d="M500 870q-23 -12 -56.5 -50t-60.5 -111v-609q41 -4 82 -15t82 -34v-51h-484v51q37 20 70 30.5t66 18.5v805l-136 17v53q66 29 135.5 46t133.5 28h51v-218h8q18 41 52 82t78 74t96 50q39 13 79 13q14 0 29 -1q14 -27 25.5 -59t21.5 -66v-54h-272z" />
<glyph unicode="s" horiz-adv-x="886" d="M604 233q0 57 -36 97.5t-91 75t-117.5 67.5t-118 77t-91 101.5t-35.5 141.5q0 55 25.5 102t68.5 81t100.5 53.5t122.5 19.5q111 0 181.5 -12.5t136.5 -35.5q-8 -66 -19.5 -132t-32.5 -136h-51l-78 209q-25 10 -55.5 13t-62.5 3q-37 0 -65 -13t-47.5 -33.5t-29.5 -47 t-10 -53.5q0 -55 36 -95t91 -74t117.5 -66.5t118 -73.5t91 -95.5t35.5 -130.5q0 -70 -29.5 -125t-81.5 -94t-121 -60.5t-146 -21.5q-88 0 -162 15.5t-154 44.5q4 74 18.5 142.5t37.5 131.5h51l90 -223q23 -16 54.5 -18t57.5 -2q90 0 145.5 48.5t55.5 118.5z" />
<glyph unicode="t" horiz-adv-x="759" d="M31 975q78 49 164 69v175q27 23 62 39l71 34h51v-268h307v-102h-307v-594q0 -123 39 -174.5t117 -51.5q37 0 92 5.5t94 19.5l14 -31q-16 -18 -46 -38.5t-67.5 -39t-82.5 -31t-93 -12.5q-123 0 -187 70t-64 225v652h-164v53z" />
<glyph unicode="u" horiz-adv-x="1175" d="M158 406q0 129 6 252.5t6 246.5l-135 17v53q66 25 134.5 43t133.5 31h51q0 -154 -6 -305.5t-6 -301.5q0 -80 9 -143t33 -106t64.5 -67t104.5 -24q92 0 154.5 67t97.5 173v563l-133 17v53q63 25 131.5 43t134.5 31h51v-932l135 -17v-43q-59 -27 -119.5 -47t-125.5 -30h-52 l-14 243h-8q-10 -43 -36 -87t-66.5 -80t-93 -58.5t-113.5 -22.5q-82 0 -144.5 19.5t-105.5 69t-65.5 132.5t-22.5 210z" />
<glyph unicode="v" horiz-adv-x="1038" d="M487 -25l-399 947q-59 20 -108 49v53h428v-51l-54.5 -27.5t-62.5 -23.5l237 -617l41 -127h4l31 129l219 615q-33 8 -60.5 20t-51.5 29v53h348v-53q-20 -14 -50 -26.5t-67 -22.5l-362 -922z" />
<glyph unicode="w" horiz-adv-x="1490" d="M410 -25l-322 947q-29 10 -56.5 21t-51.5 28v53h426v-51q-29 -16 -58 -29.5t-59 -21.5l178 -598l27 -148h4l30 152l222 676l61 20l236 -698l36 -150h4l31 150l158 596q-23 4 -52.5 16t-60.5 33v53h348v-53q-43 -29 -116 -49l-291 -922l-109 -25l-202 580l-39 170h-6 l-48 -170l-184 -555z" />
<glyph unicode="x" horiz-adv-x="1062" d="M610 549l324 -449q29 -10 56.5 -21t51.5 -28v-51h-419v49l53 30q25 13 49 21l-227 336l-230 -336q29 -10 53.5 -22t49.5 -27v-51h-351v51q57 35 115 49l305 408l-307 414q-29 10 -52.5 21t-47.5 28v53h411v-51l-48 -29.5t-52 -21.5l213 -308l209 308q-70 23 -102 49v53 h342v-53q-39 -27 -115 -49z" />
<glyph unicode="y" horiz-adv-x="1034" d="M86 922q-31 8 -56.5 20t-52.5 29v53h429v-51q-43 -29 -117 -51l262 -607l39 -127h4l31 129l194 605q-61 12 -112 49v53h350v-53q-43 -29 -117 -49l-319 -922q-49 -131 -93.5 -212t-88.5 -128t-90 -68.5t-99 -31.5q-23 39 -40 86t-30 90l27 49h213q12 16 21.5 31.5 t19.5 38t22.5 57.5t28.5 88z" />
<glyph unicode="z" horiz-adv-x="999" d="M866 350q14 -86 22 -173q5 -55 4 -112q0 -32 -1 -65h-803v51l584 883h-387l-90 -242h-52q-16 88 -19 173t-3 159h770v-53l-586 -881h400l110 260h51z" />
<glyph unicode="{" horiz-adv-x="712" d="M276 227q0 104 -43 164t-120 60v61q78 0 120.5 62.5t42.5 152.5v490q0 98 49.5 157.5t147.5 59.5h184v-86h-98q-55 0 -80.5 -29t-25.5 -94v-477q0 -68 -21.5 -115t-55.5 -77t-73 -45t-76 -19v-13q35 -4 75 -20.5t74 -49t55.5 -80.5t21.5 -114v-479q0 -63 24.5 -93 t83.5 -30h96v-84h-184q-92 0 -144.5 54.5t-52.5 160.5v483z" />
<glyph unicode="|" horiz-adv-x="485" d="M190 1434h107v-1700h-107v1700z" />
<glyph unicode="}" horiz-adv-x="712" d="M487 737q0 -104 43 -163.5t121 -59.5v-61q-78 0 -121 -62.5t-43 -152.5v-492q0 -98 -49 -157.5t-147 -59.5h-185v84h101q55 0 80.5 28.5t25.5 94.5v481q0 68 18.5 115t48.5 76.5t65.5 45t72.5 19.5v12q-35 4 -71.5 20.5t-66.5 49.5t-48.5 81t-18.5 114v475q0 63 -24.5 93 t-83.5 30h-99v86h187q92 0 143 -54.5t51 -160.5v-482z" />
<glyph unicode="~" horiz-adv-x="1085" d="M119 659q74 111 141.5 153t128.5 42q51 0 100.5 -21.5t96.5 -48t95 -48t99 -21.5q37 0 77 15t81 54l27 -43q-59 -86 -118 -121.5t-114 -35.5q-53 0 -103 21.5t-99.5 48t-98.5 48t-98 21.5q-45 0 -91 -24.5t-93 -88.5z" />
<glyph unicode="&#xa1;" horiz-adv-x="669" d="M313 586l66 -361v-606q-43 -23 -92 -22.5t-92 22.5v606l65 361h53zM426 913q0 -59 -39 -96t-100 -37q-63 0 -102.5 37t-39.5 96q0 61 39 98.5t103 37.5q61 0 100 -37.5t39 -98.5z" />
<glyph unicode="&#xa2;" d="M983 143q-41 -74 -123 -120t-192 -48v-323h-109v332q-215 31 -323.5 171t-108.5 357q0 113 31.5 204t89 158.5t136.5 108.5t175 57v312h109v-303q98 0 177 -17.5t134 -46.5q-6 -68 -23.5 -151.5t-42.5 -139.5h-51l-84 244q-14 10 -32.5 15t-59.5 5h-20v-849q37 -6 73 -7 q72 0 125.5 20.5t89.5 49.5zM324 514q0 -117 60 -221.5t177 -155.5v805q-109 -33 -173 -135.5t-64 -292.5z" />
<glyph unicode="&#xa3;" d="M61 780h175q-31 66 -53.5 137.5t-22.5 176.5q0 84 30.5 151.5t86 114.5t133 72.5t174.5 25.5q125 0 229.5 -20.5t163.5 -48.5q-2 -33 -7 -79t-12.5 -94.5l-15.5 -95.5t-16 -82h-52l-81 281q-39 16 -94.5 24.5t-118.5 8.5q-80 0 -136.5 -35t-78.5 -98q-16 -45 -17 -95 q2 -104 26.5 -186t53.5 -158h320v-104h-283q14 -51 22.5 -101.5t4.5 -109.5q-2 -70 -28 -133.5t-83 -110.5l-68 -57v-8l115 12h408l100 229h51q4 -45 8 -98t7.5 -107.5t5.5 -104.5t2 -87h-942v63q131 57 195.5 137.5t66.5 205.5q0 23 -1 42t-3 39q-12 111 -43 189h-222v104z " />
<glyph unicode="&#xa4;" d="M74 348l170 168l71 23q-29 35 -41 77.5t-12 92.5q0 47 12.5 91t40.5 79l-71 22l-168 170l110 111l168 -170l25 -70q35 27 77 41t91 14q49 -2 92 -15t76 -40l26 70l168 168l109 -111l-170 -168l-66 -22q47 -70 47 -170q2 -96 -47 -172l66 -21l168 -170l-109 -110l-168 167 l-24 70q-33 -23 -76 -36t-92 -13t-91 13.5t-81 35.5l-21 -67l-170 -168zM547 541q74 0 124 47t50 121t-50 122t-124 48q-74 2 -124 -47.5t-50 -122.5q0 -74 50 -121t124 -47z" />
<glyph unicode="&#xa5;" d="M735 1434h451v-60q-82 -39 -156 -51l-328 -637h295v-106h-333v-129h333v-107h-333v-235q80 -10 155 -50v-59h-520v59q74 37 168 50v235h-334v107h334v129h-334v106h291l-350 637q-47 8 -87 21.5t-79 29.5v60h543v-60q-31 -12 -70 -25.5t-88 -25.5l315 -604l295 604 q-47 10 -89 23.5t-79 27.5v60z" />
<glyph unicode="&#xa6;" horiz-adv-x="485" d="M190 389h107v-655h-107v655zM297 778h-107v656h107v-656z" />
<glyph unicode="&#xa7;" horiz-adv-x="1079" d="M711 90q0 61 -44 98t-109.5 65t-141.5 53.5t-141.5 63.5t-109.5 97t-44 156q0 102 77.5 175.5t190.5 121.5q-43 20 -80 44.5t-64.5 58.5t-44 78t-16.5 101q0 55 24.5 102.5t69 81t105.5 53t137 19.5q111 0 191 -11t145 -36q-4 -33 -8 -56.5t-10.5 -46t-14.5 -46.5 l-18 -58h-51l-115 148q-25 10 -46.5 13t-53.5 3q-88 0 -129 -47t-41 -100q0 -61 44 -101.5t109.5 -71t141 -58t141 -66.5t109.5 -94.5t44 -139.5q0 -59 -24.5 -107t-63.5 -87t-86 -69t-90 -50q41 -18 78 -40t64.5 -50.5t43 -64.5t15.5 -83q0 -143 -108.5 -225t-290.5 -82 q-170 0 -332 59q2 37 7 63t11 49.5t14.5 47t18.5 55.5h51l131 -161q23 -18 44.5 -20.5t50.5 -2.5q98 0 158.5 49t60.5 119zM774 641q0 49 -24.5 85t-65.5 61.5t-93 47.5l-108 44q-70 -33 -124 -89.5t-54 -121.5q0 -53 25.5 -92t66.5 -68t95.5 -51.5t109.5 -42.5 q35 20 65.5 49t54 58.5t38 60t14.5 59.5z" />
<glyph unicode="&#xa8;" horiz-adv-x="921" d="M123 1358q0 49 30.5 78.5t79.5 29.5t80 -29.5t31 -78.5q0 -47 -30.5 -76t-80.5 -29q-49 0 -79.5 29t-30.5 76zM578 1358q0 49 30.5 78.5t79.5 29.5t80 -29.5t31 -78.5q0 -47 -31 -76t-80 -29t-79.5 29t-30.5 76z" />
<glyph unicode="&#xa9;" horiz-adv-x="1652" d="M104 594q0 170 60.5 304t161 226.5t230.5 141.5t271 49t271.5 -49t229.5 -141.5t159.5 -226.5t60.5 -304t-60.5 -304t-159.5 -226.5t-229 -141.5t-272 -49q-147 0 -279 49t-230.5 141.5t-156 226.5t-57.5 304zM211 594q0 -141 48 -257t132 -197t196.5 -126t239.5 -45 t240 45t196 126t131 197t48 257t-51.5 257t-136.5 196.5t-196.5 126t-230.5 45.5q-135 0 -248.5 -45.5t-194.5 -127t-127 -196.5t-46 -256zM1044 422h52q8 -31 12 -93.5t-2 -111.5q-18 -14 -46 -23.5t-58.5 -15.5t-63.5 -8t-59 -2q-100 0 -183.5 27.5t-143.5 82t-94 134.5 t-34 184q0 106 38 186t98.5 133.5t137 81t154.5 27.5q80 0 143.5 -11.5t104.5 -31.5q2 -18 2 -48t-2 -62.5t-6 -63.5t-11 -51h-51l-61 170q-14 10 -45 11t-60 1q-117 0 -181 -91t-64 -251q0 -68 14 -130.5t46 -110.5t83 -75.5t123 -27.5q41 0 66.5 8t33.5 16z" />
<glyph unicode="&#xaa;" horiz-adv-x="880" d="M203 1239q-20 23 -34.5 62.5t-16.5 82.5q51 27 125.5 46.5t201.5 19.5q131 0 179.5 -53.5t48.5 -153.5q0 -39 -1 -85l-3 -91l-2 -87q-1 -42 -1 -75l103 -20v-54q-39 -23 -83 -38t-91 -19h-35q-14 35 -19.5 69t-7.5 68h-8q-10 -18 -28.5 -42.5t-48 -46t-70.5 -37 t-97 -15.5q-94 0 -154.5 52t-60.5 143q0 63 32 103t87 62.5t128 31.5t155 9q14 0 27.5 -1t27.5 -1q2 12 2 34v32q0 27 -6 51.5t-22.5 44t-44 30.5t-72.5 11q-25 0 -53.5 -4t-57.5 -14l-45 -115h-55zM373 864q43 0 73.5 14.5t52 34t36 42t22.5 40.5v107q-23 2 -43 2h-41 q-41 0 -79 -7t-66.5 -22.5t-46 -40t-17.5 -59.5q0 -41 28 -76t81 -35z" />
<glyph unicode="&#xab;" horiz-adv-x="964" d="M446 530l347 420l51 -39l-217 -366l229 -387l-49 -41zM49 530l436 424l54 -41l-287 -370l299 -387l-53 -43z" />
<glyph unicode="&#xac;" horiz-adv-x="1044" d="M88 793h870v-387h-127v258h-743v129z" />
<glyph unicode="&#xad;" horiz-adv-x="870" d="M145 641h578v-129h-578v129z" />
<glyph unicode="&#xae;" horiz-adv-x="1433" d="M170 924q0 131 44 232t119 171t174 105.5t210 35.5q115 0 214 -35.5t173 -105.5t117 -171t43 -232q0 -133 -44 -234.5t-119 -171t-174.5 -105.5t-209.5 -36q-115 0 -214.5 36t-173 105.5t-116.5 171t-43 234.5zM266 924q0 -106 36 -191.5t97.5 -146t143.5 -92t174 -31.5 q96 0 179 31.5t143.5 91t94 144.5t33.5 194q0 106 -35.5 191t-97 144.5t-143.5 92t-174 30.5q-98 2 -180 -30.5t-142.5 -92t-94.5 -144.5t-34 -191zM647 700q27 -2 44.5 -7t31.5 -11v-49h-254v49q35 12 72 18v478q-23 2 -39.5 7t-32.5 15v45h78q37 0 88 4t84 4q45 0 87 -9 t74.5 -30.5t51 -54.5t18.5 -78q0 -63 -44 -100t-101 -55l71 -116q34 -56 93 -110l47 -24v-43h-103l-57 22q-51 61 -82 127t-53 125h-74v-207zM709 1188q-23 0 -36.5 -1t-25.5 -5v-215h66q123 0 118 114q-2 53 -35.5 80t-86.5 27z" />
<glyph unicode="&#xaf;" horiz-adv-x="763" d="M123 1305v106h518v-106h-518z" />
<glyph unicode="&#xb0;" horiz-adv-x="868" d="M170 1169q0 63 22.5 116.5t62.5 91.5t93 59.5t113 21.5q59 0 112.5 -18.5t92.5 -54t61.5 -90t22.5 -126.5q0 -68 -22.5 -121t-61.5 -90.5t-92.5 -57t-112.5 -19.5t-112.5 19.5t-93.5 57t-62.5 90.5t-22.5 121zM285 1169q0 -84 52 -136t124 -52q78 0 127 49t49 139 q0 86 -49 137.5t-127 51.5t-127 -51.5t-49 -137.5z" />
<glyph unicode="&#xb1;" d="M86 1004h406v430h108v-430h406v-109h-406v-315h-108v315h-406v109zM86 471h920v-109h-920v109z" />
<glyph unicode="&#xb2;" horiz-adv-x="882" d="M223 1308h-47q-14 20 -29.5 55t-30 74t-23.5 74t-11 55q66 37 155 68t191 31q90 0 149.5 -19.5t95.5 -51.5t50 -75t14 -92q0 -68 -33.5 -136.5t-94 -134t-143.5 -127t-181 -112.5v-12l63 14h281l90 137h45q4 -29 7 -64l6 -74q3 -38 4 -71.5t1 -56.5h-694v68 q84 47 169 111.5t153.5 138t111.5 149.5t43 144q0 78 -34.5 121.5t-137.5 43.5q-78 0 -129 -30z" />
<glyph unicode="&#xb3;" horiz-adv-x="882" d="M424 866q51 0 86 14.5t57.5 37t32.5 50t10 54.5q0 88 -49 124.5t-164 36.5h-67v54l176 223l90 86v4l-127 -8h-182l-74 -189h-45q-12 27 -22.5 67t-17.5 83t-12 82t-5 61h628v-73l-186 -218l-80 -81v-3l64 9q49 0 93 -15.5t77.5 -45t54 -75t20.5 -104.5 q0 -133 -105.5 -200.5t-277.5 -67.5q-84 0 -171 27.5t-140 66.5l70 188h37q10 -10 22 -30l27 -44l27 -48l24 -46q18 -6 49 -13t80 -7z" />
<glyph unicode="&#xb4;" horiz-adv-x="673" d="M362 1571q16 2 43 -1t55.5 -9.5t53.5 -15.5t37 -19v-39l-383 -309l-45 36z" />
<glyph unicode="&#xb5;" horiz-adv-x="1175" d="M274 31l72 -389v-52q-98 -29 -188 0v1315l-123 17v53q66 25 134.5 43t133.5 31h51q0 -154 -6 -305.5t-6 -301.5q0 -80 9 -143t33 -106t64.5 -67t104.5 -24q92 0 155.5 67t98.5 173v563l-135 17v53q63 25 132.5 43t135.5 31h51v-932l135 -17v-43q-59 -27 -120.5 -47 t-126.5 -30h-52l-14 243h-8q-10 -43 -36 -87t-65.5 -80t-92 -58.5t-113.5 -22.5q-66 0 -118 12.5t-93 43.5h-13z" />
<glyph unicode="&#x3bc;" horiz-adv-x="1175" d="M274 31l72 -389v-52q-98 -29 -188 0v1315l-123 17v53q66 25 134.5 43t133.5 31h51q0 -154 -6 -305.5t-6 -301.5q0 -80 9 -143t33 -106t64.5 -67t104.5 -24q92 0 155.5 67t98.5 173v563l-135 17v53q63 25 132.5 43t135.5 31h51v-932l135 -17v-43q-59 -27 -120.5 -47 t-126.5 -30h-52l-14 243h-8q-10 -43 -36 -87t-65.5 -80t-92 -58.5t-113.5 -22.5q-66 0 -118 12.5t-93 43.5h-13z" />
<glyph unicode="&#xb6;" horiz-adv-x="1046" d="M770 193q-2 -137 -20.5 -224.5t-53 -139.5t-83 -76.5t-107.5 -37.5q-41 -66 -95.5 -99.5t-107.5 -49.5l-24 41q45 18 83.5 50t66.5 83t43 127t15 182v586q-66 0 -130 20.5t-116.5 66.5t-85 121t-32.5 181q0 86 25.5 161t75.5 130t128 87t183 32h389v-62 q-35 -16 -71 -28.5t-83 -20.5v-1130zM530 -238q86 35 115 141.5t29 289.5v1140h-90v-1284q0 -82 -12.5 -158t-41.5 -129z" />
<glyph unicode="&#xb7;" horiz-adv-x="491" d="M108 629q0 61 39 98t101 37q63 0 102 -37t39 -98q0 -59 -39 -96t-102 -37q-61 0 -100.5 37t-39.5 96z" />
<glyph unicode="&#xb8;" horiz-adv-x="581" d="M240 -139q113 -4 164 -42t53 -104q2 -59 -30 -103t-81 -72.5t-108.5 -42t-114.5 -11.5v61q78 10 125 41t45 95q0 51 -41 73.5t-127 28.5l76 217h92z" />
<glyph unicode="&#xb9;" horiz-adv-x="882" d="M748 790h-574v43q55 23 105.5 41.5t101.5 28.5v506l8 92q-49 -14 -109.5 -19.5t-119.5 -3.5v60q86 18 166 52t153 75h64v-762q53 -12 105 -28.5t100 -41.5v-43z" />
<glyph unicode="&#xba;" horiz-adv-x="890" d="M88 1110q0 80 26.5 143.5t75 109.5t113 70.5t141.5 24.5q78 0 143.5 -21.5t113 -64.5t74 -108.5t26.5 -153.5q0 -80 -26.5 -144.5t-74 -109.5t-113 -69.5t-143.5 -24.5t-142 21.5t-112.5 64.5t-75 108.5t-26.5 153.5zM260 1110q0 -123 47 -197.5t137 -74.5q184 0 185 272 q0 270 -185 270q-184 0 -184 -270z" />
<glyph unicode="&#xbb;" horiz-adv-x="964" d="M158 117l-49 41l229 377l-219 376l51 39l348 -420zM467 113l-53 43l297 376l-287 381l53 41l436 -424z" />
<glyph unicode="&#xbc;" horiz-adv-x="1921" d="M711 578h-574v43q55 23 105.5 41t101.5 28v506l8 92q-49 -14 -109.5 -19t-119.5 -3v59q86 18 166 52t153 75h64v-762q53 -12 105 -28.5t100 -40.5v-43zM1542 1454l71 -63l-1198 -1405l-69 65zM1713 0h-433v43q35 16 72 28.5t78 20.5v148h-500v49l588 586h74v-539h192v-96 h-192v-148q29 -6 57.5 -16t63.5 -33v-43zM1430 602l20 88h-6l-71 -88l-228 -233l-73 -47l129 14h229v266z" />
<glyph unicode="&#xbd;" horiz-adv-x="2056" d="M711 578h-574v43q55 23 105.5 41t101.5 28v506l8 92q-49 -14 -109.5 -19t-119.5 -3v59q86 18 166 52t153 75h64v-762q53 -12 105 -28.5t100 -40.5v-43zM1542 1454l71 -63l-1198 -1405l-69 65zM1356 518h-47q-14 20 -29.5 55t-30 74t-23.5 74t-11 55q66 37 155 68t191 31 q90 0 149.5 -19.5t95.5 -51.5t50 -75t14 -92q0 -68 -33.5 -136.5t-94 -134t-143.5 -127t-181 -112.5v-12l63 14h281l90 137h45q4 -29 7 -64l6 -74q3 -38 4 -71.5t1 -56.5h-694v68q84 47 169 111.5t153.5 138t111.5 149.5t43 144q0 78 -34.5 121.5t-137.5 43.5 q-78 0 -129 -30z" />
<glyph unicode="&#xbe;" horiz-adv-x="2029" d="M1649 1454l71 -63l-1198 -1405l-69 65zM1819 0h-433v43q35 16 72 28.5t78 20.5v148h-500v49l588 586h74v-539h192v-96h-192v-148q29 -6 57.5 -16t63.5 -33v-43zM1536 602l20 88h-6l-71 -88l-228 -233l-73 -47l129 14h229v266zM475 653q51 0 86 14.5t57.5 37t32.5 50 t10 54.5q0 88 -49 124.5t-164 36.5h-67v54l176 223l90 86v4l-127 -8h-182l-74 -189h-45q-12 27 -22.5 67t-17.5 83t-12 82t-5 61h628v-73l-186 -218l-80 -81v-3l64 9q49 0 93 -15.5t77.5 -45t54 -75t20.5 -104.5q0 -133 -105.5 -200.5t-277.5 -67.5q-84 0 -171 27.5 t-140 66.5l70 188h37q10 -10 22 -30l27 -44l27 -48l24 -46q18 -6 49 -13t80 -7z" />
<glyph unicode="&#xbf;" horiz-adv-x="968" d="M709 -31h51q16 -55 36.5 -142t28.5 -167q-78 -47 -167 -66.5t-218 -19.5q-92 0 -160.5 25.5t-114.5 69.5t-69.5 105.5t-23.5 133.5q0 92 33.5 160.5t84 124t109.5 103.5t110.5 100.5t85 115.5t33.5 150h41q25 -98 12.5 -171t-46 -130.5t-79.5 -104.5t-88 -96t-71 -104.5 t-29 -127.5q0 -45 12.5 -89t40 -79.5t71.5 -57t106 -21.5q66 0 106.5 10t57.5 26zM676 913q0 -59 -38 -96t-99 -37q-63 0 -102.5 37t-39.5 96q0 61 39 98.5t103 37.5q61 0 99 -37.5t38 -98.5z" />
<glyph unicode="&#xc0;" horiz-adv-x="1398" d="M455 0h-455v59q74 33 147 50l519 1349h59l518 -1349q41 -8 81 -18.5t75 -31.5v-59h-525v59q41 16 84 28.5t84 21.5l-139 374h-489l-135 -374q86 -12 176 -50v-59zM455 590h413l-161 434l-39 176h-4l-52 -180zM758 1575l-37 -39l-461 186v41q12 14 38.5 27.5t57.5 23 t59.5 13.5t45.5 2z" />
<glyph unicode="&#xc1;" horiz-adv-x="1398" d="M455 0h-455v59q74 33 147 50l519 1349h59l518 -1349q41 -8 81 -18.5t75 -31.5v-59h-525v59q41 16 84 28.5t84 21.5l-139 374h-489l-135 -374q86 -12 176 -50v-59zM455 590h413l-161 434l-39 176h-4l-52 -180zM924 1829q18 2 47 -2t58.5 -13.5t55 -22.5t38.5 -28v-41 l-463 -186l-35 39z" />
<glyph unicode="&#xc2;" horiz-adv-x="1398" d="M455 0h-455v59q74 33 147 50l519 1349h59l518 -1349q41 -8 81 -18.5t75 -31.5v-59h-525v59q41 16 84 28.5t84 21.5l-139 374h-489l-135 -374q86 -12 176 -50v-59zM455 590h413l-161 434l-39 176h-4l-52 -180zM443 1540l-29 39l260 229q10 6 25.5 7.5t27.5 -7.5l256 -223 l-30 -43l-261 115z" />
<glyph unicode="&#xc3;" horiz-adv-x="1398" d="M455 0h-455v59q74 33 147 50l519 1349h59l518 -1349q41 -8 81 -18.5t75 -31.5v-59h-525v59q41 16 84 28.5t84 21.5l-139 374h-489l-135 -374q86 -12 176 -50v-59zM455 590h413l-161 434l-39 176h-4l-52 -180zM1026 1681q-66 -66 -120 -90t-105 -24q-39 0 -73 11t-66 24 l-64 23q-31 11 -63 11q-29 0 -58.5 -11t-62.5 -40l-39 60q78 70 138.5 95t111.5 25q37 0 70.5 -10t64.5 -22.5t61.5 -22.5t63.5 -10q27 0 54.5 9t60.5 32z" />
<glyph unicode="&#xc4;" horiz-adv-x="1398" d="M455 0h-455v59q74 33 147 50l519 1349h59l518 -1349q41 -8 81 -18.5t75 -31.5v-59h-525v59q41 16 84 28.5t84 21.5l-139 374h-489l-135 -374q86 -12 176 -50v-59zM455 590h413l-161 434l-39 176h-4l-52 -180zM356 1616q0 49 32.5 73.5t84.5 24.5q49 0 81.5 -24.5 t32.5 -73.5q0 -47 -32.5 -71.5t-81.5 -24.5q-51 0 -84 24.5t-33 71.5zM813 1616q0 49 32.5 73.5t81.5 24.5q51 0 84 -24.5t33 -73.5q0 -47 -33 -71.5t-84 -24.5q-49 0 -81.5 24.5t-32.5 71.5z" />
<glyph unicode="&#xc5;" horiz-adv-x="1398" d="M471 1614q0 41 18.5 73.5t51 55t74.5 35t92 12.5q39 0 78.5 -10.5t72.5 -30.5t52.5 -52t19.5 -77q0 -76 -60.5 -119t-142.5 -49l516 -1343q41 -8 81 -18.5t75 -31.5v-59h-525v59q41 16 84 28.5t84 21.5l-139 374h-489l-135 -374q86 -12 176 -50v-59h-455v59q74 33 147 50 l517 1345q-86 8 -139.5 49t-53.5 111zM455 590h413l-161 434l-39 176h-4l-52 -180zM586 1614q0 -41 35.5 -59.5t74.5 -18.5q53 0 86 18.5t33 57.5q0 53 -37 73.5t-76 20.5q-51 0 -83.5 -19.5t-32.5 -72.5z" />
<glyph unicode="&#xc6;" horiz-adv-x="1886" d="M1724 1434q-2 -82 -6 -165t-16 -167h-51l-86 225h-445v-543h332l82 152h49q16 -203 0 -414h-49l-82 156h-332v-572h471l99 246h53q12 -86 19 -174t3 -178h-1009v59q72 33 168 50v415h-402l-237 -415q84 -12 174 -50v-59h-459v59q74 33 147 50l725 1226l-59 18 q-31 9 -59 21v60h970zM584 631h340v620h-4l-84 -190z" />
<glyph unicode="&#xc7;" horiz-adv-x="1318" d="M1120 373h54q10 -57 18 -144.5t4 -169.5q-35 -27 -83 -43t-101.5 -25t-107.5 -12.5t-101 -3.5l-49 -129q123 -2 181 -46t58 -115q0 -61 -35.5 -106.5t-90 -76t-120 -45t-124.5 -14.5v68q82 12 137 44.5t53 92.5q-2 57 -47 82.5t-137 31.5l73 222q-283 31 -438 208 t-155 525q0 201 55 341t149.5 229t219 130t262.5 41q135 0 227 -17.5t162 -51.5q0 -33 -2 -77t-6.5 -93.5t-10.5 -96.5t-12 -86h-53l-107 295q-23 12 -75 16.5t-103 4.5q-102 0 -193.5 -38t-160 -117t-109.5 -198.5t-41 -281.5q0 -145 37 -263t106.5 -201t170 -127 t227.5 -44q68 0 113 10t59 27z" />
<glyph unicode="&#xc8;" horiz-adv-x="1191" d="M1030 1434q-2 -82 -7 -165t-15 -167h-54l-84 225h-446v-543h334l80 152h51q6 -101 6 -204.5t-6 -209.5h-51l-80 156h-334v-572h471l100 246h52q14 -86 20 -174q4 -53 4 -106q0 -36 -2 -72h-1010v59q72 33 168 50v1214q-41 8 -84 21.5t-84 29.5v60h971zM730 1575l-37 -39 l-461 186v41q12 14 38.5 27.5t57.5 23t59.5 13.5t45.5 2z" />
<glyph unicode="&#xc9;" horiz-adv-x="1191" d="M1030 1434q-2 -82 -7 -165t-15 -167h-54l-84 225h-446v-543h334l80 152h51q6 -101 6 -204.5t-6 -209.5h-51l-80 156h-334v-572h471l100 246h52q14 -86 20 -174q4 -53 4 -106q0 -36 -2 -72h-1010v59q72 33 168 50v1214q-41 8 -84 21.5t-84 29.5v60h971zM739 1829 q18 2 47 -2t58.5 -13.5t55 -22.5t38.5 -28v-41l-463 -186l-35 39z" />
<glyph unicode="&#xca;" horiz-adv-x="1191" d="M1030 1434q-2 -82 -7 -165t-15 -167h-54l-84 225h-446v-543h334l80 152h51q6 -101 6 -204.5t-6 -209.5h-51l-80 156h-334v-572h471l100 246h52q14 -86 20 -174q4 -53 4 -106q0 -36 -2 -72h-1010v59q72 33 168 50v1214q-41 8 -84 21.5t-84 29.5v60h971zM359 1540l-29 39 l260 229q10 6 25.5 7.5t27.5 -7.5l256 -223l-30 -43l-261 115z" />
<glyph unicode="&#xcb;" horiz-adv-x="1191" d="M1030 1434q-2 -82 -7 -165t-15 -167h-54l-84 225h-446v-543h334l80 152h51q6 -101 6 -204.5t-6 -209.5h-51l-80 156h-334v-572h471l100 246h52q14 -86 20 -174q4 -53 4 -106q0 -36 -2 -72h-1010v59q72 33 168 50v1214q-41 8 -84 21.5t-84 29.5v60h971zM244 1616 q0 49 32.5 73.5t84.5 24.5q49 0 81.5 -24.5t32.5 -73.5q0 -47 -32.5 -71.5t-81.5 -24.5q-51 0 -84 24.5t-33 71.5zM701 1616q0 49 32.5 73.5t81.5 24.5q51 0 84 -24.5t33 -73.5q0 -47 -33 -71.5t-84 -24.5q-49 0 -81.5 24.5t-32.5 71.5z" />
<glyph unicode="&#xcc;" horiz-adv-x="720" d="M623 0h-525v59q80 37 164 50v1214q-41 8 -82 21.5t-82 29.5v60h525v-60q-37 -16 -80 -29.5t-84 -21.5v-1214q43 -8 86 -20.5t78 -29.5v-59zM572 1575l-37 -39l-461 186v41q12 14 38.5 27.5t57.5 23t59.5 13.5t45.5 2z" />
<glyph unicode="&#xcd;" horiz-adv-x="720" d="M623 0h-525v59q80 37 164 50v1214q-41 8 -82 21.5t-82 29.5v60h525v-60q-37 -16 -80 -29.5t-84 -21.5v-1214q43 -8 86 -20.5t78 -29.5v-59zM492 1829q18 2 47 -2t58.5 -13.5t55 -22.5t38.5 -28v-41l-463 -186l-35 39z" />
<glyph unicode="&#xce;" horiz-adv-x="720" d="M623 0h-525v59q80 37 164 50v1214q-41 8 -82 21.5t-82 29.5v60h525v-60q-37 -16 -80 -29.5t-84 -21.5v-1214q43 -8 86 -20.5t78 -29.5v-59zM107 1540l-29 39l260 229q10 6 25.5 7.5t27.5 -7.5l256 -223l-30 -43l-261 115z" />
<glyph unicode="&#xcf;" horiz-adv-x="720" d="M623 0h-525v59q80 37 164 50v1214q-41 8 -82 21.5t-82 29.5v60h525v-60q-37 -16 -80 -29.5t-84 -21.5v-1214q43 -8 86 -20.5t78 -29.5v-59zM19 1616q0 49 32.5 73.5t84.5 24.5q49 0 81.5 -24.5t32.5 -73.5q0 -47 -32.5 -71.5t-81.5 -24.5q-51 0 -84 24.5t-33 71.5z M476 1616q0 49 32.5 73.5t81.5 24.5q51 0 84 -24.5t33 -73.5q0 -47 -33 -71.5t-84 -24.5q-49 0 -81.5 24.5t-32.5 71.5z" />
<glyph unicode="&#xd0;" horiz-adv-x="1452" d="M45 786h182v537q-47 10 -90 23.5t-78 27.5v60h209q35 0 82 2t97 5l97 6q46 3 77 3q174 0 308 -48t226 -139.5t140 -224.5t48 -303q0 -162 -46 -300t-140 -238.5t-238.5 -157.5t-340.5 -57q-29 0 -69 3l-83 6l-87 6q-44 3 -83 3h-197v59q72 33 168 50v571h-182v106z M592 1343q-53 0 -102.5 -1t-77.5 -7v-549h342v-106h-342v-586q10 -2 37.5 -3t58.5 -2t58 -1h40q141 0 239.5 53.5t160 142.5t90 205.5t28.5 245.5q0 100 -27.5 208t-90 197t-163.5 146t-251 57z" />
<glyph unicode="&#xd1;" horiz-adv-x="1499" d="M997 1434h443v-60q-86 -57 -168 -82v-1317h-117l-743 1129l-80 160h-6l18 -160v-973q84 -23 158 -72v-59h-443v59q37 23 79 40.5t89 31.5v1174q-41 16 -81 34.5t-74 36.5v58h346l645 -973l94 -176h8l-10 176v831q-43 18 -83 39t-75 43v60zM1075 1681q-66 -66 -120 -90 t-105 -24q-39 0 -73 11t-66 24l-64 23q-31 11 -63 11q-29 0 -58.5 -11t-62.5 -40l-39 60q78 70 138.5 95t111.5 25q37 0 70.5 -10t64.5 -22.5t61.5 -22.5t63.5 -10q27 0 54.5 9t60.5 32z" />
<glyph unicode="&#xd2;" horiz-adv-x="1515" d="M109 717q0 160 44 296t126.5 235.5t203.5 154.5t275 55t274.5 -55t203.5 -154.5t127 -235.5t44 -296t-44 -296t-127 -235.5t-204 -155t-274 -55.5q-154 0 -275 55.5t-203.5 155t-126.5 235.5t-44 296zM328 717q0 -131 27.5 -247t83 -202t139.5 -136t198 -50q104 0 182 50 t128.5 136t76 202t25.5 247t-26.5 246.5t-82 201.5t-139.5 136.5t-199 50.5q-113 0 -191.5 -50.5t-127.5 -136.5t-71.5 -201.5t-22.5 -246.5zM897 1575l-37 -39l-461 186v41q12 14 38.5 27.5t57.5 23t59.5 13.5t45.5 2z" />
<glyph unicode="&#xd3;" horiz-adv-x="1515" d="M109 717q0 160 44 296t126.5 235.5t203.5 154.5t275 55t274.5 -55t203.5 -154.5t127 -235.5t44 -296t-44 -296t-127 -235.5t-204 -155t-274 -55.5q-154 0 -275 55.5t-203.5 155t-126.5 235.5t-44 296zM328 717q0 -131 27.5 -247t83 -202t139.5 -136t198 -50q104 0 182 50 t128.5 136t76 202t25.5 247t-26.5 246.5t-82 201.5t-139.5 136.5t-199 50.5q-113 0 -191.5 -50.5t-127.5 -136.5t-71.5 -201.5t-22.5 -246.5zM864 1829q18 2 47 -2t58.5 -13.5t55 -22.5t38.5 -28v-41l-463 -186l-35 39z" />
<glyph unicode="&#xd4;" horiz-adv-x="1515" d="M109 717q0 160 44 296t126.5 235.5t203.5 154.5t275 55t274.5 -55t203.5 -154.5t127 -235.5t44 -296t-44 -296t-127 -235.5t-204 -155t-274 -55.5q-154 0 -275 55.5t-203.5 155t-126.5 235.5t-44 296zM328 717q0 -131 27.5 -247t83 -202t139.5 -136t198 -50q104 0 182 50 t128.5 136t76 202t25.5 247t-26.5 246.5t-82 201.5t-139.5 136.5t-199 50.5q-113 0 -191.5 -50.5t-127.5 -136.5t-71.5 -201.5t-22.5 -246.5zM502 1540l-29 39l260 229q10 6 25.5 7.5t27.5 -7.5l256 -223l-30 -43l-261 115z" />
<glyph unicode="&#xd5;" horiz-adv-x="1515" d="M109 717q0 160 44 296t126.5 235.5t203.5 154.5t275 55t274.5 -55t203.5 -154.5t127 -235.5t44 -296t-44 -296t-127 -235.5t-204 -155t-274 -55.5q-154 0 -275 55.5t-203.5 155t-126.5 235.5t-44 296zM328 717q0 -131 27.5 -247t83 -202t139.5 -136t198 -50q104 0 182 50 t128.5 136t76 202t25.5 247t-26.5 246.5t-82 201.5t-139.5 136.5t-199 50.5q-113 0 -191.5 -50.5t-127.5 -136.5t-71.5 -201.5t-22.5 -246.5zM1083 1681q-66 -66 -120 -90t-105 -24q-39 0 -73 11t-66 24l-64 23q-31 11 -63 11q-29 0 -58.5 -11t-62.5 -40l-39 60 q78 70 138.5 95t111.5 25q37 0 70.5 -10t64.5 -22.5t61.5 -22.5t63.5 -10q27 0 54.5 9t60.5 32z" />
<glyph unicode="&#xd6;" horiz-adv-x="1515" d="M109 717q0 160 44 296t126.5 235.5t203.5 154.5t275 55t274.5 -55t203.5 -154.5t127 -235.5t44 -296t-44 -296t-127 -235.5t-204 -155t-274 -55.5q-154 0 -275 55.5t-203.5 155t-126.5 235.5t-44 296zM328 717q0 -131 27.5 -247t83 -202t139.5 -136t198 -50q104 0 182 50 t128.5 136t76 202t25.5 247t-26.5 246.5t-82 201.5t-139.5 136.5t-199 50.5q-113 0 -191.5 -50.5t-127.5 -136.5t-71.5 -201.5t-22.5 -246.5zM414 1616q0 49 32.5 73.5t84.5 24.5q49 0 81.5 -24.5t32.5 -73.5q0 -47 -32.5 -71.5t-81.5 -24.5q-51 0 -84 24.5t-33 71.5z M871 1616q0 49 32.5 73.5t81.5 24.5q51 0 84 -24.5t33 -73.5q0 -47 -33 -71.5t-84 -24.5q-49 0 -81.5 24.5t-32.5 71.5z" />
<glyph unicode="&#xd7;" d="M180 418l287 287l-283 284l76 76l285 -283l286 287l76 -76l-286 -286l292 -293l-77 -78l-293 293l-287 -287z" />
<glyph unicode="&#xd8;" horiz-adv-x="1515" d="M109 717q0 160 44 296t126.5 235.5t203.5 154.5t275 55q100 0 185 -24.5t157 -67.5l57 94l105 -59l-70 -109q104 -100 159.5 -247.5t55.5 -327.5q0 -160 -44 -296t-127 -235.5t-204 -155t-274 -55.5q-98 0 -183.5 24t-156.5 64l-58 -90l-96 60l62 100 q-106 100 -161.5 250t-55.5 334zM328 717q0 -123 24.5 -231.5t73.5 -192.5l594 948q-53 53 -123 82t-156 29q-113 0 -191.5 -50.5t-127.5 -136.5t-71.5 -201.5t-22.5 -246.5zM1188 717q0 123 -23.5 228.5t-72.5 189.5l-592 -945q53 -53 120.5 -80.5t155.5 -27.5 q104 0 182 50t128.5 136t76 202t25.5 247z" />
<glyph unicode="&#xd9;" horiz-adv-x="1376" d="M20 1434h521v-60q-39 -16 -78 -28.5t-78 -22.5v-838q0 -109 23.5 -181.5t68.5 -116.5t111.5 -63.5t150.5 -19.5q162 0 252 89.5t90 293.5v818q-47 16 -88 33.5t-73 35.5v60h436v-60q-39 -23 -79 -41t-81 -28v-822q0 -131 -35 -225t-97.5 -155.5t-151.5 -91t-197 -29.5 q-256 0 -391.5 115.5t-135.5 355.5v870q-84 12 -168 51v60zM822 1575l-37 -39l-461 186v41q12 14 38.5 27.5t57.5 23t59.5 13.5t45.5 2z" />
<glyph unicode="&#xda;" horiz-adv-x="1376" d="M20 1434h521v-60q-39 -16 -78 -28.5t-78 -22.5v-838q0 -109 23.5 -181.5t68.5 -116.5t111.5 -63.5t150.5 -19.5q162 0 252 89.5t90 293.5v818q-47 16 -88 33.5t-73 35.5v60h436v-60q-39 -23 -79 -41t-81 -28v-822q0 -131 -35 -225t-97.5 -155.5t-151.5 -91t-197 -29.5 q-256 0 -391.5 115.5t-135.5 355.5v870q-84 12 -168 51v60zM952 1829q18 2 47 -2t58.5 -13.5t55 -22.5t38.5 -28v-41l-463 -186l-35 39z" />
<glyph unicode="&#xdb;" horiz-adv-x="1376" d="M20 1434h521v-60q-39 -16 -78 -28.5t-78 -22.5v-838q0 -109 23.5 -181.5t68.5 -116.5t111.5 -63.5t150.5 -19.5q162 0 252 89.5t90 293.5v818q-47 16 -88 33.5t-73 35.5v60h436v-60q-39 -23 -79 -41t-81 -28v-822q0 -131 -35 -225t-97.5 -155.5t-151.5 -91t-197 -29.5 q-256 0 -391.5 115.5t-135.5 355.5v870q-84 12 -168 51v60zM476 1540l-29 39l260 229q10 6 25.5 7.5t27.5 -7.5l256 -223l-30 -43l-261 115z" />
<glyph unicode="&#xdc;" horiz-adv-x="1376" d="M20 1434h521v-60q-39 -16 -78 -28.5t-78 -22.5v-838q0 -109 23.5 -181.5t68.5 -116.5t111.5 -63.5t150.5 -19.5q162 0 252 89.5t90 293.5v818q-47 16 -88 33.5t-73 35.5v60h436v-60q-39 -23 -79 -41t-81 -28v-822q0 -131 -35 -225t-97.5 -155.5t-151.5 -91t-197 -29.5 q-256 0 -391.5 115.5t-135.5 355.5v870q-84 12 -168 51v60zM387 1616q0 49 32.5 73.5t84.5 24.5q49 0 81.5 -24.5t32.5 -73.5q0 -47 -32.5 -71.5t-81.5 -24.5q-51 0 -84 24.5t-33 71.5zM844 1616q0 49 32.5 73.5t81.5 24.5q51 0 84 -24.5t33 -73.5q0 -47 -33 -71.5 t-84 -24.5q-49 0 -81.5 24.5t-32.5 71.5z" />
<glyph unicode="&#xdd;" horiz-adv-x="1318" d="M868 1434h451v-60q-78 -39 -156 -51l-387 -713v-501q80 -10 156 -50v-59h-520v59q74 37 168 50v499l-414 715q-47 8 -87 21.5t-79 29.5v60h543v-60q-31 -12 -70 -25.5t-88 -25.5l336 -602l315 602q-47 10 -89 23.5t-79 27.5v60zM952 1829q18 2 47 -2t58.5 -13.5t55 -22.5 t38.5 -28v-41l-463 -186l-35 39z" />
<glyph unicode="&#xde;" horiz-adv-x="1218" d="M424 109q115 -16 197 -52v-57h-562v57q41 23 84 33l84 19v1216q-84 16 -164 51v58h525v-58q-37 -18 -80 -30.5t-84 -20.5v-100q47 4 93 6t91 2q100 0 196.5 -21.5t171.5 -71.5t120 -133t45 -206q0 -117 -47 -200t-126 -137t-179.5 -80t-206.5 -26h-32q-22 0 -46.5 1 t-47 3.5t-32.5 4.5v-258zM563 1126q-49 0 -79.5 -2t-59.5 -10v-641q10 -4 29.5 -5t41 -2t42.5 -1h32q72 0 135.5 19.5t111.5 60.5t77 104.5t29 151.5q0 160 -95.5 242.5t-263.5 82.5z" />
<glyph unicode="&#xdf;" horiz-adv-x="1306" d="M887 1208q0 45 -17.5 88t-46 77t-65.5 55.5t-80 21.5q-55 0 -104.5 -11.5t-87 -50t-60.5 -112.5t-23 -199v-1077h-319v51q63 37 135 49v822h-156v53q72 45 156 67v72q0 127 45 210t111.5 131t144.5 66.5t146 18.5q111 0 187.5 -30.5t124.5 -82t69.5 -117t23.5 -134.5 q-78 -10 -139.5 -30t-104.5 -52.5t-65.5 -80.5t-22.5 -116q0 -63 36 -109.5t90.5 -86t118 -77.5t117.5 -86.5t90 -109.5t36 -145q0 -143 -98.5 -225.5t-280.5 -82.5q-170 0 -332 60q4 51 17.5 95t31.5 79h51l134 -127q23 -10 44 -13t50 -3q98 0 148 49t50 118 q0 68 -35.5 115t-90 87t-118 78t-117.5 87t-90 114.5t-36 159.5q0 113 75 197t257 137z" />
<glyph unicode="&#xe0;" horiz-adv-x="1034" d="M840 268q0 -45 2 -77.5t4 -69.5l141 -21v-43q-51 -27 -113.5 -47t-119.5 -30h-52q-20 47 -24 103t-6 124h-10q-8 -41 -32 -83t-62 -75t-89 -53.5t-117 -20.5q-125 0 -203.5 76t-78.5 199q0 94 38 154.5t111.5 95.5t182 50t252.5 23q6 64 6 119q0 21 -1 40 q-3 71 -22.5 121t-57.5 77.5t-100 27.5q-29 0 -64.5 -3t-70.5 -17l-96 -246h-53q-20 61 -35.5 127t-19.5 129q78 47 173 74t212 27q104 0 166.5 -30t95 -77t43 -104.5t10.5 -114.5q0 -123 -5 -237t-5 -218zM444 102q51 0 90 20.5t66 49.5t43 58.5t23 50.5v215 q-119 0 -195 -12.5t-119 -39t-59.5 -66.5t-16.5 -91q0 -88 45 -136.5t123 -48.5zM647 1214l-45 -34l-381 305v41q12 10 39.5 19t60.5 15.5t62.5 9.5t46.5 1z" />
<glyph unicode="&#xe1;" horiz-adv-x="1034" d="M840 268q0 -45 2 -77.5t4 -69.5l141 -21v-43q-51 -27 -113.5 -47t-119.5 -30h-52q-20 47 -24 103t-6 124h-10q-8 -41 -32 -83t-62 -75t-89 -53.5t-117 -20.5q-125 0 -203.5 76t-78.5 199q0 94 38 154.5t111.5 95.5t182 50t252.5 23q6 64 6 119q0 21 -1 40 q-3 71 -22.5 121t-57.5 77.5t-100 27.5q-29 0 -64.5 -3t-70.5 -17l-96 -246h-53q-20 61 -35.5 127t-19.5 129q78 47 173 74t212 27q104 0 166.5 -30t95 -77t43 -104.5t10.5 -114.5q0 -123 -5 -237t-5 -218zM444 102q51 0 90 20.5t66 49.5t43 58.5t23 50.5v215 q-119 0 -195 -12.5t-119 -39t-59.5 -66.5t-16.5 -91q0 -88 45 -136.5t123 -48.5zM624 1571q16 2 43 -1t55.5 -9.5t53.5 -15.5t37 -19v-39l-383 -309l-45 36z" />
<glyph unicode="&#xe2;" horiz-adv-x="1034" d="M840 268q0 -45 2 -77.5t4 -69.5l141 -21v-43q-51 -27 -113.5 -47t-119.5 -30h-52q-20 47 -24 103t-6 124h-10q-8 -41 -32 -83t-62 -75t-89 -53.5t-117 -20.5q-125 0 -203.5 76t-78.5 199q0 94 38 154.5t111.5 95.5t182 50t252.5 23q6 64 6 119q0 21 -1 40 q-3 71 -22.5 121t-57.5 77.5t-100 27.5q-29 0 -64.5 -3t-70.5 -17l-96 -246h-53q-20 61 -35.5 127t-19.5 129q78 47 173 74t212 27q104 0 166.5 -30t95 -77t43 -104.5t10.5 -114.5q0 -123 -5 -237t-5 -218zM444 102q51 0 90 20.5t66 49.5t43 58.5t23 50.5v215 q-119 0 -195 -12.5t-119 -39t-59.5 -66.5t-16.5 -91q0 -88 45 -136.5t123 -48.5zM321 1208l-59 33l225 381q10 6 25.5 7t25.5 -7l234 -379l-55 -35l-211 219z" />
<glyph unicode="&#xe3;" horiz-adv-x="1034" d="M840 268q0 -45 2 -77.5t4 -69.5l141 -21v-43q-51 -27 -113.5 -47t-119.5 -30h-52q-20 47 -24 103t-6 124h-10q-8 -41 -32 -83t-62 -75t-89 -53.5t-117 -20.5q-125 0 -203.5 76t-78.5 199q0 94 38 154.5t111.5 95.5t182 50t252.5 23q6 64 6 119q0 21 -1 40 q-3 71 -22.5 121t-57.5 77.5t-100 27.5q-29 0 -64.5 -3t-70.5 -17l-96 -246h-53q-20 61 -35.5 127t-19.5 129q78 47 173 74t212 27q104 0 166.5 -30t95 -77t43 -104.5t10.5 -114.5q0 -123 -5 -237t-5 -218zM444 102q51 0 90 20.5t66 49.5t43 58.5t23 50.5v215 q-119 0 -195 -12.5t-119 -39t-59.5 -66.5t-16.5 -91q0 -88 45 -136.5t123 -48.5zM811 1376q-66 -66 -120 -91t-102 -25q-37 0 -69.5 11t-63.5 23l-60 24q-30 11 -61 11q-27 0 -54 -10t-60 -39l-39 57q76 72 135 96.5t107 24.5q37 0 68.5 -10t60 -22.5t58.5 -22.5t60 -10 q27 0 53.5 9t59.5 32z" />
<glyph unicode="&#xe4;" horiz-adv-x="1034" d="M840 268q0 -45 2 -77.5t4 -69.5l141 -21v-43q-51 -27 -113.5 -47t-119.5 -30h-52q-20 47 -24 103t-6 124h-10q-8 -41 -32 -83t-62 -75t-89 -53.5t-117 -20.5q-125 0 -203.5 76t-78.5 199q0 94 38 154.5t111.5 95.5t182 50t252.5 23q6 64 6 119q0 21 -1 40 q-3 71 -22.5 121t-57.5 77.5t-100 27.5q-29 0 -64.5 -3t-70.5 -17l-96 -246h-53q-20 61 -35.5 127t-19.5 129q78 47 173 74t212 27q104 0 166.5 -30t95 -77t43 -104.5t10.5 -114.5q0 -123 -5 -237t-5 -218zM444 102q51 0 90 20.5t66 49.5t43 58.5t23 50.5v215 q-119 0 -195 -12.5t-119 -39t-59.5 -66.5t-16.5 -91q0 -88 45 -136.5t123 -48.5zM158 1358q0 49 30.5 78.5t79.5 29.5t80 -29.5t31 -78.5q0 -47 -30.5 -76t-80.5 -29q-49 0 -79.5 29t-30.5 76zM613 1358q0 49 30.5 78.5t79.5 29.5t80 -29.5t31 -78.5q0 -47 -31 -76t-80 -29 t-79.5 29t-30.5 76z" />
<glyph unicode="&#xe5;" horiz-adv-x="1034" d="M840 268q0 -45 2 -77.5t4 -69.5l141 -21v-43q-51 -27 -113.5 -47t-119.5 -30h-52q-20 47 -24 103t-6 124h-10q-8 -41 -32 -83t-62 -75t-89 -53.5t-117 -20.5q-125 0 -203.5 76t-78.5 199q0 94 38 154.5t111.5 95.5t182 50t252.5 23q6 64 6 119q0 21 -1 40 q-3 71 -22.5 121t-57.5 77.5t-100 27.5q-29 0 -64.5 -3t-70.5 -17l-96 -246h-53q-20 61 -35.5 127t-19.5 129q78 47 173 74t212 27q104 0 166.5 -30t95 -77t43 -104.5t10.5 -114.5q0 -123 -5 -237t-5 -218zM444 102q51 0 90 20.5t66 49.5t43 58.5t23 50.5v215 q-119 0 -195 -12.5t-119 -39t-59.5 -66.5t-16.5 -91q0 -88 45 -136.5t123 -48.5zM293 1399q0 84 58.5 141t146.5 57q80 0 136 -51t56 -141q0 -43 -16.5 -78t-43 -59.5t-62.5 -39t-72 -14.5q-92 0 -147.5 49.5t-55.5 135.5zM399 1403q0 -53 28 -79t62 -26q41 0 67 24t26 75 q0 55 -25 85.5t-65 30.5q-49 0 -71 -30.5t-22 -79.5z" />
<glyph unicode="&#xe6;" horiz-adv-x="1593" d="M799 928q23 25 49 47t62 38.5t84 26t116 9.5q72 0 141.5 -19.5t124 -64.5t88 -120t33.5 -186q0 -35 -3 -70.5t-11 -76.5h-635q0 -86 21.5 -161t63.5 -130t106.5 -87t152.5 -32q35 0 73 5.5t72.5 15.5t63.5 23.5t47 29.5l31 -33q-16 -35 -51 -65.5t-81.5 -53t-99.5 -36 t-108 -13.5t-115.5 10.5t-119 36t-107.5 69.5t-80 110q-16 -47 -49 -88t-79 -72t-103.5 -48.5t-123.5 -17.5q-125 0 -203.5 76t-78.5 199q0 94 38 154.5t111.5 95.5t182 50t252.5 23q6 63 6 119q0 125 -39 195.5t-142 70.5q-29 0 -64.5 -3t-70.5 -17l-96 -246h-53 q-20 61 -35.5 127t-19.5 129q78 47 173 74t212 27t178 -34t86 -87zM444 102q51 0 89 19.5t65 47.5t43 56.5t23 48.5v222q-119 0 -195 -12.5t-119 -39t-58.5 -66.5t-15.5 -91q0 -88 45 -136.5t123 -48.5zM1102 958q-115 0 -176.5 -78.5t-73.5 -277.5h448q2 18 3.5 35.5 t1.5 34.5q0 131 -49.5 208.5t-153.5 77.5z" />
<glyph unicode="&#xe7;" horiz-adv-x="954" d="M874 143q-39 -74 -122.5 -121t-200.5 -47l-43 -114q113 -4 163 -42t54 -104q2 -59 -29.5 -103t-81 -72.5t-109 -42t-114.5 -11.5v61q78 10 125 41t45 95q-2 51 -42 73.5t-126 28.5l70 199q-190 29 -284.5 170t-94.5 358q0 260 127 398.5t346 138.5q100 0 179 -17.5 t134 -46.5q-6 -68 -22.5 -151.5t-40.5 -139.5h-55l-86 244q-14 10 -33 15t-62 5q-139 0 -214.5 -101t-75.5 -343q0 -78 21.5 -151.5t65.5 -132t110.5 -93.5t154.5 -35q72 0 125 20.5t90 49.5z" />
<glyph unicode="&#xe8;" horiz-adv-x="1030" d="M913 143q-16 -35 -51 -65.5t-80 -53t-98 -36t-109 -13.5q-121 0 -213 38t-153.5 109t-93 169t-31.5 221q0 262 121 399.5t342 137.5q72 0 141.5 -19.5t123.5 -64.5t88 -120t34 -186q0 -35 -3 -70.5t-11 -76.5h-639q0 -86 21.5 -161t64.5 -130t108.5 -87t153.5 -32 q72 0 145.5 20.5t110.5 53.5zM539 958q-117 0 -178.5 -78.5t-73.5 -277.5h450q2 18 3 35.5t1 34.5q0 131 -49 208.5t-153 77.5zM666 1214l-45 -34l-381 305v41q12 10 39.5 19t60.5 15.5t62.5 9.5t46.5 1z" />
<glyph unicode="&#xe9;" horiz-adv-x="1030" d="M913 143q-16 -35 -51 -65.5t-80 -53t-98 -36t-109 -13.5q-121 0 -213 38t-153.5 109t-93 169t-31.5 221q0 262 121 399.5t342 137.5q72 0 141.5 -19.5t123.5 -64.5t88 -120t34 -186q0 -35 -3 -70.5t-11 -76.5h-639q0 -86 21.5 -161t64.5 -130t108.5 -87t153.5 -32 q72 0 145.5 20.5t110.5 53.5zM539 958q-117 0 -178.5 -78.5t-73.5 -277.5h450q2 18 3 35.5t1 34.5q0 131 -49 208.5t-153 77.5zM659 1571q16 2 43 -1t55.5 -9.5t53.5 -15.5t37 -19v-39l-383 -309l-45 36z" />
<glyph unicode="&#xea;" horiz-adv-x="1030" d="M913 143q-16 -35 -51 -65.5t-80 -53t-98 -36t-109 -13.5q-121 0 -213 38t-153.5 109t-93 169t-31.5 221q0 262 121 399.5t342 137.5q72 0 141.5 -19.5t123.5 -64.5t88 -120t34 -186q0 -35 -3 -70.5t-11 -76.5h-639q0 -86 21.5 -161t64.5 -130t108.5 -87t153.5 -32 q72 0 145.5 20.5t110.5 53.5zM539 958q-117 0 -178.5 -78.5t-73.5 -277.5h450q2 18 3 35.5t1 34.5q0 131 -49 208.5t-153 77.5zM340 1208l-59 33l225 381q10 6 25.5 7t25.5 -7l234 -379l-55 -35l-211 219z" />
<glyph unicode="&#xeb;" horiz-adv-x="1030" d="M913 143q-16 -35 -51 -65.5t-80 -53t-98 -36t-109 -13.5q-121 0 -213 38t-153.5 109t-93 169t-31.5 221q0 262 121 399.5t342 137.5q72 0 141.5 -19.5t123.5 -64.5t88 -120t34 -186q0 -35 -3 -70.5t-11 -76.5h-639q0 -86 21.5 -161t64.5 -130t108.5 -87t153.5 -32 q72 0 145.5 20.5t110.5 53.5zM539 958q-117 0 -178.5 -78.5t-73.5 -277.5h450q2 18 3 35.5t1 34.5q0 131 -49 208.5t-153 77.5zM191 1358q0 49 30.5 78.5t79.5 29.5t80 -29.5t31 -78.5q0 -47 -30.5 -76t-80.5 -29q-49 0 -79.5 29t-30.5 76zM646 1358q0 49 30.5 78.5 t79.5 29.5t80 -29.5t31 -78.5q0 -47 -31 -76t-80 -29t-79.5 29t-30.5 76z" />
<glyph unicode="&#xec;" horiz-adv-x="616" d="M539 0h-455v51q31 16 63.5 27.5t71.5 21.5v805l-135 17v53q59 25 129 43t139 31h51v-949q41 -10 74 -21t62 -28v-51zM414 1214l-45 -34l-381 305v41q12 10 39.5 19t60.5 15.5t62.5 9.5t46.5 1z" />
<glyph unicode="&#xed;" horiz-adv-x="616" d="M539 0h-455v51q31 16 63.5 27.5t71.5 21.5v805l-135 17v53q59 25 129 43t139 31h51v-949q41 -10 74 -21t62 -28v-51zM407 1571q16 2 43 -1t55.5 -9.5t53.5 -15.5t37 -19v-39l-383 -309l-45 36z" />
<glyph unicode="&#xee;" horiz-adv-x="616" d="M539 0h-455v51q31 16 63.5 27.5t71.5 21.5v805l-135 17v53q59 25 129 43t139 31h51v-949q41 -10 74 -21t62 -28v-51zM112 1208l-59 33l225 381q10 6 25.5 7t25.5 -7l234 -379l-55 -35l-211 219z" />
<glyph unicode="&#xef;" horiz-adv-x="616" d="M539 0h-455v51q31 16 63.5 27.5t71.5 21.5v805l-135 17v53q59 25 129 43t139 31h51v-949q41 -10 74 -21t62 -28v-51zM-29 1358q0 49 30.5 78.5t79.5 29.5t80 -29.5t31 -78.5q0 -47 -30.5 -76t-80.5 -29q-49 0 -79.5 29t-30.5 76zM426 1358q0 49 30.5 78.5t79.5 29.5 t80 -29.5t31 -78.5q0 -47 -31 -76t-80 -29t-79.5 29t-30.5 76z" />
<glyph unicode="&#xf0;" horiz-adv-x="1095" d="M324 1237l233 94q-53 55 -115.5 99.5t-132.5 70.5v35h125q63 -18 128 -56t124 -96l225 95l39 -88l-190 -78q111 -129 184.5 -311.5t73.5 -409.5q0 -133 -30 -247t-90 -195.5t-150.5 -128t-210.5 -46.5q-111 0 -200 38t-151.5 107.5t-95.5 165t-33 210.5q0 137 39 241.5 t101.5 173t142.5 103.5t162 35q109 0 175 -34t114 -83q-25 78 -67 162t-101 161l-258 -106zM254 496q0 -84 19.5 -161t58.5 -136.5t93 -94t126 -34.5q66 0 117 34.5t84.5 99t51 155t17.5 202.5q0 109 -7 172.5t-13 89.5q-31 51 -97.5 85t-162.5 34q-125 0 -206 -111.5 t-81 -334.5z" />
<glyph unicode="&#xf1;" horiz-adv-x="1216" d="M1182 0h-441v51q55 29 121 49v486q0 156 -45 246t-164 90q-51 0 -95 -18.5t-78 -50.5t-58.5 -72t-38.5 -83v-598q63 -12 123 -49v-51h-443v51q51 27 136 49v805l-136 17v53q53 23 123 41t146 33h51v-230h2q43 94 124 162t196 68q82 0 146 -19.5t107 -69t66 -132.5 t23 -210v-518q82 -14 135 -49v-51zM924 1376q-66 -66 -120 -91t-102 -25q-37 0 -69.5 11t-63.5 23l-60 24q-30 11 -61 11q-27 0 -54 -10t-60 -39l-39 57q76 72 135 96.5t107 24.5q37 0 68.5 -10t60 -22.5t58.5 -22.5t60 -10q27 0 53.5 9t59.5 32z" />
<glyph unicode="&#xf2;" horiz-adv-x="1132" d="M84 512q0 129 34 228.5t97.5 168t152.5 104.5t197 36q127 0 219.5 -39t150.5 -110t86 -169t28 -219q0 -258 -131.5 -397.5t-352.5 -139.5q-123 0 -213 38t-149.5 109t-89 170t-29.5 220zM281 512q0 -92 17 -174t55 -142.5t99.5 -95t147.5 -34.5q111 0 181.5 108.5 t70.5 337.5q0 94 -17.5 175t-54.5 141.5t-94 95t-137 34.5q-121 0 -194.5 -108.5t-73.5 -337.5zM696 1214l-45 -34l-381 305v41q12 10 39.5 19t60.5 15.5t62.5 9.5t46.5 1z" />
<glyph unicode="&#xf3;" horiz-adv-x="1132" d="M84 512q0 129 34 228.5t97.5 168t152.5 104.5t197 36q127 0 219.5 -39t150.5 -110t86 -169t28 -219q0 -258 -131.5 -397.5t-352.5 -139.5q-123 0 -213 38t-149.5 109t-89 170t-29.5 220zM281 512q0 -92 17 -174t55 -142.5t99.5 -95t147.5 -34.5q111 0 181.5 108.5 t70.5 337.5q0 94 -17.5 175t-54.5 141.5t-94 95t-137 34.5q-121 0 -194.5 -108.5t-73.5 -337.5zM673 1571q16 2 43 -1t55.5 -9.5t53.5 -15.5t37 -19v-39l-383 -309l-45 36z" />
<glyph unicode="&#xf4;" horiz-adv-x="1132" d="M84 512q0 129 34 228.5t97.5 168t152.5 104.5t197 36q127 0 219.5 -39t150.5 -110t86 -169t28 -219q0 -258 -131.5 -397.5t-352.5 -139.5q-123 0 -213 38t-149.5 109t-89 170t-29.5 220zM281 512q0 -92 17 -174t55 -142.5t99.5 -95t147.5 -34.5q111 0 181.5 108.5 t70.5 337.5q0 94 -17.5 175t-54.5 141.5t-94 95t-137 34.5q-121 0 -194.5 -108.5t-73.5 -337.5zM368 1208l-59 33l225 381q10 6 25.5 7t25.5 -7l234 -379l-55 -35l-211 219z" />
<glyph unicode="&#xf5;" horiz-adv-x="1132" d="M84 512q0 129 34 228.5t97.5 168t152.5 104.5t197 36q127 0 219.5 -39t150.5 -110t86 -169t28 -219q0 -258 -131.5 -397.5t-352.5 -139.5q-123 0 -213 38t-149.5 109t-89 170t-29.5 220zM281 512q0 -92 17 -174t55 -142.5t99.5 -95t147.5 -34.5q111 0 181.5 108.5 t70.5 337.5q0 94 -17.5 175t-54.5 141.5t-94 95t-137 34.5q-121 0 -194.5 -108.5t-73.5 -337.5zM879 1376q-66 -66 -120 -91t-102 -25q-37 0 -69.5 11t-63.5 23l-60 24q-30 11 -61 11q-27 0 -54 -10t-60 -39l-39 57q76 72 135 96.5t107 24.5q37 0 68.5 -10t60 -22.5 t58.5 -22.5t60 -10q27 0 53.5 9t59.5 32z" />
<glyph unicode="&#xf6;" horiz-adv-x="1132" d="M84 512q0 129 34 228.5t97.5 168t152.5 104.5t197 36q127 0 219.5 -39t150.5 -110t86 -169t28 -219q0 -258 -131.5 -397.5t-352.5 -139.5q-123 0 -213 38t-149.5 109t-89 170t-29.5 220zM281 512q0 -92 17 -174t55 -142.5t99.5 -95t147.5 -34.5q111 0 181.5 108.5 t70.5 337.5q0 94 -17.5 175t-54.5 141.5t-94 95t-137 34.5q-121 0 -194.5 -108.5t-73.5 -337.5zM227 1358q0 49 30.5 78.5t79.5 29.5t80 -29.5t31 -78.5q0 -47 -30.5 -76t-80.5 -29q-49 0 -79.5 29t-30.5 76zM682 1358q0 49 30.5 78.5t79.5 29.5t80 -29.5t31 -78.5 q0 -47 -31 -76t-80 -29t-79.5 29t-30.5 76z" />
<glyph unicode="&#xf7;" d="M86 762h922v-109h-922v109zM405 1096q0 61 39 98t101 37q63 0 102 -37t39 -98q0 -59 -39 -96t-102 -37q-61 0 -100.5 37t-39.5 96zM405 316q0 61 39 98t101 37q63 0 102 -37t39 -98q0 -59 -39 -96t-102 -37q-61 0 -100.5 37t-39.5 96z" />
<glyph unicode="&#xf8;" horiz-adv-x="1132" d="M238 84q-78 72 -116 180.5t-38 247.5q0 129 34 228.5t97.5 168t152.5 104.5t197 36q158 0 262 -62l95 146l77 -54l-96 -145q74 -72 110 -179.5t36 -242.5q0 -258 -131.5 -397.5t-352.5 -139.5q-74 0 -136 14.5t-114 41.5l-102 -158l-78 55zM281 512q0 -80 13 -150.5 t42 -128.5l414 637q-37 43 -86.5 65.5t-114.5 22.5q-123 0 -195.5 -108.5t-72.5 -337.5zM852 512q0 76 -12.5 143.5t-38.5 124.5l-410 -635q74 -80 209 -79q111 0 181.5 108.5t70.5 337.5z" />
<glyph unicode="&#xf9;" horiz-adv-x="1175" d="M158 406q0 129 6 252.5t6 246.5l-135 17v53q66 25 134.5 43t133.5 31h51q0 -154 -6 -305.5t-6 -301.5q0 -80 9 -143t33 -106t64.5 -67t104.5 -24q92 0 154.5 67t97.5 173v563l-133 17v53q63 25 131.5 43t134.5 31h51v-932l135 -17v-43q-59 -27 -119.5 -47t-125.5 -30h-52 l-14 243h-8q-10 -43 -36 -87t-66.5 -80t-93 -58.5t-113.5 -22.5q-82 0 -144.5 19.5t-105.5 69t-65.5 132.5t-22.5 210zM719 1214l-45 -34l-381 305v41q12 10 39.5 19t60.5 15.5t62.5 9.5t46.5 1z" />
<glyph unicode="&#xfa;" horiz-adv-x="1175" d="M158 406q0 129 6 252.5t6 246.5l-135 17v53q66 25 134.5 43t133.5 31h51q0 -154 -6 -305.5t-6 -301.5q0 -80 9 -143t33 -106t64.5 -67t104.5 -24q92 0 154.5 67t97.5 173v563l-133 17v53q63 25 131.5 43t134.5 31h51v-932l135 -17v-43q-59 -27 -119.5 -47t-125.5 -30h-52 l-14 243h-8q-10 -43 -36 -87t-66.5 -80t-93 -58.5t-113.5 -22.5q-82 0 -144.5 19.5t-105.5 69t-65.5 132.5t-22.5 210zM692 1571q16 2 43 -1t55.5 -9.5t53.5 -15.5t37 -19v-39l-383 -309l-45 36z" />
<glyph unicode="&#xfb;" horiz-adv-x="1175" d="M158 406q0 129 6 252.5t6 246.5l-135 17v53q66 25 134.5 43t133.5 31h51q0 -154 -6 -305.5t-6 -301.5q0 -80 9 -143t33 -106t64.5 -67t104.5 -24q92 0 154.5 67t97.5 173v563l-133 17v53q63 25 131.5 43t134.5 31h51v-932l135 -17v-43q-59 -27 -119.5 -47t-125.5 -30h-52 l-14 243h-8q-10 -43 -36 -87t-66.5 -80t-93 -58.5t-113.5 -22.5q-82 0 -144.5 19.5t-105.5 69t-65.5 132.5t-22.5 210zM389 1208l-59 33l225 381q10 6 25.5 7t25.5 -7l234 -379l-55 -35l-211 219z" />
<glyph unicode="&#xfc;" horiz-adv-x="1175" d="M158 406q0 129 6 252.5t6 246.5l-135 17v53q66 25 134.5 43t133.5 31h51q0 -154 -6 -305.5t-6 -301.5q0 -80 9 -143t33 -106t64.5 -67t104.5 -24q92 0 154.5 67t97.5 173v563l-133 17v53q63 25 131.5 43t134.5 31h51v-932l135 -17v-43q-59 -27 -119.5 -47t-125.5 -30h-52 l-14 243h-8q-10 -43 -36 -87t-66.5 -80t-93 -58.5t-113.5 -22.5q-82 0 -144.5 19.5t-105.5 69t-65.5 132.5t-22.5 210zM248 1358q0 49 30.5 78.5t79.5 29.5t80 -29.5t31 -78.5q0 -47 -30.5 -76t-80.5 -29q-49 0 -79.5 29t-30.5 76zM703 1358q0 49 30.5 78.5t79.5 29.5 t80 -29.5t31 -78.5q0 -47 -31 -76t-80 -29t-79.5 29t-30.5 76z" />
<glyph unicode="&#xfd;" horiz-adv-x="1034" d="M86 922q-31 8 -56.5 20t-52.5 29v53h429v-51q-43 -29 -117 -51l262 -607l39 -127h4l31 129l194 605q-61 12 -112 49v53h350v-53q-43 -29 -117 -49l-319 -922q-49 -131 -93.5 -212t-88.5 -128t-90 -68.5t-99 -31.5q-23 39 -40 86t-30 90l27 49h213q12 16 21.5 31.5 t19.5 38t22.5 57.5t28.5 88zM645 1571q16 2 43 -1t55.5 -9.5t53.5 -15.5t37 -19v-39l-383 -309l-45 36z" />
<glyph unicode="&#xfe;" horiz-adv-x="1159" d="M195 1397l-156 16v53q53 25 133 43.5t156 30.5h51v-721h2q41 104 114.5 167t192.5 63q182 0 282.5 -121t100.5 -393q0 -129 -33.5 -233.5t-96 -176.5t-152 -111t-197.5 -39q-76 0 -119 9.5t-94 31.5v-325q33 -4 65.5 -15.5t69.5 -33.5v-52h-455v52q70 33 136 49v1706z M623 922q-100 0 -160 -63.5t-84 -174.5v-573q37 -23 83 -34t120 -11q68 0 122 34.5t92 98t58 148.5t20 188q0 84 -13 154.5t-43 122.5t-77.5 81t-117.5 29z" />
<glyph unicode="&#xff;" horiz-adv-x="1034" d="M86 922q-31 8 -56.5 20t-52.5 29v53h429v-51q-43 -29 -117 -51l262 -607l39 -127h4l31 129l194 605q-61 12 -112 49v53h350v-53q-43 -29 -117 -49l-319 -922q-49 -131 -93.5 -212t-88.5 -128t-90 -68.5t-99 -31.5q-23 39 -40 86t-30 90l27 49h213q12 16 21.5 31.5 t19.5 38t22.5 57.5t28.5 88zM201 1358q0 49 30.5 78.5t79.5 29.5t80 -29.5t31 -78.5q0 -47 -30.5 -76t-80.5 -29q-49 0 -79.5 29t-30.5 76zM656 1358q0 49 30.5 78.5t79.5 29.5t80 -29.5t31 -78.5q0 -47 -31 -76t-80 -29t-79.5 29t-30.5 76z" />
<glyph unicode="&#x100;" horiz-adv-x="1398" d="M455 0h-455v59q74 33 147 50l519 1349h59l518 -1349q41 -8 81 -18.5t75 -31.5v-59h-525v59q41 16 84 28.5t84 21.5l-139 374h-489l-135 -374q86 -12 176 -50v-59zM455 590h413l-161 434l-39 176h-4l-52 -180zM393 1614v106h616v-106h-616z" />
<glyph unicode="&#x101;" horiz-adv-x="1034" d="M840 268q0 -45 2 -77.5t4 -69.5l141 -21v-43q-51 -27 -113.5 -47t-119.5 -30h-52q-20 47 -24 103t-6 124h-10q-8 -41 -32 -83t-62 -75t-89 -53.5t-117 -20.5q-125 0 -203.5 76t-78.5 199q0 94 38 154.5t111.5 95.5t182 50t252.5 23q6 64 6 119q0 21 -1 40 q-3 71 -22.5 121t-57.5 77.5t-100 27.5q-29 0 -64.5 -3t-70.5 -17l-96 -246h-53q-20 61 -35.5 127t-19.5 129q78 47 173 74t212 27q104 0 166.5 -30t95 -77t43 -104.5t10.5 -114.5q0 -123 -5 -237t-5 -218zM444 102q51 0 90 20.5t66 49.5t43 58.5t23 50.5v215 q-119 0 -195 -12.5t-119 -39t-59.5 -66.5t-16.5 -91q0 -88 45 -136.5t123 -48.5zM256 1305v106h518v-106h-518z" />
<glyph unicode="&#x102;" horiz-adv-x="1398" d="M455 0h-455v59q74 33 147 50l519 1349h59l518 -1349q41 -8 81 -18.5t75 -31.5v-59h-525v59q41 16 84 28.5t84 21.5l-139 374h-489l-135 -374q86 -12 176 -50v-59zM455 590h413l-161 434l-39 176h-4l-52 -180zM944 1808q33 4 65 -28q-18 -45 -47.5 -86t-69.5 -72 t-87.5 -49.5t-98.5 -18.5q-111 0 -193.5 59.5t-121.5 170.5q25 39 86 31q14 -25 39.5 -46.5t58.5 -37t68 -24.5t65 -9q66 -2 130.5 22.5t105.5 87.5z" />
<glyph unicode="&#x103;" horiz-adv-x="1034" d="M840 268q0 -45 2 -77.5t4 -69.5l141 -21v-43q-51 -27 -113.5 -47t-119.5 -30h-52q-20 47 -24 103t-6 124h-10q-8 -41 -32 -83t-62 -75t-89 -53.5t-117 -20.5q-125 0 -203.5 76t-78.5 199q0 94 38 154.5t111.5 95.5t182 50t252.5 23q6 64 6 119q0 21 -1 40 q-3 71 -22.5 121t-57.5 77.5t-100 27.5q-29 0 -64.5 -3t-70.5 -17l-96 -246h-53q-20 61 -35.5 127t-19.5 129q78 47 173 74t212 27q104 0 166.5 -30t95 -77t43 -104.5t10.5 -114.5q0 -123 -5 -237t-5 -218zM444 102q51 0 90 20.5t66 49.5t43 58.5t23 50.5v215 q-119 0 -195 -12.5t-119 -39t-59.5 -66.5t-16.5 -91q0 -88 45 -136.5t123 -48.5zM795 1473q-18 -45 -44 -90.5t-60.5 -80t-76.5 -57t-93 -22.5q-55 0 -98.5 19.5t-78 53t-61.5 79.5t-45 102l57 26q14 -27 40 -50t56.5 -41.5t65.5 -30t66 -11.5q139 -4 223 125z" />
<glyph unicode="&#x104;" horiz-adv-x="1398" d="M455 0h-455v59q74 33 147 50l519 1349h59l518 -1349q41 -8 81 -18.5t75 -31.5v-59h-86q-88 -49 -147.5 -117.5t-59.5 -158.5q0 -57 37 -94.5t100 -37.5t113 13v-60q-29 -23 -74 -41t-113 -18q-47 0 -89 14.5t-73.5 41t-50 64.5t-18.5 83q0 53 19.5 97t54.5 82t83 69.5 t105 62.5h-326v59q41 16 84 28.5t84 21.5l-139 374h-489l-135 -374q86 -12 176 -50v-59zM455 590h413l-161 434l-39 176h-4l-52 -180z" />
<glyph unicode="&#x105;" horiz-adv-x="1034" d="M840 268q0 -45 2 -77.5t4 -69.5l141 -21v-43q-14 -8 -28.5 -14t-30.5 -12q-90 -47 -150.5 -114t-60.5 -159q0 -20 7 -41.5t21.5 -40t37 -30t53.5 -11.5q29 0 54 5.5t54 13.5v-68q-29 -16 -73 -28.5t-80 -12.5q-123 0 -184.5 51.5t-61.5 129.5q0 82 53 144t139 110h-16 h-19q-20 47 -24 103t-6 124h-10q-8 -41 -32 -83t-62 -75t-89 -53.5t-117 -20.5q-125 0 -203.5 76t-78.5 199q0 94 38 154.5t111.5 95.5t182 50t252.5 23q8 88 5 159t-22.5 121t-57.5 77.5t-100 27.5q-29 0 -64.5 -3t-70.5 -17l-96 -246h-53q-20 61 -35.5 127t-19.5 129 q78 47 173 74t212 27q104 0 166.5 -30t95 -77t43 -104.5t10.5 -114.5q0 -123 -5 -237t-5 -218zM444 102q51 0 90 20.5t66 49.5t43 58.5t23 50.5v215q-119 0 -195 -12.5t-119 -39t-59.5 -66.5t-16.5 -91q0 -88 45 -136.5t123 -48.5z" />
<glyph unicode="&#x106;" horiz-adv-x="1318" d="M1120 373h54q10 -57 18 -145q5 -58 5 -113q0 -28 -1 -56q-31 -25 -74 -40t-91 -25t-98 -14.5t-95 -4.5q-172 0 -307.5 44t-228.5 134.5t-143 230.5t-50 333q0 201 55 341t149.5 229t219 130t262.5 41q135 0 227 -17.5t162 -51.5q0 -33 -2 -77t-6.5 -93.5t-10.5 -96.5 t-12 -86h-53l-107 295q-23 12 -75 16.5t-103 4.5q-102 0 -193.5 -38t-160 -117t-109.5 -198.5t-41 -281.5q0 -145 37 -263t106.5 -201t170 -127t227.5 -44q68 0 113 10t59 27zM901 1829q18 2 47 -2t58.5 -13.5t55 -22.5t38.5 -28v-41l-463 -186l-35 39z" />
<glyph unicode="&#x107;" horiz-adv-x="954" d="M874 143q-37 -72 -119.5 -120t-193.5 -48q-121 0 -210 38t-148.5 109t-89 170t-29.5 220q0 260 127 398.5t346 138.5q100 0 179 -17.5t134 -46.5q-6 -68 -22.5 -151.5t-40.5 -139.5h-55l-86 244q-14 10 -33 15t-62 5q-139 0 -214.5 -101t-75.5 -343q0 -78 21.5 -151.5 t65.5 -132t110.5 -93.5t154.5 -35q72 0 125 20.5t90 49.5zM645 1571q16 2 43 -1t55.5 -9.5t53.5 -15.5t37 -19v-39l-383 -309l-45 36z" />
<glyph unicode="&#x108;" horiz-adv-x="1318" d="M1120 373h54q10 -57 18 -145q5 -58 5 -113q0 -28 -1 -56q-31 -25 -74 -40t-91 -25t-98 -14.5t-95 -4.5q-172 0 -307.5 44t-228.5 134.5t-143 230.5t-50 333q0 201 55 341t149.5 229t219 130t262.5 41q135 0 227 -17.5t162 -51.5q0 -33 -2 -77t-6.5 -93.5t-10.5 -96.5 t-12 -86h-53l-107 295q-23 12 -75 16.5t-103 4.5q-102 0 -193.5 -38t-160 -117t-109.5 -198.5t-41 -281.5q0 -145 37 -263t106.5 -201t170 -127t227.5 -44q68 0 113 10t59 27zM504 1540l-29 39l260 229q10 6 25.5 7.5t27.5 -7.5l256 -223l-30 -43l-261 115z" />
<glyph unicode="&#x109;" horiz-adv-x="954" d="M874 143q-37 -72 -119.5 -120t-193.5 -48q-121 0 -210 38t-148.5 109t-89 170t-29.5 220q0 260 127 398.5t346 138.5q100 0 179 -17.5t134 -46.5q-6 -68 -22.5 -151.5t-40.5 -139.5h-55l-86 244q-14 10 -33 15t-62 5q-139 0 -214.5 -101t-75.5 -343q0 -78 21.5 -151.5 t65.5 -132t110.5 -93.5t154.5 -35q72 0 125 20.5t90 49.5zM342 1208l-59 33l225 381q10 6 25.5 7t25.5 -7l234 -379l-55 -35l-211 219z" />
<glyph unicode="&#x10c;" horiz-adv-x="1318" d="M1120 373h54q10 -57 18 -145q5 -58 5 -113q0 -28 -1 -56q-31 -25 -74 -40t-91 -25t-98 -14.5t-95 -4.5q-172 0 -307.5 44t-228.5 134.5t-143 230.5t-50 333q0 201 55 341t149.5 229t219 130t262.5 41q135 0 227 -17.5t162 -51.5q0 -33 -2 -77t-6.5 -93.5t-10.5 -96.5 t-12 -86h-53l-107 295q-23 12 -75 16.5t-103 4.5q-102 0 -193.5 -38t-160 -117t-109.5 -198.5t-41 -281.5q0 -145 37 -263t106.5 -201t170 -127t227.5 -44q68 0 113 10t59 27zM1022 1819q16 0 30.5 -10.5t20.5 -24.5l-260 -230q-10 -4 -25.5 -5t-27.5 5l-256 224 q8 14 19.5 27.5t31.5 13.5l240 -113z" />
<glyph unicode="&#x10d;" horiz-adv-x="954" d="M874 143q-37 -72 -119.5 -120t-193.5 -48q-121 0 -210 38t-148.5 109t-89 170t-29.5 220q0 260 127 398.5t346 138.5q100 0 179 -17.5t134 -46.5q-6 -68 -22.5 -151.5t-40.5 -139.5h-55l-86 244q-14 10 -33 15t-62 5q-139 0 -214.5 -101t-75.5 -343q0 -78 21.5 -151.5 t65.5 -132t110.5 -93.5t154.5 -35q72 0 125 20.5t90 49.5zM735 1630q18 2 36 -8t24 -25l-254 -378q-10 -4 -24.5 -5.5t-26.5 5.5l-248 376q8 16 28.5 26.5t41.5 8.5l219 -217z" />
<glyph unicode="&#x10e;" horiz-adv-x="1449" d="M59 0v59q72 33 168 50v1214q-47 10 -90 23.5t-78 27.5v60h209q35 0 82 2t97 5l97 6q46 3 77 3q348 0 535 -186.5t187 -528.5q0 -162 -46 -300t-140 -238.5t-238.5 -157.5t-340.5 -57q-31 0 -70 3t-82 6l-87 6q-44 3 -83 3h-197zM592 1343q-53 0 -102.5 -1t-77.5 -7v-1241 q10 -2 36.5 -3t57.5 -2t58 -1h40q141 0 239.5 53.5t161 142.5t91 205.5t28.5 245.5q0 100 -27.5 208t-90 197t-165 146t-249.5 57zM844 1819q16 0 30.5 -10.5t20.5 -24.5l-260 -230q-10 -4 -25.5 -5t-27.5 5l-256 224q8 14 19.5 27.5t31.5 13.5l240 -113z" />
<glyph unicode="&#x10f;" horiz-adv-x="1136" d="M764 203q-10 -45 -34.5 -86t-60.5 -73t-82 -50.5t-100 -18.5q-203 0 -303 129t-100 402q0 262 128 399t345 137q76 0 119 -7t94 -25v387l-156 16v53q59 25 138 43.5t151 30.5h51v-1423l136 -17v-43q-59 -29 -123 -49t-125 -28h-51l-19 223h-8zM528 102q100 0 160 63.5 t82 172.5v577q-35 20 -82 28.5t-121 8.5q-139 0 -212.5 -121.5t-73.5 -324.5q0 -84 14 -157t45 -128t76.5 -87t111.5 -32zM1038 1112q43 92 65.5 199.5t22.5 191.5l25 33q14 2 37.5 -1t48.5 -10t46.5 -16.5t33.5 -19.5q-10 -57 -36 -115.5t-59.5 -112t-71.5 -97.5t-71 -74z " />
<glyph unicode="&#x110;" horiz-adv-x="1452" d="M45 786h182v537q-47 10 -90 23.5t-78 27.5v60h209q35 0 82 2t97 5l97 6q46 3 77 3q174 0 308 -48t226 -139.5t140 -224.5t48 -303q0 -162 -46 -300t-140 -238.5t-238.5 -157.5t-340.5 -57q-29 0 -69 3l-83 6l-87 6q-44 3 -83 3h-197v59q72 33 168 50v571h-182v106z M592 1343q-53 0 -102.5 -1t-77.5 -7v-549h342v-106h-342v-586q10 -2 37.5 -3t58.5 -2t58 -1h40q141 0 239.5 53.5t160 142.5t90 205.5t28.5 245.5q0 100 -27.5 208t-90 197t-163.5 146t-251 57z" />
<glyph unicode="&#x111;" horiz-adv-x="1136" d="M457 1276h313v121l-156 16v53q59 25 138 43.5t151 30.5h51v-264h189v-107h-189v-1052l136 -17v-43q-59 -29 -123 -49t-125 -28h-51l-19 223h-8q-10 -45 -34.5 -86t-60.5 -73t-82 -50.5t-100 -18.5q-203 0 -303 129t-100 402q0 262 128 399t345 137q76 0 119 -7t94 -25 v159h-313v107zM528 102q100 0 160 63.5t82 172.5v577q-35 20 -82 28.5t-121 8.5q-139 0 -212.5 -121.5t-73.5 -324.5q0 -84 14 -157t45 -128t76.5 -87t111.5 -32z" />
<glyph unicode="&#x112;" horiz-adv-x="1191" d="M1030 1434q-2 -82 -7 -165t-15 -167h-54l-84 225h-446v-543h334l80 152h51q6 -101 6 -204.5t-6 -209.5h-51l-80 156h-334v-572h471l100 246h52q14 -86 20 -174q4 -53 4 -106q0 -36 -2 -72h-1010v59q72 33 168 50v1214q-41 8 -84 21.5t-84 29.5v60h971zM309 1614v106h616 v-106h-616z" />
<glyph unicode="&#x113;" horiz-adv-x="1030" d="M913 143q-16 -35 -51 -65.5t-80 -53t-98 -36t-109 -13.5q-121 0 -213 38t-153.5 109t-93 169t-31.5 221q0 262 121 399.5t342 137.5q72 0 141.5 -19.5t123.5 -64.5t88 -120t34 -186q0 -35 -3 -70.5t-11 -76.5h-639q0 -86 21.5 -161t64.5 -130t108.5 -87t153.5 -32 q72 0 145.5 20.5t110.5 53.5zM539 958q-117 0 -178.5 -78.5t-73.5 -277.5h450q2 18 3 35.5t1 34.5q0 131 -49 208.5t-153 77.5zM275 1305v106h518v-106h-518z" />
<glyph unicode="&#x116;" horiz-adv-x="1191" d="M1030 1434q-2 -82 -7 -165t-15 -167h-54l-84 225h-446v-543h334l80 152h51q6 -101 6 -204.5t-6 -209.5h-51l-80 156h-334v-572h471l100 246h52q14 -86 20 -174q4 -53 4 -106q0 -36 -2 -72h-1010v59q72 33 168 50v1214q-41 8 -84 21.5t-84 29.5v60h971zM463 1673 q0 53 39 82t94 29t92 -29t37 -82t-37 -81.5t-92 -28.5t-94 28.5t-39 81.5z" />
<glyph unicode="&#x117;" horiz-adv-x="1030" d="M913 143q-16 -35 -51 -65.5t-80 -53t-98 -36t-109 -13.5q-121 0 -213 38t-153.5 109t-93 169t-31.5 221q0 262 121 399.5t342 137.5q72 0 141.5 -19.5t123.5 -64.5t88 -120t34 -186q0 -35 -3 -70.5t-11 -76.5h-639q0 -86 21.5 -161t64.5 -130t108.5 -87t153.5 -32 q72 0 145.5 20.5t110.5 53.5zM539 958q-117 0 -178.5 -78.5t-73.5 -277.5h450q2 18 3 35.5t1 34.5q0 131 -49 208.5t-153 77.5zM402 1372q0 55 36 88t95 33t94 -33t35 -88t-35 -87t-94 -32t-95 32t-36 87z" />
<glyph unicode="&#x118;" horiz-adv-x="1191" d="M1030 1434q-2 -82 -7 -165t-15 -167h-54l-84 225h-446v-543h334l80 152h51q12 -203 0 -414h-51l-80 156h-334v-572h471l100 246h52q6 -27 11 -75t8 -101t3 -101v-75h-90q-86 -49 -146.5 -117.5t-60.5 -158.5q0 -57 37 -94.5t102 -37.5q63 0 113 13v-60q-29 -23 -75 -41 t-111 -18q-47 0 -90 14.5t-75 41t-50.5 64.5t-18.5 83q0 53 19.5 97t55.5 82t84 69.5t105 62.5h-809v59q72 33 168 50v1214q-41 8 -84 21.5t-84 29.5v60h971z" />
<glyph unicode="&#x119;" horiz-adv-x="1030" d="M913 143q-20 -41 -63 -75.5t-98 -57.5q-78 -45 -127.5 -107.5t-49.5 -144.5q0 -20 6.5 -41.5t20.5 -40t37 -30t55 -11.5q29 0 54.5 5.5t54.5 13.5v-68q-29 -16 -73 -28.5t-81 -12.5q-123 0 -184.5 51.5t-61.5 129.5q0 80 51.5 141t133.5 108q-250 0 -377 141.5 t-127 395.5q0 262 121 399.5t342 137.5q82 0 160.5 -26t135 -88.5t80 -165.5t-2.5 -257h-639q0 -86 21.5 -161t64.5 -130t108.5 -87t153.5 -32q72 0 145.5 20.5t110.5 53.5zM539 958q-117 0 -178.5 -78.5t-73.5 -277.5h450q14 160 -33.5 258t-164.5 98z" />
<glyph unicode="&#x11a;" horiz-adv-x="1191" d="M1030 1434q-2 -82 -7 -165t-15 -167h-54l-84 225h-446v-543h334l80 152h51q6 -101 6 -204.5t-6 -209.5h-51l-80 156h-334v-572h471l100 246h52q14 -86 20 -174q4 -53 4 -106q0 -36 -2 -72h-1010v59q72 33 168 50v1214q-41 8 -84 21.5t-84 29.5v60h971zM838 1819 q16 0 30.5 -10.5t20.5 -24.5l-260 -230q-10 -4 -25.5 -5t-27.5 5l-256 224q8 14 19.5 27.5t31.5 13.5l240 -113z" />
<glyph unicode="&#x11b;" horiz-adv-x="1030" d="M913 143q-16 -35 -51 -65.5t-80 -53t-98 -36t-109 -13.5q-121 0 -213 38t-153.5 109t-93 169t-31.5 221q0 262 121 399.5t342 137.5q72 0 141.5 -19.5t123.5 -64.5t88 -120t34 -186q0 -35 -3 -70.5t-11 -76.5h-639q0 -86 21.5 -161t64.5 -130t108.5 -87t153.5 -32 q72 0 145.5 20.5t110.5 53.5zM539 958q-117 0 -178.5 -78.5t-73.5 -277.5h450q2 18 3 35.5t1 34.5q0 131 -49 208.5t-153 77.5zM733 1630q18 2 36 -8t24 -25l-254 -378q-10 -4 -24.5 -5.5t-26.5 5.5l-248 376q8 16 28.5 26.5t41.5 8.5l219 -217z" />
<glyph unicode="&#x11c;" horiz-adv-x="1409" d="M1247 98q-39 -23 -91 -44t-110.5 -38.5t-117 -29t-109.5 -11.5q-164 0 -295 44t-223 135.5t-142 230.5t-50 332q0 201 58 342t155.5 230t221.5 129t253 40q135 0 228 -17.5t163 -51.5q0 -31 -2 -76t-6 -94.5t-10.5 -97.5t-12.5 -85h-53l-107 295q-23 12 -76 16.5 t-104 4.5q-102 0 -194.5 -38t-161 -117t-109.5 -198.5t-41 -281.5q0 -145 40 -262t110.5 -200t166 -128t206.5 -45q41 0 79.5 8t71.5 19.5t54.5 23.5t29.5 21v413q-53 4 -101 18.5l-96 30.5v60h502v-60q-20 -14 -49 -26t-78 -23v-469zM508 1540l-29 39l260 229 q10 6 25.5 7.5t27.5 -7.5l256 -223l-30 -43l-261 115z" />
<glyph unicode="&#x11d;" horiz-adv-x="1077" d="M506 1049q111 0 186.5 -21.5t126.5 -66.5q121 82 252 118q16 -23 23.5 -55.5t7.5 -60.5l-27 -50h-215q51 -74 51 -194q0 -147 -103 -239.5t-302 -92.5q-39 0 -63.5 2t-55.5 6l-23 -41q-13 -23 -14 -47q0 -41 47 -64.5t118 -42t154 -38t154.5 -53t119.5 -87.5 q50 -57 50 -149q0 -69 -34 -125q-36 -59 -99 -99t-152.5 -61.5t-195.5 -21.5q-223 0 -337 75.5t-114 190.5q0 55 17.5 96t50.5 72t82 54.5t113 43.5q-45 20 -75 56t-30 88q0 47 40 93t81 73q-117 31 -179.5 116.5t-62.5 194.5q0 70 27 130t78 105t127 70t176 25zM809 -166 q0 66 -44 104.5t-109.5 63.5t-141.5 41t-141 37q-78 -47 -102.5 -99.5t-24.5 -107.5q0 -109 77.5 -163t225.5 -54q76 0 126 14.5t79.5 38t42 56t12.5 69.5zM283 719q0 -49 11 -93t36.5 -77t68.5 -52.5t107 -19.5q119 0 170 69.5t51 172.5q0 111 -50 175t-171 64 q-125 0 -174 -62t-49 -177zM305 1208l-59 33l225 381q10 6 25.5 7t25.5 -7l234 -379l-55 -35l-211 219z" />
<glyph unicode="&#x11e;" horiz-adv-x="1409" d="M1247 98q-39 -23 -91 -44t-110.5 -38.5t-117 -29t-109.5 -11.5q-164 0 -295 44t-223 135.5t-142 230.5t-50 332q0 201 58 342t155.5 230t221.5 129t253 40q135 0 228 -17.5t163 -51.5q0 -31 -2 -76t-6 -94.5t-10.5 -97.5t-12.5 -85h-53l-107 295q-23 12 -76 16.5 t-104 4.5q-102 0 -194.5 -38t-161 -117t-109.5 -198.5t-41 -281.5q0 -145 40 -262t110.5 -200t166 -128t206.5 -45q41 0 79.5 8t71.5 19.5t54.5 23.5t29.5 21v413q-53 4 -101 18.5l-96 30.5v60h502v-60q-20 -14 -49 -26t-78 -23v-469zM1055 1808q33 4 65 -28 q-18 -45 -47.5 -86t-69.5 -72t-87.5 -49.5t-98.5 -18.5q-111 0 -193.5 59.5t-121.5 170.5q25 39 86 31q14 -25 39.5 -46.5t58.5 -37t68 -24.5t65 -9q66 -2 130.5 22.5t105.5 87.5z" />
<glyph unicode="&#x11f;" horiz-adv-x="1077" d="M506 1049q111 0 186.5 -21.5t126.5 -66.5q121 82 252 118q16 -23 23.5 -55.5t7.5 -60.5l-27 -50h-215q51 -74 51 -194q0 -147 -103 -239.5t-302 -92.5q-39 0 -63.5 2t-55.5 6l-23 -41q-13 -23 -14 -47q0 -41 47 -64.5t118 -42t154 -38t154.5 -53t119.5 -87.5 q50 -57 50 -149q0 -69 -34 -125q-36 -59 -99 -99t-152.5 -61.5t-195.5 -21.5q-223 0 -337 75.5t-114 190.5q0 55 17.5 96t50.5 72t82 54.5t113 43.5q-45 20 -75 56t-30 88q0 47 40 93t81 73q-117 31 -179.5 116.5t-62.5 194.5q0 70 27 130t78 105t127 70t176 25zM809 -166 q0 66 -44 104.5t-109.5 63.5t-141.5 41t-141 37q-78 -47 -102.5 -99.5t-24.5 -107.5q0 -109 77.5 -163t225.5 -54q76 0 126 14.5t79.5 38t42 56t12.5 69.5zM283 719q0 -49 11 -93t36.5 -77t68.5 -52.5t107 -19.5q119 0 170 69.5t51 172.5q0 111 -50 175t-171 64 q-125 0 -174 -62t-49 -177zM776 1473q-18 -45 -44 -90.5t-60.5 -80t-76.5 -57t-93 -22.5q-55 0 -98.5 19.5t-78 53t-61.5 79.5t-45 102l57 26q14 -27 40 -50t56.5 -41.5t65.5 -30t66 -11.5q139 -4 223 125z" />
<glyph unicode="&#x122;" horiz-adv-x="1409" d="M1247 98q-39 -23 -91 -44t-110.5 -38.5t-117 -29t-109.5 -11.5q-164 0 -295 44t-223 135.5t-142 230.5t-50 332q0 201 58 342t155.5 230t221.5 129t253 40q135 0 228 -17.5t163 -51.5q0 -31 -2 -76t-6 -94.5t-10.5 -97.5t-12.5 -85h-53l-107 295q-23 12 -76 16.5 t-104 4.5q-102 0 -194.5 -38t-161 -117t-109.5 -198.5t-41 -281.5q0 -145 40 -262t110.5 -200t166 -128t206.5 -45q41 0 79.5 8t71.5 19.5t54.5 23.5t29.5 21v413q-53 4 -101 18.5l-96 30.5v60h502v-60q-20 -14 -49 -26t-78 -23v-469zM658 -487q37 16 72.5 55t29.5 98 q-23 18 -63.5 36.5t-71.5 29.5q-10 33 -1 63.5t27.5 54t42 39t46.5 15.5q70 -6 124 -52.5t54 -134.5q0 -98 -60.5 -171.5t-168.5 -102.5z" />
<glyph unicode="&#x123;" horiz-adv-x="1077" d="M506 1049q111 0 186.5 -21.5t126.5 -66.5q121 82 252 118q16 -23 23.5 -55.5t7.5 -60.5l-27 -50h-215q51 -74 51 -194q0 -147 -103 -239.5t-302 -92.5q-39 0 -63.5 2t-55.5 6l-23 -41q-13 -23 -14 -47q0 -41 47 -64.5t118 -42t154 -38t154.5 -53t119.5 -87.5 q50 -57 50 -149q0 -69 -34 -125q-36 -59 -99 -99t-152.5 -61.5t-195.5 -21.5q-223 0 -337 75.5t-114 190.5q0 55 17.5 96t50.5 72t82 54.5t113 43.5q-45 20 -75 56t-30 88q0 47 40 93t81 73q-117 31 -179.5 116.5t-62.5 194.5q0 70 27 130t78 105t127 70t176 25zM809 -166 q0 66 -44 104.5t-109.5 63.5t-141.5 41t-141 37q-78 -47 -102.5 -99.5t-24.5 -107.5q0 -109 77.5 -163t225.5 -54q76 0 126 14.5t79.5 38t42 56t12.5 69.5zM283 719q0 -49 11 -93t36.5 -77t68.5 -52.5t107 -19.5q119 0 170 69.5t51 172.5q0 111 -50 175t-171 64 q-125 0 -174 -62t-49 -177zM649.01 1592.97q-62.9961 -24.999 -87.4951 -66.4961q-24.498 -41.4971 -24.498 -82.4951q22.998 -17.999 62.4961 -37.9971q39.4971 -19.999 70.4951 -29.999q10 -32.998 1 -62.4961q-8.99902 -29.498 -26.498 -52.9961 q-17.499 -23.499 -40.998 -38.998q-23.498 -15.499 -46.4971 -15.499q-67.9951 6 -114.992 52.4971t-46.9971 134.491q0 97.9941 63.4961 173.489q63.4961 75.4961 158.49 98.4941z" />
<glyph unicode="&#x124;" horiz-adv-x="1490" d="M578 0h-519v59q82 33 168 50v1214q-96 14 -168 51v60h519v-60q-35 -18 -74 -30.5t-80 -20.5v-535h643v535q-43 10 -81 22.5t-73 28.5v60h519v-60q-37 -20 -81 -31.5t-87 -19.5v-1214q47 -8 90 -20.5t78 -29.5v-59h-519v59q74 33 154 50v573h-643v-573q41 -8 80 -20.5 t74 -29.5v-59zM490 1540l-29 39l260 229q10 6 25.5 7.5t27.5 -7.5l256 -223l-30 -43l-261 115z" />
<glyph unicode="&#x125;" horiz-adv-x="1202" d="M1167 0h-442v51q49 27 123 49v480q0 160 -45 251t-164 91q-53 0 -96 -19.5t-78 -50.5t-59.5 -71t-36.5 -83v-598q33 -8 62.5 -18t57.5 -31v-51h-440v51q63 33 135 49v1297l-155 16v53q59 25 138 43.5t150 30.5h52v-723h2q43 96 123.5 164t195.5 68q82 0 146.5 -19.5 t107.5 -69t65.5 -132.5t22.5 -210v-518q35 -8 70 -18t65 -31v-51zM0 1540l-29 39l260 229q10 6 25.5 7.5t27.5 -7.5l256 -223l-30 -43l-261 115z" />
<glyph unicode="&#x126;" horiz-adv-x="1490" d="M61 1143h166v180q-96 14 -168 51v60h519v-60q-35 -18 -74 -30.5t-80 -20.5v-180h643v180q-43 10 -81 22.5t-73 28.5v60h519v-60q-37 -20 -81 -31.5t-87 -19.5v-180h166v-107h-166v-927q47 -8 90 -20.5t78 -29.5v-59h-519v59q74 33 154 50v573h-643v-573q41 -8 80 -20.5 t74 -29.5v-59h-519v59q82 33 168 50v927h-166v107zM1067 788v248h-643v-248h643z" />
<glyph unicode="&#x127;" horiz-adv-x="1202" d="M6 1274h178v123l-155 16v53q59 25 138 43.5t150 30.5h52v-266h325v-105h-325v-352h2q43 96 123.5 164t195.5 68q82 0 146.5 -19.5t107.5 -69t65.5 -132.5t22.5 -210v-518q35 -8 70 -18t65 -31v-51h-442v51q49 27 123 49v480q0 160 -45 251t-164 91q-53 0 -96 -19.5 t-78 -50.5t-59.5 -71t-36.5 -83v-598q33 -8 62.5 -18t57.5 -31v-51h-440v51q63 33 135 49v1069h-178v105z" />
<glyph unicode="&#x12a;" horiz-adv-x="720" d="M623 0h-525v59q80 37 164 50v1214q-41 8 -82 21.5t-82 29.5v60h525v-60q-37 -16 -80 -29.5t-84 -21.5v-1214q43 -8 86 -20.5t78 -29.5v-59zM55 1614v106h616v-106h-616z" />
<glyph unicode="&#x12b;" horiz-adv-x="616" d="M539 0h-455v51q31 16 63.5 27.5t71.5 21.5v805l-135 17v53q59 25 129 43t139 31h51v-949q41 -10 74 -21t62 -28v-51zM49 1305v106h518v-106h-518z" />
<glyph unicode="&#x12e;" horiz-adv-x="720" d="M623 0h-82q-88 -49 -147.5 -117.5t-59.5 -158.5q0 -57 37 -94.5t100 -37.5t113 13v-60q-29 -23 -74 -41t-113 -18q-47 0 -89 14.5t-73.5 41t-50 64.5t-18.5 83q0 53 19.5 97t54 82t83 69.5t105.5 62.5h-330v59q80 37 164 50v1214q-41 8 -82 21.5t-82 29.5v60h525v-60 q-37 -16 -80 -29.5t-84 -21.5v-1214q43 -8 86 -20.5t78 -29.5v-59z" />
<glyph unicode="&#x12f;" horiz-adv-x="622" d="M541 0h-80q-68 -43 -113 -103.5t-45 -138.5q0 -20 6 -41.5t20.5 -40t37 -30t55.5 -11.5q31 0 56.5 5.5t53.5 13.5v-68q-29 -16 -73.5 -28.5t-81.5 -12.5q-121 0 -182.5 51.5t-61.5 129.5q0 92 63.5 159.5t168.5 114.5h-279v51q31 16 63.5 27.5t71.5 21.5v805l-135 17v53 q59 25 129 43t139 31h52v-949q41 -10 73.5 -21t61.5 -28v-51zM193 1366q0 53 33.5 84t86.5 31t86 -31t33 -84t-32.5 -83t-86.5 -30q-53 0 -86.5 30t-33.5 83z" />
<glyph unicode="&#x130;" horiz-adv-x="720" d="M623 0h-525v59q80 37 164 50v1214q-41 8 -82 21.5t-82 29.5v60h525v-60q-37 -16 -80 -29.5t-84 -21.5v-1214q43 -8 86 -20.5t78 -29.5v-59zM229 1673q0 53 39 82t94 29t92 -29t37 -82t-37 -81.5t-92 -28.5t-94 28.5t-39 81.5z" />
<glyph unicode="&#x131;" horiz-adv-x="616" d="M539 0h-455v51q31 16 63.5 27.5t71.5 21.5v805l-135 17v53q59 25 129 43t139 31h51v-949q41 -10 74 -21t62 -28v-51z" />
<glyph unicode="&#x134;" horiz-adv-x="698" d="M80 1434h520v-60q-37 -16 -76 -29.5t-80 -21.5v-1147q0 -143 -32.5 -235.5t-80.5 -148.5t-102.5 -82.5t-99.5 -37.5l-23 31q31 27 56.5 60.5t45 85t30 125t10.5 180.5v1169q-45 10 -88 22.5t-80 28.5v60zM91 1540l-29 39l260 229q10 6 25.5 7.5t27.5 -7.5l256 -223 l-30 -43l-261 115z" />
<glyph unicode="&#x135;" horiz-adv-x="589" d="M217 905l-135 17v53q59 29 130 46t138 28h51v-961q0 -145 -36.5 -241.5t-86 -156t-100.5 -88t-82 -36.5l-24 39q25 12 50 42.5t46.5 85t35 132.5t13.5 184v856zM110 1208l-59 33l225 381q10 6 25.5 7t25.5 -7l234 -379l-55 -35l-211 219z" />
<glyph unicode="&#x136;" horiz-adv-x="1323" d="M782 1434h453v-60q-41 -18 -80 -30.5t-76 -20.5l-411 -545l117 -151l140 -173l149 -181l151 -173l98 -49v-51h-256l-70 49q-121 141 -240 305l-233 332h-100v-577q94 -16 154 -50v-59h-519v59q82 33 168 50v1214q-92 12 -168 51v60h519v-60q-33 -14 -72 -27.5t-82 -23.5 v-567l123 28l383 539q-41 10 -78 22.5t-70 28.5v60zM539 -487q37 16 72.5 55t29.5 98q-23 18 -63.5 36.5t-71.5 29.5q-10 33 -1 63.5t27.5 54t42 39t46.5 15.5q70 -6 124 -52.5t54 -134.5q0 -98 -60.5 -171.5t-168.5 -102.5z" />
<glyph unicode="&#x137;" horiz-adv-x="1056" d="M614 1024h396v-53q-39 -16 -77 -28.5t-79 -20.5q-31 -41 -71 -88l-81 -95l-78 -88l-65 -67l75 -100l95 -124l106 -133q54 -68 107 -127l115 -49v-51h-254l-55 49q-109 135 -181 241l-131 197l-67 21v-408q68 -12 133 -49v-51h-453v51q68 33 135 49v1297l-155 16v53 q57 27 137 43l151 31h52v-979h53l72 82l77 93l76 95l68 91q-51 14 -101 49v53zM410 -483q63 25 87.5 66.5t24.5 82.5q-23 18 -62.5 38t-70.5 30q-10 33 -1 62.5t26.5 53t41 39t46.5 15.5q68 -6 115 -52.5t47 -134.5q0 -98 -63.5 -173.5t-158.5 -98.5z" />
<glyph unicode="&#x139;" horiz-adv-x="1124" d="M59 1434h562v-60q-49 -18 -98.5 -31.5t-98.5 -19.5v-1217h471l121 330h53q6 -43 11 -99t8.5 -116.5t3.5 -118t-2 -102.5h-1031v59q49 23 90 33t78 17v1214q-47 8 -90 21.5t-78 29.5v60zM596 1829q18 2 47 -2t58.5 -13.5t55 -22.5t38.5 -28v-41l-463 -186l-35 39z" />
<glyph unicode="&#x13a;" horiz-adv-x="616" d="M539 0h-455v51q68 33 135 49v1297l-156 16v53q53 25 133 43.5t156 30.5h51v-1440q68 -16 136 -49v-51zM471 1829q18 2 47 -2t58.5 -13.5t55 -22.5t38.5 -28v-41l-463 -186l-35 39z" />
<glyph unicode="&#x13b;" horiz-adv-x="1124" d="M59 1434h562v-60q-49 -18 -98.5 -31.5t-98.5 -19.5v-1217h471l121 330h53q6 -43 11 -99t8.5 -116.5t3.5 -118t-2 -102.5h-1031v59q49 23 90 33t78 17v1214q-47 8 -90 21.5t-78 29.5v60zM453 -487q37 16 72.5 55t29.5 98q-23 18 -63.5 36.5t-71.5 29.5q-10 33 -1 63.5 t27.5 54t42 39t46.5 15.5q70 -6 124 -52.5t54 -134.5q0 -98 -60.5 -171.5t-168.5 -102.5z" />
<glyph unicode="&#x13c;" horiz-adv-x="616" d="M539 0h-455v51q68 33 135 49v1297l-156 16v53q53 25 133 43.5t156 30.5h51v-1440q68 -16 136 -49v-51zM201 -483q63 25 87.5 66.5t24.5 82.5q-23 18 -62.5 38t-70.5 30q-10 33 -1 62.5t26.5 53t41 39t46.5 15.5q68 -6 115 -52.5t47 -134.5q0 -98 -63.5 -173.5 t-158.5 -98.5z" />
<glyph unicode="&#x13d;" horiz-adv-x="1124" d="M59 1434h562v-60q-49 -18 -98.5 -31.5t-98.5 -19.5v-1217h471l121 330h53q6 -43 11 -99t8.5 -116.5t3.5 -118t-2 -102.5h-1031v59q49 23 90 33t78 17v1214q-47 8 -90 21.5t-78 29.5v60zM700 1032q20 45 37.5 97.5t28 104.5t16.5 101t6 90l25 33q16 2 42.5 -3t54.5 -14 t52.5 -22.5t38.5 -27.5q-8 -55 -36.5 -113.5t-66.5 -110t-80 -93.5t-77 -64z" />
<glyph unicode="&#x13e;" horiz-adv-x="616" d="M539 0h-455v51q68 33 135 49v1297l-156 16v53q53 25 133 43.5t156 30.5h51v-1440q68 -16 136 -49v-51zM495 1112q43 92 65.5 199.5t22.5 191.5l25 33q14 2 37.5 -1t48.5 -10t46.5 -16.5t33.5 -19.5q-10 -57 -36 -115.5t-59.5 -112t-71.5 -97.5t-71 -74z" />
<glyph unicode="&#x141;" horiz-adv-x="1124" d="M59 1434h562v-60q-49 -18 -98.5 -31.5t-98.5 -19.5v-520l276 172v-135l-276 -172v-562h471l121 330h53q6 -43 11 -99t8.5 -116.5t3.5 -118t-2 -102.5h-1031v59q49 23 90 33t78 17v438l-192 -117v133l192 117v643q-47 8 -90 21.5t-78 29.5v60z" />
<glyph unicode="&#x142;" horiz-adv-x="665" d="M49 604l195 119v674l-156 16v53q53 25 133 43.5t156 30.5h51v-702l188 116v-135l-188 -117v-602q68 -16 135 -49v-51h-454v51q68 33 135 49v490l-195 -121v135z" />
<glyph unicode="&#x143;" horiz-adv-x="1499" d="M997 1434h443v-60q-86 -57 -168 -82v-1317h-117l-743 1129l-80 160h-6l18 -160v-973q84 -23 158 -72v-59h-443v59q37 23 79 40.5t89 31.5v1174q-41 16 -81 34.5t-74 36.5v58h346l645 -973l94 -176h8l-10 176v831q-43 18 -83 39t-75 43v60zM963 1829q18 2 47 -2 t58.5 -13.5t55 -22.5t38.5 -28v-41l-463 -186l-35 39z" />
<glyph unicode="&#x144;" horiz-adv-x="1216" d="M1182 0h-441v51q55 29 121 49v486q0 156 -45 246t-164 90q-51 0 -95 -18.5t-78 -50.5t-58.5 -72t-38.5 -83v-598q63 -12 123 -49v-51h-443v51q51 27 136 49v805l-136 17v53q53 23 123 41t146 33h51v-230h2q43 94 124 162t196 68q82 0 146 -19.5t107 -69t66 -132.5 t23 -210v-518q82 -14 135 -49v-51zM774 1571q16 2 43 -1t55.5 -9.5t53.5 -15.5t37 -19v-39l-383 -309l-45 36z" />
<glyph unicode="&#x145;" horiz-adv-x="1499" d="M997 1434h443v-60q-86 -57 -168 -82v-1317h-117l-743 1129l-80 160h-6l18 -160v-973q84 -23 158 -72v-59h-443v59q37 23 79 40.5t89 31.5v1174q-41 16 -81 34.5t-74 36.5v58h346l645 -973l94 -176h8l-10 176v831q-43 18 -83 39t-75 43v60zM635 -487q37 16 72.5 55 t29.5 98q-23 18 -63.5 36.5t-71.5 29.5q-10 33 -1 63.5t27.5 54t42 39t46.5 15.5q70 -6 124 -52.5t54 -134.5q0 -98 -60.5 -171.5t-168.5 -102.5z" />
<glyph unicode="&#x146;" horiz-adv-x="1216" d="M1182 0h-441v51q55 29 121 49v486q0 156 -45 246t-164 90q-51 0 -95 -18.5t-78 -50.5t-58.5 -72t-38.5 -83v-598q63 -12 123 -49v-51h-443v51q51 27 136 49v805l-136 17v53q53 23 123 41t146 33h51v-230h2q43 94 124 162t196 68q82 0 146 -19.5t107 -69t66 -132.5 t23 -210v-518q82 -14 135 -49v-51zM510 -483q63 25 87.5 66.5t24.5 82.5q-23 18 -62.5 38t-70.5 30q-10 33 -1 62.5t26.5 53t41 39t46.5 15.5q68 -6 115 -52.5t47 -134.5q0 -98 -63.5 -173.5t-158.5 -98.5z" />
<glyph unicode="&#x147;" horiz-adv-x="1499" d="M997 1434h443v-60q-86 -57 -168 -82v-1317h-117l-743 1129l-80 160h-6l18 -160v-973q84 -23 158 -72v-59h-443v59q37 23 79 40.5t89 31.5v1174q-41 16 -81 34.5t-74 36.5v58h346l645 -973l94 -176h8l-10 176v831q-43 18 -83 39t-75 43v60zM983 1819q16 0 30.5 -10.5 t20.5 -24.5l-260 -230q-10 -4 -25.5 -5t-27.5 5l-256 224q8 14 19.5 27.5t31.5 13.5l240 -113z" />
<glyph unicode="&#x148;" horiz-adv-x="1216" d="M1182 0h-441v51q55 29 121 49v486q0 156 -45 246t-164 90q-51 0 -95 -18.5t-78 -50.5t-58.5 -72t-38.5 -83v-598q63 -12 123 -49v-51h-443v51q51 27 136 49v805l-136 17v53q53 23 123 41t146 33h51v-230h2q43 94 124 162t196 68q82 0 146 -19.5t107 -69t66 -132.5 t23 -210v-518q82 -14 135 -49v-51zM827 1630q18 2 36 -8t24 -25l-254 -378q-10 -4 -24.5 -5.5t-26.5 5.5l-248 376q8 16 28.5 26.5t41.5 8.5l219 -217z" />
<glyph unicode="&#x14c;" horiz-adv-x="1515" d="M109 717q0 160 44 296t126.5 235.5t203.5 154.5t275 55t274.5 -55t203.5 -154.5t127 -235.5t44 -296t-44 -296t-127 -235.5t-204 -155t-274 -55.5q-154 0 -275 55.5t-203.5 155t-126.5 235.5t-44 296zM328 717q0 -131 27.5 -247t83 -202t139.5 -136t198 -50q104 0 182 50 t128.5 136t76 202t25.5 247t-26.5 246.5t-82 201.5t-139.5 136.5t-199 50.5q-113 0 -191.5 -50.5t-127.5 -136.5t-71.5 -201.5t-22.5 -246.5zM449 1614v106h616v-106h-616z" />
<glyph unicode="&#x14d;" horiz-adv-x="1132" d="M84 512q0 129 34 228.5t97.5 168t152.5 104.5t197 36q127 0 219.5 -39t150.5 -110t86 -169t28 -219q0 -258 -131.5 -397.5t-352.5 -139.5q-123 0 -213 38t-149.5 109t-89 170t-29.5 220zM281 512q0 -92 17 -174t55 -142.5t99.5 -95t147.5 -34.5q111 0 181.5 108.5 t70.5 337.5q0 94 -17.5 175t-54.5 141.5t-94 95t-137 34.5q-121 0 -194.5 -108.5t-73.5 -337.5zM307 1305v106h518v-106h-518z" />
<glyph unicode="&#x150;" horiz-adv-x="1515" d="M109 717q0 160 44 296t126.5 235.5t203.5 154.5t275 55t274.5 -55t203.5 -154.5t127 -235.5t44 -296t-44 -296t-127 -235.5t-204 -155t-274 -55.5q-154 0 -275 55.5t-203.5 155t-126.5 235.5t-44 296zM328 717q0 -131 27.5 -247t83 -202t139.5 -136t198 -50q104 0 182 50 t128.5 136t76 202t25.5 247t-26.5 246.5t-82 201.5t-139.5 136.5t-199 50.5q-113 0 -191.5 -50.5t-127.5 -136.5t-71.5 -201.5t-22.5 -246.5zM665 1819q12 2 37 -2.5t51.5 -10.5t48 -16t27.5 -21v-28l-268 -189l-39 37zM1022 1819q14 2 38.5 -2.5t51 -12.5t49 -18t33.5 -23 l-2 -20l-363 -195l-43 37z" />
<glyph unicode="&#x151;" horiz-adv-x="1132" d="M84 512q0 129 34 228.5t97.5 168t152.5 104.5t197 36q127 0 219.5 -39t150.5 -110t86 -169t28 -219q0 -258 -131.5 -397.5t-352.5 -139.5q-123 0 -213 38t-149.5 109t-89 170t-29.5 220zM281 512q0 -92 17 -174t55 -142.5t99.5 -95t147.5 -34.5q111 0 181.5 108.5 t70.5 337.5q0 94 -17.5 175t-54.5 141.5t-94 95t-137 34.5q-121 0 -194.5 -108.5t-73.5 -337.5zM504 1573q12 2 38.5 -1t54 -9.5t50 -15.5t29.5 -17v-31l-283 -274l-47 32zM858 1573q14 2 39.5 -1t51.5 -11.5t49.5 -19.5t33.5 -25v-27l-408 -264l-39 37z" />
<glyph unicode="&#x152;" horiz-adv-x="1953" d="M995 0q-53 -10 -117.5 -17.5t-119.5 -7.5q-154 0 -275 55.5t-203.5 155t-126.5 235.5t-44 296t44 296t126.5 235.5t203.5 154.5t275 55q47 0 110.5 -6t122.5 -18h803l-8 -165q-4 -83 -14 -167h-54l-86 225h-444v-543h332l82 152h49q16 -203 0 -414h-49l-82 156h-332v-572 h471l98 246h53q12 -86 19.5 -174t3.5 -178h-838zM776 82q53 0 107.5 8t107.5 31v1182q-53 23 -117.5 36t-132.5 13q-113 0 -191.5 -50.5t-127.5 -136.5t-71.5 -201.5t-22.5 -246.5t27.5 -247t83 -202t139 -136t198.5 -50z" />
<glyph unicode="&#x153;" horiz-adv-x="1794" d="M281 512q0 -92 17 -174t55 -143.5t99.5 -96.5t147.5 -35q111 0 180.5 110t69.5 339q0 94 -16.5 175t-53.5 141.5t-94 95t-137 34.5q-123 0 -195.5 -108.5t-72.5 -337.5zM948 154q-35 -49 -80 -83t-95 -55.5t-103.5 -31t-104.5 -9.5q-123 0 -213 38t-149.5 109t-89 170 t-29.5 220q0 129 34 228.5t97.5 168t152.5 104.5t197 36q111 0 215.5 -41t163.5 -136q27 43 68 77t90 55.5t103.5 33t105.5 11.5q82 0 161.5 -26t135 -88.5t79 -165.5t-3.5 -257h-636q0 -86 21.5 -161t64.5 -130t107.5 -87t152.5 -32q35 0 72.5 5.5t72.5 15.5t63.5 23.5 t47.5 29.5l30 -33q-16 -35 -51 -65.5t-81 -53t-99 -36t-109 -13.5q-55 0 -114.5 13.5t-113.5 37t-97 56.5t-66 72zM1303 958q-115 0 -176.5 -78.5t-73.5 -277.5h448q14 160 -33.5 258t-164.5 98z" />
<glyph unicode="&#x154;" horiz-adv-x="1304" d="M424 109q47 -10 90 -21.5t84 -28.5v-59h-539v59q45 20 86 30.5t82 19.5v1214q-53 10 -94 23.5t-74 27.5v60h181q82 0 179 8t189 8q100 0 187.5 -22.5t151 -71.5t99 -125t35.5 -182q0 -150 -78.5 -248.5t-214.5 -141.5q88 -139 184.5 -276t201.5 -272l110 -60v-51h-248 l-78 57q-57 72 -104 140.5t-88 139.5t-77 143l-73 155h-192v-526zM563 1343q-49 0 -80.5 -2t-58.5 -8v-612h147q141 0 224.5 90t83.5 238q0 152 -88.5 223t-227.5 71zM780 1829q18 2 47 -2t58.5 -13.5t55 -22.5t38.5 -28v-41l-463 -186l-35 39z" />
<glyph unicode="&#x155;" horiz-adv-x="786" d="M500 870q-23 -12 -56.5 -50t-60.5 -111v-609q41 -4 82 -15t82 -34v-51h-484v51q37 20 70 30.5t66 18.5v805l-136 17v53q66 29 135.5 46t133.5 28h51v-218h8q18 41 52 82t78 74t96 50q39 13 79 13q14 0 29 -1q14 -27 25.5 -59t21.5 -66v-54h-272zM561 1571q16 2 43 -1 t55.5 -9.5t53.5 -15.5t37 -19v-39l-383 -309l-45 36z" />
<glyph unicode="&#x156;" horiz-adv-x="1304" d="M424 109q47 -10 90 -21.5t84 -28.5v-59h-539v59q45 20 86 30.5t82 19.5v1214q-53 10 -94 23.5t-74 27.5v60h181q82 0 179 8t189 8q100 0 187.5 -22.5t151 -71.5t99 -125t35.5 -182q0 -150 -78.5 -248.5t-214.5 -141.5q88 -139 184.5 -276t201.5 -272l110 -60v-51h-248 l-78 57q-57 72 -104 140.5t-88 139.5t-77 143l-73 155h-192v-526zM563 1343q-49 0 -80.5 -2t-58.5 -8v-612h147q141 0 224.5 90t83.5 238q0 152 -88.5 223t-227.5 71zM535 -487q37 16 72.5 55t29.5 98q-23 18 -63.5 36.5t-71.5 29.5q-10 33 -1 63.5t27.5 54t42 39t46.5 15.5 q70 -6 124 -52.5t54 -134.5q0 -98 -60.5 -171.5t-168.5 -102.5z" />
<glyph unicode="&#x157;" horiz-adv-x="786" d="M500 870q-23 -12 -56.5 -50t-60.5 -111v-609q41 -4 82 -15t82 -34v-51h-484v51q37 20 70 30.5t66 18.5v805l-136 17v53q66 29 135.5 46t133.5 28h51v-218h8q18 41 52 82t78 74t96 50q39 13 79 13q14 0 29 -1q14 -27 25.5 -59t21.5 -66v-54h-272zM224 -483 q63 25 87.5 66.5t24.5 82.5q-23 18 -62.5 38t-70.5 30q-10 33 -1 62.5t26.5 53t41 39t46.5 15.5q68 -6 115 -52.5t47 -134.5q0 -98 -63.5 -173.5t-158.5 -98.5z" />
<glyph unicode="&#x158;" horiz-adv-x="1304" d="M424 109q47 -10 90 -21.5t84 -28.5v-59h-539v59q45 20 86 30.5t82 19.5v1214q-53 10 -94 23.5t-74 27.5v60h181q82 0 179 8t189 8q100 0 187.5 -22.5t151 -71.5t99 -125t35.5 -182q0 -150 -78.5 -248.5t-214.5 -141.5q88 -139 184.5 -276t201.5 -272l110 -60v-51h-248 l-78 57q-57 72 -104 140.5t-88 139.5t-77 143l-73 155h-192v-526zM563 1343q-49 0 -80.5 -2t-58.5 -8v-612h147q141 0 224.5 90t83.5 238q0 152 -88.5 223t-227.5 71zM819 1819q16 0 30.5 -10.5t20.5 -24.5l-260 -230q-10 -4 -25.5 -5t-27.5 5l-256 224q8 14 19.5 27.5 t31.5 13.5l240 -113z" />
<glyph unicode="&#x159;" horiz-adv-x="786" d="M500 870q-23 -12 -56.5 -50t-60.5 -111v-609q41 -4 82 -15t82 -34v-51h-484v51q37 20 70 30.5t66 18.5v805l-136 17v53q66 29 135.5 46t133.5 28h51v-218h8q18 41 52 82t78 74t96 50q39 13 79 13q14 0 29 -1q14 -27 25.5 -59t21.5 -66v-54h-272zM665 1630q18 2 36 -8 t24 -25l-254 -378q-10 -4 -24.5 -5.5t-26.5 5.5l-248 376q8 16 28.5 26.5t41.5 8.5l219 -217z" />
<glyph unicode="&#x15a;" horiz-adv-x="1097" d="M307 141q25 -25 64 -42t116 -17q66 0 123.5 17.5t99.5 51t66.5 82t24.5 109.5q0 82 -50.5 137.5t-125 98.5t-162.5 83.5t-163 97t-125 135.5t-50 198q0 86 30.5 153.5t87 114.5t134.5 72.5t174 25.5q125 0 228.5 -19.5t162.5 -47.5q0 -35 -5 -81t-12 -95.5t-15.5 -95.5 t-16.5 -81h-53l-82 281q-37 16 -93.5 24.5t-119.5 8.5q-104 0 -168 -58.5t-64 -163.5q0 -84 50.5 -141t126 -102t162.5 -87t163 -97.5t126 -131t50 -188.5q0 -92 -33.5 -168t-97 -129t-156 -82t-208.5 -29q-129 0 -231.5 31t-145.5 66q2 35 7 84t12 101t15.5 101.5 t16.5 83.5h53zM748 1829q18 2 47 -2t58.5 -13.5t55 -22.5t38.5 -28v-41l-463 -186l-35 39z" />
<glyph unicode="&#x15b;" horiz-adv-x="886" d="M604 233q0 57 -36 97.5t-91 75t-117.5 67.5t-118 77t-91 101.5t-35.5 141.5q0 55 25.5 102t68.5 81t100.5 53.5t122.5 19.5q111 0 181.5 -12.5t136.5 -35.5q-8 -66 -19.5 -132t-32.5 -136h-51l-78 209q-25 10 -55.5 13t-62.5 3q-37 0 -65 -13t-47.5 -33.5t-29.5 -47 t-10 -53.5q0 -55 36 -95t91 -74t117.5 -66.5t118 -73.5t91 -95.5t35.5 -130.5q0 -70 -29.5 -125t-81.5 -94t-121 -60.5t-146 -21.5q-88 0 -162 15.5t-154 44.5q4 74 18.5 142.5t37.5 131.5h51l90 -223q23 -16 54.5 -18t57.5 -2q90 0 145.5 48.5t55.5 118.5zM571 1571 q16 2 43 -1t55.5 -9.5t53.5 -15.5t37 -19v-39l-383 -309l-45 36z" />
<glyph unicode="&#x15c;" horiz-adv-x="1097" d="M307 141q25 -25 64 -42t116 -17q66 0 123.5 17.5t99.5 51t66.5 82t24.5 109.5q0 82 -50.5 137.5t-125 98.5t-162.5 83.5t-163 97t-125 135.5t-50 198q0 86 30.5 153.5t87 114.5t134.5 72.5t174 25.5q125 0 228.5 -19.5t162.5 -47.5q0 -35 -5 -81t-12 -95.5t-15.5 -95.5 t-16.5 -81h-53l-82 281q-37 16 -93.5 24.5t-119.5 8.5q-104 0 -168 -58.5t-64 -163.5q0 -84 50.5 -141t126 -102t162.5 -87t163 -97.5t126 -131t50 -188.5q0 -92 -33.5 -168t-97 -129t-156 -82t-208.5 -29q-129 0 -231.5 31t-145.5 66q2 35 7 84t12 101t15.5 101.5 t16.5 83.5h53zM328 1540l-29 39l260 229q10 6 25.5 7.5t27.5 -7.5l256 -223l-30 -43l-261 115z" />
<glyph unicode="&#x15d;" horiz-adv-x="886" d="M604 233q0 57 -36 97.5t-91 75t-117.5 67.5t-118 77t-91 101.5t-35.5 141.5q0 55 25.5 102t68.5 81t100.5 53.5t122.5 19.5q111 0 181.5 -12.5t136.5 -35.5q-8 -66 -19.5 -132t-32.5 -136h-51l-78 209q-25 10 -55.5 13t-62.5 3q-37 0 -65 -13t-47.5 -33.5t-29.5 -47 t-10 -53.5q0 -55 36 -95t91 -74t117.5 -66.5t118 -73.5t91 -95.5t35.5 -130.5q0 -70 -29.5 -125t-81.5 -94t-121 -60.5t-146 -21.5q-88 0 -162 15.5t-154 44.5q4 74 18.5 142.5t37.5 131.5h51l90 -223q23 -16 54.5 -18t57.5 -2q90 0 145.5 48.5t55.5 118.5zM250 1208l-59 33 l225 381q10 6 25.5 7t25.5 -7l234 -379l-55 -35l-211 219z" />
<glyph unicode="&#x15e;" horiz-adv-x="1097" d="M307 141q25 -25 64 -43t116 -18q66 0 123.5 17.5t99.5 51t66.5 83t24.5 110.5q0 82 -50.5 137.5t-125 98.5t-162.5 83.5t-163 97t-125 135.5t-50 198q0 86 30.5 153.5t87 114.5t134.5 72.5t174 25.5q125 0 228.5 -19.5t162.5 -47.5q0 -35 -5 -81t-12 -95.5t-15.5 -95.5 t-16.5 -81h-53l-82 281q-37 16 -93.5 24.5t-119.5 8.5q-104 0 -168 -58.5t-64 -163.5q0 -84 50.5 -141t126 -102t162.5 -87t163 -97.5t126 -131t50 -188.5q0 -174 -112.5 -280.5t-317.5 -122.5l-51 -134q123 -2 181.5 -46t58.5 -115q0 -61 -36 -106.5t-90.5 -76t-120 -45 t-124.5 -14.5v68q82 12 137 44.5t53 92.5q-2 57 -47 82.5t-137 31.5l72 213q-117 4 -207 34t-131 63q2 35 7 84t12 101t15.5 101.5t16.5 83.5h53z" />
<glyph unicode="&#x15f;" horiz-adv-x="925" d="M643 233q0 68 -39 109t-98.5 71.5t-127 58.5t-126.5 68t-98 99t-39 154q0 55 24.5 102t68.5 81t106.5 53.5t138.5 19.5q111 0 190.5 -12.5t144.5 -35.5q-8 -66 -19 -132t-32 -136h-51l-78 209q-25 10 -65.5 13t-73.5 3q-88 0 -129 -47t-41 -100q0 -61 39 -100t98.5 -70 t127 -58.5t127 -66.5t98 -94t38.5 -139q0 -137 -100 -218t-270 -88l-43 -116q113 -4 163 -42t54 -104q2 -59 -30 -103t-81 -72.5t-108.5 -42t-114.5 -11.5v61q78 10 125 41t45 95q-2 51 -43 73.5t-125 28.5l68 192q-143 10 -273 58q4 74 18.5 142.5t37.5 131.5h51l90 -223 q23 -16 63.5 -19.5t69.5 -3.5q100 0 159.5 50t59.5 120z" />
<glyph unicode="&#x160;" horiz-adv-x="1097" d="M307 141q25 -25 64 -42t116 -17q66 0 123.5 17.5t99.5 51t66.5 82t24.5 109.5q0 82 -50.5 137.5t-125 98.5t-162.5 83.5t-163 97t-125 135.5t-50 198q0 86 30.5 153.5t87 114.5t134.5 72.5t174 25.5q125 0 228.5 -19.5t162.5 -47.5q0 -35 -5 -81t-12 -95.5t-15.5 -95.5 t-16.5 -81h-53l-82 281q-37 16 -93.5 24.5t-119.5 8.5q-104 0 -168 -58.5t-64 -163.5q0 -84 50.5 -141t126 -102t162.5 -87t163 -97.5t126 -131t50 -188.5q0 -92 -33.5 -168t-97 -129t-156 -82t-208.5 -29q-129 0 -231.5 31t-145.5 66q2 35 7 84t12 101t15.5 101.5 t16.5 83.5h53zM801 1819q16 0 30.5 -10.5t20.5 -24.5l-260 -230q-10 -4 -25.5 -5t-27.5 5l-256 224q8 14 19.5 27.5t31.5 13.5l240 -113z" />
<glyph unicode="&#x161;" horiz-adv-x="886" d="M604 233q0 57 -36 97.5t-91 75t-117.5 67.5t-118 77t-91 101.5t-35.5 141.5q0 55 25.5 102t68.5 81t100.5 53.5t122.5 19.5q111 0 181.5 -12.5t136.5 -35.5q-8 -66 -19.5 -132t-32.5 -136h-51l-78 209q-25 10 -55.5 13t-62.5 3q-37 0 -65 -13t-47.5 -33.5t-29.5 -47 t-10 -53.5q0 -55 36 -95t91 -74t117.5 -66.5t118 -73.5t91 -95.5t35.5 -130.5q0 -70 -29.5 -125t-81.5 -94t-121 -60.5t-146 -21.5q-88 0 -162 15.5t-154 44.5q4 74 18.5 142.5t37.5 131.5h51l90 -223q23 -16 54.5 -18t57.5 -2q90 0 145.5 48.5t55.5 118.5zM661 1630 q18 2 36 -8t24 -25l-254 -378q-10 -4 -24.5 -5.5t-26.5 5.5l-248 376q8 16 28.5 26.5t41.5 8.5l219 -217z" />
<glyph unicode="&#x162;" horiz-adv-x="1267" d="M922 0h-246l-60 -154q123 -2 181.5 -46t58.5 -115q0 -61 -36 -106.5t-90 -76t-119.5 -45t-125.5 -14.5v68q82 12 137.5 44.5t53.5 92.5q-2 57 -47 82.5t-137 31.5l79 238h-225v59q45 16 91 28.5t100 21.5v1218h-314l-108 -293h-52q-6 41 -10 93.5t-7 106.5t-5 106.5 t-2 93.5h1190q0 -41 -2 -92.5t-5 -105.5l-7 -107q-3 -52 -9 -95h-53l-106 293h-314v-1218q53 -10 99.5 -20.5t89.5 -29.5v-59z" />
<glyph unicode="&#x163;" horiz-adv-x="739" d="M31 975q78 49 164 69v156q27 23 71.5 48.5t85.5 25.5h27v-250h287v-102h-287v-594q0 -123 28.5 -174.5t106.5 -51.5q41 0 94.5 5.5t91.5 19.5l15 -31q-16 -18 -46 -38.5t-69 -39t-84 -31t-92 -12.5l-43 -114q113 -4 163 -42t54 -104q2 -59 -29.5 -103t-81 -72.5t-109 -42 t-114.5 -11.5v61q78 10 125 41t45 95q-2 51 -43 73.5t-125 28.5l70 203q-76 23 -108.5 91t-32.5 191v652h-164v53z" />
<glyph unicode="&#x164;" horiz-adv-x="1267" d="M922 0h-576v59q45 16 91 28.5t100 21.5v1218h-314l-108 -293h-52q-6 41 -10 93.5t-7 106.5t-5 106.5t-2 93.5h1190q0 -41 -2 -92.5t-5 -105.5l-7 -107q-3 -52 -9 -95h-53l-106 293h-314v-1218q53 -10 99.5 -20.5t89.5 -29.5v-59zM868 1819q16 0 30.5 -10.5t20.5 -24.5 l-260 -230q-10 -4 -25.5 -5t-27.5 5l-256 224q8 14 19.5 27.5t31.5 13.5l240 -113z" />
<glyph unicode="&#x165;" horiz-adv-x="759" d="M31 975q78 49 164 69v175q27 23 62 39l71 34h51v-268h307v-102h-307v-594q0 -123 39 -174.5t117 -51.5q37 0 92 5.5t94 19.5l14 -31q-16 -18 -46 -38.5t-67.5 -39t-82.5 -31t-93 -12.5q-123 0 -187 70t-64 225v652h-164v53zM477 1112q43 92 65.5 199.5t22.5 191.5l25 33 q14 2 37.5 -1t48.5 -10t46.5 -16.5t33.5 -19.5q-10 -57 -36 -115.5t-59.5 -112t-71.5 -97.5t-71 -74z" />
<glyph unicode="&#x16a;" horiz-adv-x="1376" d="M20 1434h521v-60q-39 -16 -78 -28.5t-78 -22.5v-838q0 -109 23.5 -181.5t68.5 -116.5t111.5 -63.5t150.5 -19.5q162 0 252 89.5t90 293.5v818q-47 16 -88 33.5t-73 35.5v60h436v-60q-39 -23 -79 -41t-81 -28v-822q0 -131 -35 -225t-97.5 -155.5t-151.5 -91t-197 -29.5 q-256 0 -391.5 115.5t-135.5 355.5v870q-84 12 -168 51v60zM420 1614v106h616v-106h-616z" />
<glyph unicode="&#x16b;" horiz-adv-x="1175" d="M158 406q0 129 6 252.5t6 246.5l-135 17v53q66 25 134.5 43t133.5 31h51q0 -154 -6 -305.5t-6 -301.5q0 -80 9 -143t33 -106t64.5 -67t104.5 -24q92 0 154.5 67t97.5 173v563l-133 17v53q63 25 131.5 43t134.5 31h51v-932l135 -17v-43q-59 -27 -119.5 -47t-125.5 -30h-52 l-14 243h-8q-10 -43 -36 -87t-66.5 -80t-93 -58.5t-113.5 -22.5q-82 0 -144.5 19.5t-105.5 69t-65.5 132.5t-22.5 210zM328 1305v106h518v-106h-518z" />
<glyph unicode="&#x16c;" horiz-adv-x="1376" d="M20 1434h521v-60q-39 -16 -78 -28.5t-78 -22.5v-838q0 -109 23.5 -181.5t68.5 -116.5t111.5 -63.5t150.5 -19.5q162 0 252 89.5t90 293.5v818q-47 16 -88 33.5t-73 35.5v60h436v-60q-39 -23 -79 -41t-81 -28v-822q0 -131 -35 -225t-97.5 -155.5t-151.5 -91t-197 -29.5 q-256 0 -391.5 115.5t-135.5 355.5v870q-84 12 -168 51v60zM955 1808q33 4 65 -28q-18 -45 -47.5 -86t-69.5 -72t-87.5 -49.5t-98.5 -18.5q-111 0 -193.5 59.5t-121.5 170.5q25 39 86 31q14 -25 39.5 -46.5t58.5 -37t68 -24.5t65 -9q66 -2 130.5 22.5t105.5 87.5z" />
<glyph unicode="&#x16d;" horiz-adv-x="1175" d="M158 406q0 129 6 252.5t6 246.5l-135 17v53q66 25 134.5 43t133.5 31h51q0 -154 -6 -305.5t-6 -301.5q0 -80 9 -143t33 -106t64.5 -67t104.5 -24q92 0 154.5 67t97.5 173v563l-133 17v53q63 25 131.5 43t134.5 31h51v-932l135 -17v-43q-59 -27 -119.5 -47t-125.5 -30h-52 l-14 243h-8q-10 -43 -36 -87t-66.5 -80t-93 -58.5t-113.5 -22.5q-82 0 -144.5 19.5t-105.5 69t-65.5 132.5t-22.5 210zM862 1473q-18 -45 -44 -90.5t-60.5 -80t-76.5 -57t-93 -22.5q-55 0 -98.5 19.5t-78 53t-61.5 79.5t-45 102l57 26q14 -27 40 -50t56.5 -41.5t65.5 -30 t66 -11.5q139 -4 223 125z" />
<glyph unicode="&#x16e;" horiz-adv-x="1376" d="M20 1434h521v-60q-39 -16 -78 -28.5t-78 -22.5v-838q0 -109 23.5 -181.5t68.5 -116.5t111.5 -63.5t150.5 -19.5q162 0 252 89.5t90 293.5v818q-47 16 -88 33.5t-73 35.5v60h436v-60q-39 -23 -79 -41t-81 -28v-822q0 -131 -35 -225t-97.5 -155.5t-151.5 -91t-197 -29.5 q-256 0 -391.5 115.5t-135.5 355.5v870q-84 12 -168 51v60zM502 1614q0 41 18.5 73.5t51 55t74.5 35t91 12.5q39 0 79 -10.5t73 -30.5t52.5 -52t19.5 -77q0 -41 -18.5 -71.5t-49.5 -52t-72 -33t-86 -11.5q-104 0 -168.5 42t-64.5 120zM617 1614q0 -41 35.5 -59.5t74.5 -18.5 q53 0 86 18.5t33 57.5q0 53 -37 73.5t-76 20.5q-51 0 -83.5 -19.5t-32.5 -72.5z" />
<glyph unicode="&#x16f;" horiz-adv-x="1175" d="M158 406q0 129 6 252.5t6 246.5l-135 17v53q66 25 134.5 43t133.5 31h51q0 -154 -6 -305.5t-6 -301.5q0 -80 9 -143t33 -106t64.5 -67t104.5 -24q92 0 154.5 67t97.5 173v563l-133 17v53q63 25 131.5 43t134.5 31h51v-932l135 -17v-43q-59 -27 -119.5 -47t-125.5 -30h-52 l-14 243h-8q-10 -43 -36 -87t-66.5 -80t-93 -58.5t-113.5 -22.5q-82 0 -144.5 19.5t-105.5 69t-65.5 132.5t-22.5 210zM389 1399q0 84 58.5 141t146.5 57q80 0 136 -51t56 -141q0 -43 -16.5 -78t-43 -59.5t-62.5 -39t-72 -14.5q-92 0 -147.5 49.5t-55.5 135.5zM495 1403 q0 -53 28 -79t62 -26q41 0 67 24t26 75q0 55 -25 85.5t-65 30.5q-49 0 -71 -30.5t-22 -79.5z" />
<glyph unicode="&#x170;" horiz-adv-x="1376" d="M20 1434h521v-60q-39 -16 -78 -28.5t-78 -22.5v-838q0 -109 23.5 -181.5t68.5 -116.5t111.5 -63.5t150.5 -19.5q162 0 252 89.5t90 293.5v818q-47 16 -88 33.5t-73 35.5v60h436v-60q-39 -23 -79 -41t-81 -28v-822q0 -131 -35 -225t-97.5 -155.5t-151.5 -91t-197 -29.5 q-256 0 -391.5 115.5t-135.5 355.5v870q-84 12 -168 51v60zM633 1819q12 2 37 -2.5t51.5 -10.5t48 -16t27.5 -21v-28l-268 -189l-39 37zM990 1819q14 2 38.5 -2.5t51 -12.5t49 -18t33.5 -23l-2 -20l-363 -195l-43 37z" />
<glyph unicode="&#x171;" horiz-adv-x="1175" d="M158 406q0 129 6 252.5t6 246.5l-135 17v53q66 25 134.5 43t133.5 31h51q0 -154 -6 -305.5t-6 -301.5q0 -80 9 -143t33 -106t64.5 -67t104.5 -24q92 0 154.5 67t97.5 173v563l-133 17v53q63 25 131.5 43t134.5 31h51v-932l135 -17v-43q-59 -27 -119.5 -47t-125.5 -30h-52 l-14 243h-8q-10 -43 -36 -87t-66.5 -80t-93 -58.5t-113.5 -22.5q-82 0 -144.5 19.5t-105.5 69t-65.5 132.5t-22.5 210zM504 1573q12 2 38.5 -1t54 -9.5t50 -15.5t29.5 -17v-31l-283 -274l-47 32zM858 1573q14 2 39.5 -1t51.5 -11.5t49.5 -19.5t33.5 -25v-27l-408 -264 l-39 37z" />
<glyph unicode="&#x172;" horiz-adv-x="1376" d="M20 1434h521v-60q-39 -16 -78 -28.5t-78 -22.5v-838q0 -109 23.5 -181.5t68.5 -116.5t111.5 -63.5t150.5 -19.5q162 0 252 89.5t90 293.5v818q-47 16 -88 33.5t-73 35.5v60h436v-60q-39 -23 -79 -41t-81 -28v-822q0 -190 -69.5 -303.5t-194.5 -163.5q-49 -25 -92 -55.5 t-75 -67t-51.5 -78.5t-19.5 -91q0 -57 36 -94.5t101 -37.5q63 0 113 13v-60q-29 -23 -74 -41t-112 -18q-47 0 -89 14.5t-74 41t-50.5 64.5t-18.5 83q0 98 63.5 166.5t168.5 128.5q-10 -2 -22 -2h-21q-256 0 -391.5 115.5t-135.5 355.5v870q-84 12 -168 51v60z" />
<glyph unicode="&#x173;" horiz-adv-x="1175" d="M158 406q0 129 6 252.5t6 246.5l-135 17v53q66 25 146.5 49.5t146.5 24.5h26q0 -154 -6 -305.5t-6 -301.5q0 -80 9 -143t33 -106t64.5 -67t104.5 -24q92 0 154.5 67t97.5 173v563l-133 17v53q63 25 131.5 43t134.5 31h51v-932l135 -17v-43l-48 -20l-48 -21 q-82 -45 -135 -108.5t-53 -149.5q0 -20 7 -41.5t21.5 -40t37 -30t52.5 -11.5q31 0 56.5 5.5t54.5 13.5v-68q-29 -16 -74 -28.5t-82 -12.5q-121 0 -182 51.5t-61 129.5q0 82 52 144t138 110h-16h-17l-14 243h-8q-10 -43 -36 -86t-65.5 -78.5t-91 -59.5t-112.5 -24h-40 q-19 0 -38 5q-66 8 -115 33.5t-81.5 75.5t-50 128t-17.5 189z" />
<glyph unicode="&#x178;" horiz-adv-x="1318" d="M868 1434h451v-60q-78 -39 -156 -51l-387 -713v-501q80 -10 156 -50v-59h-520v59q74 37 168 50v499l-414 715q-47 8 -87 21.5t-79 29.5v60h543v-60q-31 -12 -70 -25.5t-88 -25.5l336 -602l315 602q-47 10 -89 23.5t-79 27.5v60zM363 1616q0 49 32.5 73.5t84.5 24.5 q49 0 81.5 -24.5t32.5 -73.5q0 -47 -32.5 -71.5t-81.5 -24.5q-51 0 -84 24.5t-33 71.5zM820 1616q0 49 32.5 73.5t81.5 24.5q51 0 84 -24.5t33 -73.5q0 -47 -33 -71.5t-84 -24.5q-49 0 -81.5 24.5t-32.5 71.5z" />
<glyph unicode="&#x179;" horiz-adv-x="1249" d="M1092 393h53q6 -41 11 -92t8 -104.5t4 -104.5q0 -17 1 -33q0 -32 -2 -59h-1087v104l852 1223h-631l-125 -287h-51q-6 43 -11 94.5t-8.5 104.5t-4.5 103.5t-1 91.5h1047v-107l-848 -1221h668zM823 1829q18 2 47 -2t58.5 -13.5t55 -22.5t38.5 -28v-41l-463 -186l-35 39z " />
<glyph unicode="&#x17a;" horiz-adv-x="999" d="M866 350q14 -86 22 -173q5 -55 4 -112q0 -32 -1 -65h-803v51l584 883h-387l-90 -242h-52q-16 88 -19 173t-3 159h770v-53l-586 -881h400l110 260h51zM606 1571q16 2 43 -1t55.5 -9.5t53.5 -15.5t37 -19v-39l-383 -309l-45 36z" />
<glyph unicode="&#x17b;" horiz-adv-x="1249" d="M1092 393h53q6 -41 11 -92t8 -104.5t4 -104.5q0 -17 1 -33q0 -32 -2 -59h-1087v104l852 1223h-631l-125 -287h-51q-6 43 -11 94.5t-8.5 104.5t-4.5 103.5t-1 91.5h1047v-107l-848 -1221h668zM485 1673q0 53 39 82t94 29t92 -29t37 -82t-37 -81.5t-92 -28.5t-94 28.5 t-39 81.5z" />
<glyph unicode="&#x17c;" horiz-adv-x="999" d="M866 350q14 -86 22 -173q5 -55 4 -112q0 -32 -1 -65h-803v51l584 883h-387l-90 -242h-52q-16 88 -19 173t-3 159h770v-53l-586 -881h400l110 260h51zM369 1372q0 55 36 88t95 33t94 -33t35 -88t-35 -87t-94 -32t-95 32t-36 87z" />
<glyph unicode="&#x17d;" horiz-adv-x="1249" d="M1092 393h53q6 -41 11 -92t8 -104.5t4 -104.5q0 -17 1 -33q0 -32 -2 -59h-1087v104l852 1223h-631l-125 -287h-51q-6 43 -11 94.5t-8.5 104.5t-4.5 103.5t-1 91.5h1047v-107l-848 -1221h668zM860 1819q16 0 30.5 -10.5t20.5 -24.5l-260 -230q-10 -4 -25.5 -5t-27.5 5 l-256 224q8 14 19.5 27.5t31.5 13.5l240 -113z" />
<glyph unicode="&#x17e;" horiz-adv-x="999" d="M866 350q14 -86 22 -173q5 -55 4 -112q0 -32 -1 -65h-803v51l584 883h-387l-90 -242h-52q-16 88 -19 173t-3 159h770v-53l-586 -881h400l110 260h51zM718 1630q18 2 36 -8t24 -25l-254 -378q-10 -4 -24.5 -5.5t-26.5 5.5l-248 376q8 16 28.5 26.5t41.5 8.5l219 -217z" />
<glyph unicode="&#x17f;" horiz-adv-x="700" d="M627 1540q18 0 42.5 -2t51.5 -5t51.5 -8t42.5 -12q-6 -68 -17.5 -126t-27.5 -105h-51l-90 176q-59 0 -101.5 -12t-70 -47t-41 -100.5t-13.5 -172.5v-1026q106 -12 197 -49v-51h-516v51q63 37 135 49v822h-156v53q72 45 156 67v72q0 127 31 210t86 131t130 66.5t161 18.5z " />
<glyph unicode="&#x192;" d="M401 922h-149v53q41 23 87 40t87 27l14 72q27 127 73 210t107.5 131t135 66.5t157.5 18.5q33 0 81 -8t81 -25q-2 -45 -19.5 -93t-58.5 -83l-155 127q-37 -10 -69 -22.5t-59.5 -46t-51 -95t-46.5 -168.5l-20 -102h227q10 -51 -22 -102h-228l-129 -834q-23 -145 -76 -241.5 t-112 -156t-116.5 -88t-90.5 -36.5l-14 39q25 12 58.5 45t67.5 87t63.5 132t45.5 180z" />
<glyph unicode="&#x1f4;" horiz-adv-x="1409" d="M1247 98q-39 -23 -91 -44t-110.5 -38.5t-117 -29t-109.5 -11.5q-164 0 -295 44t-223 135.5t-142 230.5t-50 332q0 201 58 342t155.5 230t221.5 129t253 40q135 0 228 -17.5t163 -51.5q0 -31 -2 -76t-6 -94.5t-10.5 -97.5t-12.5 -85h-53l-107 295q-23 12 -76 16.5 t-104 4.5q-102 0 -194.5 -38t-161 -117t-109.5 -198.5t-41 -281.5q0 -145 40 -262t110.5 -200t166 -128t206.5 -45q41 0 79.5 8t71.5 19.5t54.5 23.5t29.5 21v413q-53 4 -101 18.5l-96 30.5v60h502v-60q-20 -14 -49 -26t-78 -23v-469zM961 1829q18 2 47 -2t58.5 -13.5 t55 -22.5t38.5 -28v-41l-463 -186l-35 39z" />
<glyph unicode="&#x1f5;" horiz-adv-x="1077" d="M506 1049q111 0 186.5 -21.5t126.5 -66.5q121 82 252 118q16 -23 23.5 -55.5t7.5 -60.5l-27 -50h-215q51 -74 51 -194q0 -147 -103 -239.5t-302 -92.5q-39 0 -63.5 2t-55.5 6l-23 -41q-13 -23 -14 -47q0 -41 47 -64.5t118 -42t154 -38t154.5 -53t119.5 -87.5 q50 -57 50 -149q0 -69 -34 -125q-36 -59 -99 -99t-152.5 -61.5t-195.5 -21.5q-223 0 -337 75.5t-114 190.5q0 55 17.5 96t50.5 72t82 54.5t113 43.5q-45 20 -75 56t-30 88q0 47 40 93t81 73q-117 31 -179.5 116.5t-62.5 194.5q0 70 27 130t78 105t127 70t176 25zM809 -166 q0 66 -44 104.5t-109.5 63.5t-141.5 41t-141 37q-78 -47 -102.5 -99.5t-24.5 -107.5q0 -109 77.5 -163t225.5 -54q76 0 126 14.5t79.5 38t42 56t12.5 69.5zM283 719q0 -49 11 -93t36.5 -77t68.5 -52.5t107 -19.5q119 0 170 69.5t51 172.5q0 111 -50 175t-171 64 q-125 0 -174 -62t-49 -177zM684 1571q16 2 43 -1t55.5 -9.5t53.5 -15.5t37 -19v-39l-383 -309l-45 36z" />
<glyph unicode="&#x218;" horiz-adv-x="1097" d="M307 141q25 -25 64 -42t116 -17q66 0 123.5 17.5t99.5 51t66.5 82t24.5 109.5q0 82 -50.5 137.5t-125 98.5t-162.5 83.5t-163 97t-125 135.5t-50 198q0 86 30.5 153.5t87 114.5t134.5 72.5t174 25.5q125 0 228.5 -19.5t162.5 -47.5q0 -35 -5 -81t-12 -95.5t-15.5 -95.5 t-16.5 -81h-53l-82 281q-37 16 -93.5 24.5t-119.5 8.5q-104 0 -168 -58.5t-64 -163.5q0 -84 50.5 -141t126 -102t162.5 -87t163 -97.5t126 -131t50 -188.5q0 -92 -33.5 -168t-97 -129t-156 -82t-208.5 -29q-129 0 -231.5 31t-145.5 66q2 35 7 84t12 101t15.5 101.5 t16.5 83.5h53zM432 -487q37 16 72.5 55t29.5 98q-23 18 -63.5 36.5t-71.5 29.5q-10 33 -1 63.5t27.5 54t42 39t46.5 15.5q70 -6 124 -52.5t54 -134.5q0 -98 -60.5 -171.5t-168.5 -102.5z" />
<glyph unicode="&#x219;" horiz-adv-x="886" d="M604 233q0 57 -36 97.5t-91 75t-117.5 67.5t-118 77t-91 101.5t-35.5 141.5q0 55 25.5 102t68.5 81t100.5 53.5t122.5 19.5q111 0 181.5 -12.5t136.5 -35.5q-8 -66 -19.5 -132t-32.5 -136h-51l-78 209q-25 10 -55.5 13t-62.5 3q-37 0 -65 -13t-47.5 -33.5t-29.5 -47 t-10 -53.5q0 -55 36 -95t91 -74t117.5 -66.5t118 -73.5t91 -95.5t35.5 -130.5q0 -70 -29.5 -125t-81.5 -94t-121 -60.5t-146 -21.5q-88 0 -162 15.5t-154 44.5q4 74 18.5 142.5t37.5 131.5h51l90 -223q23 -16 54.5 -18t57.5 -2q90 0 145.5 48.5t55.5 118.5zM304 -483 q63 25 87.5 66.5t24.5 82.5q-23 18 -62.5 38t-70.5 30q-10 33 -1 62.5t26.5 53t41 39t46.5 15.5q68 -6 115 -52.5t47 -134.5q0 -98 -63.5 -173.5t-158.5 -98.5z" />
<glyph unicode="&#x21a;" horiz-adv-x="1267" d="M922 0h-576v59q45 16 91 28.5t100 21.5v1218h-314l-108 -293h-52q-6 41 -10 93.5t-7 106.5t-5 106.5t-2 93.5h1190q0 -41 -2 -92.5t-5 -105.5l-7 -107q-3 -52 -9 -95h-53l-106 293h-314v-1218q53 -10 99.5 -20.5t89.5 -29.5v-59zM533 -487q37 16 72.5 55t29.5 98 q-23 18 -63.5 36.5t-71.5 29.5q-10 33 -1 63.5t27.5 54t42 39t46.5 15.5q70 -6 124 -52.5t54 -134.5q0 -98 -60.5 -171.5t-168.5 -102.5z" />
<glyph unicode="&#x21b;" horiz-adv-x="759" d="M31 975q78 49 164 69v175q27 23 62 39l71 34h51v-268h307v-102h-307v-594q0 -123 39 -174.5t117 -51.5q37 0 92 5.5t94 19.5l14 -31q-16 -18 -46 -38.5t-67.5 -39t-82.5 -31t-93 -12.5q-123 0 -187 70t-64 225v652h-164v53zM285 -483q63 25 87.5 66.5t24.5 82.5 q-23 18 -62.5 38t-70.5 30q-10 33 -1 62.5t26.5 53t41 39t46.5 15.5q68 -6 115 -52.5t47 -134.5q0 -98 -63.5 -173.5t-158.5 -98.5z" />
<glyph unicode="&#x237;" horiz-adv-x="589" d="M217 905l-135 17v53q59 29 130 46t138 28h51v-961q0 -145 -36.5 -241.5t-86 -156t-100.5 -88t-82 -36.5l-24 39q25 12 50 42.5t46.5 85t35 132.5t13.5 184v856z" />
<glyph unicode="&#x2bc;" horiz-adv-x="577" d="M123 971q80 25 132 84t42 137q-23 18 -64 36.5t-71 30.5q-10 33 -1 64t27.5 54.5t42 38.5t45.5 15q68 -6 123.5 -52t55.5 -136q0 -49 -20.5 -102.5t-59.5 -100.5t-94.5 -84t-122.5 -55z" />
<glyph unicode="&#x2c6;" horiz-adv-x="755" d="M182 1208l-59 33l225 381q10 6 25.5 7t25.5 -7l234 -379l-55 -35l-211 219z" />
<glyph unicode="&#x2c7;" horiz-adv-x="798" d="M616 1630q18 2 36 -8t24 -25l-254 -378q-10 -4 -24.5 -5.5t-26.5 5.5l-248 376q8 16 28.5 26.5t41.5 8.5l219 -217z" />
<glyph unicode="&#x2d8;" horiz-adv-x="802" d="M680 1473q-18 -45 -44 -90.5t-60.5 -80t-76.5 -57t-93 -22.5q-55 0 -98.5 19.5t-78 53t-61.5 79.5t-45 102l57 26q14 -27 40 -50t56.5 -41.5t65.5 -30t66 -11.5q139 -4 223 125z" />
<glyph unicode="&#x2d9;" horiz-adv-x="505" d="M123 1372q0 55 36 88t95 33t94 -33t35 -88t-35 -87t-94 -32t-95 32t-36 87z" />
<glyph unicode="&#x2da;" horiz-adv-x="643" d="M123 1399q0 84 58.5 141t146.5 57q80 0 136 -51t56 -141q0 -43 -16.5 -78t-43 -59.5t-62.5 -39t-72 -14.5q-92 0 -147.5 49.5t-55.5 135.5zM229 1403q0 -53 28 -79t62 -26q41 0 67 24t26 75q0 55 -25 85.5t-65 30.5q-49 0 -71 -30.5t-22 -79.5z" />
<glyph unicode="&#x2db;" horiz-adv-x="651" d="M528 41q-49 -23 -91 -51.5t-73.5 -64.5t-50 -77t-18.5 -90q0 -20 6 -41.5t20.5 -40t37 -30t55.5 -11.5q29 0 54.5 5.5t53.5 13.5v-68q-29 -16 -72.5 -28.5t-80.5 -12.5q-123 0 -184.5 51.5t-61.5 129.5q0 55 25.5 102t70.5 86t105.5 70.5t128.5 56.5h75z" />
<glyph unicode="&#x2dc;" horiz-adv-x="874" d="M752 1376q-66 -66 -120 -91t-102 -25q-37 0 -69.5 11t-63.5 23l-60 24q-30 11 -61 11q-27 0 -54 -10t-60 -39l-39 57q76 72 135 96.5t107 24.5q37 0 68.5 -10t60 -22.5t58.5 -22.5t60 -10q27 0 53.5 9t59.5 32z" />
<glyph unicode="&#x2dd;" horiz-adv-x="931" d="M281 1573q12 2 38.5 -1t54 -9.5t50 -15.5t29.5 -17v-31l-283 -274l-47 32zM635 1573q14 2 39.5 -1t51.5 -11.5t49.5 -19.5t33.5 -25v-27l-408 -264l-39 37z" />
<glyph unicode="&#x301;" horiz-adv-x="4" d="M-377 1571q16 2 43 -1t55.5 -9.5t53.5 -15.5t37 -19v-39l-383 -309l-45 36z" />
<glyph unicode="&#x394;" horiz-adv-x="1327" d="M41 0v63l600 1371h57l588 -1371v-63h-1245zM627 1153l-441 -1028h863z" />
<glyph unicode="&#x2206;" horiz-adv-x="1327" d="M41 0v63l600 1371h57l588 -1371v-63h-1245zM627 1153l-441 -1028h863z" />
<glyph unicode="&#x3a9;" horiz-adv-x="1632" d="M117 0q0 37 2 87t5 104.5t7 107.5t8 98h51l91 -241h325q-90 33 -172 89t-144.5 134t-99 177t-36.5 216q0 156 47 282t135 216t214 139t281 49q160 0 281 -47t204 -135t125 -211t42 -272q0 -127 -40 -231.5t-103.5 -185.5t-141.5 -136.5t-154 -83.5h306l92 241h51 q4 -45 8 -98t7 -107.5t5.5 -104.5t2.5 -87h-578v170q49 20 106.5 69.5t106.5 125t82 177t33 228.5q0 119 -27 225.5t-81 185.5t-135 125t-192 46q-123 0 -211 -45t-143 -122t-80.5 -178.5t-25.5 -213.5q0 -127 34.5 -232.5t87 -186.5t113 -133.5t109.5 -70.5v-170h-598z" />
<glyph unicode="&#x2126;" horiz-adv-x="1632" d="M117 0q0 37 2 87t5 104.5t7 107.5t8 98h51l91 -241h325q-90 33 -172 89t-144.5 134t-99 177t-36.5 216q0 156 47 282t135 216t214 139t281 49q160 0 281 -47t204 -135t125 -211t42 -272q0 -127 -40 -231.5t-103.5 -185.5t-141.5 -136.5t-154 -83.5h306l92 241h51 q4 -45 8 -98t7 -107.5t5.5 -104.5t2.5 -87h-578v170q49 20 106.5 69.5t106.5 125t82 177t33 228.5q0 119 -27 225.5t-81 185.5t-135 125t-192 46q-123 0 -211 -45t-143 -122t-80.5 -178.5t-25.5 -213.5q0 -127 34.5 -232.5t87 -186.5t113 -133.5t109.5 -70.5v-170h-598z" />
<glyph unicode="&#x3c0;" horiz-adv-x="1259" d="M1139 102v-43q-59 -27 -137 -47t-144 -30h-51v913h-391v-389q0 -66 -5 -135.5t-16.5 -136t-27 -127t-33.5 -107.5q-18 -10 -53 -11t-68 0t-57.5 5t-24.5 6l-10 16q45 70 82 178.5t62.5 231.5t38.5 247t13 222h-34q-57 0 -110.5 -29.5t-100.5 -91.5l-27 17q10 51 26.5 96 t48.5 78.5t84 53t134 17.5q23 0 83 -2t141 -4t173 -4t176 -2q66 0 110 1t73.5 7t50 16.5t41.5 28.5l28 -18q-8 -66 -53 -115t-133 -49h-24v-776z" />
<glyph unicode="&#x401;" horiz-adv-x="1191" d="M1030 1434q-2 -82 -7 -165t-15 -167h-54l-84 225h-446v-543h334l80 152h51q6 -101 6 -204.5t-6 -209.5h-51l-80 156h-334v-572h471l100 246h52q14 -86 20 -174q4 -53 4 -106q0 -36 -2 -72h-1010v59q72 33 168 50v1214q-41 8 -84 21.5t-84 29.5v60h971zM258 1616 q0 49 32.5 73.5t84.5 24.5q49 0 81.5 -24.5t32.5 -73.5q0 -47 -32.5 -71.5t-81.5 -24.5q-51 0 -84 24.5t-33 71.5zM715 1616q0 49 32.5 73.5t81.5 24.5q51 0 84 -24.5t33 -73.5q0 -47 -33 -71.5t-84 -24.5q-49 0 -81.5 24.5t-32.5 71.5z" />
<glyph unicode="&#x402;" horiz-adv-x="1538" d="M1458 487q0 -154 -31.5 -250t-87 -150t-132.5 -73.5t-169 -19.5l-12 55q53 12 96 34.5t74 69t48.5 122t17.5 194.5q0 143 -57.5 228t-192.5 85q-86 0 -164 -25.5t-135 -60.5v-587q39 -10 74.5 -22.5t70.5 -27.5v-59h-530v59q43 16 89 28.5t99 21.5v1218h-313l-107 -293 h-53q-6 41 -9 93l-6 107q-3 54 -5.5 106.5t-2.5 93.5h1188q0 -41 -2 -91.5t-5 -103.5l-6 -104q-3 -51 -9 -95h-53l-107 287h-313v-530q55 31 147 61.5t209 30.5q86 0 156.5 -17.5t123 -61.5t81 -122t28.5 -201z" />
<glyph unicode="&#x403;" horiz-adv-x="1038" d="M424 109q100 -16 197 -50v-59h-562v59q82 33 168 50v1214q-41 8 -84 21.5t-84 29.5v60h959q0 -41 -2 -95l-4 -110q-2 -57 -6.5 -111.5t-10.5 -97.5h-53l-106 307h-412v-1218zM756 1829q18 2 47 -2t58.5 -13.5t55 -22.5t38.5 -28v-41l-463 -186l-35 39z" />
<glyph unicode="&#x404;" horiz-adv-x="1316" d="M1120 373h54q10 -57 18 -144.5t4 -169.5q-31 -25 -74 -40t-91 -25t-98 -14.5t-95 -4.5q-172 0 -307.5 44t-228.5 134.5t-143 230.5t-50 333q0 201 55 341t149.5 229t219 130t262.5 41q135 0 227 -17.5t162 -51.5q0 -33 -2 -77t-6.5 -93.5t-10.5 -96.5t-12 -86h-53 l-107 295q-23 12 -75 16.5t-103 4.5q-98 0 -186 -36t-157 -107.5t-112 -181t-49 -259.5l672 29q27 -82 8 -160q-72 6 -158 11l-179 10q-91 5 -179 8.5t-164 3.5q6 -135 46 -244t109 -185.5t166 -117.5t220 -41q68 0 113 10t59 27z" />
<glyph unicode="&#x405;" horiz-adv-x="1097" d="M307 141q25 -25 64 -42t116 -17q66 0 123.5 17.5t99.5 51t66.5 82t24.5 109.5q0 82 -50.5 137.5t-125 98.5t-162.5 83.5t-163 97t-125 135.5t-50 198q0 86 30.5 153.5t87 114.5t134.5 72.5t174 25.5q125 0 228.5 -19.5t162.5 -47.5q0 -35 -5 -81t-12 -95.5t-15.5 -95.5 t-16.5 -81h-53l-82 281q-37 16 -93.5 24.5t-119.5 8.5q-104 0 -168 -58.5t-64 -163.5q0 -84 50.5 -141t126 -102t162.5 -87t163 -97.5t126 -131t50 -188.5q0 -92 -33.5 -168t-97 -129t-156 -82t-208.5 -29q-129 0 -231.5 31t-145.5 66q2 35 7 84t12 101t15.5 101.5 t16.5 83.5h53z" />
<glyph unicode="&#x406;" horiz-adv-x="720" d="M623 0h-525v59q80 37 164 50v1214q-41 8 -82 21.5t-82 29.5v60h525v-60q-37 -16 -80 -29.5t-84 -21.5v-1214q43 -8 86 -20.5t78 -29.5v-59z" />
<glyph unicode="&#x407;" horiz-adv-x="720" d="M66 1616q0 49 31.5 73.5t82.5 24.5q49 0 82 -24.5t33 -73.5q0 -47 -33 -71.5t-82 -24.5q-51 0 -82.5 24.5t-31.5 71.5zM426 1616q0 49 33 73.5t82 24.5q51 0 82.5 -24.5t31.5 -73.5q0 -47 -31.5 -71.5t-82.5 -24.5q-49 0 -82 24.5t-33 71.5zM623 0h-525v59q80 37 164 50 v1214q-41 8 -82 21.5t-82 29.5v60h525v-60q-37 -16 -80 -29.5t-84 -21.5v-1214q43 -8 86 -20.5t78 -29.5v-59z" />
<glyph unicode="&#x408;" horiz-adv-x="698" d="M80 1434h520v-60q-37 -16 -76 -29.5t-80 -21.5v-1147q0 -143 -32.5 -235.5t-80.5 -148.5t-102.5 -82.5t-99.5 -37.5l-23 31q31 27 56.5 60.5t45 85t30 125t10.5 180.5v1169q-45 10 -88 22.5t-80 28.5v60z" />
<glyph unicode="&#x409;" horiz-adv-x="1886" d="M762 0v59q78 37 156 50v1218h-383q-8 -322 -30 -533.5t-54.5 -350t-74.5 -220.5t-91 -145q-41 -53 -100.5 -78t-114.5 -25q-14 16 -29.5 46t-29 64t-21.5 67.5t-10 60.5l30 51l236 -43q31 51 60.5 135t53 214t39 312.5t15.5 430.5q-127 20 -209 61v60h1089v-60 q-39 -16 -84 -29.5t-96 -21.5v-469q37 4 90 9t94 5q100 0 192.5 -18.5t162 -65.5t111.5 -129t42 -209q0 -121 -47 -205.5t-122.5 -140t-172 -81t-194.5 -25.5q-10 0 -40 1t-67 2t-78 2t-71 1h-252zM1253 762q-49 0 -79.5 -1t-59.5 -9v-643q10 -4 29.5 -5.5t41 -2.5t42.5 -1 h33q143 0 235 86t92 263q0 154 -83 233.5t-251 79.5z" />
<glyph unicode="&#x40a;" horiz-adv-x="2035" d="M913 0v59q41 18 76 30.5t78 19.5v600h-643v-600q41 -8 80 -20.5t74 -29.5v-59h-519v59q82 33 168 50v1214q-96 14 -168 51v60h519v-60q-35 -18 -74 -30.5t-80 -20.5v-508h643v508q-41 10 -77 22.5t-77 28.5v60h531v-60q-39 -16 -84 -29.5t-96 -21.5v-510q37 6 90 10t94 4 q100 0 192.5 -18t162 -64.5t111.5 -125t42 -199.5q0 -119 -46 -200t-122 -131t-172 -72.5t-197 -22.5q-10 0 -39.5 1t-66.5 2t-78 2t-72 1h-250zM1405 719q-49 0 -81 -1t-60 -9v-600q10 -4 29.5 -5.5t42 -2.5t42.5 -1h31q72 0 132.5 18.5t103.5 57.5t67.5 99.5t24.5 144.5 q0 141 -83 220t-249 79z" />
<glyph unicode="&#x40b;" horiz-adv-x="1587" d="M713 1327v-530q55 31 137 61.5t199 30.5q86 0 154.5 -17.5t116.5 -60.5t73.5 -116.5t25.5 -188.5v-397q74 -12 148 -50v-59h-344v469q0 72 -11.5 129t-37 98t-70.5 63.5t-113 22.5q-86 0 -153.5 -25.5t-124.5 -60.5v-587q39 -10 74.5 -22.5t70.5 -27.5v-59h-530v59 q43 16 89 28.5t99 21.5v1218h-313l-107 -293h-53q-6 41 -9 93l-6 107q-3 54 -5.5 106.5t-2.5 93.5h1188q0 -41 -2 -91.5t-5 -103.5l-6 -104q-3 -51 -9 -93h-53l-107 285h-313z" />
<glyph unicode="&#x40c;" horiz-adv-x="1323" d="M782 1434h453v-60q-41 -18 -80 -30.5t-76 -20.5l-411 -545l117 -151l140 -173l149 -181l151 -173l98 -49v-51h-256l-70 49q-121 141 -240 305l-233 332h-100v-577q94 -16 154 -50v-59h-519v59q82 33 168 50v1214q-92 12 -168 51v60h519v-60q-33 -14 -72 -27.5t-82 -23.5 v-567l123 28l383 539q-41 10 -78 22.5t-70 28.5v60zM858 1829q18 2 47 -2t58.5 -13.5t55 -22.5t38.5 -28v-41l-463 -186l-35 39z" />
<glyph unicode="&#x40e;" horiz-adv-x="1351" d="M1069 1323q-102 18 -174 51v60h457v-60q-27 -12 -64 -25.5t-84 -25.5l-401 -911q-43 -111 -86 -196t-88 -138t-96.5 -77t-110.5 -11q-12 18 -23.5 47t-19.5 59.5t-14.5 60t-8.5 54.5l31 51l211 -55q8 8 17.5 24.5t18.5 37t17 41t13 36.5l-510 977q-39 10 -78 22.5 t-76 28.5v60h539v-60q-35 -14 -77 -27.5t-89 -23.5l340 -678l43 -131h4l41 135zM721 1499q-188 0 -275 75t-87 185q23 23 66.5 33t86.5 12l52 -26v-174q29 -14 70.5 -21.5t88.5 -7.5q35 0 83 6t77 16v181l51 26q31 2 75 -11t71 -34q0 -55 -20.5 -102t-63.5 -82t-111 -55.5 t-164 -20.5z" />
<glyph unicode="&#x40f;" horiz-adv-x="1470" d="M578 1374q-70 -31 -154 -51v-1217h623v1217q-111 25 -154 51v60h518v-60q-43 -20 -85 -33.5t-83 -17.5v-1214q43 -8 86 -18.5t82 -31.5v-59h-580q-12 -96 -29.5 -193.5t-39.5 -197.5h-53q-20 100 -37 197l-33 194h-580v59q82 33 168 50v1214q-55 8 -96 21.5t-72 29.5v60 h519v-60z" />
<glyph unicode="&#x410;" horiz-adv-x="1398" d="M455 0h-455v59q74 33 147 50l519 1349h59l518 -1349q41 -8 81 -18.5t75 -31.5v-59h-525v59q41 16 84 28.5t84 21.5l-139 374h-489l-135 -374q86 -12 176 -50v-59zM455 590h413l-161 434l-39 176h-4l-52 -180z" />
<glyph unicode="&#x411;" horiz-adv-x="1228" d="M227 1323q-47 8 -88 21.5t-80 29.5v60h981q2 -82 -4 -183.5t-18 -187.5h-53l-107 264h-434v-493q37 4 91 9t95 5q100 0 192.5 -21.5t163 -70.5t112.5 -130t42 -200q0 -113 -44 -193.5t-117.5 -134t-172 -79t-206.5 -25.5q-10 0 -40 1t-69 2l-80 2q-41 1 -72 1h-260v59 q80 37 168 50v1214zM565 741q-49 0 -80.5 -2t-60.5 -8v-622q10 -4 29.5 -5.5t42 -2.5t43.5 -1h32q72 0 132.5 19.5t104.5 60.5t68.5 102.5t24.5 145.5q0 152 -84 232.5t-252 80.5z" />
<glyph unicode="&#x412;" horiz-adv-x="1259" d="M59 0v59q82 39 168 50v1214q-41 8 -84 21.5t-84 29.5v60h217q39 0 75 2l75 4q39 2 84 4t102 2q82 0 167 -13.5t153.5 -50t111.5 -103.5t43 -173q0 -53 -16 -106.5t-50 -99.5t-85 -81t-121 -51v-8q61 -10 121.5 -35t108 -67t77 -103t29.5 -147q0 -111 -49 -191t-128 -131 t-179.5 -74.5t-202.5 -23.5q-72 0 -162 6t-174 6h-197zM606 94q74 0 138.5 22.5t110.5 62.5t72.5 96.5t26.5 121.5q0 82 -31.5 136.5t-86 86t-125 44t-146.5 12.5h-153v-565q29 -8 68.5 -12.5t125.5 -4.5zM514 782q35 0 83 3t79 8q94 33 154.5 105.5t60.5 170.5 q0 135 -81 202.5t-216 67.5q-63 0 -108.5 -2t-73.5 -6v-549h102z" />
<glyph unicode="&#x413;" horiz-adv-x="1038" d="M424 109q100 -16 197 -50v-59h-562v59q82 33 168 50v1214q-41 8 -84 21.5t-84 29.5v60h959q0 -41 -2 -95l-4 -110q-2 -57 -6.5 -111.5t-10.5 -97.5h-53l-106 307h-412v-1218z" />
<glyph unicode="&#x414;" horiz-adv-x="1402" d="M1370 106q0 -41 -4 -95t-10 -111.5t-13.5 -112.5l-13.5 -96h-53l-86 309h-1010l-86 -309h-51q-10 39 -17.5 94t-12.5 113.5t-9 113t-4 94.5h170q53 86 100 220.5t81 295t54.5 339t20.5 352.5q-53 10 -105.5 24.5t-103.5 36.5v60h1088v-60q-35 -14 -76 -27.5t-92 -23.5 v-1217h233zM940 106v1221h-395q-12 -252 -40 -449.5t-63.5 -348t-73.5 -255t-69 -168.5h641z" />
<glyph unicode="&#x415;" horiz-adv-x="1191" d="M1030 1434q-2 -82 -7 -165t-15 -167h-54l-84 225h-446v-543h334l80 152h51q6 -101 6 -204.5t-6 -209.5h-51l-80 156h-334v-572h471l100 246h52q14 -86 20 -174q4 -53 4 -106q0 -36 -2 -72h-1010v59q72 33 168 50v1214q-41 8 -84 21.5t-84 29.5v60h971z" />
<glyph unicode="&#x416;" horiz-adv-x="1939" d="M868 1323q-43 12 -79.5 24.5t-65.5 26.5v60h475v-60q-25 -12 -58 -24l-75 -27v-567l139 28l344 539q-41 12 -77 26l-70 25v60h450v-60q-37 -16 -75.5 -28.5t-77.5 -22.5l-373 -545l113 -151l124 -174l135 -181q71 -90 146 -172l96 -49v-51h-256l-69 51q-121 141 -220 304 l-210 331h-119v-577q35 -10 68.5 -21.5t64.5 -28.5v-59h-477v59q61 33 147 50v596l-123 -31l-204 -325q-94 -157 -215 -298l-70 -51h-256v51l96 49q76 82 148 170l137 174l123 167l104 149l-385 563q-84 25 -145 51v60h452v-60q-29 -14 -63.5 -27.5t-75.5 -23.5l346 -551 h131v551z" />
<glyph unicode="&#x417;" horiz-adv-x="1134" d="M494 -25q-115 0 -218.5 22.5t-173.5 57.5q0 33 4.5 75t11.5 88t16 92t20 87h53l86 -286q12 -6 34.5 -11.5t50.5 -9.5t57.5 -6t56.5 -2q76 0 138 24.5t107 66.5t69.5 99.5t24.5 124.5q0 82 -25.5 137.5t-68.5 89t-99 48t-118 14.5l-158 -22q-14 63 -2 118h66q35 0 84 3 t82 8q94 33 144 105.5t50 170.5q0 135 -76.5 209t-211.5 74q-68 0 -108 -11.5t-54 -27.5l-107 -250h-53q-10 55 -17 141t-5 170q31 25 74.5 40.5t91 25.5t97.5 14t93 4q82 0 166 -14t152.5 -54t111.5 -109t43 -175q0 -104 -60.5 -195.5t-191.5 -142.5v-8q61 -10 115.5 -36 t94.5 -68t63.5 -103t23.5 -145q0 -111 -44 -193t-117.5 -135t-171 -79t-201.5 -26z" />
<glyph unicode="&#x418;" horiz-adv-x="1513" d="M578 0h-519v59q82 37 168 50v1214q-41 10 -84 22.5t-84 28.5v60h519v-60q-33 -16 -70 -28.5t-84 -22.5v-889l-23 -153l99 161l600 832v49q-47 10 -89 23.5t-77 27.5v60h520v-60q-37 -16 -80 -28.5t-88 -22.5v-1214q96 -16 168 -50v-59h-520v59q33 14 71.5 27.5t84.5 22.5 v886l20 154l-90 -154l-608 -841v-45q47 -8 89 -20.5t77 -29.5v-59z" />
<glyph unicode="&#x419;" horiz-adv-x="1513" d="M578 0h-519v59q82 37 168 50v1214q-41 10 -84 22.5t-84 28.5v60h519v-60q-33 -16 -70 -28.5t-84 -22.5v-889l-23 -153l99 161l600 832v49q-47 10 -89 23.5t-77 27.5v60h520v-60q-37 -16 -80 -28.5t-88 -22.5v-1214q96 -16 168 -50v-59h-520v59q33 14 71.5 27.5t84.5 22.5 v886l20 154l-90 -154l-608 -841v-45q47 -8 89 -20.5t77 -29.5v-59zM768 1499q-188 0 -275 75t-87 185q23 23 66.5 33t86.5 12l52 -26v-174q29 -14 70.5 -21.5t88.5 -7.5q35 0 83 6t77 16v181l51 26q31 2 75 -11t71 -34q0 -55 -20.5 -102t-63.5 -82t-111 -55.5t-164 -20.5z " />
<glyph unicode="&#x41a;" horiz-adv-x="1323" d="M782 1434h453v-60q-41 -18 -80 -30.5t-76 -20.5l-411 -545l117 -151l140 -173l149 -181l151 -173l98 -49v-51h-256l-70 49q-121 141 -240 305l-233 332h-100v-577q94 -16 154 -50v-59h-519v59q82 33 168 50v1214q-92 12 -168 51v60h519v-60q-33 -14 -72 -27.5t-82 -23.5 v-567l123 28l383 539q-41 10 -78 22.5t-70 28.5v60z" />
<glyph unicode="&#x41b;" horiz-adv-x="1341" d="M414 1313q-127 20 -209 61v60h1077v-60q-72 -37 -168 -51v-1214q96 -16 168 -50v-59h-520v59q37 16 76 27.5l80 22.5v1218h-383q-8 -322 -30 -533.5t-54.5 -350t-74.5 -220.5t-91 -145q-41 -53 -100.5 -78t-114.5 -25q-14 16 -29.5 46t-29 64t-21.5 67.5t-10 60.5l30 51 l236 -43q31 51 60.5 135t53 214t39 312.5t15.5 430.5z" />
<glyph unicode="&#x41c;" horiz-adv-x="1775" d="M1714 0h-508v59q41 16 82 27.5l84 22.5v921l8 240h-16l-68 -219l-419 -1051h-54l-399 1051l-74 239h-18l2 -260v-921q39 -8 78 -20.5t77 -29.5v-59h-428v59q39 16 81 29.5t85 22.5v1212q-43 8 -85 21.5t-83 29.5v60h420l357 -936l69 -211h2l70 215l369 932h370v-60 q-37 -16 -75.5 -29.5t-79.5 -21.5v-1217q43 -8 80.5 -19t72.5 -28v-59z" />
<glyph unicode="&#x41d;" horiz-adv-x="1490" d="M578 0h-519v59q82 33 168 50v1214q-96 14 -168 51v60h519v-60q-35 -18 -74 -30.5t-80 -20.5v-535h643v535q-43 10 -81 22.5t-73 28.5v60h519v-60q-37 -20 -81 -31.5t-87 -19.5v-1214q47 -8 90 -20.5t78 -29.5v-59h-519v59q74 33 154 50v573h-643v-573q41 -8 80 -20.5 t74 -29.5v-59z" />
<glyph unicode="&#x41e;" horiz-adv-x="1515" d="M109 717q0 160 44 296t126.5 235.5t203.5 154.5t275 55t274.5 -55t203.5 -154.5t127 -235.5t44 -296t-44 -296t-127 -235.5t-204 -155t-274 -55.5q-154 0 -275 55.5t-203.5 155t-126.5 235.5t-44 296zM328 717q0 -131 27.5 -247t83 -202t139.5 -136t198 -50q104 0 182 50 t128.5 136t76 202t25.5 247t-26.5 246.5t-82 201.5t-139.5 136.5t-199 50.5q-113 0 -191.5 -50.5t-127.5 -136.5t-71.5 -201.5t-22.5 -246.5z" />
<glyph unicode="&#x41f;" horiz-adv-x="1470" d="M578 0h-519v59q31 16 72 28.5t96 21.5v1214q-41 8 -84 21.5t-84 29.5v60h1352v-60q-39 -20 -82 -31.5t-86 -19.5v-1214q82 -10 168 -50v-59h-518v59q45 29 154 50v1218h-623v-1218q80 -16 154 -50v-59z" />
<glyph unicode="&#x420;" horiz-adv-x="1220" d="M424 109q55 -6 104.5 -19.5t92.5 -30.5v-59h-562v59q41 20 84 30.5t84 19.5v1214q-47 8 -88 21.5t-80 29.5v60h185q82 0 178 8t184 8q100 0 196.5 -21.5t171.5 -72.5t121 -136t46 -212q0 -121 -47 -207t-126 -141.5t-179.5 -81t-206.5 -25.5h-32q-22 0 -46.5 1t-47 3 t-32.5 4v-452zM563 1343q-49 0 -79.5 -2t-59.5 -8v-663q10 -4 29.5 -5t41 -3.5t42.5 -2.5h32q72 0 135.5 19.5t111.5 62.5t77 108.5t29 158.5q0 168 -95.5 251.5t-263.5 83.5z" />
<glyph unicode="&#x421;" horiz-adv-x="1318" d="M1120 373h54q10 -57 18 -145q5 -58 5 -113q0 -28 -1 -56q-31 -25 -74 -40t-91 -25t-98 -14.5t-95 -4.5q-172 0 -307.5 44t-228.5 134.5t-143 230.5t-50 333q0 201 55 341t149.5 229t219 130t262.5 41q135 0 227 -17.5t162 -51.5q0 -33 -2 -77t-6.5 -93.5t-10.5 -96.5 t-12 -86h-53l-107 295q-23 12 -75 16.5t-103 4.5q-102 0 -193.5 -38t-160 -117t-109.5 -198.5t-41 -281.5q0 -145 37 -263t106.5 -201t170 -127t227.5 -44q68 0 113 10t59 27z" />
<glyph unicode="&#x422;" horiz-adv-x="1267" d="M922 0h-576v59q45 16 91 28.5t100 21.5v1218h-314l-108 -293h-52q-6 41 -10 93.5t-7 106.5t-5 106.5t-2 93.5h1190q0 -41 -2 -92.5t-5 -105.5l-7 -107q-3 -52 -9 -95h-53l-106 293h-314v-1218q53 -10 99.5 -20.5t89.5 -29.5v-59z" />
<glyph unicode="&#x423;" horiz-adv-x="1351" d="M1069 1323q-102 18 -174 51v60h457v-60q-27 -12 -64 -25.5t-84 -25.5l-401 -911q-43 -111 -86 -196t-88 -138t-96.5 -77t-110.5 -11q-12 18 -23.5 47t-19.5 59.5t-14.5 60t-8.5 54.5l31 51l211 -55q8 8 17.5 24.5t18.5 37t17 41t13 36.5l-510 977q-39 10 -78 22.5 t-76 28.5v60h539v-60q-35 -14 -77 -27.5t-89 -23.5l340 -678l43 -131h4l41 135z" />
<glyph unicode="&#x424;" horiz-adv-x="1609" d="M569 1434h461v-60q-23 -12 -55.5 -24.5t-79.5 -24.5v-104q39 10 89 12t83 2q98 0 183 -34t147.5 -98.5t97.5 -156.5t35 -209q0 -131 -43 -227t-113.5 -160.5t-160 -96.5t-181.5 -32q-10 0 -28.5 1t-39 2t-39 4t-30.5 8v-127q41 -10 73.5 -21.5t61.5 -28.5v-59h-461v59 q31 16 68 27.5t78 19.5v125q-39 -6 -85 -8t-87 -2q-84 0 -166 27.5t-148.5 87t-107.5 154t-41 227.5q0 123 41 220t110.5 162.5t160.5 100.5t192 35q27 0 66.5 -2t64.5 -6v98q-92 20 -146 49v60zM1006 1139q-29 0 -56.5 -2t-56.5 -11v-802q20 -4 51 -5.5t47 -1.5 q68 0 130.5 25t110.5 75t76.5 130t28.5 190q0 188 -86.5 295t-244.5 107zM618 317q23 0 46.5 1t52.5 10v805q-49 6 -99 6q-66 0 -127 -24.5t-110 -77t-79 -131.5t-30 -189q0 -96 27 -171t73 -125t109 -77t137 -27z" />
<glyph unicode="&#x425;" horiz-adv-x="1372" d="M809 1434h471v-60q-35 -14 -74 -27.5t-80 -23.5l-360 -555l420 -659q98 -16 168 -50v-59h-545v59q74 37 156 50l-324 514l-311 -517q43 -6 84 -15t80 -32v-59h-474v59q39 20 77 30.5t75 19.5l401 612l-385 602l-80 25q-40 12 -81 26v60h542v-60q-31 -12 -68.5 -24.5 t-86.5 -26.5l286 -463l279 463q-84 18 -170 51v60z" />
<glyph unicode="&#x426;" horiz-adv-x="1499" d="M59 0v59q57 27 168 50v1214q-80 12 -168 51v60h519v-60q-59 -27 -154 -51v-1217h612v1217q-37 8 -75.5 20.5t-77.5 30.5v60h518v-60q-82 -35 -168 -51v-1217h235q0 -41 -4 -95t-10 -112.5t-13 -112.5t-16 -95h-51l-88 309h-1227z" />
<glyph unicode="&#x427;" horiz-adv-x="1302" d="M1243 0h-520v59q49 23 95 34t93 16v526q-55 -31 -146 -61.5t-208 -30.5q-86 0 -157.5 16t-124 59.5t-81 117t-28.5 188.5v399q-37 6 -74 19.5t-74 31.5v60h480v-60q-29 -14 -62 -27.5t-74 -23.5v-360q0 -143 58.5 -228.5t193.5 -85.5q86 0 164 24.5t133 59.5v590 q-37 10 -73.5 23.5l-71.5 27.5v60h477v-60q-29 -14 -62.5 -27.5t-72.5 -23.5v-1214q41 -8 75 -20.5t60 -29.5v-59z" />
<glyph unicode="&#x428;" horiz-adv-x="1904" d="M723 1434h463v-60q-33 -16 -66 -28.5t-67 -22.5v-1217h452v1217q-72 20 -135 51v60h475v-60q-31 -14 -66.5 -27.5t-76.5 -23.5v-1214q84 -16 143 -50v-59h-1786v59q76 37 148 50v1214q-39 10 -76 22.5t-72 28.5v60h478v-60q-53 -27 -134 -51v-1217h453v1217 q-41 12 -73.5 25.5l-59.5 25.5v60z" />
<glyph unicode="&#x429;" horiz-adv-x="1968" d="M59 0v59q33 16 68 28.5t80 21.5v1214q-72 12 -148 51v60h478v-60q-29 -14 -61 -27.5t-73 -23.5v-1217h453v1217l-71 24q-34 11 -62 27v60h463v-60q-25 -16 -58.5 -28.5t-74.5 -22.5v-1217h452v1217q-74 18 -135 51v60h475v-60q-59 -37 -143 -51v-1219h235q0 -41 -4 -94 t-10 -110.5t-13 -112.5t-16 -96h-51l-88 309h-1696z" />
<glyph unicode="&#x42a;" horiz-adv-x="1478" d="M862 1434v-60q-37 -14 -83 -27.5t-97 -23.5v-469q37 4 90 9t94 5q100 0 196.5 -18.5t171.5 -65.5t120 -129t45 -209q0 -121 -47 -206.5t-126 -140t-180.5 -80t-209.5 -25.5q-10 0 -40 1t-67 2t-78 2t-71 1h-263v59q72 33 168 50v1218h-264l-106 -293h-52q-6 43 -10 96.5 t-7 106.5t-4 104.5t-3 92.5h823zM823 762q-51 0 -81.5 -1t-59.5 -9v-643q10 -4 29.5 -5.5t42 -2.5t43.5 -1h30q72 0 135.5 20.5t111.5 62.5t77 107.5t29 158.5q0 166 -95.5 239.5t-261.5 73.5z" />
<glyph unicode="&#x42b;" horiz-adv-x="1728" d="M1669 0h-520v59q41 20 80 30.5t80 19.5v1214l-79 20q-40 10 -81 31v60h520v-60q-68 -33 -164 -51v-1214q51 -8 90 -20.5t74 -29.5v-59zM59 0v59q80 37 168 50v1214q-41 10 -84 22.5t-84 28.5v60h545v-60q-39 -16 -84 -29.5t-96 -21.5v-469q37 4 90 9t94 5 q100 0 192.5 -18.5t162 -65.5t111.5 -129t42 -209q0 -121 -47 -205.5t-123 -140t-172 -81t-194 -25.5q-10 0 -40 1t-67 2t-78 2t-71 1h-265zM563 762q-49 0 -80.5 -1t-58.5 -9v-643q10 -4 29.5 -5.5t41 -2.5t42.5 -1h32q143 0 235.5 86t92.5 263q0 154 -84 233.5t-250 79.5z " />
<glyph unicode="&#x42c;" horiz-adv-x="1220" d="M59 0v59q80 37 168 50v1214q-41 8 -84 21.5t-84 29.5v60h545v-60q-37 -16 -83 -29.5t-97 -21.5v-469q37 4 90 9t94 5q102 0 198.5 -18.5t170.5 -65.5t119 -129t45 -209q0 -121 -47 -205.5t-125 -140t-179.5 -81t-209.5 -25.5q-10 0 -40 1t-68 2l-79 2q-41 1 -71 1h-263z M565 762q-51 0 -81.5 -1t-59.5 -9v-643q10 -4 29.5 -5.5t42 -2.5t43.5 -1h30q72 0 135.5 20.5t111.5 62.5t77 107.5t29 158.5q0 166 -95.5 239.5t-261.5 73.5z" />
<glyph unicode="&#x42d;" horiz-adv-x="1296" d="M387 643q-10 41 -10 81t10 79l596 -2q-16 276 -148.5 413.5t-359.5 137.5q-68 0 -107.5 -11.5t-56.5 -27.5l-106 -250h-53q-4 27 -8.5 63.5t-7.5 77.5t-4 85t-1 85q31 25 75 40.5t91 25.5t97 14t93 4q166 0 296 -42t220.5 -131t137.5 -229.5t47 -336.5q0 -197 -57.5 -337 t-152.5 -230.5t-217 -133.5t-253 -43q-135 0 -226.5 17.5t-162.5 52.5l5 79q3 46 7 94t9 95l10 86h53l106 -299q23 -12 76 -15t104 -3q92 0 180.5 39t158 116.5t112.5 194.5t43 273z" />
<glyph unicode="&#x42e;" horiz-adv-x="1982" d="M580 0h-521v59q39 16 80 28.5t88 21.5v1214q-80 12 -168 51v60h521v-60l-62 -25q-33 -13 -94 -26v-535h244q8 141 49 264.5t115.5 213.5t182 141t249.5 51q154 0 268.5 -55t190 -154.5t113.5 -235.5t38 -296q0 -158 -39 -294t-116 -235.5t-190.5 -156t-264.5 -56.5 q-150 0 -261.5 53.5t-185.5 146.5t-111.5 223t-39.5 284h-242v-573q51 -10 89 -22.5t67 -27.5v-59zM877 717q0 -133 21.5 -249t69.5 -202t124.5 -135t189.5 -49q104 0 176 50t115 136t62.5 202t19.5 247t-20.5 246.5t-68.5 201.5t-126 136.5t-193 50.5q-111 0 -182.5 -50.5 t-113.5 -136.5t-58 -201.5t-16 -246.5z" />
<glyph unicode="&#x42f;" horiz-adv-x="1302" d="M1243 1434v-60q-31 -14 -72 -27.5t-96 -23.5v-1214q102 -14 168 -50v-59h-543v59q76 37 179 50v493h-207q-45 -74 -81 -145l-73 -142q-37 -70 -78 -135t-94 -129l-70 -51h-258v51l99 49q66 70 117 137.5t94 131.5l83 125l81 120q-59 18 -114.5 51t-96.5 82.5t-66 116 t-25 152.5q0 113 49.5 193.5t129.5 132t181 75t206 23.5q41 0 101.5 -3t123.5 -3h262zM737 692q37 0 76 3t66 12v616q-20 6 -58.5 8t-66.5 2q-158 0 -251 -74.5t-93 -242.5q0 -154 80.5 -239t246.5 -85z" />
<glyph unicode="&#x430;" horiz-adv-x="1034" d="M840 268q0 -45 2 -77.5t4 -69.5l141 -21v-43q-51 -27 -113.5 -47t-119.5 -30h-52q-20 47 -24 103t-6 124h-10q-8 -41 -32 -83t-62 -75t-89 -53.5t-117 -20.5q-125 0 -203.5 76t-78.5 199q0 94 38 154.5t111.5 95.5t182 50t252.5 23q6 64 6 119q0 21 -1 40 q-3 71 -22.5 121t-57.5 77.5t-100 27.5q-29 0 -64.5 -3t-70.5 -17l-96 -246h-53q-20 61 -35.5 127t-19.5 129q78 47 173 74t212 27q104 0 166.5 -30t95 -77t43 -104.5t10.5 -114.5q0 -123 -5 -237t-5 -218zM444 102q51 0 90 20.5t66 49.5t43 58.5t23 50.5v215 q-119 0 -195 -12.5t-119 -39t-59.5 -66.5t-16.5 -91q0 -88 45 -136.5t123 -48.5z" />
<glyph unicode="&#x431;" horiz-adv-x="1107" d="M84 537q0 262 43 439t130 284.5t220 152.5t311 45l134 103h53q-2 -37 -8 -79t-15.5 -80t-18.5 -66.5t-15 -41.5q-188 0 -319.5 -18.5t-217.5 -75.5t-130 -165.5t-58 -286.5h10q25 53 66.5 102t96 86t116 59.5t124.5 22.5q418 0 418 -502q0 -119 -33 -218t-96.5 -171 t-153.5 -112t-202 -40q-102 0 -186.5 38t-143.5 111t-92 176.5t-33 236.5zM276 537q0 -129 24 -218.5t65 -145.5t95 -81.5t113 -25.5q123 0 185.5 110.5t62.5 315.5q0 209 -79.5 305t-221.5 96q-53 0 -115.5 -33t-105.5 -88q-10 -51 -16.5 -107t-6.5 -128z" />
<glyph unicode="&#x432;" horiz-adv-x="1081" d="M985 299q0 -82 -37 -140.5t-99.5 -95t-144 -54t-172.5 -17.5q-66 0 -104.5 1t-65 3t-45 3t-41.5 1h-196v51q63 33 135 49v822q-78 14 -135 49v53h184q49 0 84 1t65.5 3t61.5 3t68 1q180 0 280.5 -54t100.5 -190q0 -49 -20.5 -87.5t-53.5 -67.5t-74 -48.5t-80 -27.5 q57 -4 109.5 -22.5t92.5 -50t63.5 -78t23.5 -107.5zM399 88q29 -6 73 -6h73q121 0 180 52t59 149q0 100 -71.5 150t-184.5 50h-129v-395zM399 545l228 20q37 18 74.5 68.5t37.5 132.5q0 100 -60.5 138t-176.5 38q-23 0 -51.5 -1t-51.5 -7v-389z" />
<glyph unicode="&#x433;" horiz-adv-x="882" d="M844 1024q-2 -80 -7.5 -166t-17.5 -170h-53l-90 246h-277v-834q117 -23 185 -49v-51h-504v51q35 20 67.5 30.5t67.5 18.5v824q-76 12 -135 47v53h764z" />
<glyph unicode="&#x434;" horiz-adv-x="1173" d="M184 0l-92 -303h-53q-10 100 -15.5 202.5t-5.5 200.5h140q25 29 55.5 90.5t58 158.5t47 233.5t19.5 318.5q-43 12 -78 30.5t-63 39.5v53h870v-53q-55 -37 -135 -49v-822h182q2 -98 -4 -200.5t-18 -202.5h-52l-92 303h-764zM451 922q0 -184 -18.5 -321.5t-44.5 -235 t-54.5 -162t-50.5 -103.5h465v822h-297z" />
<glyph unicode="&#x435;" horiz-adv-x="1030" d="M913 143q-16 -35 -51 -65.5t-80 -53t-98 -36t-109 -13.5q-121 0 -213 38t-153.5 109t-93 169t-31.5 221q0 262 121 399.5t342 137.5q72 0 141.5 -19.5t123.5 -64.5t88 -120t34 -186q0 -35 -3 -70.5t-11 -76.5h-639q0 -86 21.5 -161t64.5 -130t108.5 -87t153.5 -32 q72 0 145.5 20.5t110.5 53.5zM539 958q-117 0 -178.5 -78.5t-73.5 -277.5h450q2 18 3 35.5t1 34.5q0 131 -49 208.5t-153 77.5z" />
<glyph unicode="&#x436;" horiz-adv-x="1478" d="M1083 1024h355v-53q-35 -25 -117 -49l-135 -177l-137 -172l65 -92l85 -120l96 -132l100 -129l84 -49v-51h-217l-58 47q-35 47 -75 110l-78 126l-72 117l-53 85h-99v-385q63 -16 123 -49v-51h-411v51l56.5 26.5t57.5 22.5v398l-112 -21q-18 -29 -49 -84l-67 -119 q-36 -63 -75 -124.5t-76 -102.5l-61 -47h-213v51l94 49q51 59 100 125l91 127l79 116q36 54 64 91q-78 88 -149.5 179t-137.5 184q-53 12 -102 49v53h354v-53q-39 -29 -102 -49q55 -98 120 -186l136 -185h106v371q-68 14 -114 49v53h397v-53q-20 -16 -46 -28.5t-63 -20.5 v-383l113 20l130 181q58 83 116 182q-29 10 -53.5 20t-49.5 29v53z" />
<glyph unicode="&#x437;" horiz-adv-x="970" d="M420 72q63 0 109 20.5t75 53t43.5 74.5t14.5 85q0 98 -42 133t-114 47l-193 -30q-8 27 -9 55.5t9 54.5h209q18 8 38 25.5t37 43t28.5 60.5t11.5 78q0 98 -54.5 142t-142.5 44q-41 0 -74.5 -5t-43.5 -9l-93 -231h-51q-23 68 -33 135t-12 133q41 23 125 45.5t215 22.5 q166 0 257 -60.5t91 -179.5q0 -49 -20.5 -90t-52 -74t-71.5 -55.5t-79 -34.5q113 -10 188.5 -72.5t75.5 -177.5q0 -164 -112.5 -247t-298.5 -83q-119 0 -208 35t-149 88l37 138h41q27 -29 59 -69l66 -79q43 -16 123 -16z" />
<glyph unicode="&#x438;" horiz-adv-x="1253" d="M80 1024h434v-53q-23 -12 -52.5 -24.5t-70.5 -24.5v-562l-22 -190h10l80 154l438 700h277v-53q-66 -37 -136 -49v-822q39 -10 74 -21t62 -28v-51h-435v51q57 33 123 49v586l21 162h-11l-77 -154l-435 -694h-280v51q35 16 67.5 27.5t67.5 21.5v822q-80 12 -135 49v53z" />
<glyph unicode="&#x439;" horiz-adv-x="1253" d="M80 1024h434v-53q-23 -12 -52.5 -24.5t-70.5 -24.5v-562l-22 -190h10l80 154l438 700h277v-53q-66 -37 -136 -49v-822q39 -10 74 -21t62 -28v-51h-435v51q57 33 123 49v586l21 162h-11l-77 -154l-435 -694h-280v51q35 16 67.5 27.5t67.5 21.5v822q-80 12 -135 49v53z M647 1147q-102 0 -168 21.5t-104.5 56.5t-54 81t-15.5 93q33 27 71.5 39t81.5 16l52 -27v-182q29 -12 67.5 -17t71.5 -5q20 0 65.5 4t73.5 12v188l51 27q43 -4 81 -18.5t63 -36.5q0 -47 -16.5 -93t-54.5 -81t-102.5 -56.5t-162.5 -21.5z" />
<glyph unicode="&#x43a;" horiz-adv-x="1107" d="M666 1024h395v-53q-20 -16 -54 -28.5l-83 -29.5l-148 -170q-78 -86 -164 -172l96 -108l101 -123l102 -125q51 -61 101 -115l96 -49v-51h-240l-65 47q-92 111 -168 221l-154 217h-82v-385q41 -10 75 -21t58 -28v-51h-452v51q55 33 135 49v822q-72 14 -135 49v53h420v-53 q-20 -14 -44 -26.5t-57 -22.5v-383l95 20l155 176q74 82 137 178l-64 28q-30 13 -56 30v53z" />
<glyph unicode="&#x43b;" horiz-adv-x="1112" d="M211 176q29 49 51.5 131t37.5 180.5t23.5 206t8.5 207.5q-41 12 -75 30.5t-62 39.5v53h837v-53q-66 -37 -135 -49v-822q43 -10 76 -22t59 -27v-51h-440v51q49 35 121 49v834h-271q-2 -109 -12 -230.5t-30.5 -239.5t-53.5 -221.5t-80 -172.5q-39 -59 -84 -83t-84 -16 q-31 35 -58.5 91.5t-31.5 103.5l29 51z" />
<glyph unicode="&#x43c;" horiz-adv-x="1503" d="M424 0h-361v51q68 33 136 49l30 801q-43 16 -75 35l-60 35v53h400l211 -598l38 -141h7l43 143l219 596h387v-53q-27 -16 -59.5 -28.5t-75.5 -20.5l41 -822q68 -12 135 -49v-51h-434v51q20 10 48.5 22.5t73.5 26.5l-41 830h-16l-336 -930h-55l-332 930h-16l-31 -830 q74 -23 123 -49v-51z" />
<glyph unicode="&#x43d;" horiz-adv-x="1253" d="M520 0h-440v51q29 16 63.5 27.5t71.5 21.5v822q-37 10 -71.5 21t-63.5 28v53h440v-53q-47 -29 -121 -49v-359h455v359q-72 12 -123 49v53h443v-53q-55 -35 -136 -49v-822q37 -8 72 -18t64 -31v-51h-443v51q51 37 123 49v373h-455v-373q41 -8 70 -20t51 -29v-51z" />
<glyph unicode="&#x43e;" horiz-adv-x="1132" d="M84 512q0 129 34 228.5t97.5 168t152.5 104.5t197 36q127 0 219.5 -39t150.5 -110t86 -169t28 -219q0 -258 -131.5 -397.5t-352.5 -139.5q-123 0 -213 38t-149.5 109t-89 170t-29.5 220zM281 512q0 -92 17 -174t55 -142.5t99.5 -95t147.5 -34.5q111 0 181.5 108.5 t70.5 337.5q0 94 -17.5 175t-54.5 141.5t-94 95t-137 34.5q-121 0 -194.5 -108.5t-73.5 -337.5z" />
<glyph unicode="&#x43f;" horiz-adv-x="1251" d="M520 0h-440v51q39 23 71.5 34t63.5 15v822q-43 10 -78 22t-57 27v53h1091v-53q-27 -16 -59.5 -30.5t-75.5 -18.5v-822q70 -12 135 -49v-51h-440v51q20 14 48 26.5t73 22.5v834h-453v-834q41 -12 70 -24.5t51 -24.5v-51z" />
<glyph unicode="&#x440;" horiz-adv-x="1159" d="M518 -410h-455v52q70 33 136 49v1214l-136 17v53q66 29 134.5 46t134.5 28h51v-230h2q41 104 114.5 167t192.5 63q182 0 282.5 -121t100.5 -393q0 -129 -33.5 -233.5t-96 -176.5t-151.5 -111t-198 -39q-76 0 -119 9.5t-94 31.5v-325q33 -4 65.5 -15.5t69.5 -33.5v-52z M627 922q-100 0 -159.5 -63.5t-84.5 -174.5v-573q37 -23 83 -34t120 -11q68 0 122 34.5t92 98t58.5 148.5t20.5 188q0 84 -13.5 154.5t-43 122.5t-77.5 81t-118 29z" />
<glyph unicode="&#x441;" horiz-adv-x="954" d="M874 143q-37 -72 -119.5 -120t-193.5 -48q-121 0 -210 38t-148.5 109t-89 170t-29.5 220q0 260 127 398.5t346 138.5q100 0 179 -17.5t134 -46.5q-6 -68 -22.5 -151.5t-40.5 -139.5h-55l-86 244q-14 10 -33 15t-62 5q-139 0 -214.5 -101t-75.5 -343q0 -78 21.5 -151.5 t65.5 -132t110.5 -93.5t154.5 -35q72 0 125 20.5t90 49.5z" />
<glyph unicode="&#x442;" horiz-adv-x="1015" d="M735 0h-454v51q63 33 135 49v834h-191l-90 -246h-53q-10 88 -16.5 173t-8.5 163h901q-2 -74 -7 -161t-17 -175h-53l-90 246h-191v-834q96 -25 135 -49v-51z" />
<glyph unicode="&#x443;" horiz-adv-x="1034" d="M86 922q-31 8 -56.5 20t-52.5 29v53h429v-51q-43 -29 -117 -51l262 -607l39 -127h4l31 129l194 605q-61 12 -112 49v53h350v-53q-43 -29 -117 -49l-319 -922q-49 -131 -93.5 -212t-88.5 -128t-90 -68.5t-99 -31.5q-23 39 -40 86t-30 90l27 49h213q12 16 21.5 31.5 t19.5 38t22.5 57.5t28.5 88z" />
<glyph unicode="&#x444;" horiz-adv-x="1480" d="M965 -410h-447v52q57 33 135 49v360q-35 -35 -76.5 -55.5t-101.5 -20.5q-86 0 -158.5 30t-124 91.5t-80 155.5t-28.5 223q0 293 112.5 433.5t301.5 140.5q51 0 93 -17.5t62 -48.5v414l-155 16v53q59 27 136 45.5t144 28.5h51v-569q31 37 82.5 57.5t108.5 20.5 q174 0 276.5 -117t102.5 -359q0 -156 -31 -268t-84 -186t-128 -109t-163 -35q-49 0 -94 16.5t-70 45.5v-346q39 -6 73 -17.5t63 -31.5v-52zM518 76q35 0 71 9t64 38v788q-25 16 -54.5 25.5t-82.5 9.5q-51 0 -95 -22.5t-76 -69.5t-50.5 -121t-18.5 -178q0 -139 18.5 -231.5 t51.5 -147.5t77 -77.5t95 -22.5zM971 946q-41 0 -78 -9t-66 -34v-790q25 -20 56.5 -28.5t81.5 -8.5q47 0 91 23.5t77.5 73.5t53 131t19.5 198q0 125 -15 211t-44 137t-74 73.5t-102 22.5z" />
<glyph unicode="&#x445;" horiz-adv-x="1062" d="M610 549l324 -449q29 -10 56.5 -21t51.5 -28v-51h-419v49l53 30q25 13 49 21l-227 336l-230 -336q29 -10 53.5 -22t49.5 -27v-51h-351v51q57 35 115 49l305 408l-307 414q-29 10 -52.5 21t-47.5 28v53h411v-51l-48 -29.5t-52 -21.5l213 -308l209 308q-70 23 -102 49v53 h342v-53q-39 -27 -115 -49z" />
<glyph unicode="&#x446;" horiz-adv-x="1257" d="M80 0v51q55 33 135 49v822q-78 12 -135 49v53h440v-53q-47 -29 -121 -49v-832h432v832q-55 12 -120 49v53h440v-53q-27 -14 -59.5 -26.5t-75.5 -22.5v-832h182q-4 -98 -9 -196.5t-13 -196.5h-52l-92 303h-952z" />
<glyph unicode="&#x447;" horiz-adv-x="1142" d="M31 1024h440v-53q-20 -14 -51 -27.5t-70 -21.5v-246q0 -96 41 -154.5t137 -58.5q57 0 111.5 17.5t103.5 45.5v396q-61 12 -120 49v53h440v-53q-55 -35 -135 -49v-822q41 -10 73.5 -21t61.5 -28v-51h-483v51q84 35 163 49v367q-49 -53 -116.5 -87t-169.5 -34 q-139 0 -215 78t-76 211v287q-78 14 -135 49v53z" />
<glyph unicode="&#x448;" horiz-adv-x="1703" d="M1305 90v832q-66 18 -111 49v53h430v-53q-29 -16 -61.5 -28.5t-73.5 -20.5v-822q76 -16 135 -49v-51h-1544v51q57 33 135 49v822q-35 4 -67.5 15t-67.5 34v53h430v-53q-53 -31 -111 -49v-832h361v832q-33 10 -63.5 21t-59.5 28v53h418v-53q-16 -12 -42 -24.5t-69 -24.5 v-832h361z" />
<glyph unicode="&#x449;" horiz-adv-x="1728" d="M80 0v51q57 33 135 49v822q-41 8 -73.5 20t-61.5 29v53h430v-53q-20 -14 -48 -26.5t-63 -22.5v-832h361v832q-31 8 -62.5 20t-60.5 29v53h418v-53q-23 -16 -51.5 -28.5t-59.5 -20.5v-832h361v832q-66 18 -111 49v53h430v-53q-29 -16 -61.5 -27.5t-73.5 -21.5v-832h182 q-2 -98 -9 -197.5t-13 -195.5h-54l-92 303h-1423z" />
<glyph unicode="&#x44a;" horiz-adv-x="1181" d="M541 88q29 -2 54.5 -4t53.5 -2q121 0 187.5 59.5t66.5 186.5q0 57 -18.5 97t-50 64.5t-73.5 36t-87 11.5q-70 0 -133 -13v-436zM664 1024v-53q-25 -16 -55.5 -27.5t-67.5 -21.5v-316q35 4 79 10.5t125 6.5q168 0 263.5 -72t95.5 -225q0 -82 -31 -144.5t-87 -104.5 t-133 -63.5t-169 -21.5q-55 0 -123.5 4t-146.5 4h-193v51q57 33 135 49v834h-159l-91 -246h-53q-10 78 -15 168t-7 168h633z" />
<glyph unicode="&#x44b;" horiz-adv-x="1527" d="M399 606q35 4 78 10.5t125 6.5q154 0 247 -72t93 -225q0 -82 -29.5 -144.5t-83 -104.5t-127 -63.5t-161.5 -21.5q-55 0 -124 4t-147 4h-190v51q35 20 67.5 30.5t67.5 18.5v822q-39 6 -71.5 19t-63.5 30v53h442v-53q-47 -29 -123 -49v-316zM399 88l54 -4q27 -2 55 -2 q231 0 231 246q0 57 -17 97t-47 63.5t-69 33.5t-82 10q-29 0 -61.5 -1t-63.5 -7v-436zM1448 0h-440v51l57.5 26.5t62.5 22.5v822q-78 14 -122 49v53h442v-53q-25 -16 -59.5 -27.5t-75.5 -21.5v-822q35 -10 67.5 -21t67.5 -28v-51z" />
<glyph unicode="&#x44c;" horiz-adv-x="1040" d="M399 606q35 4 78 10.5t125 6.5q168 0 264.5 -72t96.5 -225q0 -82 -32 -144.5t-87.5 -104.5t-133 -63.5t-169.5 -21.5q-55 0 -124 4t-147 4h-190v51q31 16 65 28l70 21v822q-39 8 -71.5 20t-63.5 29v53h442v-53q-49 -29 -123 -49v-316zM399 88l54 -4q27 -2 55 -2 q119 0 185.5 59.5t66.5 186.5q0 57 -18.5 97t-49 63.5t-72.5 33.5t-90 10q-33 0 -66.5 -1t-64.5 -7v-436z" />
<glyph unicode="&#x44d;" horiz-adv-x="1005" d="M449 -25q-117 0 -206 35t-149 88l37 138h41q27 -29 59 -69l64 -79q43 -16 127 -16q135 0 218 110.5t85 298.5l-406 -30q-23 55 0 110h406q-4 111 -27.5 186.5t-63.5 123t-92.5 67.5t-115.5 20q-84 0 -104 -14l-91 -250h-51q-18 57 -32.5 129t-22.5 144q55 31 131 56.5 t205 25.5q98 0 182 -27t146.5 -88.5t97.5 -159.5t35 -242q0 -145 -40 -250.5t-106.5 -173t-151.5 -100.5t-175 -33z" />
<glyph unicode="&#x44e;" horiz-adv-x="1609" d="M520 0h-440v51q29 16 63.5 27.5t71.5 21.5v822q-35 10 -67.5 21t-67.5 28v53h440v-53q-23 -14 -51.5 -26.5t-69.5 -22.5v-359h203q12 229 135 357.5t324 128.5q229 0 347 -137.5t118 -405.5q0 -246 -121 -388.5t-344 -142.5q-96 0 -178 30t-143.5 91.5t-97.5 155.5 t-40 221h-203v-373q41 -8 70 -20t51 -29v-51zM795 512q0 -111 22.5 -193.5t61.5 -139t90 -85t106 -28.5q133 0 193.5 117.5t60.5 328.5q0 223 -67.5 334.5t-208.5 111.5q-121 0 -189.5 -118.5t-68.5 -327.5z" />
<glyph unicode="&#x44f;" horiz-adv-x="1085" d="M131 723q0 70 22.5 127t70.5 98t123 64.5t181 23.5q25 0 69 -2t93 -4l95 -4q46 -2 73 -2h148v-53q-16 -14 -46 -26.5t-90 -22.5v-822q76 -23 136 -49v-51h-441v51q27 16 56.5 27.5t64.5 21.5v346l-149 -20q-43 -72 -96.5 -173t-145.5 -206l-64 -47h-231v51l115 49 q92 96 155.5 190.5t114.5 160.5q-47 8 -92 27.5t-81 53t-58.5 81t-22.5 110.5zM686 934q-27 4 -69 8t-70 4q-127 2 -175 -58.5t-48 -158.5q0 -100 74.5 -164.5t232.5 -64.5h55v434z" />
<glyph unicode="&#x451;" horiz-adv-x="1030" d="M913 143q-16 -35 -51 -65.5t-80 -53t-98 -36t-109 -13.5q-121 0 -213 38t-153.5 109t-93 169t-31.5 221q0 262 121 399.5t342 137.5q72 0 141.5 -19.5t123.5 -64.5t88 -120t34 -186q0 -35 -3 -70.5t-11 -76.5h-639q0 -86 21.5 -161t64.5 -130t108.5 -87t153.5 -32 q72 0 145.5 20.5t110.5 53.5zM539 958q-117 0 -178.5 -78.5t-73.5 -277.5h450q2 18 3 35.5t1 34.5q0 131 -49 208.5t-153 77.5zM197 1358q0 49 30.5 78.5t79.5 29.5t80 -29.5t31 -78.5q0 -47 -30.5 -76t-80.5 -29q-49 0 -79.5 29t-30.5 76zM652 1358q0 49 30.5 78.5 t79.5 29.5t80 -29.5t31 -78.5q0 -47 -31 -76t-80 -29t-79.5 29t-30.5 76z" />
<glyph unicode="&#x452;" horiz-adv-x="1175" d="M45 1225h139v172l-155 16v53q59 25 138 43.5t150 30.5h52v-315h426v-107h-426v-377h2q43 96 123.5 164t195.5 68q82 0 146.5 -19.5t107.5 -68.5t65.5 -132t22.5 -210v-541q0 -127 -24.5 -210t-71.5 -131t-115.5 -69.5t-156.5 -25.5l-11 57q55 16 92 39t60.5 64t33 106.5 t9.5 169.5v502q0 160 -45 251t-164 91q-53 0 -96 -18.5t-78 -50.5t-59.5 -71.5t-36.5 -82.5v-523q33 -8 62.5 -18t57.5 -31v-51h-440v51q63 33 135 49v1018h-139v107z" />
<glyph unicode="&#x453;" horiz-adv-x="882" d="M844 1024q-2 -80 -7.5 -166t-17.5 -170h-53l-90 246h-277v-834q117 -23 185 -49v-51h-504v51q35 20 67.5 30.5t67.5 18.5v824q-76 12 -135 47v53h764zM610 1571q16 2 43 -1t55.5 -9.5t53.5 -15.5t37 -19v-39l-383 -309l-45 36z" />
<glyph unicode="&#x454;" horiz-adv-x="976" d="M897 143q-37 -72 -120 -120t-193 -48q-121 0 -214.5 38t-156.5 109t-96 170t-33 220q0 129 36 229.5t101.5 168t155.5 103.5t198 36q104 0 184.5 -17.5t135.5 -46.5q-4 -35 -10 -74t-14.5 -77.5t-19.5 -74.5t-24 -63h-51l-86 244q-14 10 -33.5 14t-62.5 4 q-68 0 -124 -22.5t-97 -71.5t-65.5 -128t-26.5 -191l399 30q23 -55 0 -110h-395q6 -72 34.5 -136.5t75.5 -115.5t112.5 -81t147.5 -30q72 0 125.5 20.5t89.5 49.5z" />
<glyph unicode="&#x455;" horiz-adv-x="886" d="M604 233q0 57 -36 97.5t-91 75t-117.5 67.5t-118 77t-91 101.5t-35.5 141.5q0 55 25.5 102t68.5 81t100.5 53.5t122.5 19.5q111 0 181.5 -12.5t136.5 -35.5q-8 -66 -19.5 -132t-32.5 -136h-51l-78 209q-25 10 -55.5 13t-62.5 3q-37 0 -65 -13t-47.5 -33.5t-29.5 -47 t-10 -53.5q0 -55 36 -95t91 -74t117.5 -66.5t118 -73.5t91 -95.5t35.5 -130.5q0 -70 -29.5 -125t-81.5 -94t-121 -60.5t-146 -21.5q-88 0 -162 15.5t-154 44.5q4 74 18.5 142.5t37.5 131.5h51l90 -223q23 -16 54.5 -18t57.5 -2q90 0 145.5 48.5t55.5 118.5z" />
<glyph unicode="&#x456;" horiz-adv-x="616" d="M539 0h-455v51q31 16 63.5 27.5t71.5 21.5v805l-135 17v53q59 25 129 43t139 31h51v-949q41 -10 74 -21t62 -28v-51zM180 1372q0 55 36 88t95 33t94 -33t35 -88t-35 -87t-94 -32t-95 32t-36 87z" />
<glyph unicode="&#x457;" horiz-adv-x="712" d="M80 1368q0 53 30.5 87t79.5 34t79 -34t30 -87q0 -51 -29.5 -83t-79.5 -32q-49 0 -79.5 32t-30.5 83zM412 1368q0 53 29.5 87t80.5 34q49 0 79 -34t30 -87q0 -51 -30 -83t-79 -32q-51 0 -80.5 32t-29.5 83zM586 0h-455v51q31 16 63.5 27.5t71.5 21.5v805l-135 17v53 q59 25 129 43t139 31h52v-949q41 -10 73.5 -21t61.5 -28v-51z" />
<glyph unicode="&#x458;" horiz-adv-x="589" d="M217 905l-135 17v53q59 29 130 46t138 28h51v-961q0 -145 -36.5 -241.5t-86 -156t-100.5 -88t-82 -36.5l-24 39q25 12 50 42.5t46.5 85t35 132.5t13.5 184v856zM176 1372q0 55 36 88t95 33t94 -33t35 -88t-35 -87t-94 -32t-95 32t-36 87z" />
<glyph unicode="&#x459;" horiz-adv-x="1517" d="M1032 971q-23 -14 -59.5 -26.5t-75.5 -22.5v-316q35 4 78 10.5t125 6.5q156 0 248 -72t92 -225q0 -82 -30 -144.5t-82 -104.5t-127 -63.5t-163 -21.5q-55 0 -123.5 4t-146.5 4h-176v51q49 35 121 49v834h-271q-2 -109 -12 -230.5t-30.5 -239.5t-53.5 -221.5t-80 -172.5 q-39 -59 -84 -83t-84 -16q-31 35 -58.5 91.5t-31.5 103.5l29 51l174 -41q29 49 51.5 131t37.5 180.5t23.5 206t8.5 207.5q-41 12 -75 30.5t-62 39.5v53h837v-53zM897 88l55 -4q27 -2 54 -2q121 0 177 60.5t56 185.5q0 57 -18.5 97t-48 63.5t-68.5 33.5t-82 10 q-29 0 -60.5 -1t-64.5 -7v-436z" />
<glyph unicode="&#x45a;" horiz-adv-x="1658" d="M731 51q51 37 123 49v373h-455v-373q41 -8 70 -20t51 -29v-51h-440v51q29 16 63.5 27.5t71.5 21.5v822q-37 10 -71.5 21t-63.5 28v53h440v-53q-47 -29 -121 -49v-359h455v359q-72 12 -123 49v53h443v-53q-23 -14 -60 -26.5t-76 -22.5v-316q35 4 78 10.5t125 6.5 q154 0 247 -72t93 -225q0 -82 -29.5 -144.5t-83 -104.5t-127 -63.5t-161.5 -21.5q-55 0 -124 4t-147 4h-178v51zM1038 88l54 -4q27 -2 55 -2q231 0 231 246q0 57 -17.5 97t-47 64.5t-68.5 36t-82 11.5q-29 0 -61.5 -3.5t-63.5 -9.5v-436z" />
<glyph unicode="&#x45b;" horiz-adv-x="1196" d="M45 1225h139v172l-155 16v53q59 25 138 43.5t150 30.5h52v-315h426v-107h-426v-377h2q43 96 123.5 164t195.5 68q82 0 146.5 -19.5t107.5 -68.5t65.5 -132t22.5 -210v-424l129 -19v-43q-59 -27 -128.5 -47t-133.5 -30h-51v524q0 160 -45 251t-164 91q-53 0 -96 -19.5 t-78 -50.5t-59.5 -70.5t-36.5 -82.5v-523q33 -8 62.5 -18t57.5 -31v-51h-440v51q63 33 135 49v1018h-139v107z" />
<glyph unicode="&#x45c;" horiz-adv-x="1107" d="M666 1024h395v-53q-20 -16 -54 -28.5l-83 -29.5l-148 -170q-78 -86 -164 -172l96 -108l101 -123l102 -125q51 -61 101 -115l96 -49v-51h-240l-65 47q-92 111 -168 221l-154 217h-82v-385q41 -10 75 -21t58 -28v-51h-452v51q55 33 135 49v822q-72 14 -135 49v53h420v-53 q-20 -14 -44 -26.5t-57 -22.5v-383l95 20l155 176q74 82 137 178l-64 28q-30 13 -56 30v53zM702 1571q16 2 43 -1t55.5 -9.5t53.5 -15.5t37 -19v-39l-383 -309l-45 36z" />
<glyph unicode="&#x45e;" horiz-adv-x="1034" d="M86 922q-31 8 -56.5 20t-52.5 29v53h429v-51q-43 -29 -117 -51l262 -607l39 -127h4l31 129l194 605q-61 12 -112 49v53h350v-53q-43 -29 -117 -49l-319 -922q-49 -131 -93.5 -212t-88.5 -128t-90 -68.5t-99 -31.5q-23 39 -40 86t-30 90l27 49h213q12 16 21.5 31.5 t19.5 38t22.5 57.5t28.5 88zM557 1147q-102 0 -168 21.5t-104.5 56.5t-54 81t-15.5 93q33 27 71.5 39t81.5 16l52 -27v-182q29 -12 67.5 -17t71.5 -5q20 0 65.5 4t73.5 12v188l51 27q43 -4 81 -18.5t63 -36.5q0 -47 -16.5 -93t-54.5 -81t-102.5 -56.5t-162.5 -21.5z" />
<glyph unicode="&#x45f;" horiz-adv-x="1232" d="M520 971q-23 -12 -51.5 -24.5t-69.5 -24.5v-832h435v832q-45 10 -74 22t-49 27v53h442v-53q-66 -37 -135 -49v-822q43 -4 75.5 -18t59.5 -31v-51h-446q-12 -96 -26.5 -184t-37.5 -187h-53q-20 100 -33.5 187.5t-30.5 183.5h-446v51q23 14 57.5 26.5t77.5 22.5v822 q-31 4 -63.5 15t-71.5 34v53h440v-53z" />
<glyph unicode="&#x462;" horiz-adv-x="1460" d="M662 1157v-326q37 6 91 10.5t95 4.5q100 0 196.5 -16.5t171 -62.5t119.5 -126t45 -205q0 -121 -47 -205t-126 -137t-180 -76.5t-210 -23.5q-10 0 -39.5 1t-67.5 2l-79 2q-41 1 -72 1h-262v59q80 37 168 50v1048h-262l-107 -291h-53q-6 41 -9 93l-6 107q-3 54 -5.5 105.5 t-2.5 92.5h445v104q-41 8 -84 20.5t-84 30.5v58h547v-58q-39 -16 -85 -29.5t-97 -21.5v-104h524q-2 -80 -8.5 -174.5t-16.5 -178.5h-51l-106 246h-342zM803 739q-49 0 -81 -1t-60 -9v-620q10 -4 29.5 -5.5t42 -2.5t42.5 -1h33q72 0 135.5 18.5t111.5 58.5t76.5 103.5 t28.5 155.5q0 166 -96 234.5t-262 68.5z" />
<glyph unicode="&#x463;" horiz-adv-x="1196" d="M555 934v-328q35 4 78 10.5t125 6.5q168 0 264 -72t96 -225q0 -82 -31.5 -144.5t-87 -104.5t-133.5 -63.5t-170 -21.5q-55 0 -123.5 4t-146.5 4h-190v51q31 16 65 28l70 21v834h-172l-90 -246h-54q-10 88 -16 173t-8 163h340v373l-156 16v53q53 25 133 43.5t156 30.5h51 v-516h379q4 -74 -3 -138l-18 -151h-53l-115 199h-190zM555 88l53 -4q27 -2 56 -2q119 0 185 59.5t66 186.5q0 57 -18 96t-49 63.5t-73 34.5t-89 10q-33 0 -66.5 -2t-64.5 -8v-434z" />
<glyph unicode="&#x472;" horiz-adv-x="1515" d="M109 717q0 160 44 296t126.5 235.5t203.5 154.5t275 55t274.5 -55t203.5 -154.5t127 -235.5t44 -296t-44 -296t-127 -235.5t-204 -155t-274 -55.5q-154 0 -275 55.5t-203.5 155t-126.5 235.5t-44 296zM776 82q100 0 177 47t128.5 128t78 190.5t30.5 234.5 q-55 -59 -118.5 -85t-110.5 -26q-55 0 -107.5 22.5t-104 48.5t-103.5 48.5t-105 22.5q-43 0 -102.5 -16.5t-110.5 -71.5q8 -115 40.5 -214.5t89 -172t135.5 -114.5t183 -42zM741 1352q-115 0 -193.5 -51.5t-127.5 -139.5t-71.5 -205.5t-22.5 -250.5q47 57 97 90.5t97 50.5 q43 14 86 14q55 0 105.5 -22.5t99.5 -48t98 -47t103 -21.5q35 0 85 5t91 34q-4 123 -33 231.5t-84 188.5t-137 126t-193 46z" />
<glyph unicode="&#x473;" horiz-adv-x="1132" d="M84 512q0 129 34 228.5t97.5 168t152.5 104.5t197 36q127 0 219.5 -39t150.5 -110t86 -169t28 -219q0 -258 -131.5 -397.5t-352.5 -139.5q-123 0 -213 38t-149.5 109t-89 170t-29.5 220zM731 545q23 0 55.5 10t61.5 31q-6 80 -26.5 148.5t-57.5 117.5t-90 77.5t-125 28.5 q-119 0 -192.5 -102t-77.5 -317q61 47 114 63t94 16q37 0 68 -11t59.5 -25.5t57 -25.5t59.5 -11zM399 500q-23 0 -56.5 -14.5t-61.5 -36.5q4 -82 24.5 -153t59 -122t97 -79.5t138.5 -28.5q109 0 179.5 106.5t72.5 329.5q-55 -45 -105.5 -63.5t-95.5 -18.5q-37 0 -68.5 12 t-62.5 27.5t-60.5 28t-60.5 12.5z" />
<glyph unicode="&#x474;" horiz-adv-x="1433" d="M1354 1458q20 -8 41.5 -36.5t38 -65.5t26.5 -76t10 -66l-32 -49l-197 56q-66 -94 -138.5 -236.5t-140 -309.5t-123 -348.5t-85.5 -351.5h-80l-518 1348q-41 10 -80 23.5l-76 27.5v60h543v-60q-35 -14 -78 -27.5t-90 -23.5l317 -881l45 -163h4l27 163q39 145 92 290 t113.5 270.5t121 226t111.5 157.5q35 39 72 53.5t76 18.5z" />
<glyph unicode="&#x475;" horiz-adv-x="1046" d="M580 0l-93 -25l-399 947q-59 20 -108 49v53h428v-51l-54.5 -27.5t-62.5 -23.5l237 -617l29 -108h4l21 122q39 162 94 328t141 297q39 59 89 83t89 15q18 -14 33.5 -36.5t28 -49t20.5 -55.5t10 -53l-30 -53l-172 43q-29 -47 -57.5 -109.5t-54 -128t-47.5 -130.5l-38 -116z " />
<glyph unicode="&#x48a;" horiz-adv-x="1519" d="M578 0h-519v59q82 37 168 50v1214q-41 10 -84 22.5t-84 28.5v60h519v-60q-33 -16 -70 -28.5t-84 -22.5v-889l-23 -153l99 161l600 832v49q-47 10 -89 23.5t-77 27.5v60h520v-60q-37 -16 -80 -28.5t-88 -22.5v-1217h225l17 -14q-8 -39 -30.5 -91t-51.5 -107.5 t-61.5 -109.5t-61.5 -93h-55l59 309h-393v59q33 14 71.5 27.5t84.5 22.5v886l20 154l-90 -154l-608 -841v-45q47 -8 89 -20.5t77 -29.5v-59zM758 1499q-188 0 -275.5 75t-87.5 185q23 23 67 33t87 12l51 -26v-174q29 -14 71 -21.5t89 -7.5q35 0 83 6t77 16v181l51 26 q33 2 76 -11t69 -34q0 -55 -20.5 -102t-63.5 -82t-110.5 -55.5t-163.5 -20.5z" />
<glyph unicode="&#x48b;" horiz-adv-x="1269" d="M80 1024h434v-53q-23 -12 -52.5 -24.5t-70.5 -24.5v-562l-22 -190h10l80 154l438 700h277v-53q-66 -37 -136 -49v-832h195l10 -16q-10 -49 -32.5 -106.5t-50 -111t-55.5 -96.5t-46 -63h-55l55 303h-320v51q57 33 123 49v586l21 162h-11l-77 -154l-435 -694h-280v51 q35 16 67.5 27.5t67.5 21.5v822q-80 12 -135 49v53zM649 1147q-102 0 -167.5 21.5t-104.5 56.5t-54.5 81t-15.5 93q33 25 73 38t81 17l51 -27v-182q29 -12 67.5 -17t71.5 -5q20 0 65.5 4t74.5 12v188l51 27q41 -6 80 -20.5t63 -34.5q0 -47 -16.5 -93t-54 -81t-102.5 -56.5 t-163 -21.5z" />
<glyph unicode="&#x48c;" horiz-adv-x="1282" d="M20 1163h267v160q-41 8 -84 21.5t-84 29.5v60h547v-60q-39 -16 -85 -29.5t-98 -21.5v-160h396v-106h-396v-203q37 4 91.5 9t95.5 5q100 0 196.5 -18.5t171 -65.5t119.5 -129t45 -209q0 -121 -47 -205.5t-126 -140t-180 -81t-210 -25.5q-10 0 -40 1t-68 2l-78 2 q-41 1 -72 1h-262v59q80 37 168 50v948h-267v106zM625 762q-49 0 -81 -1t-61 -9v-643q10 -4 29.5 -5.5t42.5 -2.5t43 -1h33q72 0 135 20.5t111.5 62.5t77 107.5t28.5 158.5q0 166 -96 239.5t-262 73.5z" />
<glyph unicode="&#x48d;" horiz-adv-x="1019" d="M4 1024h211v373l-156 16v53q57 27 139 43l150 31h51v-516h295v-106h-295v-312q35 4 78 10.5t125 6.5q154 0 247 -72t93 -225q0 -82 -29.5 -144.5t-83 -104.5t-127 -63.5t-161.5 -21.5q-55 0 -124 4t-147 4h-190v51q35 20 67.5 30.5t67.5 18.5v818h-211v106zM399 88l54 -4 q27 -2 55 -2q231 0 231 246q0 57 -17 97t-47 63.5t-69 33.5t-82 10q-29 0 -61.5 -1t-63.5 -7v-436z" />
<glyph unicode="&#x48e;" horiz-adv-x="1220" d="M424 109q55 -6 104.5 -19.5t92.5 -30.5v-59h-562v59q41 20 84 30.5t84 19.5v1214q-47 8 -88 21.5t-80 29.5v60h181q86 0 181 8t185 8q100 0 196.5 -21.5t171.5 -72.5t121 -136t46 -212q0 -158 -78 -255.5t-197 -146.5l105 -164l-97 -59l-118 190q-82 -20 -178 -20h-32 q-22 0 -45.5 1t-45 3t-31.5 4v-452zM563 1343q-49 0 -79.5 -2t-59.5 -8v-663q10 -4 29.5 -5t41 -3.5t42.5 -2.5h32q68 0 127 19l-145 229l92 56l148 -242q59 41 95 111.5t36 175.5q0 168 -95.5 251.5t-263.5 83.5z" />
<glyph unicode="&#x48f;" horiz-adv-x="1159" d="M518 -410h-455v52q70 33 136 49v1214l-136 17v53q66 29 146 51.5t145 22.5h29v-230q43 102 114.5 165t190.5 65q23 0 44.5 -2.5t41.5 -6.5q143 -25 222 -145.5t79 -359.5q0 -186 -67.5 -315.5t-186.5 -190.5l129 -187l-90 -55l-143 205q-31 -8 -61.5 -12.5t-65.5 -4.5 q-72 0 -115 9.5t-92 31.5v-325q33 -4 65.5 -15.5t69.5 -33.5v-52zM627 922q-102 0 -161.5 -64.5t-82.5 -177.5v-569q37 -23 83 -34t120 -11q20 0 39.5 2t36.5 8l-127 184l83 59l130 -188q61 61 96 165.5t35 238.5q0 84 -13.5 154.5t-43 122.5t-77.5 81t-118 29z" />
<glyph unicode="&#x490;" horiz-adv-x="1036" d="M424 109q100 -16 197 -50v-59h-562v59q82 33 168 50v1214q-41 8 -84 21.5t-84 29.5v60h779l108 278h53q6 -43 9.5 -93t4.5 -102l2 -102q1 -49 1 -88h-592v-1218z" />
<glyph unicode="&#x491;" horiz-adv-x="839" d="M674 1024q2 2 2 8l90 240h53q10 -86 15.5 -172t7.5 -166h-443v-834q117 -23 185 -49v-51h-504v51q35 20 67.5 30.5t67.5 18.5v824q-76 12 -135 47v53h594z" />
<glyph unicode="&#x492;" horiz-adv-x="1112" d="M80 782h182v541q-41 8 -84 21.5t-84 29.5v60h959q0 -41 -2 -95l-4 -110q-2 -57 -6.5 -111.5t-10.5 -97.5h-53l-107 307h-411v-545h307v-106h-307v-567q100 -16 196 -50v-59h-561v59q82 33 168 50v567h-182v106z" />
<glyph unicode="&#x493;" horiz-adv-x="880" d="M844 1024q-2 -80 -7.5 -166t-17.5 -170h-53l-90 246h-277v-379h230v-106h-230v-349q117 -23 185 -49v-51h-504v51q35 20 67.5 30.5t67.5 18.5v349h-152v106h152v369q-76 12 -135 47v53h764z" />
<glyph unicode="&#x494;" horiz-adv-x="1249" d="M424 754q55 31 139 61.5t201 30.5q96 0 172 -23.5t128 -78t78.5 -139.5t26.5 -208q0 -145 -19.5 -255.5t-70.5 -187.5t-138 -122t-224 -57l-12 55q94 33 148 81t82 114.5t34 153.5t4 200q-4 184 -64.5 272t-201.5 88q-86 0 -156 -24.5t-127 -59.5v-546q104 -16 192 -50 v-59h-557v59q84 35 168 50v1214q-41 8 -84 21.5t-84 29.5v60h959q0 -41 -1 -94.5t-4 -108.5t-7.5 -110.5t-10.5 -98.5h-53l-106 305h-412v-573z" />
<glyph unicode="&#x495;" horiz-adv-x="1122" d="M844 1024q-2 -80 -7.5 -163t-15.5 -167h-53l-92 240h-277v-479q49 53 117 85.5t170 32.5q139 0 216 -77.5t77 -210.5v-283q0 -127 -24.5 -210t-70.5 -131t-114 -69.5t-156 -25.5l-10 57q55 16 92 39t58.5 64t31 106.5t9.5 169.5v242q0 96 -42 154.5t-139 58.5 q-57 0 -111 -17.5t-104 -46.5v-293q113 -18 181 -49v-51h-500v51q35 20 67.5 30.5t67.5 18.5v824q-76 12 -135 47v53h764z" />
<glyph unicode="&#x496;" horiz-adv-x="2007" d="M868 1323q-43 12 -79.5 24.5t-65.5 26.5v60h473v-60q-45 -23 -131 -51v-567l139 28l344 539q-41 12 -77 26l-70 25v60h450v-60q-37 -16 -75.5 -28.5t-77.5 -22.5l-373 -545l111 -150l124 -172l135 -180q71 -90 144 -170h160q0 -41 -4 -95t-10.5 -112.5t-13.5 -112.5 t-15 -95h-51l-86 309h-136l-69 51q-121 141 -220 304l-210 331h-119v-577q35 -10 67.5 -21.5t63.5 -28.5v-59h-475v59q61 33 147 50v596l-123 -31l-204 -325q-94 -157 -215 -298l-70 -51h-256v51l96 49q76 82 148 170l137 174l123 167l104 149l-385 563q-84 25 -145 51v60 h452v-60q-29 -14 -63.5 -27.5t-75.5 -23.5l346 -551h131v551z" />
<glyph unicode="&#x497;" horiz-adv-x="1531" d="M1204 47q-35 47 -76 110l-78 126l-72 117l-52 85h-99v-385q63 -16 123 -49v-51h-411v51l56.5 26.5t57.5 22.5v398l-110 -21q-18 -29 -49 -84l-68 -119l-76 -124q-39 -61 -76 -103l-61 -47h-213v51l94 49q51 59 100 125l91 127l80 116q37 54 65 91q-78 88 -150.5 179 t-138.5 184q-53 12 -102 49v53h354v-53q-39 -29 -102 -49q55 -98 121 -186l137 -185h104v371q-68 14 -114 49v53h397v-53q-20 -16 -46 -28.5t-63 -20.5v-383l113 20l130 181q58 83 116 182q-29 10 -53.5 20t-49.5 29v53h355v-53q-35 -25 -117 -49l-136 -177l-138 -172 l69 -94l92 -124l103 -136l102 -131h119q-4 -98 -9 -195.5t-14 -195.5h-51l-92 303h-104z" />
<glyph unicode="&#x498;" horiz-adv-x="1134" d="M1028 408q0 -96 -32.5 -170t-90 -126.5t-134.5 -84t-163 -43.5q-25 -184 -67 -375h-54l-32 185l-31 183q-96 6 -180 28t-142 50q0 33 4.5 75t11.5 88t16 92t20 87h53l86 -286q12 -6 34.5 -11.5t50.5 -10.5t57.5 -7t56.5 -2q76 0 138 24.5t107 67.5t69.5 100.5t24.5 124.5 q0 82 -25.5 137.5t-68.5 89t-99 48t-118 14.5l-158 -22q-14 63 -2 118h66q35 0 84 3t82 8q94 33 144 105.5t50 170.5q0 135 -76.5 209t-211.5 74q-68 0 -108 -11.5t-54 -27.5l-107 -250h-53q-10 55 -17 141t-5 170q31 25 74.5 40.5t91 25.5t97.5 14t93 4q82 0 166 -14 t152.5 -54t111.5 -109t43 -175q0 -104 -60.5 -195.5t-191.5 -142.5v-8q61 -10 115.5 -36t94.5 -68t63.5 -103t23.5 -145z" />
<glyph unicode="&#x499;" horiz-adv-x="970" d="M420 72q63 0 109 20.5t75 53t43.5 74.5t14.5 85q0 98 -42 133t-114 47l-193 -30q-8 27 -9 55.5t9 54.5h209q18 8 38 25.5t37 43t28.5 60.5t11.5 78q0 98 -54.5 142t-142.5 44q-41 0 -74.5 -5t-43.5 -9l-93 -231h-51q-23 68 -33 135t-12 133q41 23 125 45.5t215 22.5 q166 0 257 -60.5t91 -179.5q0 -49 -20.5 -90t-52 -74t-71.5 -55.5t-79 -34.5q113 -10 188.5 -72.5t75.5 -177.5q0 -143 -88 -225t-235 -98q-12 -92 -24.5 -174t-35.5 -177h-53q-18 94 -32 176l-27 173q-88 10 -157 41.5t-116 76.5l37 138h41q27 -29 59 -69l66 -79 q43 -16 123 -16z" />
<glyph unicode="&#x49a;" horiz-adv-x="1384" d="M782 1434h453v-60q-41 -18 -80 -30.5t-76 -20.5l-411 -545l115 -150l138 -172l149 -180l151 -172h155q0 -41 -4 -95t-10 -111.5t-13.5 -111.5t-15.5 -95h-51l-86 309h-129l-70 49q-121 141 -240 305l-233 332h-100v-577q94 -16 154 -50v-59h-519v59q82 33 168 50v1214 q-92 12 -168 51v60h519v-60q-33 -14 -72 -27.5t-82 -23.5v-567l123 28l383 539q-41 10 -78 22.5t-70 28.5v60z" />
<glyph unicode="&#x49b;" horiz-adv-x="1134" d="M803 47q-92 111 -168 221l-154 217h-82v-385q41 -10 75 -21t58 -28v-51h-452v51q55 33 135 49v822q-72 14 -135 49v53h420v-53q-20 -14 -44 -26.5t-57 -22.5v-383l95 20l155 176q74 82 137 178l-64 28q-30 13 -56 30v53h395v-53q-20 -16 -54 -28.5l-83 -29.5l-148 -170 q-78 -86 -164 -172l98 -110l105 -127l108 -129l103 -117h111q-4 -98 -11 -196l-12 -195h-53l-92 303h-101z" />
<glyph unicode="&#x49c;" horiz-adv-x="1460" d="M922 1434h450v-60q-41 -18 -80 -30.5t-75 -20.5l-410 -543l117 -151l138 -174l149 -182l151 -173l98 -49v-51h-256l-69 49q-121 141 -240 307l-229 334h-41v-317h-105v317h-96v-581q94 -16 154 -50v-59h-519v59q82 33 168 50v1214q-92 12 -168 51v60h519v-60 q-33 -14 -72 -27.5t-82 -23.5v-569l96 10v330h105v-320l61 8l383 541q-41 10 -78 22.5t-69 28.5v60z" />
<glyph unicode="&#x49d;" horiz-adv-x="1294" d="M852 1024h395v-53q-20 -16 -56 -31.5t-81 -26.5l-147 -170q-78 -86 -164 -172l95 -108l101 -123l103 -125l100 -115l96 -49v-51h-239l-66 47q-92 111 -168 221l-153 217h-50v-256h-98v256h-121v-385q41 -10 75 -21t58 -28v-51h-452v51q55 33 135 49v822q-72 14 -135 49 v53h420v-53q-20 -14 -44 -26.5t-57 -22.5v-383l121 8v284h98v-276l62 4l156 176q74 82 137 178l-65 28q-30 13 -56 30v53z" />
<glyph unicode="&#x49e;" horiz-adv-x="1368" d="M20 1190h254v133q-96 12 -168 51v60h519v-60q-33 -14 -72 -27.5t-82 -23.5v-133h225v-98h-225v-336l133 28l381 539q-41 10 -77 22.5t-70 28.5v60h452v-60q-41 -18 -81 -30.5t-76 -20.5l-408 -543l116 -151l135 -174l145 -182l149 -173l98 -49v-51h-256l-70 49 q-121 141 -235 305l-225 332h-111v-577q94 -16 154 -50v-59h-519v59q82 33 168 50v983h-254v98z" />
<glyph unicode="&#x49f;" horiz-adv-x="1056" d="M6 1276h178v121l-155 16v53q57 27 137 43l151 31h52v-264h321v-107h-321v-608h53l72 82l77 93l76 95l68 91q-51 14 -101 49v53h396v-53q-39 -16 -77 -28.5t-79 -20.5q-31 -41 -71 -88l-81 -95l-78 -88l-65 -67l75 -100l95 -124l106 -133q54 -68 107 -127l115 -49v-51 h-254l-55 49q-109 135 -181 241l-131 197l-67 21v-408q68 -12 133 -49v-51h-453v51q68 33 135 49v1069h-178v107z" />
<glyph unicode="&#x4a0;" horiz-adv-x="1560" d="M1020 1434h453v-60q-41 -18 -81 -30.5t-77 -20.5l-410 -543l118 -151l139 -174l150 -182l150 -173l99 -49v-51h-256l-70 49q-121 141 -241 305t-230 332h-102v-577q92 -16 155 -50v-59h-520v59q82 33 168 50v1218h-264l-105 -289h-53q-6 43 -10 95.5t-6 105.5l-4 103 q-2 50 -3 92h797v-60q-35 -14 -73.5 -27.5t-81.5 -23.5v-567l122 28l383 539q-41 10 -76.5 22.5t-70.5 28.5v60z" />
<glyph unicode="&#x4a1;" horiz-adv-x="1251" d="M645 1024v-53q-41 -29 -102 -49v-383l94 20l155 170q77 88 140 184l-66 28q-31 13 -57 30v53h395v-53q-20 -16 -53 -28.5t-82 -29.5l-148 -170l-165 -172l95 -108l102 -123l104 -125l100 -115l94 -49v-51h-237l-66 47q-92 111 -169 221l-154 217h-82v-385q84 -18 133 -49 v-51h-453v51q55 33 135 49v834h-161l-91 -225h-51q-10 78 -16 157.5t-8 157.5h614z" />
<glyph unicode="&#x4a2;" horiz-adv-x="1521" d="M578 0h-519v59q82 33 168 50v1214q-96 14 -168 51v60h519v-60q-35 -18 -74 -30.5t-80 -20.5v-535h643v535q-43 10 -81 22.5t-73 28.5v60h519v-60q-37 -20 -81 -31.5t-87 -19.5v-1217h225q0 -41 -4 -95t-10.5 -112.5t-13.5 -112.5t-13 -95h-53l-86 309h-396v59 q74 33 154 50v573h-643v-573q41 -8 80 -20.5t74 -29.5v-59z" />
<glyph unicode="&#x4a3;" horiz-adv-x="1255" d="M520 0h-440v51q29 16 63.5 27.5t71.5 21.5v822q-37 10 -71.5 21t-63.5 28v53h440v-53q-47 -29 -121 -49v-359h455v359q-72 12 -123 49v53h443v-53q-55 -35 -136 -49v-834h162q-4 -98 -9 -195.5t-13 -195.5h-52l-92 303h-303v51q51 37 123 49v373h-455v-373q41 -8 70 -20 t51 -29v-51z" />
<glyph unicode="&#x4a4;" horiz-adv-x="1878" d="M1264 109q106 -16 196 -50v-59h-547v59q35 18 77 25.5t77 24.5v573h-643v-573q41 -8 80 -20.5t74 -29.5v-59h-519v59q82 33 168 50v1214q-96 14 -168 51v60h519v-60q-35 -18 -74 -30.5t-80 -20.5v-535h643v535q-16 2 -38.5 7t-45 12.5l-42 14.5t-28.5 17v60h945 q0 -41 -1.5 -94.5t-4.5 -110.5l-6 -112q-3 -54 -9 -97h-53l-107 307h-413v-1218z" />
<glyph unicode="&#x4a5;" horiz-adv-x="1521" d="M731 0v51q51 37 123 49v373h-455v-373q41 -8 70 -20t51 -29v-51h-440v51q29 16 63.5 27.5t71.5 21.5v822q-37 10 -71.5 21t-63.5 28v53h440v-53q-47 -29 -121 -49v-359h455v359q-72 12 -123 49v53h752q-2 -80 -7.5 -166t-17.5 -170h-53l-90 246h-277v-834 q117 -23 185 -49v-51h-492z" />
<glyph unicode="&#x4a6;" horiz-adv-x="2068" d="M578 0h-519v59q31 16 72 28.5t96 21.5v1214q-41 8 -84 21.5t-84 29.5v60h1352v-60q-39 -20 -82 -31.5t-86 -19.5v-569q55 31 139 61.5t201 30.5q96 0 172 -23.5t128 -78t79 -139.5t27 -208q0 -145 -19.5 -255.5t-71 -187.5t-138.5 -122t-224 -57l-12 55q92 33 147 81 t83 114.5t34 153.5t4 200q-4 182 -65.5 271t-198.5 89q-86 0 -157 -24.5t-128 -59.5v-546q84 -10 166 -50v-59h-516v59q45 29 154 50v1218h-623v-1218q80 -16 154 -50v-59z" />
<glyph unicode="&#x4a7;" horiz-adv-x="1785" d="M1495 233q0 160 -45 250t-164 90q-102 0 -161.5 -56t-88.5 -138v-279q70 -12 135 -49v-51h-440v51q20 14 48 26.5t73 22.5v834h-453v-834q41 -12 70 -24.5t51 -24.5v-51h-440v51q39 23 71.5 34t63.5 15v822q-43 10 -78 22t-57 27v53h1091v-53q-27 -16 -59.5 -30.5 t-75.5 -18.5v-430q18 39 46 76.5t66 66.5t85 47t102 18q84 0 148.5 -20.5t107.5 -69.5t65.5 -132t22.5 -210v-205q0 -256 -96 -371.5t-272 -125.5l-11 57q55 16 92.5 48t61 84t32.5 128t9 180v170z" />
<glyph unicode="&#x4a8;" horiz-adv-x="1730" d="M1591 129q-23 -68 -89 -111t-169 -43q-72 0 -139.5 24t-106.5 52q-31 -27 -101.5 -51.5t-162.5 -24.5q-158 0 -290 55.5t-226 155t-146 235.5t-52 296q0 150 44 284t124.5 235t196.5 161.5t259 60.5q66 0 116 -22.5t73 -61.5l-17 -37q-18 8 -51 11.5t-49 3.5 q-113 0 -201 -49.5t-149.5 -135.5t-94 -201.5t-32.5 -250.5q0 -131 37.5 -247t108.5 -202t173.5 -135t231.5 -49q41 0 63.5 3t50.5 17q-66 33 -129 91.5t-113.5 139.5t-81 181t-30.5 219q0 131 41 244t110.5 194.5t161.5 128t193 46.5q90 0 176 -38t153.5 -115t108.5 -191.5 t41 -270.5q0 -123 -41 -226.5t-101.5 -183t-130 -134t-128.5 -78.5q20 -10 54 -19.5t66 -9.5q72 0 124.5 18.5t99.5 59.5zM858 717q0 -100 22.5 -187.5t59.5 -158t85 -124.5t99 -89q63 35 115.5 94t89.5 135t56.5 165t19.5 185q0 109 -15.5 201t-47 158.5t-80 104.5 t-113.5 38q-76 0 -131 -41t-90 -111.5t-52.5 -165.5t-17.5 -204z" />
<glyph unicode="&#x4a9;" horiz-adv-x="1349" d="M1290 66q-10 -25 -29.5 -42.5t-43 -27.5t-49 -15.5t-46.5 -5.5q-59 0 -122.5 11.5t-98.5 38.5q-53 -25 -116.5 -37.5t-116.5 -12.5q-123 0 -230.5 38t-185.5 109t-123 170t-45 220q0 111 38 208t103.5 171t153.5 116t188 42q63 0 106.5 -20.5t43.5 -67.5l-10 -15 q-23 6 -51.5 9t-51.5 3q-74 -2 -133 -34.5t-100 -91t-63.5 -140.5t-22.5 -180q0 -92 29.5 -174t83 -142.5t127 -95t161.5 -34.5q35 0 74 3t55 9q-59 16 -113.5 57t-95.5 97.5t-64.5 123t-23.5 133.5q0 119 34 203t89 137.5t127 79t147 25.5q59 0 124 -23.5t118 -74t87 -129 t34 -189.5q0 -78 -27.5 -150.5t-70.5 -131t-95.5 -100.5t-103.5 -60q14 -4 36.5 -7t48.5 -5.5t49 -2.5h40q68 0 121 29zM715 496q0 -129 45 -230.5t131 -150.5q37 20 71.5 59t61.5 93.5t42 122t15 145.5q0 57 -9 113.5t-30.5 99.5t-55.5 69.5t-85 26.5q-92 0 -139 -97 t-47 -251z" />
<glyph unicode="&#x4aa;" horiz-adv-x="1318" d="M1120 373h54q10 -57 18 -144.5t4 -169.5q-57 -45 -148.5 -62t-177.5 -22q-10 -90 -26.5 -181t-38.5 -185h-53q-18 96 -34 190l-32 187q-274 35 -425.5 212t-151.5 519q0 201 55 341t149.5 229t219 130t262.5 41q135 0 227 -17.5t162 -51.5q0 -33 -2 -77t-6.5 -93.5 t-10.5 -96.5t-12 -86h-53l-107 295q-23 12 -75 16.5t-103 4.5q-102 0 -193.5 -38t-160 -117t-109.5 -198.5t-41 -281.5q0 -145 37 -263t106.5 -201t170 -127t227.5 -44q68 0 113 10t59 27z" />
<glyph unicode="&#x4ab;" horiz-adv-x="954" d="M874 143q-35 -66 -105.5 -110.5t-168.5 -55.5q-12 -90 -24.5 -170.5t-34.5 -175.5h-54q-18 98 -31 183l-28 176q-174 39 -259 176t-85 346q0 260 127 398.5t346 138.5q100 0 179 -17.5t134 -46.5q-6 -68 -22.5 -151.5t-40.5 -139.5h-55l-86 244q-14 10 -33 15t-62 5 q-139 0 -214.5 -101t-75.5 -343q0 -78 21.5 -151.5t65.5 -132t110.5 -93.5t154.5 -35q72 0 125 20.5t90 49.5z" />
<glyph unicode="&#x4ac;" horiz-adv-x="1267" d="M346 59q45 16 91 28.5t100 21.5v1218h-314l-108 -293h-52q-6 41 -10 93.5t-7 106.5t-5 106.5t-2 93.5h1190q0 -41 -2 -92.5t-5 -105.5l-7 -107q-3 -52 -9 -95h-53l-106 293h-314v-1221h225q0 -41 -4 -95t-10 -112.5t-13 -112.5t-16 -95h-51l-86 309h-432v59z" />
<glyph unicode="&#x4ad;" horiz-adv-x="1017" d="M281 51q63 33 135 49v834h-191l-90 -246h-53q-10 88 -16.5 173t-8.5 163h901q-2 -74 -7 -161t-15 -175h-53l-90 246h-193v-844h180q-4 -98 -10 -196l-12 -197h-51l-93 303h-333v51z" />
<glyph unicode="&#x4ae;" horiz-adv-x="1318" d="M868 1434h451v-60q-78 -39 -156 -51l-387 -713v-501q80 -10 156 -50v-59h-520v59q74 37 168 50v499l-414 715q-47 8 -87 21.5t-79 29.5v60h543v-60q-31 -12 -70 -25.5t-88 -25.5l336 -602l315 602q-47 10 -89 23.5t-79 27.5v60z" />
<glyph unicode="&#x4af;" horiz-adv-x="1038" d="M756 -410h-455v52q31 16 63.5 27.5t71.5 21.5v397l-348 834q-59 20 -108 49v53h428v-51l-54.5 -27.5t-62.5 -23.5l237 -617l41 -133h4l33 135l217 615q-33 8 -60.5 20t-51.5 29v53h348v-53q-20 -14 -50 -26.5t-67 -22.5l-321 -830v-401q41 -10 73.5 -21.5t61.5 -27.5v-52 z" />
<glyph unicode="&#x4b0;" horiz-adv-x="1318" d="M870 1434h449v-60q-78 -39 -156 -51l-387 -713h297v-106h-297v-395q80 -10 156 -50v-59h-520v59q74 37 168 50v395h-297v106h295l-412 713q-47 8 -87 21.5t-79 29.5v60h543v-60q-31 -12 -70 -25.5t-88 -25.5l336 -602l315 602q-47 10 -89 23.5t-77 27.5v60z" />
<glyph unicode="&#x4b1;" horiz-adv-x="1038" d="M186 106h244l-342 816q-59 20 -108 49v53h428v-51l-54.5 -27.5t-62.5 -23.5l186 -486l88 -264h4l82 266l172 484q-33 8 -60.5 20t-51.5 29v53h348v-53q-20 -14 -50 -26.5t-67 -22.5l-317 -816h247v-106h-249l-2 -309q41 -10 73.5 -21.5t61.5 -27.5v-52h-455v52 q31 16 63.5 27.5t71.5 21.5v309h-250v106z" />
<glyph unicode="&#x4b2;" horiz-adv-x="1404" d="M809 59q74 37 154 50l-324 514l-311 -517q43 -6 85 -15t81 -32v-59h-474v59q39 20 77 30.5t75 19.5l401 612l-385 602l-80 25q-40 12 -81 26v60h542v-60l-70.5 -24.5t-86.5 -26.5l286 -463l279 463q-80 18 -168 51v60h471v-60q-35 -14 -74 -27.5t-80 -23.5l-360 -555 l426 -662h205q0 -41 -4 -95t-10.5 -112.5t-13.5 -112.5t-13 -95h-53l-86 309h-408v59z" />
<glyph unicode="&#x4b3;" horiz-adv-x="1062" d="M623 49l53 30q25 13 49 21l-227 338l-230 -338q29 -10 53.5 -22t49.5 -27v-51h-351v51q57 35 115 49l305 408l-307 414q-29 10 -52.5 21t-47.5 28v53h411v-51l-48 -29.5t-52 -21.5l213 -308l209 308q-70 23 -102 49v53h342v-53q-39 -27 -115 -49l-281 -373l332 -461h150 q-4 -98 -9.5 -195.5t-13.5 -195.5h-51l-92 303h-303v49z" />
<glyph unicode="&#x4b4;" horiz-adv-x="1812" d="M346 0v59q45 16 90 28.5t101 21.5v1218h-314l-108 -293h-52q-6 41 -10 93.5t-7 106.5t-5 106.5t-2 93.5h1081q0 -41 -2 -92.5t-5 -105.5l-6 -107q-3 -52 -9 -95h-54l-106 293h-207v-1221h619v1217q-37 10 -69 21.5t-62 29.5v60h495v-60q-41 -16 -83 -29.5t-85 -21.5 v-1217h236q-2 -41 -6 -95t-10.5 -112.5t-13.5 -112.5t-13 -95h-53l-87 309h-1253z" />
<glyph unicode="&#x4b5;" horiz-adv-x="1587" d="M600 90h561v832q-29 6 -58.5 19t-62.5 30v53h441v-53q-27 -14 -59.5 -26.5t-75.5 -22.5v-832h182q-4 -98 -9.5 -196.5t-13.5 -196.5h-51l-92 303h-1081v51q55 33 135 49v834h-191l-90 -246h-53q-10 88 -16.5 173t-8.5 163h899q-2 -74 -7 -161t-15 -175h-53l-90 246h-191 v-844z" />
<glyph unicode="&#x4b6;" horiz-adv-x="1366" d="M723 59q49 23 95 34t93 16v526q-55 -31 -146 -61.5t-208 -30.5q-86 0 -157.5 16t-124 59.5t-81 117t-28.5 188.5v399q-37 6 -74 19.5t-74 31.5v60h480v-60q-29 -14 -62 -27.5t-74 -23.5v-360q0 -143 58.5 -228.5t193.5 -85.5q86 0 164 24.5t133 59.5v590 q-37 10 -73.5 23.5l-71.5 27.5v60h477v-60q-29 -14 -62.5 -27.5t-72.5 -23.5v-1217h227q0 -41 -4 -95t-10 -112.5t-13.5 -112.5t-15.5 -95h-51l-86 309h-432v59z" />
<glyph unicode="&#x4b7;" horiz-adv-x="1142" d="M580 51q84 35 163 49v367q-49 -53 -116.5 -87t-169.5 -34q-139 0 -215 78t-76 211v287q-78 14 -135 49v53h440v-53q-20 -14 -51 -27.5t-70 -21.5v-246q0 -96 41 -154.5t137 -58.5q57 0 111.5 17.5t103.5 45.5v396q-61 12 -120 49v53h440v-53q-55 -35 -135 -49v-834h170 q-4 -98 -11 -196l-12 -195h-53l-92 303h-350v51z" />
<glyph unicode="&#x4b8;" horiz-adv-x="1359" d="M623 545q-12 -2 -25 -2h-27q-86 0 -159.5 16t-128 59.5t-86 117t-31.5 188.5v399q-37 6 -74 19.5t-74 31.5v60h498v-60q-29 -14 -71 -27.5t-83 -23.5v-360q0 -141 65 -226.5t196 -87.5v314h106v-308q68 10 133.5 32t106.5 46v590q-37 10 -74 23.5l-72 27.5v60h477v-60 q-29 -14 -62.5 -27.5t-72.5 -23.5v-1214q41 -8 74 -20.5t61 -29.5v-59h-520v59q49 23 95.5 34t93.5 16v526q-37 -23 -100.5 -43.5t-139.5 -34.5v-295h-106v283z" />
<glyph unicode="&#x4b9;" horiz-adv-x="1269" d="M578 348q-16 -2 -30 -2h-28q-100 0 -167.5 20.5t-109.5 58.5t-59.5 91t-17.5 119v287q-78 14 -135 49v53h440v-53q-20 -14 -51 -27.5t-70 -21.5v-246q0 -94 49.5 -151.5t178.5 -61.5v328h96v-322q53 8 107.5 22.5t88.5 34.5v396q-66 12 -122 49v53h442v-53 q-55 -35 -135 -49v-822q41 -10 73.5 -21t61.5 -28v-51h-483v51q84 35 163 49v367q-33 -35 -84 -59.5t-112 -40.5v-179h-96v160z" />
<glyph unicode="&#x4ba;" horiz-adv-x="1302" d="M60.0762 1434h519.968v-58.9961q-48.9971 -22.999 -94.9941 -33.998q-45.9971 -11 -92.9941 -15.999v-525.968q54.9971 30.998 145.991 61.4961t207.987 30.498q85.9941 0 157.49 -15.999q71.4951 -15.999 123.992 -59.4961q52.4971 -43.498 80.9951 -116.993 t28.498 -188.488v-398.976q36.998 -6 73.9961 -19.499q36.9971 -13.499 73.9951 -31.498v-59.9961h-479.971v59.9961q28.998 13.999 61.9961 27.498t73.9961 23.499v359.978q0 142.991 -58.4971 228.486q-58.4961 85.4951 -193.488 85.4951q-85.9941 0 -163.989 -24.499 q-77.9951 -24.498 -132.992 -59.4961v-589.964q36.998 -10 73.4951 -23.499l71.4961 -27.498v-59.9961h-476.971v59.9961q28.998 13.999 62.4961 27.498t72.4951 23.499v1213.93q-40.9971 7.99902 -74.9951 20.499q-33.998 12.499 -59.9961 29.498v58.9961z" />
<glyph unicode="&#x4bb;" horiz-adv-x="1202" d="M1167 0h-442v51q49 27 123 49v480q0 160 -45 251t-164 91q-53 0 -96 -19.5t-78 -50.5t-59.5 -71t-36.5 -83v-598q33 -8 62.5 -18t57.5 -31v-51h-440v51q63 33 135 49v1297l-155 16v53q59 25 138 43.5t150 30.5h52v-723h2q43 96 123.5 164t195.5 68q82 0 146.5 -19.5 t107.5 -69t65.5 -132.5t22.5 -210v-518q35 -8 70 -18t65 -31v-51z" />
<glyph unicode="&#x4bc;" horiz-adv-x="1671" d="M979 1458q131 0 238.5 -38t184.5 -114.5t119 -191.5t42 -268q0 -53 -3.5 -87t-9.5 -67h-1013q0 -143 43 -251.5t116.5 -180.5t169 -108.5t196.5 -37.5t203.5 30.5t188.5 97.5l21 -43q-82 -117 -206 -170.5t-243 -53.5q-145 0 -270 45.5t-217.5 135.5t-146.5 224t-58 312 q-84 2 -146.5 26.5t-104.5 66.5t-63.5 95.5t-21.5 110.5q0 43 15.5 99.5t52.5 97.5q47 0 104 -20.5t98 -47.5l17 -33l-168 -161q23 -66 84 -95.5t135 -31.5q12 162 67.5 285.5t142.5 206.5t198.5 125t234.5 42zM981 1352q-96 0 -175 -38t-136.5 -108.5t-92 -173 t-40.5 -233.5h819q2 23 3 43t1 41q0 104 -28.5 190t-79 147.5t-120 96.5t-151.5 35z" />
<glyph unicode="&#x4bd;" horiz-adv-x="1236" d="M1122 143q-16 -35 -51 -65.5t-81 -53t-99 -36t-109 -13.5q-121 0 -212 38t-153.5 109t-94 169t-31.5 221q-152 4 -221.5 75.5t-69.5 176.5q0 94 63 168q45 4 89.5 -22.5t62.5 -59.5q4 -6 7 -12.5t5 -12.5l-123 -116q6 -29 26 -48.5t46.5 -32t58 -18.5t60.5 -8 q23 217 140.5 332t318.5 115q72 0 141.5 -19.5t123.5 -63.5t88 -119t34 -185q0 -72 -15 -150h-639q0 -86 21.5 -161t64.5 -130t109 -87t156 -32q33 0 69.5 5.5t72.5 15.5t64.5 23.5t47.5 29.5zM745 958q-115 0 -176 -78.5t-73 -277.5h448q2 18 3 35.5t1 34.5 q0 131 -49.5 208.5t-153.5 77.5z" />
<glyph unicode="&#x4be;" horiz-adv-x="1671" d="M893 -14q-33 4 -63.5 13l-61.5 19q-96 31 -175 89.5t-135.5 143.5t-89 195.5t-34.5 245.5q-84 2 -146.5 26.5t-104.5 66.5t-63.5 95.5t-21.5 110.5q0 43 15.5 99.5t52.5 97.5q47 0 104 -20.5t98 -47.5l17 -33l-168 -161q23 -66 84 -95.5t135 -31.5q12 162 67.5 285.5 t142.5 206.5t198.5 125t234.5 42q131 0 238.5 -38t184.5 -114.5t119 -191.5t42 -268q0 -53 -3.5 -87t-9.5 -67h-1013q0 -143 43 -251.5t116.5 -180.5t169 -108.5t196.5 -37.5t203.5 30.5t188.5 97.5l21 -43q-74 -104 -179.5 -157.5t-216.5 -64.5q-12 -92 -27.5 -183 t-37.5 -185h-53q-20 96 -36 190zM981 1352q-96 0 -175 -38t-136.5 -108.5t-92 -173t-40.5 -233.5h819q2 23 3 43t1 41q0 104 -28.5 190t-79 147.5t-120 96.5t-151.5 35z" />
<glyph unicode="&#x4bf;" horiz-adv-x="1236" d="M1122 143q-31 -63 -112.5 -109t-180.5 -57q-10 -90 -22 -170.5t-35 -175.5h-53q-20 98 -33 181l-27 174q-184 35 -275 174t-93 352q-152 4 -221.5 75.5t-69.5 176.5q0 94 63 168q45 4 89.5 -22.5t62.5 -59.5q4 -6 7 -12.5t5 -12.5l-123 -116q6 -29 26 -48.5t46.5 -32 t58 -18.5t60.5 -8q23 217 140.5 332t318.5 115q72 0 141.5 -19.5t123.5 -63.5t88 -119t34 -185q0 -72 -15 -150h-639q0 -86 21.5 -161t64.5 -130t109 -87t156 -32q33 0 69.5 5.5t72.5 15.5t64.5 23.5t47.5 29.5zM745 958q-115 0 -176 -78.5t-73 -277.5h448q2 18 3 34.5 t1 33.5q0 131 -49.5 209.5t-153.5 78.5z" />
<glyph unicode="&#x4c0;" horiz-adv-x="720" d="M623 0h-525v59q80 37 164 50v1214q-41 8 -82 21.5t-82 29.5v60h525v-60q-37 -16 -80 -29.5t-84 -21.5v-1214q43 -8 86 -20.5t78 -29.5v-59z" />
<glyph unicode="&#x4c3;" horiz-adv-x="1323" d="M1030 2q0 74 -24.5 148.5t-64.5 143t-91 131t-104.5 114t-103.5 89.5t-87 58h-131v-577q94 -16 154 -50v-59h-519v59q82 33 168 50v1214q-92 12 -168 51v60h519v-60q-33 -14 -72 -27.5t-82 -23.5v-567l123 28l381 539q-41 10 -77 22.5t-69 28.5v60h451v-60 q-41 -18 -80 -30.5t-76 -20.5l-409 -543q90 -41 188 -118.5t181 -178t136.5 -217t53.5 -235.5q0 -117 -37 -201t-100.5 -140.5t-148.5 -86t-183 -35.5l-13 55q57 12 109.5 38t91.5 71t61.5 110.5t22.5 159.5z" />
<glyph unicode="&#x4c4;" horiz-adv-x="1107" d="M856 -84q0 96 -39 188.5t-96 169t-123 133t-117 78.5h-82v-385q41 -10 75 -21t58 -28v-51h-452v51q55 33 135 49v822q-72 14 -135 49v53h420v-53q-20 -14 -44 -26.5t-57 -22.5v-383l95 20l155 176q74 82 137 178l-64 28q-30 13 -56 30v53h395v-53q-20 -16 -54 -28.5 l-83 -29.5l-148 -170q-78 -86 -164 -172q57 -25 132 -82t140.5 -139t110.5 -184.5t45 -214.5q0 -176 -94 -275.5t-270 -109.5l-10 57q109 33 149.5 103.5t40.5 189.5z" />
<glyph unicode="&#x4c5;" horiz-adv-x="1343" d="M414 1313q-127 20 -209 61v60h1077v-60q-72 -37 -168 -51v-1217h225l17 -18q-8 -39 -30.5 -90t-51.5 -105.5t-61.5 -107.5t-61.5 -92h-55l59 307h-393v59q37 16 76 27.5l80 22.5v1218h-383q-8 -322 -30 -533.5t-54.5 -350t-74.5 -220.5t-91 -145q-41 -53 -100.5 -78 t-114.5 -25q-14 16 -29.5 46t-29 64t-21.5 67.5t-10 60.5l30 51l236 -43q31 51 60.5 135t53 214t39 312.5t15.5 430.5z" />
<glyph unicode="&#x4c6;" horiz-adv-x="1118" d="M209 176q29 49 51.5 131t37.5 180.5t23.5 206t8.5 207.5q-41 12 -75 30.5t-62 39.5v53h837v-53q-66 -37 -135 -49v-832h201l10 -16q-10 -49 -32.5 -106.5t-50.5 -111t-55.5 -96.5t-45.5 -63h-56l56 303h-332v51q49 35 121 49v834h-271q-2 -109 -12 -230.5t-30.5 -239.5 t-53.5 -221.5t-80 -172.5q-39 -59 -84 -83t-84 -16q-31 35 -58.5 91.5t-31.5 103.5l29 51z" />
<glyph unicode="&#x4c7;" horiz-adv-x="1490" d="M578 0h-519v59q82 33 168 50v1214q-96 14 -168 51v60h519v-60q-35 -18 -74 -30.5t-80 -20.5v-535h643v535q-43 10 -81 22.5t-73 28.5v60h519v-60q-37 -20 -81 -31.5t-87 -19.5v-1323q0 -139 -27 -224t-78 -131t-124.5 -61.5t-168.5 -15.5l-12 55q53 12 93 33.5t66.5 63.5 t40 110t13.5 170v682h-643v-573q41 -8 80 -20.5t74 -29.5v-59z" />
<glyph unicode="&#x4c8;" horiz-adv-x="1253" d="M520 0h-440v51q29 16 63.5 27.5t71.5 21.5v822q-37 10 -71.5 21t-63.5 28v53h440v-53q-47 -29 -121 -49v-359h455v359q-72 12 -123 49v53h443v-53q-55 -35 -136 -49v-922q0 -127 -24.5 -209t-70.5 -130t-113.5 -69.5t-155.5 -25.5l-10 57q55 16 92 39t58.5 64t30.5 106.5 t9 169.5v471h-455v-373q41 -8 70 -20t51 -29v-51z" />
<glyph unicode="&#x4c9;" horiz-adv-x="1495" d="M578 0h-519v59q82 33 168 50v1214q-96 14 -168 51v60h519v-60q-35 -18 -74 -30.5t-80 -20.5v-535h643v535q-43 10 -81 22.5t-73 28.5v60h519v-60q-37 -20 -81 -31.5t-87 -19.5v-1217h227l16 -18q-8 -39 -30.5 -90t-51 -105.5t-62.5 -107.5t-63 -92h-55l62 307h-394v59 q74 33 154 50v573h-643v-573q41 -8 80 -20.5t74 -29.5v-59z" />
<glyph unicode="&#x4ca;" horiz-adv-x="1259" d="M520 0h-440v51q29 16 63.5 27.5t71.5 21.5v822q-37 10 -71.5 21t-63.5 28v53h440v-53q-47 -29 -121 -49v-359h455v359q-72 12 -123 49v53h443v-53q-55 -35 -136 -49v-832h185l10 -16q-10 -49 -32.5 -106.5t-50.5 -111t-55.5 -96.5t-45.5 -63h-54l54 303h-318v51 q51 37 123 49v373h-455v-373q41 -8 70 -20t51 -29v-51z" />
<glyph unicode="&#x4cb;" horiz-adv-x="1302" d="M1243 0h-377l-86 -309h-51q-8 41 -15 95t-13.5 112.5t-10.5 113t-4 94.5h225v529q-55 -31 -146 -61.5t-208 -30.5q-86 0 -157.5 16t-124 59.5t-81 117t-28.5 188.5v399q-37 6 -74 19.5t-74 31.5v60h480v-60q-29 -14 -62 -27.5t-74 -23.5v-360q0 -143 58.5 -228.5 t193.5 -85.5q86 0 164 24.5t133 59.5v590q-37 10 -73.5 23.5l-71.5 27.5v60h477v-60q-29 -14 -62.5 -27.5t-72.5 -23.5v-1214q41 -8 75 -20.5t60 -29.5v-59z" />
<glyph unicode="&#x4cc;" horiz-adv-x="1142" d="M31 1024h440v-53q-20 -14 -51 -27.5t-70 -21.5v-246q0 -96 41 -154.5t137 -58.5q57 0 111.5 17.5t103.5 45.5v396q-61 12 -120 49v53h440v-53q-55 -35 -135 -49v-822q41 -10 73.5 -21t61.5 -28v-51h-336l-92 -303h-53l-13 197q-6 98 -10 196h184v377q-49 -53 -116.5 -87 t-169.5 -34q-139 0 -215 78t-76 211v287q-78 14 -135 49v53z" />
<glyph unicode="&#x4cd;" horiz-adv-x="1781" d="M1561 106h223l16 -14q-8 -39 -29.5 -91t-51 -107.5t-62.5 -108.5t-62 -92h-55l59 307h-393v59q41 16 82 27.5l84 22.5v921l8 240h-16l-68 -219l-419 -1051h-54l-399 1051l-74 239h-18l2 -260v-921q39 -8 78 -20.5t77 -29.5v-59h-428v59q39 16 81 29.5t85 22.5v1212 q-43 8 -85 21.5t-83 29.5v60h420l357 -936l69 -211h2l70 215l369 932h370v-60q-37 -16 -75.5 -29.5t-79.5 -21.5v-1217z" />
<glyph unicode="&#x4ce;" horiz-adv-x="1527" d="M424 0h-361v51q68 33 136 49l30 801q-43 16 -75 35l-60 35v53h400l208 -600l39 -141h7l43 143l221 598h387v-53q-27 -16 -59.5 -28.5t-75.5 -20.5l45 -832h190l10 -16q-10 -49 -33.5 -106.5t-51 -111t-55.5 -96.5t-44 -63h-55l55 303h-319v51q20 10 48.5 22.5t73.5 26.5 l-41 830h-16l-336 -930h-57l-330 930h-16l-31 -830q74 -23 123 -49v-51z" />
<glyph unicode="&#x4cf;" horiz-adv-x="622" d="M543 0h-463v51q29 14 68 27l75 22v1231q-39 8 -80 20.5t-63 28.5v54h463v-54q-25 -16 -59.5 -27.5t-75.5 -21.5v-1231q35 -10 67.5 -21t67.5 -28v-51z" />
<glyph unicode="&#x4d0;" horiz-adv-x="1398" d="M455 0h-455v59q74 33 147 50l519 1349h59l518 -1349q41 -8 81 -18.5t75 -31.5v-59h-525v59q41 16 84 28.5t84 21.5l-139 374h-489l-135 -374q86 -12 176 -50v-59zM455 590h413l-161 434l-39 176h-4l-52 -180zM708 1499q-188 0 -275 75t-87 185q23 23 66.5 33t86.5 12 l52 -26v-174q29 -14 70.5 -21.5t88.5 -7.5q35 0 83 6t77 16v181l51 26q31 2 75 -11t71 -34q0 -55 -20.5 -102t-63.5 -82t-111 -55.5t-164 -20.5z" />
</font>
</defs>
</svg>
